<?xml version="1.0" encoding="utf-8"?>
<!-- Generator: Adobe Illustrator 26.0.1, SVG Export Plug-In . SVG Version: 6.00 Build 0)  -->
<svg version="1.1" id="Layer_1" xmlns="http://www.w3.org/2000/svg" xmlns:xlink="http://www.w3.org/1999/xlink" x="0px" y="0px"
	 viewBox="0 0 659.3 587.5" style="enable-background:new 0 0 659.3 587.5;" xml:space="preserve">
<style type="text/css">
	.st0{fill:none;stroke:url(#SVGID_1_);stroke-width:5;stroke-miterlimit:10;}
	.st1{fill:none;stroke:url(#SVGID_00000027593313317488377400000017832052126306875043_);stroke-width:5;stroke-miterlimit:10;}
</style>
<g>
	
		<linearGradient id="SVGID_1_" gradientUnits="userSpaceOnUse" x1="283.1875" y1="404.0545" x2="493.8125" y2="404.0545" gradientTransform="matrix(1 0 0 -1 0 590)">
		<stop  offset="0" style="stop-color:#0193F4"/>
		<stop  offset="1" style="stop-color:#96F254"/>
	</linearGradient>
	<path class="st0" d="M450.3,85.4L287.9,247.8c-2.9,2.8-2.9,7.4,0,10.3c0.1,0.1,0.1,0.1,0.2,0.2c50.8,44.6,128.1,39.6,172.8-11.2
		c40.6-46.2,40.6-115.4,0-161.6c-2.7-2.9-7.3-3.1-10.3-0.4C450.4,85.2,450.3,85.3,450.3,85.4z"/>
	
		<linearGradient id="SVGID_00000062156519511450192670000013426364498973017270_" gradientUnits="userSpaceOnUse" x1="165.4875" y1="188.596" x2="376.3375" y2="188.596" gradientTransform="matrix(1 0 0 -1 0 590)">
		<stop  offset="0" style="stop-color:#0193F4"/>
		<stop  offset="1" style="stop-color:#96F254"/>
	</linearGradient>
	
		<path style="fill:none;stroke:url(#SVGID_00000062156519511450192670000013426364498973017270_);stroke-width:5;stroke-miterlimit:10;" d="
		M209.3,502.2l162.4-162.5c2.9-2.8,2.9-7.4,0-10.3c-0.1-0.1-0.1-0.1-0.2-0.2c-50.7-44.8-128-40-172.8,10.7
		c-40.9,46.3-40.9,115.8,0,162.1c2.7,3,7.4,3.1,10.3,0.4C209.2,502.3,209.2,502.3,209.3,502.2z"/>
</g>
</svg>
