<?xml version="1.0" encoding="utf-8"?>
<!-- Generator: Adobe Illustrator 26.0.1, SVG Export Plug-In . SVG Version: 6.00 Build 0)  -->
<svg version="1.1" id="Layer_1" xmlns="http://www.w3.org/2000/svg" xmlns:xlink="http://www.w3.org/1999/xlink" x="0px" y="0px"
	 viewBox="0 0 1920 1080" style="enable-background:new 0 0 1920 1080;" xml:space="preserve">
<style type="text/css">
	.st0{fill:none;stroke:url(#SVGID_1_);stroke-width:5;stroke-miterlimit:10;}
	.st1{fill:none;stroke:url(#SVGID_00000048486277592320529580000002580268836307053212_);stroke-width:5;stroke-miterlimit:10;}
	.st2{fill:none;stroke:url(#SVGID_00000049218252873615448930000007686427708623846785_);stroke-width:5;stroke-miterlimit:10;}
	.st3{fill:none;stroke:url(#SVGID_00000173135281892826176330000004312988033737920648_);stroke-width:5;stroke-miterlimit:10;}
	.st4{fill:none;stroke:url(#SVGID_00000147214395779573116080000018422794213017650325_);stroke-width:5;stroke-miterlimit:10;}
	.st5{fill:none;stroke:url(#SVGID_00000054968544037679816020000001389328631742621321_);stroke-width:5;stroke-miterlimit:10;}
	.st6{fill:none;stroke:url(#SVGID_00000172410692038757080290000009529737141584894137_);stroke-width:5;stroke-miterlimit:10;}
	.st7{fill:none;stroke:url(#SVGID_00000181074149373850602750000014285798498369253822_);stroke-width:5;stroke-miterlimit:10;}
	.st8{fill:none;stroke:url(#SVGID_00000090285844340953473080000008290115121644527018_);stroke-width:5;stroke-miterlimit:10;}
	.st9{fill:none;stroke:url(#SVGID_00000001665471371343327830000013668721689784178874_);stroke-width:5;stroke-miterlimit:10;}
	.st10{fill:none;stroke:url(#SVGID_00000183206526951935255810000005680412045436401798_);stroke-width:5;stroke-miterlimit:10;}
	.st11{fill:none;stroke:url(#SVGID_00000130604945478852125310000011661253661723715477_);stroke-width:5;stroke-miterlimit:10;}
	.st12{fill:none;stroke:url(#SVGID_00000168816539842612635320000018222212341261704330_);stroke-width:5;stroke-miterlimit:10;}
	.st13{fill:none;stroke:url(#SVGID_00000108277998509704624460000016250121395107457184_);stroke-width:5;stroke-miterlimit:10;}
	.st14{fill:none;stroke:url(#SVGID_00000020389217016027057200000003283058092839114167_);stroke-width:5;stroke-miterlimit:10;}
	.st15{fill:none;stroke:url(#SVGID_00000120542079841444919370000001527150052805440433_);stroke-width:5;stroke-miterlimit:10;}
	.st16{fill:none;stroke:url(#SVGID_00000089554419415399378330000010755588973094767254_);stroke-width:5;stroke-miterlimit:10;}
	.st17{fill:none;stroke:url(#SVGID_00000041983623223954634030000007690085954985718402_);stroke-width:5;stroke-miterlimit:10;}
	.st18{fill:none;stroke:url(#SVGID_00000123407029073128436320000004939855977094473912_);stroke-width:5;stroke-miterlimit:10;}
	.st19{fill:none;stroke:url(#SVGID_00000069358005835786495520000017544584432248258737_);stroke-width:5;stroke-miterlimit:10;}
	.st20{fill:none;stroke:url(#SVGID_00000101063554114101265320000016930785918708292793_);stroke-width:5;stroke-miterlimit:10;}
	.st21{fill:none;stroke:url(#SVGID_00000049215910130478803060000012061233121455357316_);stroke-width:5;stroke-miterlimit:10;}
	.st22{fill:none;stroke:url(#SVGID_00000130631480658804184290000001245061341103695032_);stroke-width:5;stroke-miterlimit:10;}
	.st23{fill:none;stroke:url(#SVGID_00000083067640568468172630000016914206164023570102_);stroke-width:5;stroke-miterlimit:10;}
	.st24{fill:none;stroke:url(#SVGID_00000106130881487778524540000013286240860708243347_);stroke-width:5;stroke-miterlimit:10;}
	.st25{fill:none;stroke:url(#SVGID_00000129902901432611348330000006861875542522015137_);stroke-width:5;stroke-miterlimit:10;}
	.st26{fill:none;stroke:url(#SVGID_00000092436988453800601720000010097957436216987267_);stroke-width:5;stroke-miterlimit:10;}
	.st27{fill:none;stroke:url(#SVGID_00000091009504251007142530000011149705647072875402_);stroke-width:5;stroke-miterlimit:10;}
	.st28{fill:none;stroke:url(#SVGID_00000085964055644855819130000017195558341560160700_);stroke-width:5;stroke-miterlimit:10;}
	.st29{fill:none;stroke:url(#SVGID_00000098194400035538042440000004719960725267558578_);stroke-width:5;stroke-miterlimit:10;}
	.st30{fill:none;stroke:url(#SVGID_00000179615320834484084060000017235157114682035134_);stroke-width:5;stroke-miterlimit:10;}
	.st31{fill:none;stroke:url(#SVGID_00000008840017048906966270000012813786728103843992_);stroke-width:5;stroke-miterlimit:10;}
	.st32{fill:none;stroke:url(#SVGID_00000165926218805689351820000010846358802666459019_);stroke-width:5;stroke-miterlimit:10;}
	.st33{fill:none;stroke:url(#SVGID_00000137126009159406959420000007001312631450978720_);stroke-width:5;stroke-miterlimit:10;}
	.st34{fill:none;stroke:url(#SVGID_00000021808801412941924840000004947890105342305948_);stroke-width:5;stroke-miterlimit:10;}
	.st35{fill:none;stroke:url(#SVGID_00000012466702751241005470000002842183803915342254_);stroke-width:5;stroke-miterlimit:10;}
	.st36{fill:none;stroke:url(#SVGID_00000066499164014436425550000003164521247961384362_);stroke-width:5;stroke-miterlimit:10;}
	.st37{fill:none;stroke:url(#SVGID_00000094587158788153065430000001349067083857341350_);stroke-width:5;stroke-miterlimit:10;}
	.st38{fill:none;stroke:url(#SVGID_00000159431765870890755130000006041623066061689015_);stroke-width:5;stroke-miterlimit:10;}
	.st39{fill:none;stroke:url(#SVGID_00000065051753335916280290000003203863197756882358_);stroke-width:5;stroke-miterlimit:10;}
	.st40{fill:none;stroke:url(#SVGID_00000150088954378107457890000007192390523128736958_);stroke-width:5;stroke-miterlimit:10;}
	.st41{fill:none;stroke:url(#SVGID_00000152223985122313323190000017952178421505721762_);stroke-width:5;stroke-miterlimit:10;}
	.st42{fill:none;stroke:url(#SVGID_00000009560986557777775480000017809897883937985709_);stroke-width:5;stroke-miterlimit:10;}
	.st43{fill:none;stroke:url(#SVGID_00000130639136621136537490000002336972028011724421_);stroke-width:5;stroke-miterlimit:10;}
	.st44{fill:none;stroke:url(#SVGID_00000060726832992026596850000013952909847478329264_);stroke-width:5;stroke-miterlimit:10;}
	.st45{fill:none;stroke:url(#SVGID_00000030474810683292260700000001707365430014162090_);stroke-width:5;stroke-miterlimit:10;}
	.st46{fill:none;stroke:url(#SVGID_00000007390285937392783660000005877562103451596222_);stroke-width:5;stroke-miterlimit:10;}
	.st47{fill:none;stroke:url(#SVGID_00000073712543579718151950000017824237765884344236_);stroke-width:5;stroke-miterlimit:10;}
</style>
<g>
	
		<linearGradient id="SVGID_1_" gradientUnits="userSpaceOnUse" x1="1332.5582" y1="133.8106" x2="1463.942" y2="133.8106" gradientTransform="matrix(-0.8102 1.3098 0.9703 0.6002 1269.5612 -1021.5215)">
		<stop  offset="0" style="stop-color:#0193F4"/>
		<stop  offset="1" style="stop-color:#96F254"/>
	</linearGradient>
	<path class="st0" d="M175.4,903c-3.1,1.4-5.3,5.1-4.9,8.4c7.3,49.8,48.6,75.3,96.4,59.7c52.5-17.2,94-77.6,92.7-135
		c0-0.1,0-0.2,0-0.3c-0.3-3.3-3.1-5-6.2-3.8l-177.8,70.8C175.6,902.9,175.5,902.9,175.4,903z"/>
	
		<linearGradient id="SVGID_00000117649813966098672000000009999025413725890231_" gradientUnits="userSpaceOnUse" x1="516.5754" y1="982.4062" x2="647.9592" y2="982.4062" gradientTransform="matrix(0.8102 -1.3098 -0.9703 -0.6002 593.4022 2373.6821)">
		<stop  offset="0" style="stop-color:#0193F4"/>
		<stop  offset="1" style="stop-color:#96F254"/>
	</linearGradient>
	
		<path style="fill:none;stroke:url(#SVGID_00000117649813966098672000000009999025413725890231_);stroke-width:5;stroke-miterlimit:10;" d="
		M203,1008.6c3.1-1.4,5.3-5.1,4.9-8.4c-7.3-49.8-48.6-75.3-96.4-59.7c-52.5,17.2-94,77.6-92.7,135c0,0.1,0,0.2,0,0.3
		c0.3,3.3,3.1,5,6.2,3.8l177.8-70.8C202.9,1008.7,202.9,1008.7,203,1008.6z"/>
</g>
<g>
	
		<linearGradient id="SVGID_00000163760185070924518200000003315642841336674473_" gradientUnits="userSpaceOnUse" x1="1229.6681" y1="358.3457" x2="1361.0518" y2="358.3457" gradientTransform="matrix(-0.8102 1.3098 0.9703 0.6002 1269.5612 -1021.5215)">
		<stop  offset="0" style="stop-color:#0193F4"/>
		<stop  offset="1" style="stop-color:#96F254"/>
	</linearGradient>
	
		<path style="fill:none;stroke:url(#SVGID_00000163760185070924518200000003315642841336674473_);stroke-width:5;stroke-miterlimit:10;" d="
		M476.6,903c-3.1,1.4-5.3,5.1-4.9,8.4c7.3,49.8,48.6,75.3,96.4,59.7c52.5-17.2,94-77.6,92.7-135c0-0.1,0-0.2,0-0.3
		c-0.3-3.3-3.1-5-6.2-3.8l-177.8,70.8C476.8,902.9,476.7,902.9,476.6,903z"/>
	
		<linearGradient id="SVGID_00000103987901237577756210000000759063301452901513_" gradientUnits="userSpaceOnUse" x1="619.4657" y1="757.8712" x2="750.8494" y2="757.8712" gradientTransform="matrix(0.8102 -1.3098 -0.9703 -0.6002 593.4022 2373.6821)">
		<stop  offset="0" style="stop-color:#0193F4"/>
		<stop  offset="1" style="stop-color:#96F254"/>
	</linearGradient>
	
		<path style="fill:none;stroke:url(#SVGID_00000103987901237577756210000000759063301452901513_);stroke-width:5;stroke-miterlimit:10;" d="
		M504.2,1008.6c3.1-1.4,5.3-5.1,4.9-8.4c-7.3-49.8-48.6-75.3-96.4-59.7c-52.5,17.2-94,77.6-92.7,135c0,0.1,0,0.2,0,0.3
		c0.3,3.3,3.1,5,6.2,3.8l177.8-70.8C504.1,1008.7,504.2,1008.7,504.2,1008.6z"/>
</g>
<g>
	
		<linearGradient id="SVGID_00000070831942194160259640000015730256259514728620_" gradientUnits="userSpaceOnUse" x1="1126.7778" y1="582.8807" x2="1258.1615" y2="582.8807" gradientTransform="matrix(-0.8102 1.3098 0.9703 0.6002 1269.5612 -1021.5215)">
		<stop  offset="0" style="stop-color:#0193F4"/>
		<stop  offset="1" style="stop-color:#96F254"/>
	</linearGradient>
	
		<path style="fill:none;stroke:url(#SVGID_00000070831942194160259640000015730256259514728620_);stroke-width:5;stroke-miterlimit:10;" d="
		M777.9,903c-3.1,1.4-5.3,5.1-4.9,8.4c7.3,49.8,48.6,75.3,96.4,59.7c52.5-17.2,94-77.6,92.7-135c0-0.1,0-0.2,0-0.3
		c-0.3-3.3-3.1-5-6.2-3.8l-177.8,70.8C778,902.9,778,902.9,777.9,903z"/>
	
		<linearGradient id="SVGID_00000013186251275581925800000012139131207915748275_" gradientUnits="userSpaceOnUse" x1="722.3559" y1="533.3361" x2="853.7396" y2="533.3361" gradientTransform="matrix(0.8102 -1.3098 -0.9703 -0.6002 593.4022 2373.6821)">
		<stop  offset="0" style="stop-color:#0193F4"/>
		<stop  offset="1" style="stop-color:#96F254"/>
	</linearGradient>
	
		<path style="fill:none;stroke:url(#SVGID_00000013186251275581925800000012139131207915748275_);stroke-width:5;stroke-miterlimit:10;" d="
		M805.5,1008.6c3.1-1.4,5.3-5.1,4.9-8.4c-7.3-49.8-48.6-75.3-96.4-59.7c-52.5,17.2-94,77.6-92.7,135c0,0.1,0,0.2,0,0.3
		c0.3,3.3,3.1,5,6.2,3.8l177.8-70.8C805.3,1008.7,805.4,1008.7,805.5,1008.6z"/>
</g>
<g>
	
		<linearGradient id="SVGID_00000106146083496223925340000008753190654767387264_" gradientUnits="userSpaceOnUse" x1="1023.8876" y1="807.4158" x2="1155.2712" y2="807.4158" gradientTransform="matrix(-0.8102 1.3098 0.9703 0.6002 1269.5612 -1021.5215)">
		<stop  offset="0" style="stop-color:#0193F4"/>
		<stop  offset="1" style="stop-color:#96F254"/>
	</linearGradient>
	
		<path style="fill:none;stroke:url(#SVGID_00000106146083496223925340000008753190654767387264_);stroke-width:5;stroke-miterlimit:10;" d="
		M1079.1,903c-3.1,1.4-5.3,5.1-4.9,8.4c7.3,49.8,48.6,75.3,96.4,59.7c52.5-17.2,94-77.6,92.7-135c0-0.1,0-0.2,0-0.3
		c-0.3-3.3-3.1-5-6.2-3.8l-177.8,70.8C1079.3,902.9,1079.2,902.9,1079.1,903z"/>
	
		<linearGradient id="SVGID_00000139275681083523873550000018206074634988511635_" gradientUnits="userSpaceOnUse" x1="825.2462" y1="308.8011" x2="956.6298" y2="308.8011" gradientTransform="matrix(0.8102 -1.3098 -0.9703 -0.6002 593.4022 2373.6821)">
		<stop  offset="0" style="stop-color:#0193F4"/>
		<stop  offset="1" style="stop-color:#96F254"/>
	</linearGradient>
	
		<path style="fill:none;stroke:url(#SVGID_00000139275681083523873550000018206074634988511635_);stroke-width:5;stroke-miterlimit:10;" d="
		M1106.7,1008.6c3.1-1.4,5.3-5.1,4.9-8.4c-7.3-49.8-48.6-75.3-96.4-59.7c-52.5,17.2-94,77.6-92.7,135c0,0.1,0,0.2,0,0.3
		c0.3,3.3,3.1,5,6.2,3.8l177.8-70.8C1106.6,1008.7,1106.6,1008.7,1106.7,1008.6z"/>
</g>
<g>
	
		<linearGradient id="SVGID_00000162319342851805115690000007937821065358990227_" gradientUnits="userSpaceOnUse" x1="920.9974" y1="1031.9509" x2="1052.3811" y2="1031.9509" gradientTransform="matrix(-0.8102 1.3098 0.9703 0.6002 1269.5612 -1021.5215)">
		<stop  offset="0" style="stop-color:#0193F4"/>
		<stop  offset="1" style="stop-color:#96F254"/>
	</linearGradient>
	
		<path style="fill:none;stroke:url(#SVGID_00000162319342851805115690000007937821065358990227_);stroke-width:5;stroke-miterlimit:10;" d="
		M1380.3,903c-3.1,1.4-5.3,5.1-4.9,8.4c7.3,49.8,48.6,75.3,96.4,59.7c52.5-17.2,94-77.6,92.7-135c0-0.1,0-0.2,0-0.3
		c-0.3-3.3-3.1-5-6.2-3.8l-177.8,70.8C1380.5,902.9,1380.4,902.9,1380.3,903z"/>
	
		<linearGradient id="SVGID_00000090266678775336420470000011522899005520972947_" gradientUnits="userSpaceOnUse" x1="928.1364" y1="84.266" x2="1059.52" y2="84.266" gradientTransform="matrix(0.8102 -1.3098 -0.9703 -0.6002 593.4022 2373.6821)">
		<stop  offset="0" style="stop-color:#0193F4"/>
		<stop  offset="1" style="stop-color:#96F254"/>
	</linearGradient>
	
		<path style="fill:none;stroke:url(#SVGID_00000090266678775336420470000011522899005520972947_);stroke-width:5;stroke-miterlimit:10;" d="
		M1407.9,1008.6c3.1-1.4,5.3-5.1,4.9-8.4c-7.3-49.8-48.6-75.3-96.4-59.7c-52.5,17.2-94,77.6-92.7,135c0,0.1,0,0.2,0,0.3
		c0.3,3.3,3.1,5,6.2,3.8l177.8-70.8C1407.8,1008.7,1407.9,1008.7,1407.9,1008.6z"/>
</g>
<g>
	
		<linearGradient id="SVGID_00000073702223167031684470000016758675554494919813_" gradientUnits="userSpaceOnUse" x1="1183.2913" y1="9.1641" x2="1314.6749" y2="9.1641" gradientTransform="matrix(-0.8102 1.3098 0.9703 0.6002 1269.5612 -1021.5215)">
		<stop  offset="0" style="stop-color:#0193F4"/>
		<stop  offset="1" style="stop-color:#96F254"/>
	</linearGradient>
	
		<path style="fill:none;stroke:url(#SVGID_00000073702223167031684470000016758675554494919813_);stroke-width:5;stroke-miterlimit:10;" d="
		M175.4,632.7c-3.1,1.4-5.3,5.1-4.9,8.4c7.3,49.8,48.6,75.3,96.4,59.7c52.5-17.2,94-77.6,92.7-135c0-0.1,0-0.2,0-0.3
		c-0.3-3.3-3.1-5-6.2-3.8l-177.8,70.8C175.6,632.6,175.5,632.6,175.4,632.7z"/>
	
		<linearGradient id="SVGID_00000026127053779613873660000017589271244363385269_" gradientUnits="userSpaceOnUse" x1="665.8425" y1="1107.0529" x2="797.2261" y2="1107.0529" gradientTransform="matrix(0.8102 -1.3098 -0.9703 -0.6002 593.4022 2373.6821)">
		<stop  offset="0" style="stop-color:#0193F4"/>
		<stop  offset="1" style="stop-color:#96F254"/>
	</linearGradient>
	
		<path style="fill:none;stroke:url(#SVGID_00000026127053779613873660000017589271244363385269_);stroke-width:5;stroke-miterlimit:10;" d="
		M203,738.3c3.1-1.4,5.3-5.1,4.9-8.4c-7.3-49.8-48.6-75.3-96.4-59.7c-52.5,17.2-94,77.6-92.7,135c0,0.1,0,0.2,0,0.3
		c0.3,3.3,3.1,5,6.2,3.8l177.8-70.8C202.9,738.4,202.9,738.3,203,738.3z"/>
</g>
<g>
	
		<linearGradient id="SVGID_00000119810325250545295140000002689965026612636308_" gradientUnits="userSpaceOnUse" x1="1080.401" y1="233.6991" x2="1211.7848" y2="233.6991" gradientTransform="matrix(-0.8102 1.3098 0.9703 0.6002 1269.5612 -1021.5215)">
		<stop  offset="0" style="stop-color:#0193F4"/>
		<stop  offset="1" style="stop-color:#96F254"/>
	</linearGradient>
	
		<path style="fill:none;stroke:url(#SVGID_00000119810325250545295140000002689965026612636308_);stroke-width:5;stroke-miterlimit:10;" d="
		M476.6,632.7c-3.1,1.4-5.3,5.1-4.9,8.4c7.3,49.8,48.6,75.3,96.4,59.7c52.5-17.2,94-77.6,92.7-135c0-0.1,0-0.2,0-0.3
		c-0.3-3.3-3.1-5-6.2-3.8l-177.8,70.8C476.8,632.6,476.7,632.6,476.6,632.7z"/>
	
		<linearGradient id="SVGID_00000091720101848824531610000012673357937260555702_" gradientUnits="userSpaceOnUse" x1="768.7327" y1="882.5178" x2="900.1164" y2="882.5178" gradientTransform="matrix(0.8102 -1.3098 -0.9703 -0.6002 593.4022 2373.6821)">
		<stop  offset="0" style="stop-color:#0193F4"/>
		<stop  offset="1" style="stop-color:#96F254"/>
	</linearGradient>
	
		<path style="fill:none;stroke:url(#SVGID_00000091720101848824531610000012673357937260555702_);stroke-width:5;stroke-miterlimit:10;" d="
		M504.2,738.3c3.1-1.4,5.3-5.1,4.9-8.4c-7.3-49.8-48.6-75.3-96.4-59.7c-52.5,17.2-94,77.6-92.7,135c0,0.1,0,0.2,0,0.3
		c0.3,3.3,3.1,5,6.2,3.8L504,738.4C504.1,738.4,504.2,738.3,504.2,738.3z"/>
</g>
<g>
	
		<linearGradient id="SVGID_00000140009173348778523270000018007997790249098899_" gradientUnits="userSpaceOnUse" x1="977.5108" y1="458.2342" x2="1108.8945" y2="458.2342" gradientTransform="matrix(-0.8102 1.3098 0.9703 0.6002 1269.5612 -1021.5215)">
		<stop  offset="0" style="stop-color:#0193F4"/>
		<stop  offset="1" style="stop-color:#96F254"/>
	</linearGradient>
	
		<path style="fill:none;stroke:url(#SVGID_00000140009173348778523270000018007997790249098899_);stroke-width:5;stroke-miterlimit:10;" d="
		M777.9,632.7c-3.1,1.4-5.3,5.1-4.9,8.4c7.3,49.8,48.6,75.3,96.4,59.7c52.5-17.2,94-77.6,92.7-135c0-0.1,0-0.2,0-0.3
		c-0.3-3.3-3.1-5-6.2-3.8l-177.8,70.8C778,632.6,778,632.6,777.9,632.7z"/>
	
		<linearGradient id="SVGID_00000069369624383010632250000000319106255564454541_" gradientUnits="userSpaceOnUse" x1="871.6229" y1="657.9827" x2="1003.0066" y2="657.9827" gradientTransform="matrix(0.8102 -1.3098 -0.9703 -0.6002 593.4022 2373.6821)">
		<stop  offset="0" style="stop-color:#0193F4"/>
		<stop  offset="1" style="stop-color:#96F254"/>
	</linearGradient>
	
		<path style="fill:none;stroke:url(#SVGID_00000069369624383010632250000000319106255564454541_);stroke-width:5;stroke-miterlimit:10;" d="
		M805.5,738.3c3.1-1.4,5.3-5.1,4.9-8.4c-7.3-49.8-48.6-75.3-96.4-59.7c-52.5,17.2-94,77.6-92.7,135c0,0.1,0,0.2,0,0.3
		c0.3,3.3,3.1,5,6.2,3.8l177.8-70.8C805.3,738.4,805.4,738.3,805.5,738.3z"/>
</g>
<g>
	
		<linearGradient id="SVGID_00000084505371825947061580000004076565946462688133_" gradientUnits="userSpaceOnUse" x1="874.6206" y1="682.7693" x2="1006.0043" y2="682.7693" gradientTransform="matrix(-0.8102 1.3098 0.9703 0.6002 1269.5612 -1021.5215)">
		<stop  offset="0" style="stop-color:#0193F4"/>
		<stop  offset="1" style="stop-color:#96F254"/>
	</linearGradient>
	
		<path style="fill:none;stroke:url(#SVGID_00000084505371825947061580000004076565946462688133_);stroke-width:5;stroke-miterlimit:10;" d="
		M1079.1,632.7c-3.1,1.4-5.3,5.1-4.9,8.4c7.3,49.8,48.6,75.3,96.4,59.7c52.5-17.2,94-77.6,92.7-135c0-0.1,0-0.2,0-0.3
		c-0.3-3.3-3.1-5-6.2-3.8l-177.8,70.8C1079.3,632.6,1079.2,632.6,1079.1,632.7z"/>
	
		<linearGradient id="SVGID_00000104681918082629084320000011064146212781427632_" gradientUnits="userSpaceOnUse" x1="974.5131" y1="433.4476" x2="1105.8969" y2="433.4476" gradientTransform="matrix(0.8102 -1.3098 -0.9703 -0.6002 593.4022 2373.6821)">
		<stop  offset="0" style="stop-color:#0193F4"/>
		<stop  offset="1" style="stop-color:#96F254"/>
	</linearGradient>
	
		<path style="fill:none;stroke:url(#SVGID_00000104681918082629084320000011064146212781427632_);stroke-width:5;stroke-miterlimit:10;" d="
		M1106.7,738.3c3.1-1.4,5.3-5.1,4.9-8.4c-7.3-49.8-48.6-75.3-96.4-59.7c-52.5,17.2-94,77.6-92.7,135c0,0.1,0,0.2,0,0.3
		c0.3,3.3,3.1,5,6.2,3.8l177.8-70.8C1106.6,738.4,1106.6,738.3,1106.7,738.3z"/>
</g>
<g>
	
		<linearGradient id="SVGID_00000130646123173623244800000003561953821776118674_" gradientUnits="userSpaceOnUse" x1="771.7303" y1="907.3043" x2="903.1141" y2="907.3043" gradientTransform="matrix(-0.8102 1.3098 0.9703 0.6002 1269.5612 -1021.5215)">
		<stop  offset="0" style="stop-color:#0193F4"/>
		<stop  offset="1" style="stop-color:#96F254"/>
	</linearGradient>
	
		<path style="fill:none;stroke:url(#SVGID_00000130646123173623244800000003561953821776118674_);stroke-width:5;stroke-miterlimit:10;" d="
		M1380.3,632.7c-3.1,1.4-5.3,5.1-4.9,8.4c7.3,49.8,48.6,75.3,96.4,59.7c52.5-17.2,94-77.6,92.7-135c0-0.1,0-0.2,0-0.3
		c-0.3-3.3-3.1-5-6.2-3.8l-177.8,70.8C1380.5,632.6,1380.4,632.6,1380.3,632.7z"/>
	
		<linearGradient id="SVGID_00000049180603686517701300000004406345669718006670_" gradientUnits="userSpaceOnUse" x1="1077.4033" y1="208.9125" x2="1208.7871" y2="208.9125" gradientTransform="matrix(0.8102 -1.3098 -0.9703 -0.6002 593.4022 2373.6821)">
		<stop  offset="0" style="stop-color:#0193F4"/>
		<stop  offset="1" style="stop-color:#96F254"/>
	</linearGradient>
	
		<path style="fill:none;stroke:url(#SVGID_00000049180603686517701300000004406345669718006670_);stroke-width:5;stroke-miterlimit:10;" d="
		M1407.9,738.3c3.1-1.4,5.3-5.1,4.9-8.4c-7.3-49.8-48.6-75.3-96.4-59.7c-52.5,17.2-94,77.6-92.7,135c0,0.1,0,0.2,0,0.3
		c0.3,3.3,3.1,5,6.2,3.8l177.8-70.8C1407.8,738.4,1407.9,738.3,1407.9,738.3z"/>
</g>
<g>
	
		<linearGradient id="SVGID_00000042723940347747004200000010368526197356992915_" gradientUnits="userSpaceOnUse" x1="1034.0243" y1="-115.4825" x2="1165.408" y2="-115.4825" gradientTransform="matrix(-0.8102 1.3098 0.9703 0.6002 1269.5612 -1021.5215)">
		<stop  offset="0" style="stop-color:#0193F4"/>
		<stop  offset="1" style="stop-color:#96F254"/>
	</linearGradient>
	
		<path style="fill:none;stroke:url(#SVGID_00000042723940347747004200000010368526197356992915_);stroke-width:5;stroke-miterlimit:10;" d="
		M175.4,362.3c-3.1,1.4-5.3,5.1-4.9,8.4c7.3,49.8,48.6,75.3,96.4,59.7c52.5-17.2,94-77.6,92.7-135c0-0.1,0-0.2,0-0.3
		c-0.3-3.3-3.1-5-6.2-3.8l-177.8,70.8C175.6,362.3,175.5,362.3,175.4,362.3z"/>
	
		<linearGradient id="SVGID_00000036952172677532056870000004180736909449920668_" gradientUnits="userSpaceOnUse" x1="815.1094" y1="1231.6993" x2="946.4932" y2="1231.6993" gradientTransform="matrix(0.8102 -1.3098 -0.9703 -0.6002 593.4022 2373.6821)">
		<stop  offset="0" style="stop-color:#0193F4"/>
		<stop  offset="1" style="stop-color:#96F254"/>
	</linearGradient>
	
		<path style="fill:none;stroke:url(#SVGID_00000036952172677532056870000004180736909449920668_);stroke-width:5;stroke-miterlimit:10;" d="
		M203,468c3.1-1.4,5.3-5.1,4.9-8.4c-7.3-49.8-48.6-75.3-96.4-59.7c-52.5,17.2-94,77.6-92.7,135c0,0.1,0,0.2,0,0.3
		c0.3,3.3,3.1,5,6.2,3.8l177.8-70.8C202.9,468.1,202.9,468,203,468z"/>
</g>
<g>
	
		<linearGradient id="SVGID_00000019662549529522432640000002460863534650612415_" gradientUnits="userSpaceOnUse" x1="931.134" y1="109.0526" x2="1062.5177" y2="109.0526" gradientTransform="matrix(-0.8102 1.3098 0.9703 0.6002 1269.5612 -1021.5215)">
		<stop  offset="0" style="stop-color:#0193F4"/>
		<stop  offset="1" style="stop-color:#96F254"/>
	</linearGradient>
	
		<path style="fill:none;stroke:url(#SVGID_00000019662549529522432640000002460863534650612415_);stroke-width:5;stroke-miterlimit:10;" d="
		M476.6,362.3c-3.1,1.4-5.3,5.1-4.9,8.4c7.3,49.8,48.6,75.3,96.4,59.7c52.5-17.2,94-77.6,92.7-135c0-0.1,0-0.2,0-0.3
		c-0.3-3.3-3.1-5-6.2-3.8l-177.8,70.8C476.8,362.3,476.7,362.3,476.6,362.3z"/>
	
		<linearGradient id="SVGID_00000029728057232683220780000002847069760148273071_" gradientUnits="userSpaceOnUse" x1="917.9997" y1="1007.1643" x2="1049.3834" y2="1007.1643" gradientTransform="matrix(0.8102 -1.3098 -0.9703 -0.6002 593.4022 2373.6821)">
		<stop  offset="0" style="stop-color:#0193F4"/>
		<stop  offset="1" style="stop-color:#96F254"/>
	</linearGradient>
	
		<path style="fill:none;stroke:url(#SVGID_00000029728057232683220780000002847069760148273071_);stroke-width:5;stroke-miterlimit:10;" d="
		M504.2,468c3.1-1.4,5.3-5.1,4.9-8.4c-7.3-49.8-48.6-75.3-96.4-59.7c-52.5,17.2-94,77.6-92.7,135c0,0.1,0,0.2,0,0.3
		c0.3,3.3,3.1,5,6.2,3.8L504,468.1C504.1,468.1,504.2,468,504.2,468z"/>
</g>
<g>
	
		<linearGradient id="SVGID_00000001632258372660775730000000642871353980347583_" gradientUnits="userSpaceOnUse" x1="828.2438" y1="333.5876" x2="959.6275" y2="333.5876" gradientTransform="matrix(-0.8102 1.3098 0.9703 0.6002 1269.5612 -1021.5215)">
		<stop  offset="0" style="stop-color:#0193F4"/>
		<stop  offset="1" style="stop-color:#96F254"/>
	</linearGradient>
	
		<path style="fill:none;stroke:url(#SVGID_00000001632258372660775730000000642871353980347583_);stroke-width:5;stroke-miterlimit:10;" d="
		M777.9,362.3c-3.1,1.4-5.3,5.1-4.9,8.4c7.3,49.8,48.6,75.3,96.4,59.7c52.5-17.2,94-77.6,92.7-135c0-0.1,0-0.2,0-0.3
		c-0.3-3.3-3.1-5-6.2-3.8l-177.8,70.8C778,362.3,778,362.3,777.9,362.3z"/>
	
		<linearGradient id="SVGID_00000148619647618753497160000007504460975370786689_" gradientUnits="userSpaceOnUse" x1="1020.8899" y1="782.6293" x2="1152.2736" y2="782.6293" gradientTransform="matrix(0.8102 -1.3098 -0.9703 -0.6002 593.4022 2373.6821)">
		<stop  offset="0" style="stop-color:#0193F4"/>
		<stop  offset="1" style="stop-color:#96F254"/>
	</linearGradient>
	
		<path style="fill:none;stroke:url(#SVGID_00000148619647618753497160000007504460975370786689_);stroke-width:5;stroke-miterlimit:10;" d="
		M805.5,468c3.1-1.4,5.3-5.1,4.9-8.4c-7.3-49.8-48.6-75.3-96.4-59.7c-52.5,17.2-94,77.6-92.7,135c0,0.1,0,0.2,0,0.3
		c0.3,3.3,3.1,5,6.2,3.8l177.8-70.8C805.3,468.1,805.4,468,805.5,468z"/>
</g>
<g>
	
		<linearGradient id="SVGID_00000181067144379443712690000006136968131721584820_" gradientUnits="userSpaceOnUse" x1="725.3536" y1="558.1227" x2="856.7372" y2="558.1227" gradientTransform="matrix(-0.8102 1.3098 0.9703 0.6002 1269.5612 -1021.5215)">
		<stop  offset="0" style="stop-color:#0193F4"/>
		<stop  offset="1" style="stop-color:#96F254"/>
	</linearGradient>
	
		<path style="fill:none;stroke:url(#SVGID_00000181067144379443712690000006136968131721584820_);stroke-width:5;stroke-miterlimit:10;" d="
		M1079.1,362.3c-3.1,1.4-5.3,5.1-4.9,8.4c7.3,49.8,48.6,75.3,96.4,59.7c52.5-17.2,94-77.6,92.7-135c0-0.1,0-0.2,0-0.3
		c-0.3-3.3-3.1-5-6.2-3.8l-177.8,70.8C1079.3,362.3,1079.2,362.3,1079.1,362.3z"/>
	
		<linearGradient id="SVGID_00000018935134974372134210000015788593716244123798_" gradientUnits="userSpaceOnUse" x1="1123.7802" y1="558.0942" x2="1255.1638" y2="558.0942" gradientTransform="matrix(0.8102 -1.3098 -0.9703 -0.6002 593.4022 2373.6821)">
		<stop  offset="0" style="stop-color:#0193F4"/>
		<stop  offset="1" style="stop-color:#96F254"/>
	</linearGradient>
	
		<path style="fill:none;stroke:url(#SVGID_00000018935134974372134210000015788593716244123798_);stroke-width:5;stroke-miterlimit:10;" d="
		M1106.7,468c3.1-1.4,5.3-5.1,4.9-8.4c-7.3-49.8-48.6-75.3-96.4-59.7c-52.5,17.2-94,77.6-92.7,135c0,0.1,0,0.2,0,0.3
		c0.3,3.3,3.1,5,6.2,3.8l177.8-70.8C1106.6,468.1,1106.6,468,1106.7,468z"/>
</g>
<g>
	
		<linearGradient id="SVGID_00000149350821672982672340000001816134856358147205_" gradientUnits="userSpaceOnUse" x1="622.4633" y1="782.6578" x2="753.847" y2="782.6578" gradientTransform="matrix(-0.8102 1.3098 0.9703 0.6002 1269.5612 -1021.5215)">
		<stop  offset="0" style="stop-color:#0193F4"/>
		<stop  offset="1" style="stop-color:#96F254"/>
	</linearGradient>
	
		<path style="fill:none;stroke:url(#SVGID_00000149350821672982672340000001816134856358147205_);stroke-width:5;stroke-miterlimit:10;" d="
		M1380.3,362.3c-3.1,1.4-5.3,5.1-4.9,8.4c7.3,49.8,48.6,75.3,96.4,59.7c52.5-17.2,94-77.6,92.7-135c0-0.1,0-0.2,0-0.3
		c-0.3-3.3-3.1-5-6.2-3.8l-177.8,70.8C1380.5,362.3,1380.4,362.3,1380.3,362.3z"/>
	
		<linearGradient id="SVGID_00000122690937508428508880000017776270884805522058_" gradientUnits="userSpaceOnUse" x1="1226.6704" y1="333.5591" x2="1358.0541" y2="333.5591" gradientTransform="matrix(0.8102 -1.3098 -0.9703 -0.6002 593.4022 2373.6821)">
		<stop  offset="0" style="stop-color:#0193F4"/>
		<stop  offset="1" style="stop-color:#96F254"/>
	</linearGradient>
	
		<path style="fill:none;stroke:url(#SVGID_00000122690937508428508880000017776270884805522058_);stroke-width:5;stroke-miterlimit:10;" d="
		M1407.9,468c3.1-1.4,5.3-5.1,4.9-8.4c-7.3-49.8-48.6-75.3-96.4-59.7c-52.5,17.2-94,77.6-92.7,135c0,0.1,0,0.2,0,0.3
		c0.3,3.3,3.1,5,6.2,3.8l177.8-70.8C1407.8,468.1,1407.9,468,1407.9,468z"/>
</g>
<g>
	
		<linearGradient id="SVGID_00000163065733008402595670000015666990866361075615_" gradientUnits="userSpaceOnUse" x1="884.7573" y1="-240.1291" x2="1016.1409" y2="-240.1291" gradientTransform="matrix(-0.8102 1.3098 0.9703 0.6002 1269.5612 -1021.5215)">
		<stop  offset="0" style="stop-color:#0193F4"/>
		<stop  offset="1" style="stop-color:#96F254"/>
	</linearGradient>
	
		<path style="fill:none;stroke:url(#SVGID_00000163065733008402595670000015666990866361075615_);stroke-width:5;stroke-miterlimit:10;" d="
		M175.4,92c-3.1,1.4-5.3,5.1-4.9,8.4c7.3,49.8,48.6,75.3,96.4,59.7c52.5-17.2,94-77.6,92.7-135c0-0.1,0-0.2,0-0.3
		c-0.3-3.3-3.1-5-6.2-3.8L175.7,91.9C175.6,91.9,175.5,92,175.4,92z"/>
	
		<linearGradient id="SVGID_00000085210937003691665880000013754062017688066464_" gradientUnits="userSpaceOnUse" x1="964.3765" y1="1356.3459" x2="1095.7601" y2="1356.3459" gradientTransform="matrix(0.8102 -1.3098 -0.9703 -0.6002 593.4022 2373.6821)">
		<stop  offset="0" style="stop-color:#0193F4"/>
		<stop  offset="1" style="stop-color:#96F254"/>
	</linearGradient>
	
		<path style="fill:none;stroke:url(#SVGID_00000085210937003691665880000013754062017688066464_);stroke-width:5;stroke-miterlimit:10;" d="
		M203,197.7c3.1-1.4,5.3-5.1,4.9-8.4c-7.3-49.8-48.6-75.3-96.4-59.7c-52.5,17.2-94,77.6-92.7,135c0,0.1,0,0.2,0,0.3
		c0.3,3.3,3.1,5,6.2,3.8l177.8-70.8C202.9,197.7,202.9,197.7,203,197.7z"/>
</g>
<g>
	
		<linearGradient id="SVGID_00000145778134502519273000000000507402958978627478_" gradientUnits="userSpaceOnUse" x1="781.867" y1="-15.594" x2="913.2507" y2="-15.594" gradientTransform="matrix(-0.8102 1.3098 0.9703 0.6002 1269.5612 -1021.5215)">
		<stop  offset="0" style="stop-color:#0193F4"/>
		<stop  offset="1" style="stop-color:#96F254"/>
	</linearGradient>
	
		<path style="fill:none;stroke:url(#SVGID_00000145778134502519273000000000507402958978627478_);stroke-width:5;stroke-miterlimit:10;" d="
		M476.6,92c-3.1,1.4-5.3,5.1-4.9,8.4c7.3,49.8,48.6,75.3,96.4,59.7c52.5-17.2,94-77.6,92.7-135c0-0.1,0-0.2,0-0.3
		c-0.3-3.3-3.1-5-6.2-3.8L476.9,91.9C476.8,91.9,476.7,92,476.6,92z"/>
	
		<linearGradient id="SVGID_00000047062375741973562170000012222592994494518410_" gradientUnits="userSpaceOnUse" x1="1067.2667" y1="1131.8109" x2="1198.6504" y2="1131.8109" gradientTransform="matrix(0.8102 -1.3098 -0.9703 -0.6002 593.4022 2373.6821)">
		<stop  offset="0" style="stop-color:#0193F4"/>
		<stop  offset="1" style="stop-color:#96F254"/>
	</linearGradient>
	
		<path style="fill:none;stroke:url(#SVGID_00000047062375741973562170000012222592994494518410_);stroke-width:5;stroke-miterlimit:10;" d="
		M504.2,197.7c3.1-1.4,5.3-5.1,4.9-8.4c-7.3-49.8-48.6-75.3-96.4-59.7c-52.5,17.2-94,77.6-92.7,135c0,0.1,0,0.2,0,0.3
		c0.3,3.3,3.1,5,6.2,3.8L504,197.8C504.1,197.7,504.2,197.7,504.2,197.7z"/>
</g>
<g>
	
		<linearGradient id="SVGID_00000178175103120919788920000002930813388538481289_" gradientUnits="userSpaceOnUse" x1="678.9768" y1="208.9411" x2="810.3605" y2="208.9411" gradientTransform="matrix(-0.8102 1.3098 0.9703 0.6002 1269.5612 -1021.5215)">
		<stop  offset="0" style="stop-color:#0193F4"/>
		<stop  offset="1" style="stop-color:#96F254"/>
	</linearGradient>
	
		<path style="fill:none;stroke:url(#SVGID_00000178175103120919788920000002930813388538481289_);stroke-width:5;stroke-miterlimit:10;" d="
		M777.9,92c-3.1,1.4-5.3,5.1-4.9,8.4c7.3,49.8,48.6,75.3,96.4,59.7c52.5-17.2,94-77.6,92.7-135c0-0.1,0-0.2,0-0.3
		c-0.3-3.3-3.1-5-6.2-3.8L778.1,91.9C778,91.9,778,92,777.9,92z"/>
	
		<linearGradient id="SVGID_00000000200014443950015380000002742464105744981897_" gradientUnits="userSpaceOnUse" x1="1170.157" y1="907.2758" x2="1301.5406" y2="907.2758" gradientTransform="matrix(0.8102 -1.3098 -0.9703 -0.6002 593.4022 2373.6821)">
		<stop  offset="0" style="stop-color:#0193F4"/>
		<stop  offset="1" style="stop-color:#96F254"/>
	</linearGradient>
	
		<path style="fill:none;stroke:url(#SVGID_00000000200014443950015380000002742464105744981897_);stroke-width:5;stroke-miterlimit:10;" d="
		M805.5,197.7c3.1-1.4,5.3-5.1,4.9-8.4c-7.3-49.8-48.6-75.3-96.4-59.7c-52.5,17.2-94,77.6-92.7,135c0,0.1,0,0.2,0,0.3
		c0.3,3.3,3.1,5,6.2,3.8l177.8-70.8C805.3,197.7,805.4,197.7,805.5,197.7z"/>
</g>
<g>
	
		<linearGradient id="SVGID_00000111192038966286045840000018224630173701188529_" gradientUnits="userSpaceOnUse" x1="576.0865" y1="433.4761" x2="707.4703" y2="433.4761" gradientTransform="matrix(-0.8102 1.3098 0.9703 0.6002 1269.5612 -1021.5215)">
		<stop  offset="0" style="stop-color:#0193F4"/>
		<stop  offset="1" style="stop-color:#96F254"/>
	</linearGradient>
	
		<path style="fill:none;stroke:url(#SVGID_00000111192038966286045840000018224630173701188529_);stroke-width:5;stroke-miterlimit:10;" d="
		M1079.1,92c-3.1,1.4-5.3,5.1-4.9,8.4c7.3,49.8,48.6,75.3,96.4,59.7c52.5-17.2,94-77.6,92.7-135c0-0.1,0-0.2,0-0.3
		c-0.3-3.3-3.1-5-6.2-3.8l-177.8,70.8C1079.3,91.9,1079.2,92,1079.1,92z"/>
	
		<linearGradient id="SVGID_00000052801757060268097450000015280499723830595723_" gradientUnits="userSpaceOnUse" x1="1273.0471" y1="682.7407" x2="1404.4309" y2="682.7407" gradientTransform="matrix(0.8102 -1.3098 -0.9703 -0.6002 593.4022 2373.6821)">
		<stop  offset="0" style="stop-color:#0193F4"/>
		<stop  offset="1" style="stop-color:#96F254"/>
	</linearGradient>
	
		<path style="fill:none;stroke:url(#SVGID_00000052801757060268097450000015280499723830595723_);stroke-width:5;stroke-miterlimit:10;" d="
		M1106.7,197.7c3.1-1.4,5.3-5.1,4.9-8.4c-7.3-49.8-48.6-75.3-96.4-59.7c-52.5,17.2-94,77.6-92.7,135c0,0.1,0,0.2,0,0.3
		c0.3,3.3,3.1,5,6.2,3.8l177.8-70.8C1106.6,197.7,1106.6,197.7,1106.7,197.7z"/>
</g>
<g>
	
		<linearGradient id="SVGID_00000087371064021493866900000009258147223800606622_" gradientUnits="userSpaceOnUse" x1="473.1964" y1="658.0112" x2="604.58" y2="658.0112" gradientTransform="matrix(-0.8102 1.3098 0.9703 0.6002 1269.5612 -1021.5215)">
		<stop  offset="0" style="stop-color:#0193F4"/>
		<stop  offset="1" style="stop-color:#96F254"/>
	</linearGradient>
	
		<path style="fill:none;stroke:url(#SVGID_00000087371064021493866900000009258147223800606622_);stroke-width:5;stroke-miterlimit:10;" d="
		M1380.3,92c-3.1,1.4-5.3,5.1-4.9,8.4c7.3,49.8,48.6,75.3,96.4,59.7c52.5-17.2,94-77.6,92.7-135c0-0.1,0-0.2,0-0.3
		c-0.3-3.3-3.1-5-6.2-3.8l-177.8,70.8C1380.5,91.9,1380.4,92,1380.3,92z"/>
	
		<linearGradient id="SVGID_00000095335044669536878470000000038178785384118940_" gradientUnits="userSpaceOnUse" x1="1375.9374" y1="458.2057" x2="1507.321" y2="458.2057" gradientTransform="matrix(0.8102 -1.3098 -0.9703 -0.6002 593.4022 2373.6821)">
		<stop  offset="0" style="stop-color:#0193F4"/>
		<stop  offset="1" style="stop-color:#96F254"/>
	</linearGradient>
	
		<path style="fill:none;stroke:url(#SVGID_00000095335044669536878470000000038178785384118940_);stroke-width:5;stroke-miterlimit:10;" d="
		M1407.9,197.7c3.1-1.4,5.3-5.1,4.9-8.4c-7.3-49.8-48.6-75.3-96.4-59.7c-52.5,17.2-94,77.6-92.7,135c0,0.1,0,0.2,0,0.3
		c0.3,3.3,3.1,5,6.2,3.8l177.8-70.8C1407.8,197.7,1407.9,197.7,1407.9,197.7z"/>
</g>
<g>
	
		<linearGradient id="SVGID_00000145023504259304592330000009863349506305341346_" gradientUnits="userSpaceOnUse" x1="793.1458" y1="1276.5765" x2="924.5295" y2="1276.5765" gradientTransform="matrix(-0.8102 1.3098 0.9703 0.6002 1269.5612 -1021.5215)">
		<stop  offset="0" style="stop-color:#0193F4"/>
		<stop  offset="1" style="stop-color:#96F254"/>
	</linearGradient>
	
		<path style="fill:none;stroke:url(#SVGID_00000145023504259304592330000009863349506305341346_);stroke-width:5;stroke-miterlimit:10;" d="
		M1721.3,882.3c-3.1,1.4-5.3,5.1-4.9,8.4c7.3,49.8,48.6,75.3,96.4,59.7c52.5-17.2,94-77.6,92.7-135c0-0.1,0-0.2,0-0.3
		c-0.3-3.3-3.1-5-6.2-3.8l-177.8,70.8C1721.4,882.3,1721.4,882.3,1721.3,882.3z"/>
	
		<linearGradient id="SVGID_00000047044239039787113090000016574904846523721094_" gradientUnits="userSpaceOnUse" x1="1055.9879" y1="-160.3597" x2="1187.3716" y2="-160.3597" gradientTransform="matrix(0.8102 -1.3098 -0.9703 -0.6002 593.4022 2373.6821)">
		<stop  offset="0" style="stop-color:#0193F4"/>
		<stop  offset="1" style="stop-color:#96F254"/>
	</linearGradient>
	
		<path style="fill:none;stroke:url(#SVGID_00000047044239039787113090000016574904846523721094_);stroke-width:5;stroke-miterlimit:10;" d="
		M1748.9,988c3.1-1.4,5.3-5.1,4.9-8.4c-7.3-49.8-48.6-75.3-96.4-59.7c-52.5,17.2-94,77.6-92.7,135c0,0.1,0,0.2,0,0.3
		c0.3,3.3,3.1,5,6.2,3.8l177.8-70.8C1748.7,988.1,1748.8,988,1748.9,988z"/>
</g>
<g>
	
		<linearGradient id="SVGID_00000183949234059027753590000017321189116709289124_" gradientUnits="userSpaceOnUse" x1="643.8788" y1="1151.9299" x2="775.2625" y2="1151.9299" gradientTransform="matrix(-0.8102 1.3098 0.9703 0.6002 1269.5612 -1021.5215)">
		<stop  offset="0" style="stop-color:#0193F4"/>
		<stop  offset="1" style="stop-color:#96F254"/>
	</linearGradient>
	
		<path style="fill:none;stroke:url(#SVGID_00000183949234059027753590000017321189116709289124_);stroke-width:5;stroke-miterlimit:10;" d="
		M1721.3,612c-3.1,1.4-5.3,5.1-4.9,8.4c7.3,49.8,48.6,75.3,96.4,59.7c52.5-17.2,94-77.6,92.7-135c0-0.1,0-0.2,0-0.3
		c-0.3-3.3-3.1-5-6.2-3.8l-177.8,70.8C1721.4,611.9,1721.4,612,1721.3,612z"/>
	
		<linearGradient id="SVGID_00000097465732682598923300000002007546348027014799_" gradientUnits="userSpaceOnUse" x1="1205.255" y1="-35.7131" x2="1336.6387" y2="-35.7131" gradientTransform="matrix(0.8102 -1.3098 -0.9703 -0.6002 593.4022 2373.6821)">
		<stop  offset="0" style="stop-color:#0193F4"/>
		<stop  offset="1" style="stop-color:#96F254"/>
	</linearGradient>
	
		<path style="fill:none;stroke:url(#SVGID_00000097465732682598923300000002007546348027014799_);stroke-width:5;stroke-miterlimit:10;" d="
		M1748.9,717.7c3.1-1.4,5.3-5.1,4.9-8.4c-7.3-49.8-48.6-75.3-96.4-59.7c-52.5,17.2-94,77.6-92.7,135c0,0.1,0,0.2,0,0.3
		c0.3,3.3,3.1,5,6.2,3.8l177.8-70.8C1748.7,717.7,1748.8,717.7,1748.9,717.7z"/>
</g>
<g>
	
		<linearGradient id="SVGID_00000067203909887515974030000004758447930727532735_" gradientUnits="userSpaceOnUse" x1="494.6118" y1="1027.2834" x2="625.9955" y2="1027.2834" gradientTransform="matrix(-0.8102 1.3098 0.9703 0.6002 1269.5612 -1021.5215)">
		<stop  offset="0" style="stop-color:#0193F4"/>
		<stop  offset="1" style="stop-color:#96F254"/>
	</linearGradient>
	
		<path style="fill:none;stroke:url(#SVGID_00000067203909887515974030000004758447930727532735_);stroke-width:5;stroke-miterlimit:10;" d="
		M1721.3,341.7c-3.1,1.4-5.3,5.1-4.9,8.4c7.3,49.8,48.6,75.3,96.4,59.7c52.5-17.2,94-77.6,92.7-135c0-0.1,0-0.2,0-0.3
		c-0.3-3.3-3.1-5-6.2-3.8l-177.8,70.8C1721.4,341.6,1721.4,341.7,1721.3,341.7z"/>
	
		<linearGradient id="SVGID_00000023283007441016464180000009600426511487860878_" gradientUnits="userSpaceOnUse" x1="1354.522" y1="88.9335" x2="1485.9056" y2="88.9335" gradientTransform="matrix(0.8102 -1.3098 -0.9703 -0.6002 593.4022 2373.6821)">
		<stop  offset="0" style="stop-color:#0193F4"/>
		<stop  offset="1" style="stop-color:#96F254"/>
	</linearGradient>
	
		<path style="fill:none;stroke:url(#SVGID_00000023283007441016464180000009600426511487860878_);stroke-width:5;stroke-miterlimit:10;" d="
		M1748.9,447.3c3.1-1.4,5.3-5.1,4.9-8.4c-7.3-49.8-48.6-75.3-96.4-59.7c-52.5,17.2-94,77.6-92.7,135c0,0.1,0,0.2,0,0.3
		c0.3,3.3,3.1,5,6.2,3.8l177.8-70.8C1748.7,447.4,1748.8,447.4,1748.9,447.3z"/>
</g>
<g>
	
		<linearGradient id="SVGID_00000179628008814300164310000013972606915788640391_" gradientUnits="userSpaceOnUse" x1="345.3448" y1="902.6368" x2="476.7285" y2="902.6368" gradientTransform="matrix(-0.8102 1.3098 0.9703 0.6002 1269.5612 -1021.5215)">
		<stop  offset="0" style="stop-color:#0193F4"/>
		<stop  offset="1" style="stop-color:#96F254"/>
	</linearGradient>
	
		<path style="fill:none;stroke:url(#SVGID_00000179628008814300164310000013972606915788640391_);stroke-width:5;stroke-miterlimit:10;" d="
		M1721.3,71.4c-3.1,1.4-5.3,5.1-4.9,8.4c7.3,49.8,48.6,75.3,96.4,59.7c52.5-17.2,94-77.6,92.7-135c0-0.1,0-0.2,0-0.3
		c-0.3-3.3-3.1-5-6.2-3.8l-177.8,70.8C1721.4,71.3,1721.4,71.3,1721.3,71.4z"/>
	
		<linearGradient id="SVGID_00000119103581750623822480000013040280975455427247_" gradientUnits="userSpaceOnUse" x1="1503.7889" y1="213.58" x2="1635.1726" y2="213.58" gradientTransform="matrix(0.8102 -1.3098 -0.9703 -0.6002 593.4022 2373.6821)">
		<stop  offset="0" style="stop-color:#0193F4"/>
		<stop  offset="1" style="stop-color:#96F254"/>
	</linearGradient>
	
		<path style="fill:none;stroke:url(#SVGID_00000119103581750623822480000013040280975455427247_);stroke-width:5;stroke-miterlimit:10;" d="
		M1748.9,177c3.1-1.4,5.3-5.1,4.9-8.4c-7.3-49.8-48.6-75.3-96.4-59.7c-52.5,17.2-94,77.6-92.7,135c0,0.1,0,0.2,0,0.3
		c0.3,3.3,3.1,5,6.2,3.8l177.8-70.8C1748.7,177.1,1748.8,177.1,1748.9,177z"/>
</g>
</svg>
