<svg id="Layer_1" data-name="Layer 1" xmlns="http://www.w3.org/2000/svg" xmlns:xlink="http://www.w3.org/1999/xlink" viewBox="0 0 700 700"><defs><style>.cls-1{fill:url(#linear-gradient);}.cls-2{fill:url(#linear-gradient-2);}.cls-3{fill:url(#linear-gradient-3);}.cls-4{fill:url(#linear-gradient-4);}</style><linearGradient id="linear-gradient" x1="375.44" y1="477.68" x2="620.92" y2="477.68" gradientUnits="userSpaceOnUse"><stop offset="0" stop-color="#00c171"/><stop offset="0.32" stop-color="#00be75"/><stop offset="0.65" stop-color="#00b682"/><stop offset="0.99" stop-color="#00a896"/><stop offset="1" stop-color="#00a797"/></linearGradient><linearGradient id="linear-gradient-2" x1="122.01" y1="477.89" x2="365.42" y2="477.89" xlink:href="#linear-gradient"/><linearGradient id="linear-gradient-3" x1="376.72" y1="221.72" x2="621.16" y2="221.72" gradientUnits="userSpaceOnUse"><stop offset="0" stop-color="#118ee9"/><stop offset="0.34" stop-color="#0a94cc"/><stop offset="0.76" stop-color="#039bae"/><stop offset="1" stop-color="#009ea2"/></linearGradient><linearGradient id="linear-gradient-4" x1="121.5" y1="221.24" x2="365.74" y2="221.24" xlink:href="#linear-gradient-3"/></defs><title>Eva Logo Symbol - Outline - Gradient</title><path class="cls-1" d="M462.19,362.34c40.9.41,76.65,12.94,103.41,36.23C592,421.54,608,453.51,612,491c1.51,14.39,1.24,27.12-.79,37.84-7.08,37.37-38,63.14-76.91,64.12-1.43,0-2.89.06-4.31.06-30.54,0-59.18-8.4-82.83-24.28-23.86-16-42.28-39.47-53.29-67.8-13-33.43-13.78-69.8-2.38-108.11C396,377.53,407.32,369,427.08,366c9.61-1.45,19.41-2.3,27.28-3,2.83-.24,5.51-.47,7.83-.7m-.37-8c-8.5.87-22.31,1.72-35.94,3.78-19.81,3-35.93,11.7-42.11,32.45-11.3,38-11.73,76.38,2.6,113.28C410.14,565.06,464.83,601,529.94,601c1.49,0,3,0,4.51-.06,42.13-1.07,76.73-29.22,84.57-70.63,2.46-13,2.27-26.92.89-40.16-8.38-80-69.75-135.13-158.09-135.85Z"/><path class="cls-2" d="M282.54,362.48c2.31.29,5,.6,8.12,1,9,1,21.29,2.45,33.25,4.46,13.31,2.23,22.12,10.18,25.47,23,8.69,33.2,10.34,62,5,88.1-5.86,28.8-20,53.4-43.28,75.22-27.65,25.95-60.41,39.1-97.36,39.1a167.16,167.16,0,0,1-22.29-1.53c-30.76-4.12-59.34-36.94-61.17-70.23-1.42-25.78,2.28-49.56,11-70.67,8.84-21.41,23.09-40.67,42.35-57.25A117,117,0,0,1,227,370c15.54-4.71,33.72-7.17,55.54-7.51m.45-8c-43.68.61-77,9.34-104.56,33.1-41,35.25-59.07,80.64-56.11,134.42,2,36.83,33.17,73,68.09,77.72a174.61,174.61,0,0,0,23.36,1.6c38.59,0,73.36-13.61,102.83-41.26,50.91-47.76,57.31-107.08,40.52-171.19-4.18-16-15.46-26.1-31.89-28.85S292,355.62,283,354.47Z"/><path class="cls-3" d="M533.72,98.93v8c3.46,0,7,.09,10.64.26,15.64.73,31,7.82,43.29,20A85.09,85.09,0,0,1,611.33,173a131.78,131.78,0,0,1-1.7,52.23,144.95,144.95,0,0,1-57,84.83A129.55,129.55,0,0,1,505,331.13c-9.83,2.12-20.3,3.06-30.42,4-4.47.4-9.07.82-13.62,1.34-4.32-.51-8.64-1-12.82-1.42-10.18-1.08-19.79-2.1-29.35-3.77-14.57-2.55-23.65-10.19-27-22.74A201,201,0,0,1,385,245.11a155.06,155.06,0,0,1,13.88-56.61c16.89-36.24,47.89-62.34,89.63-75.47,12.86-4,28.06-6.1,45.18-6.1v-8m0,0c-16.1,0-32.6,1.75-47.58,6.47-92.06,29-125.88,115.22-102,205.17,4.45,16.8,16.91,25.7,33.33,28.57,14.22,2.48,28.68,3.58,43.54,5.36,15.09-1.76,30.7-2.31,45.73-5.55,74-15.9,125.27-92.65,112.5-167.29-6.67-39-37.66-70.74-74.47-72.47-3.64-.17-7.32-.26-11-.26Z"/><path class="cls-4" d="M208.58,106.69h1c29.61.38,55.72,7.08,77.62,19.92,22.32,13.09,40.45,32.69,53.91,58.27A144.93,144.93,0,0,1,357.51,245c1.06,19.77-1.52,41.1-7.68,63.41-4.75,17.19-18.64,22.29-38,24.67-7.62.93-15.54,1.45-23.19,1.95-3.42.23-7,.46-10.44.73-46-.17-81.63-14.36-108.86-43.38-30.91-32.94-43.92-72.3-38.67-117,4.6-39.18,38.11-68.73,78-68.73m0-8c-44.07,0-80.82,32.59-85.9,75.79-5.53,47.11,8.35,88.85,40.78,123.41,30.91,32.94,70.5,45.81,115,45.91,11.44-.89,22.93-1.35,34.31-2.74,20-2.46,38.63-8.23,44.78-30.48,12.18-44.13,12.14-88.65-9.3-129.42-28.77-54.68-76.91-81.67-138.51-82.46Z"/></svg>