<svg id="Layer_1" data-name="Layer 1" xmlns="http://www.w3.org/2000/svg" xmlns:xlink="http://www.w3.org/1999/xlink" viewBox="0 0 700 700"><defs><style>.cls-1{fill:url(#linear-gradient);}.cls-2{fill:url(#linear-gradient-2);}.cls-3{fill:url(#linear-gradient-3);}.cls-4{fill:url(#linear-gradient-4);}</style><linearGradient id="linear-gradient" x1="476.85" y1="601.03" x2="476.85" y2="354.33" gradientUnits="userSpaceOnUse"><stop offset="0" stop-color="#00c171"/><stop offset="0.32" stop-color="#00be75"/><stop offset="0.65" stop-color="#00b682"/><stop offset="0.99" stop-color="#00a896"/><stop offset="1" stop-color="#00a797"/></linearGradient><linearGradient id="linear-gradient-2" x1="222.38" y1="601.31" x2="222.38" y2="354.47" xlink:href="#linear-gradient"/><linearGradient id="linear-gradient-3" x1="477.61" y1="98.93" x2="477.61" y2="344.5" gradientUnits="userSpaceOnUse"><stop offset="0" stop-color="#118ee9"/><stop offset="0.34" stop-color="#0a94cc"/><stop offset="0.76" stop-color="#039bae"/><stop offset="1" stop-color="#009ea2"/></linearGradient><linearGradient id="linear-gradient-4" x1="222.29" y1="98.69" x2="222.29" y2="343.8" xlink:href="#linear-gradient-3"/></defs><title>Eva Logo Symbol - Solid- Gradient</title><path class="cls-1" d="M440.49,354.33c88.34.72,149.71,55.88,158.08,135.85,1.39,13.24,1.58,27.16-.88,40.16-7.84,41.41-42.44,69.56-84.57,70.63C446,602.67,389.35,566.47,365,503.84c-14.34-36.9-13.91-75.28-2.6-113.28,6.18-20.75,22.3-29.45,42.11-32.45C418.18,356.05,432,355.2,440.49,354.33Z"/><path class="cls-2" d="M261.66,354.47c9,1.15,25.72,2.76,42.24,5.54s27.71,12.89,31.89,28.85c16.78,64.11,10.39,123.43-40.52,171.19-35.31,33.12-78.21,46.1-126.19,39.66C134.16,595,103,558.82,101,522c-3-53.78,15.16-99.17,56.11-134.42C184.69,363.81,218,355.08,261.66,354.47Z"/><path class="cls-3" d="M439.65,344.5c-14.86-1.77-29.32-2.88-43.54-5.36-16.42-2.87-28.88-11.77-33.33-28.57-23.85-89.95,10-176.21,102-205.17,18.42-5.8,39.14-7.12,58.6-6.21,36.8,1.73,67.79,33.47,74.47,72.47C610.65,246.3,559.35,323.05,485.38,339,470.35,342.19,454.73,342.74,439.65,344.5Z"/><path class="cls-4" d="M257.12,343.8c-44.49-.1-84.08-13-115-45.91-32.43-34.56-46.31-76.3-40.78-123.41,5.12-43.57,42.47-76.35,87.05-75.78,61.6.79,109.74,27.78,138.5,82.46,21.45,40.77,21.49,85.29,9.31,129.42-6.15,22.25-24.75,28-44.78,30.48C280.05,342.45,268.56,342.91,257.12,343.8Z"/></svg>