<svg id="Layer_1" data-name="Layer 1" xmlns="http://www.w3.org/2000/svg" viewBox="0 0 659.29 587.55"><title>LearnivaAI - Logo Symbol - black</title><path d="M164.89,573,327.34,410.54a7.28,7.28,0,0,0-.18-10.51A122.41,122.41,0,0,0,154.38,572.82,7.29,7.29,0,0,0,164.89,573Z"/><path d="M5.45,290.7l221.92,59.46a7.27,7.27,0,0,0,9-5.4,122.41,122.41,0,0,0-236-63.25A7.28,7.28,0,0,0,5.45,290.7Z"/><path d="M170.21,11.48,229.68,233.4a7.28,7.28,0,0,0,9.19,5.1,122.41,122.41,0,0,0-63.25-236A7.28,7.28,0,0,0,170.21,11.48Z"/><path d="M494.4,14.56,332,177a7.28,7.28,0,0,0,.18,10.51A122.41,122.41,0,0,0,504.91,14.73,7.28,7.28,0,0,0,494.4,14.56Z"/><path d="M653.84,296.85,431.92,237.39a7.27,7.27,0,0,0-9,5.41,122.41,122.41,0,0,0,236,63.24A7.28,7.28,0,0,0,653.84,296.85Z"/><path d="M489.08,576.07,429.62,354.15a7.29,7.29,0,0,0-9.19-5.1,122.41,122.41,0,0,0,63.24,236A7.28,7.28,0,0,0,489.08,576.07Z"/><path d="M164.89,573,327.34,410.54a7.28,7.28,0,0,0-.18-10.51A122.41,122.41,0,0,0,154.38,572.82,7.29,7.29,0,0,0,164.89,573Z"/></svg>