<svg id="Layer_1" data-name="Layer 1" xmlns="http://www.w3.org/2000/svg" viewBox="0 0 1639 423"><defs><style>.cls-1{fill:#fff;}</style></defs><title>LearnivaAI Logo - White - Full Lockup </title><path class="cls-1" d="M1046.62,132a15.9,15.9,0,0,0-22.41,0,17,17,0,0,0,0,22.94,15.9,15.9,0,0,0,22.41,0,17,17,0,0,0,0-22.94Z"/><polygon class="cls-1" points="467.75 135.9 440.82 135.9 440.82 294.9 534.66 294.9 534.66 269.94 467.75 269.94 467.75 135.9"/><path class="cls-1" d="M568.79,245h82.73a5,5,0,0,0,5-4.75l.25-4.78c0-19.45-4.88-34.93-14.5-46h0c-9.74-11.2-24.17-16.88-42.92-16.88-11.7,0-22.27,2.67-31.43,7.94a56.49,56.49,0,0,0-21.57,21.91c-5.1,9.22-7.69,19.89-7.69,31.72s2.58,22.54,7.69,31.83a54.58,54.58,0,0,0,21.72,21.83c9.21,5.11,19.89,7.7,31.72,7.7a71.71,71.71,0,0,0,27.82-5.26,61.69,61.69,0,0,0,21.59-14.94l1.91-2.05-15.23-15.83-2.15,2.21a43.1,43.1,0,0,1-14.43,9.82,46.18,46.18,0,0,1-18,3.49c-9.7,0-17.61-2.77-24.18-8.46A34.42,34.42,0,0,1,566.56,248,2.31,2.31,0,0,1,568.79,245Zm-2.64-24.59a33.85,33.85,0,0,1,10-16.62c6.27-5.67,13.95-8.42,23.48-8.42,9.8,0,17.43,2.7,23.33,8.26a30,30,0,0,1,8.88,17,2.32,2.32,0,0,1-2.29,2.72H568.4A2.32,2.32,0,0,1,566.15,220.45Z"/><path class="cls-1" d="M761.1,184c-8.4-7.54-20.32-11.37-35.44-11.37-10,0-18.87,1.27-26.21,3.77a109.27,109.27,0,0,0-23.73,12L673.3,190,685,209.13l2.59-1.78c11.53-7.92,23-11.94,34-11.94,8.82,0,15.56,2,20,5.92s6.55,9.36,6.55,16.69h0a2.5,2.5,0,0,1-2.5,2.5h-31.3c-14.31.15-25.7,3.49-33.85,9.93-8.36,6.62-12.6,15.68-12.6,26.93a37.29,37.29,0,0,0,5.35,19.69,36.84,36.84,0,0,0,15.19,13.79,49.26,49.26,0,0,0,22.44,4.91c15,0,27-3.69,35.9-11a1,1,0,0,1,1.58.76v9.38h26.07l-.23-79.1C774,202.31,769.58,191.61,761.1,184ZM715,273c-6.88,0-12.37-1.56-16.34-4.63A14.09,14.09,0,0,1,693,256.51c0-4.93,1.72-8.39,5.27-10.6,4-2.46,10.3-3.71,18.87-3.71h28.6a2.32,2.32,0,0,1,2.33,2.32v6a24.14,24.14,0,0,1-10.64,16.08C731.32,270.86,723.76,273,715,273Z"/><path class="cls-1" d="M839,179.74h0a42.25,42.25,0,0,0-10,8.5,1,1,0,0,1-1.71-.62V173.29H801V294.9h26.28V231.06c1-10.34,4.73-18.32,11.48-24.39s15.61-8.83,26.55-8.42l3.08.11V172.59l-3,0C855.29,172.79,846.39,175.18,839,179.74Z"/><path class="cls-1" d="M983.58,185.45c-8.28-8.51-19.73-12.82-34.1-12.82-17.15.24-30.3,5.45-39.24,15.53a1,1,0,0,1-1.7-.64V173.29H882.27V294.9h26.27V230.18c.83-9.53,4.25-17.37,10.17-23.29s13.56-8.94,23.16-9.08c8.88,0,15.6,2.4,20.53,7.33s7.33,11.85,7.33,20.75v69H996V220.43c0-14.73-4.19-26.5-12.43-35Z"/><rect class="cls-1" x="1022.38" y="173.29" width="26.28" height="121.61"/><path class="cls-1" d="M1120.42,260.9l-31.87-87.61h-28.08l43,109.85a18.51,18.51,0,0,0,17.23,11.76h0a18.5,18.5,0,0,0,17.23-11.78l42.77-109.83h-27L1122,260.89A.85.85,0,0,1,1120.42,260.9Z"/><path class="cls-1" d="M1288.1,294.9l-.23-79.1c-.16-13.49-4.53-24.19-13-31.8s-20.32-11.37-35.44-11.37c-10.05,0-18.87,1.27-26.21,3.77a109,109,0,0,0-23.73,12l-2.42,1.57,11.66,19.14,2.58-1.78c11.54-7.92,23-11.94,34-11.94,8.83,0,15.56,2,20,5.92s6.54,9.36,6.54,16.69h0a2.49,2.49,0,0,1-2.49,2.5H1228c-14.31.15-25.7,3.49-33.85,9.93-8.36,6.62-12.61,15.68-12.61,26.93a37.3,37.3,0,0,0,5.36,19.69,36.78,36.78,0,0,0,15.19,13.79,49.26,49.26,0,0,0,22.44,4.91c15,0,27-3.69,35.89-11a1,1,0,0,1,1.59.76v9.38ZM1228.7,273c-6.87,0-12.36-1.56-16.33-4.63a14.09,14.09,0,0,1-5.62-11.86c0-4.93,1.72-8.39,5.26-10.6,4-2.46,10.31-3.71,18.88-3.71h28.6a2.32,2.32,0,0,1,2.32,2.32v6a24.09,24.09,0,0,1-10.63,16.08C1245.08,270.86,1237.52,273,1228.7,273Z"/><path class="cls-1" d="M1445.49,294.87l-16.24-37.32a1.74,1.74,0,0,0-1.59-1h-81a1.74,1.74,0,0,0-1.6,1.05l-16,37.31h-22.79l65.6-147.66a17.37,17.37,0,0,1,15.86-10.3h0a17.36,17.36,0,0,1,15.86,10.32L1469,294.87Zm-90.52-58h64.6a.57.57,0,0,0,.53-.8l-31.69-72.8a1.48,1.48,0,0,0-2.71,0l-31.26,72.8A.58.58,0,0,0,1355,236.88Z"/><path class="cls-1" d="M1489.32,136.91H1511v158h-21.66Z"/><path class="cls-1" d="M194.22,331.35l67.21-67.21a3,3,0,0,0-.07-4.35,50.65,50.65,0,0,0-71.49,71.49A3,3,0,0,0,194.22,331.35Z"/><path class="cls-1" d="M128.26,214.56l91.81,24.6a3,3,0,0,0,3.73-2.23,50.64,50.64,0,0,0-97.65-26.17A3,3,0,0,0,128.26,214.56Z"/><path class="cls-1" d="M196.43,99.05,221,190.86a3,3,0,0,0,3.8,2.11,50.64,50.64,0,0,0-26.17-97.65A3,3,0,0,0,196.43,99.05Z"/><path class="cls-1" d="M330.54,100.32l-67.2,67.21a3,3,0,0,0,.07,4.35,50.64,50.64,0,0,0,71.48-71.49A3,3,0,0,0,330.54,100.32Z"/><path class="cls-1" d="M396.5,217.11l-91.81-24.6a3,3,0,0,0-3.72,2.23,50.64,50.64,0,0,0,97.64,26.17A3,3,0,0,0,396.5,217.11Z"/><path class="cls-1" d="M328.34,332.62l-24.6-91.81a3,3,0,0,0-3.8-2.11,50.64,50.64,0,0,0,26.16,97.65A3,3,0,0,0,328.34,332.62Z"/><path class="cls-1" d="M194.22,331.35l67.21-67.21a3,3,0,0,0-.07-4.35,50.65,50.65,0,0,0-71.49,71.49A3,3,0,0,0,194.22,331.35Z"/></svg>