<?xml version="1.0" encoding="utf-8"?>
<!-- Generator: Adobe Illustrator 26.0.1, SVG Export Plug-In . SVG Version: 6.00 Build 0)  -->
<svg version="1.1" id="Layer_1" xmlns="http://www.w3.org/2000/svg" xmlns:xlink="http://www.w3.org/1999/xlink" x="0px" y="0px"
	 viewBox="0 0 161 40" style="enable-background:new 0 0 161 40;" xml:space="preserve">
<style type="text/css">
	.st0{fill:#FF0000;}
</style>
<g id="g4554">
	<g id="g4539">
		<path id="path8" class="st0" d="M131.6,3.6c0,0-0.8,0.2-1.6,0.3c-0.9,0.1-2.3,0.4-3.1,0.5l-1.6,0.3V19c0,15.5,0,14.9,0.9,16.8
			c0.3,0.7,0.7,1.2,1.4,1.8c1.6,1.5,3.2,2,6.5,2c2.8,0,2.7,0.1,2.6-2.5l0-1.9l-1.2-0.1c-2.1-0.2-3.2-1-3.4-2.8
			c-0.1-0.5-0.1-7.2-0.1-14.8C132,4.5,132,3.2,131.6,3.6z"/>
	</g>
	<g id="g4533">
		<path id="path10" class="st0" d="M88.6,3.9c-3.4,0.5-4.6,0.7-4.7,0.9c-0.1,0.1-0.1,5.1-0.1,14.5c0.1,13.2,0.1,14.4,0.4,15.1
			c0.6,1.5,0.9,2,1.7,2.8c1.6,1.6,3.7,2.3,7.1,2.3c1.9,0,2.2,0,2.3-0.3c0.2-0.3,0.2-3,0.1-3.6c-0.1-0.4-0.2-0.4-1.3-0.5
			c-1.5-0.1-2.3-0.6-3-1.7l-0.4-0.7l0-8c0-6,0-8.1,0.1-8.3c0.1-0.2,0.7-0.2,2.3-0.2c2.6,0,2.3,0.2,2.3-2.7l0-2l-2.2-0.1
			c-1.2,0-2.3-0.1-2.4-0.2c-0.2-0.1-0.2-1-0.2-3.9V3.7l-0.3,0C90.1,3.7,89.3,3.8,88.6,3.9z"/>
	</g>
	<g id="g4527">
		<path id="path12" class="st0" d="M34.8,10.9c-1.2,0.1-4,0.8-4.8,1.1c-0.2,0.1-0.5,0.2-0.7,0.2c-0.7,0.2-3,1.3-3,1.5
			c0,0.1,0.1,0.4,0.3,0.8c1,2.3,1.4,3.1,1.5,3.1c0,0,0.2-0.1,0.4-0.1c0.8-0.4,1.8-0.8,2.5-1c0.5-0.1,1-0.3,1.2-0.4
			c0.9-0.3,3.2-0.5,4.3-0.3c2.1,0.3,2.9,1.3,3,3.8c0.1,1.4,0.1,1.4-0.3,1.5c-0.2,0.1-1.6,0.1-3.2,0.1c-3.7,0-4.8,0.2-7.2,1.4
			c-2,1-3.6,2.9-4.3,5.3c-0.4,1.3-0.3,3.7,0.1,5c1.4,4.2,4.7,6.7,9.3,6.9c4.2,0.2,8.5-1,11.3-3.3l1-0.8l0-8.2c0-9.5,0-9.8-1.1-12.2
			c-0.5-1.1-2.2-2.7-3.3-3.2c-0.5-0.2-1-0.5-1.2-0.5C39.5,11.1,36.6,10.7,34.8,10.9z M39.4,25.9c0.1,0.1,0.2,2,0.2,4.2
			c0,4.4,0.1,4.1-1.1,4.7C38,35,37.5,35.1,36,35.1h-1.9l-0.8-0.5c-0.4-0.3-0.9-0.7-1.1-1c-1.1-1.7-1.1-4.7,0.1-6.1
			c0.4-0.5,1.7-1.4,2-1.4c0.2,0,0.3-0.1,0.4-0.1c0.2-0.2,0.9-0.3,2.7-0.3C38.9,25.6,39.3,25.7,39.4,25.9z"/>
	</g>
	<g id="g4530">
		<path id="path14" class="st0" d="M73.5,11.3c-3.1,0.7-5.6,2-8,4.3l-0.7,0.6v11.3c0,6.2,0,11.4,0,11.6c0,0.2,0.2,0.3,3.4,0.2l3.4,0
			l0-10.8l0-10.8l0.6-0.5c0.7-0.6,1-0.7,1.9-1c1.1-0.4,2.7-0.5,4-0.4c0.6,0.1,1.2,0.1,1.3,0c0.1,0,0.4-0.6,0.6-1.2
			c0.2-0.6,0.6-1.4,0.8-1.8c0.5-1,0.5-1.2-0.2-1.4c-0.3-0.1-0.9-0.2-1.3-0.3C78.3,10.9,74.9,10.9,73.5,11.3z"/>
	</g>
	<g id="g4536">
		<path id="path16" class="st0" d="M107.3,11.3c-0.5,0.1-1,0.2-1.1,0.3c-0.1,0.1-0.2,0.1-0.4,0.1c-0.1,0-0.7,0.2-1.2,0.5
			c-1.2,0.6-3,2.3-3.8,3.5c-0.7,1.1-1.5,2.7-1.6,3.3c-0.1,0.2-0.2,0.6-0.2,0.8c-0.1,0.2-0.2,0.8-0.4,1.5c-0.4,1.7-0.4,7,0,8.6
			c0.4,1.4,1.2,3.6,1.4,3.6c0.1,0,0.1,0.1,0.1,0.2c0,0.6,1.8,2.9,3.2,4c0.6,0.5,1.9,1.1,2.8,1.5c1,0.4,3.3,0.7,4.4,0.7
			c2.2,0,6.2-0.9,7.5-1.8c0.3-0.2,0.7-0.4,0.9-0.5c0.5-0.1,1.5-0.8,1.6-1c0.1-0.2-1.6-3.7-1.8-3.7c-0.1,0-0.4,0.1-0.6,0.3
			s-0.5,0.3-0.6,0.3c-0.1,0-0.3,0.1-0.5,0.2c-0.2,0.1-1,0.4-1.8,0.7c-1.4,0.5-1.6,0.5-3.6,0.5c-1.9,0-2.3,0-2.9-0.3
			c-2.2-1-3.4-3.7-3.4-7.2c0-0.8,0-1.4,0-1.4c0,0,3.5-0.1,7.6-0.1l7.6-0.1l0-1.6c-0.1-3-0.9-7.1-1.6-8.1c-0.1-0.1-0.3-0.5-0.5-0.9
			c-0.8-1.7-2.6-3.1-4.7-3.8C112.1,11.1,109.3,11,107.3,11.3z M110.7,16.2c0.7,0.2,2,1.3,2,1.6c0,0.1,0.1,0.4,0.2,0.6
			c0.4,0.7,0.6,3,0.4,3.3c-0.2,0.2-0.8,0.2-3.9,0.2h-3.7l-0.1-0.4c-0.2-0.8,0.3-2.9,1-3.7c0.7-0.9,1.3-1.4,2.2-1.6
			c0.5-0.1,1-0.2,1.1-0.2C109.9,16,110.3,16.2,110.7,16.2z"/>
	</g>
	<g id="g4524">
		<path id="path6" class="st0" d="M53.8,0.4c-1.2,0.6-1.5,0.9-2,1.7c-0.5,0.8-0.5,0.8-0.5,2.4v1.6l0.6,0.8C52.6,7.8,53,8.2,54,8.5
			C55.4,9,56.6,8.8,58,8c1.7-1.1,2.2-3.8,1.2-5.7c-0.4-0.7-0.7-1-1.6-1.6C56.8,0,54.7-0.1,53.8,0.4z"/>
		<path id="path18" class="st0" d="M57.6,11.6c-0.2,0.1-0.9,0.2-1.6,0.3c-0.6,0.1-1.7,0.2-2.4,0.3c-0.7,0.1-1.4,0.2-1.4,0.3
			c-0.1,0.1-0.2,26.5,0,26.7c0.1,0.1,1.4,0.1,3.3,0.1c3.2,0,3.2,0,3.3-0.4c0-0.2,0.1-6.5,0-13.9c0-13.5,0-13.6-0.4-13.6
			C58.2,11.5,57.9,11.5,57.6,11.6z"/>
	</g>
</g>
</svg>
