<?xml version="1.0" encoding="utf-8"?>
<!-- Generator: Adobe Illustrator 26.0.1, SVG Export Plug-In . SVG Version: 6.00 Build 0)  -->
<svg version="1.1" id="Layer_1" xmlns="http://www.w3.org/2000/svg" xmlns:xlink="http://www.w3.org/1999/xlink" x="0px" y="0px"
	 viewBox="0 0 161 40" style="enable-background:new 0 0 161 40;" xml:space="preserve">
<style type="text/css">
	.st0{fill:#788B95;}
	.st1{fill:#B42426;}
</style>
<g>
	<path class="st0" d="M157.8,20.4h-1.4v-2.5h1.4c0.5,0,0.9,0,1.1,0.4c0.4,0.2,0.4,0.5,0.4,0.9s0,0.7-0.4,0.9
		C158.7,20.2,158.3,20.4,157.8,20.4z M157.8,16.4h-3v7.3h1.6v-2.1h1.4c0.7,0,1.2,0,1.8-0.2c0.4-0.2,0.7-0.5,1.1-0.9
		c0.2-0.5,0.4-0.9,0.4-1.4c0-0.5-0.2-1.1-0.4-1.4c-0.4-0.4-0.7-0.7-1.1-0.9C159,16.6,158.5,16.4,157.8,16.4z M150.5,23.7h1.8v-7.3
		h-1.8V23.7z M146.4,16.4v2.8h-3.2v-2.8h-1.8v7.3h1.8v-3h3.2v3h1.8v-7.3H146.4z M136.5,23.7c0.7,0,1.2,0,1.6-0.2
		c0.5-0.2,0.9-0.5,1.1-0.9c0.4-0.4,0.4-0.7,0.4-1.1c0-0.5,0-0.9-0.4-1.2c-0.2-0.2-0.5-0.4-0.9-0.5c-0.4-0.2-0.7-0.4-1.4-0.4
		c-0.5-0.2-0.9-0.4-1.1-0.4c-0.4-0.2-0.4-0.4-0.4-0.5c0-0.4,0-0.5,0.2-0.7c0.4-0.2,0.7-0.2,1.1-0.2c0.7,0,1.4,0.2,2.1,0.5l0.4-1.2
		c-0.2-0.2-0.7-0.4-1.1-0.5c-0.5,0-0.9-0.2-1.4-0.2c-0.5,0-1.1,0.2-1.6,0.4c-0.5,0.2-0.9,0.5-1.1,0.9c-0.2,0.4-0.4,0.7-0.4,1.1
		c0,0.5,0.2,0.9,0.4,1.2c0.4,0.2,0.5,0.4,0.9,0.5c0.4,0.2,0.9,0.4,1.4,0.4c0.4,0.2,0.7,0.2,0.9,0.4c0.2,0,0.4,0,0.5,0.2
		c0,0.2,0.2,0.2,0.2,0.4c0,0.4-0.2,0.5-0.4,0.7c-0.2,0-0.5,0.2-1.1,0.2c-0.4,0-0.9-0.2-1.2-0.2c-0.5-0.2-0.9-0.4-1.1-0.5l-0.7,1.2
		c0.4,0.2,0.9,0.4,1.4,0.5C135.4,23.7,135.9,23.7,136.5,23.7L136.5,23.7z M130.3,19.1c0,0.4-0.2,0.7-0.4,0.9
		c-0.4,0.2-0.7,0.4-1.1,0.4h-1.4v-2.5h1.4c0.4,0,0.7,0,1.1,0.4C130.1,18.4,130.3,18.8,130.3,19.1z M132,23.7l-1.6-2.3
		c0.5-0.4,0.9-0.5,1.2-0.9c0.2-0.5,0.4-0.9,0.4-1.4c0-0.5-0.2-1.1-0.4-1.4c-0.4-0.4-0.7-0.7-1.2-0.9c-0.4-0.2-0.9-0.4-1.6-0.4h-3.2
		v7.3h1.8v-2.1h1.6l1.2,2.1C130.3,23.7,132,23.7,132,23.7z M119.6,22.3v-1.6h3.4v-1.4h-3.4v-1.4h3.9v-1.4H118v7.3h5.5v-1.4
		L119.6,22.3L119.6,22.3z M110.4,22.3v-4.4h1.6c0.7,0,1.2,0.2,1.6,0.5c0.5,0.4,0.7,0.9,0.7,1.6c0,0.7-0.2,1.2-0.7,1.8
		c-0.4,0.4-0.9,0.5-1.6,0.5L110.4,22.3L110.4,22.3z M108.8,23.7h3.2c0.9,0,1.6-0.2,2.1-0.5c0.5-0.4,1.1-0.7,1.4-1.2
		c0.4-0.5,0.5-1.2,0.5-2c0-0.7-0.2-1.2-0.5-1.8c-0.4-0.5-0.9-1.1-1.4-1.2c-0.5-0.4-1.2-0.5-2.1-0.5h-3.2V23.7z M102,20.9l1.1-2.8
		l1.2,2.8H102L102,20.9z M105.4,23.7h1.8l-3.2-7.3h-1.6l-3.2,7.3h1.6l0.7-1.6h3.4L105.4,23.7z M93.8,22.3v-1.6h3.4v-1.4h-3.4v-1.4
		h3.7v-1.4h-5.5v7.3h5.7v-1.4L93.8,22.3L93.8,22.3z M85.1,23.7h5.3v-1.4h-3.6v-5.9h-1.8V23.7z"/>
	<path class="st1" d="M136.8,5.6v4.3l-3.6-4.3h-1.4v7.1h1.6V8.4l3.7,4.3h1.2V5.6H136.8z M125.1,10l1.1-2.8l1.2,2.8H125.1z
		 M128.5,12.7h1.8l-3.2-7.1h-1.6l-3.2,7.1h1.6l0.7-1.4h3.4L128.5,12.7z M118.2,12.9c0.7,0,1.2-0.2,1.8-0.4c0.5-0.2,0.9-0.5,1.2-0.9
		l-1.1-1.1c-0.5,0.5-1.1,0.9-1.8,0.9c-0.5,0-0.9-0.2-1.2-0.4c-0.4-0.2-0.7-0.4-0.9-0.7C116,10,116,9.7,116,9.2c0-0.4,0-0.9,0.2-1.2
		c0.2-0.4,0.5-0.5,0.9-0.7c0.4-0.2,0.7-0.4,1.2-0.4c0.7,0,1.2,0.4,1.8,0.9l1.1-1.1c-0.4-0.4-0.7-0.7-1.2-0.9
		c-0.5-0.2-1.1-0.4-1.8-0.4c-0.7,0-1.4,0.2-2,0.5c-0.5,0.4-1.1,0.7-1.4,1.2c-0.4,0.5-0.5,1.2-0.5,2c0,0.7,0.2,1.4,0.5,2
		c0.4,0.5,0.9,1.1,1.4,1.2C116.8,12.7,117.5,12.9,118.2,12.9z M110.5,12.7h1.8V5.6h-1.8V12.7z M106.8,8.1c0,0.5-0.2,0.7-0.4,1.1
		c-0.4,0.2-0.7,0.4-1.2,0.4H104V6.8h1.2c0.5,0,0.9,0.2,1.2,0.4C106.6,7.4,106.8,7.7,106.8,8.1z M108.6,12.7l-1.6-2.3
		c0.5-0.2,0.9-0.5,1.1-0.9c0.4-0.4,0.5-0.9,0.5-1.4c0-0.5-0.2-0.9-0.5-1.2c-0.2-0.5-0.5-0.7-1.1-0.9c-0.4-0.4-1.1-0.4-1.6-0.4h-3.2
		v7.1h1.8v-2h1.4l1.4,2H108.6z M100.4,6.8V5.6h-5.5v7.1h1.6v-2.5h3.4V8.8h-3.4v-2L100.4,6.8L100.4,6.8z M88.1,10l1.1-2.8l1.2,2.8
		H88.1z M91.5,12.7h1.8l-3.2-7.1h-1.6l-3.2,7.1h1.6l0.7-1.4H91L91.5,12.7L91.5,12.7z M9.2,5.4h8.4L23.3,20h-8.4L9.2,5.4z"/>
	<path class="st0" d="M29,34.4l-4.3-10.8H4.3L0,34.4h8.2l1.6-3.6h9.4l1.6,3.6H29z"/>
	<path class="st1" d="M70.4,5.4h7.8v14.7h-7.8V5.4z"/>
	<path class="st0" d="M31.8,34.4V23.6h7.6v3.7h13.7v7.1L31.8,34.4z"/>
	<path class="st1" d="M31.8,5.4h7.6v14.7h-7.6V5.4z"/>
	<path class="st0" d="M66.8,34.4c-5.9,0-10.7-4.3-11-10.1l-0.2-0.7h7.5l0.2,0.5c0.4,1.6,1.8,2.8,3.6,2.8c2,0,3.4-1.2,3.7-2.8v-0.5
		H78v0.7C77.7,30.1,72.9,34.4,66.8,34.4z"/>
	<path class="st1" d="M55.6,5.4h7.6v14.7h-7.6V5.4z"/>
	<path class="st0" d="M161,27.3h-1.6l-2,3.2l-2-3.2h-1.8l2.8,4.6v2.5h1.6v-2.5L161,27.3z M148.2,34.4h1.6v-5.9h2.3v-1.2h-6.2v1.2
		h2.3V34.4z M142.2,34.4h1.6v-7.1h-1.6V34.4z M136.8,34.6c0.5,0,1.1-0.2,1.6-0.4c0.5-0.2,0.7-0.4,1.1-0.7c0.2-0.4,0.4-0.7,0.4-1.2
		c0-0.4-0.2-0.7-0.4-1.1c-0.4-0.4-0.7-0.5-0.9-0.7c-0.4,0-0.9-0.2-1.4-0.4c-0.5,0-0.9-0.2-1.2-0.4c-0.2,0-0.4-0.2-0.4-0.5
		c0-0.2,0.2-0.4,0.4-0.5c0.2-0.2,0.5-0.2,1.1-0.2c0.7,0,1.2,0.2,2,0.5l0.5-1.2c-0.4-0.4-0.7-0.4-1.2-0.5c-0.4-0.2-0.9-0.2-1.2-0.2
		c-0.7,0-1.2,0.2-1.6,0.4c-0.5,0.2-0.9,0.4-1.1,0.7c-0.4,0.4-0.4,0.7-0.4,1.2c0,0.4,0.2,0.9,0.4,1.1c0.2,0.4,0.5,0.5,0.9,0.7
		c0.4,0,0.9,0.2,1.4,0.4c0.4,0,0.5,0.2,0.7,0.2c0.4,0.2,0.4,0.2,0.5,0.4c0.2,0,0.2,0.2,0.2,0.4c0,0.2,0,0.4-0.4,0.5
		c-0.2,0.2-0.5,0.2-0.9,0.2c-0.5,0-0.9,0-1.4-0.2c-0.4-0.2-0.7-0.4-1.1-0.5l-0.5,1.2c0.4,0.4,0.7,0.5,1.2,0.7
		C135.6,34.4,136.1,34.6,136.8,34.6L136.8,34.6z M130.1,29.8c0,0.5,0,0.7-0.4,1.1c-0.2,0.2-0.5,0.2-1.1,0.2h-1.4v-2.5h1.4
		c0.5,0,0.9,0.2,1.1,0.4C130.1,29.1,130.1,29.4,130.1,29.8z M132,34.4l-1.6-2.3c0.4-0.2,0.7-0.5,1.1-0.9c0.2-0.4,0.4-0.9,0.4-1.4
		c0-0.5-0.2-0.9-0.4-1.2c-0.4-0.5-0.7-0.7-1.1-0.9c-0.5-0.4-1.1-0.4-1.8-0.4h-3v7.1h1.6v-2h1.6l1.4,2H132L132,34.4z M119.1,33.2
		v-1.8h3.4v-1.2h-3.4v-1.6h3.9v-1.2h-5.5v7.1h5.5v-1.2L119.1,33.2L119.1,33.2z M113.9,27.3l-2.3,5.2l-2.1-5.2h-1.8l3,7.1h1.6
		l3.2-7.1H113.9z M104,34.4h1.8v-7.1H104V34.4z M99.5,27.3v4.3L96,27.3h-1.4v7.1h1.6v-4.3l3.6,4.3h1.4v-7.1L99.5,27.3L99.5,27.3z
		 M88.5,34.6c0.9,0,1.8-0.4,2.3-0.9c0.5-0.5,0.9-1.4,0.9-2.5v-3.9h-1.6v3.9c0,0.7-0.2,1.2-0.5,1.4c-0.2,0.4-0.5,0.5-1.1,0.5
		c-1.1,0-1.6-0.7-1.6-2v-3.9h-1.8v3.9c0,1.1,0.4,2,0.9,2.5C86.5,34.2,87.4,34.6,88.5,34.6L88.5,34.6z"/>
</g>
</svg>
