<?xml version="1.0" encoding="utf-8"?>
<!-- Generator: Adobe Illustrator 26.0.1, SVG Export Plug-In . SVG Version: 6.00 Build 0)  -->
<svg version="1.1" id="Layer_1" xmlns="http://www.w3.org/2000/svg" xmlns:xlink="http://www.w3.org/1999/xlink" x="0px" y="0px"
	 viewBox="0 0 161 40" style="enable-background:new 0 0 161 40;" xml:space="preserve">
<style type="text/css">
	.st0{fill:#A41C30;}
	.st1{fill:#1E1E1E;}
	.st2{fill:#0B0909;}
	.st3{fill:#090808;}
	.st4{fill:#0A0809;}
	.st5{fill:#68121E;}
	.st6{fill:#333333;}
	.st7{fill:#FDFDFD;}
	.st8{fill:#F9F9F9;}
	.st9{fill:#FAFAFA;}
	.st10{fill:#FBFBFB;}
	.st11{fill:#F8F8F8;}
	.st12{fill:#F4F4F4;}
	.st13{fill:#F6F6F6;}
	.st14{fill:#F7F7F7;}
	.st15{fill:#FCFCFC;}
	.st16{fill:#F0F0F0;}
	.st17{fill:#F1F1F1;}
	.st18{fill:#080808;}
	.st19{fill:#070707;}
	.st20{fill:#040404;}
</style>
<g id="HARVARD">
	<path class="st0" d="M15.3,0.2c6,0,11.9,0,17.9,0c0,0.1,0,0.2,0,0.3c0,4.3,0,8.5,0,12.8c0,3.3-0.8,6.5-1.9,9.6
		c-1.9,4.9-4.8,9-8.7,12.5c-1.7,1.6-3.6,3-5.6,4.3c-0.2,0.1-0.4,0.1-0.6,0c-1.8-0.9-3.5-2.1-5.1-3.4c-3.3-2.8-5.9-6.1-7.9-10
		c-1.4-2.8-2.3-5.7-2.9-8.8C0.2,15.3,0,13,0,10.7C0,7.3,0,4,0,0.6c0-0.1,0-0.3,0-0.4C5.1,0.2,10.2,0.2,15.3,0.2 M11.4,20.5
		c0,0-0.1,0-0.1,0c-0.1,0-0.1-0.1-0.2-0.1c-0.3-0.2-0.4-0.2-0.6,0.1c-0.1,0.1-0.2,0.2-0.4,0.3c-0.2,0-0.4,0-0.5,0
		c-0.2,0-0.3,0-0.5,0.1c0,0-0.1,0-0.1,0.1c0,0,0,0-0.1,0.1c-0.1,0.1-0.2,0.3-0.2,0.4c0,0.2,0,0.5,0,0.7c0,0.7,0,0.7-0.8,0.7
		c-0.5,0-0.9,0.2-1,0.6c-0.1,0.3,0,0.7,0.3,0.8c0.3,0.1,0.7,0.2,1.1,0.2c0.2,0,0.3,0,0.3,0.3c0,1.2,0,2.5,0,3.7
		c0,0.2-0.1,0.3-0.3,0.3c-0.2,0-0.3,0-0.5,0c-0.4,0-0.6,0.2-0.8,0.5c-0.2,0.3,0,0.5,0.1,0.8c0.3,0.4,0.7,0.4,1.2,0.4
		c0.3,0,0.4,0.1,0.4,0.4c0,0.4,0.1,0.8,0,1.2c0,0.6,0.2,0.7,0.8,0.7c0.4,0,0.9,0,1.3,0c1.4,0,2.8,0,4.2,0c0.4,0,0.6,0,0.9,0.3
		c0.3,0.2,0.6,0.1,0.9,0c0.3-0.1,0.6-0.2,0.9-0.2c1.2,0,2.3,0,3.5-0.1c0.8,0,1.5-0.1,2.3-0.1c0.6,0,0.8-0.2,0.8-0.8
		c0-0.1,0-0.2,0-0.3c0-0.8-0.2-0.9,0.9-1.1c0.7-0.1,1-0.7,0.6-1.3c0,0-0.1-0.1-0.1-0.1c0,0-0.1,0-0.1-0.1c0,0-0.1,0-0.1-0.1
		c-0.3,0-0.7-0.1-1-0.1c0-0.1-0.1-0.3-0.1-0.4c0-1,0-2,0-3c0-0.2,0-0.3,0-0.5c0-0.2,0.1-0.4,0.4-0.4c0.2,0,0.4-0.1,0.6-0.1
		c0.5-0.1,0.7-0.9,0.3-1.2c-0.3-0.3-0.6-0.3-0.9-0.3c-0.3,0-0.4-0.1-0.4-0.4c0-0.2,0-0.4,0-0.6c0.1-0.7-0.2-1.1-1-1.1
		c-0.3,0-0.6,0-0.9-0.1c-0.3-0.2-0.7-0.2-1,0c-0.1,0.1-0.3,0.1-0.4,0.1c-1.1,0.3-2.2,0.1-3.3,0c-0.4,0-0.7,0-1.1,0.3
		c-0.1,0.1-0.2,0.1-0.4,0.1c-0.1,0-0.1-0.1-0.2-0.1c-0.3-0.2-0.6,0-1-0.1c-0.1,0-0.2,0-0.4,0c-0.8,0-1.7,0-2.6,0
		c-0.2,0-0.4,0-0.6-0.1C11.5,20.6,11.5,20.5,11.4,20.5C11.4,20.5,11.4,20.5,11.4,20.5L11.4,20.5C11.4,20.4,11.4,20.5,11.4,20.5
		 M17.3,6.6c-0.3,0.2-0.5,0.7-0.4,1.1c0.1,0.2,0.5,0.4,0.9,0.4c0.1,0,0.3,0,0.4,0c0.1,0,0.2,0.2,0.2,0.3c0,1.2,0,2.4,0,3.6
		c0,0.4,0,0.5-0.5,0.5c-0.2,0-0.3,0-0.5,0.1c-0.4,0.1-0.6,0.4-0.6,0.9c0,0.4,0.3,0.7,0.7,0.7c0.1,0,0.2,0,0.4,0
		c0.4,0,0.5,0.1,0.5,0.5c0,0.4,0,0.7-0.1,1.1c0,0.4,0.2,0.6,0.6,0.6c1.1,0,2.2,0,3.3,0.1c0.7,0,1.4-0.1,2,0.4c0.4,0.3,0.6,0.1,1-0.2
		c0-0.1,0.1-0.1,0.2-0.1c1.1,0,2.2,0,3.3,0c0.5,0,1,0,1.5,0c0.3,0,0.6-0.2,0.6-0.6c0-0.4,0-0.7,0.1-1.1c0-0.5,0.1-0.5,0.6-0.5
		c0.1,0,0.2,0,0.2,0c0.5,0,0.8-0.3,0.8-0.8c0-0.4-0.3-0.8-0.7-0.9c-0.1,0-0.3,0-0.4,0c-0.3,0-0.4-0.2-0.4-0.5c0-0.2,0-0.4,0-0.6
		c0-0.9,0-1.8,0.1-2.7c0-0.4,0.1-0.5,0.5-0.5c0.2,0,0.3,0,0.4-0.1c0.4-0.1,0.6-0.5,0.5-1.1c-0.1-0.3-0.3-0.5-0.7-0.5
		c-0.1,0-0.2,0-0.3,0c-0.3,0-0.4-0.1-0.4-0.4c0-0.2,0-0.4,0-0.6c0.1-0.9-0.1-1.1-1-1c0,0,0,0-0.1,0c-0.3,0.1-0.5-0.1-0.6-0.3
		c-0.2-0.3-0.4-0.3-0.6-0.1c-0.5,0.3-1.1,0.4-1.7,0.3c-0.7,0-1.5-0.2-2.2,0.1c-0.1,0-0.2,0-0.3,0c-0.4-0.3-0.8-0.2-1.2-0.2
		c-0.9,0-1.8,0.1-2.7-0.3c-0.2-0.1-0.5-0.1-0.7,0.2c0,0.1-0.2,0.1-0.3,0.1c-0.3,0-0.6,0-0.8,0c-0.4,0-0.5,0.2-0.5,0.5
		c0,0.4,0,0.7,0,1.1c0,0.2-0.1,0.4-0.3,0.4C17.9,6.5,17.6,6.6,17.3,6.6 M15.4,12.5c-0.5,0-0.6-0.1-0.6-0.6c0-1,0-2,0.1-3
		c0-0.6,0-0.6,0.6-0.7c0.5,0,0.8-0.3,0.8-0.8c0-0.7-0.2-0.9-0.9-0.9c-0.1,0-0.1,0-0.2,0c-0.3,0-0.4-0.1-0.4-0.4c0-0.2,0-0.3,0.1-0.5
		c0.1-0.9-0.2-1.2-1.1-1.1c-0.3,0-0.4-0.1-0.6-0.2c-0.3-0.3-0.4-0.3-0.7-0.1c-0.5,0.3-1,0.3-1.5,0.3c-0.6,0-1.3,0-2,0
		c-0.1,0-0.2,0.1-0.3,0.1c-0.2,0-0.4,0-0.5,0c-0.3,0-0.5-0.2-0.8-0.2c-1,0-2.1,0.1-3.1-0.3c-0.1-0.1-0.4,0-0.5,0.1
		C3.7,4.5,3.5,4.5,3.3,4.5c-0.2,0-0.4,0-0.6,0C2.3,4.5,2.1,4.6,2.1,5c0,0.3,0,0.6,0,0.9c0,0.5-0.1,0.6-0.6,0.6c-0.1,0-0.2,0-0.4,0
		C1,6.6,0.9,6.7,0.8,6.8C0.6,7,0.5,7.4,0.7,7.7C0.8,8,1.2,8,1.5,8.1c0.1,0,0.2,0,0.2,0c0.2,0,0.5,0.1,0.5,0.4c0,1.3,0,2.5,0,3.8
		c0,0.2-0.1,0.3-0.4,0.3c-0.2,0-0.5,0-0.7,0.1c-0.4,0.1-0.5,0.4-0.4,0.8c0,0.3,0.2,0.6,0.5,0.7c0.2,0,0.3,0.1,0.5,0.1
		c0.4,0,0.6,0.1,0.5,0.6c0,0.3-0.1,0.7-0.1,1c0,0.4,0.2,0.6,0.6,0.6c1.3,0,2.5,0.1,3.8,0.1c0.5,0,1,0,1.4,0.3
		c0.5,0.3,0.7,0.2,1.1-0.2c0.1-0.1,0.1-0.1,0.2-0.1c1.1,0,2.1,0,3.2,0c0.5,0,0.9,0,1.4,0c0.4,0,0.7-0.2,0.7-0.6
		c0-0.4,0.1-0.8,0.1-1.2c0-0.3,0.2-0.4,0.4-0.4c0.1,0,0.3,0,0.4,0c0.4,0,0.7-0.2,0.8-0.6C16.4,13.1,16.1,12.7,15.4,12.5z"/>
	<path class="st1" d="M50.9,12.6c-0.8,0-1.6,0-2.4,0c-0.2,0-0.3,0.1-0.3,0.3c0,1.8,0,3.5,0,5.3c0,0.5,0.3,0.8,0.8,1
		c0.3,0.1,0.4,0.2,0.3,0.5c-1.6,0-3.2,0-4.8,0c-0.1-0.3-0.1-0.4,0.3-0.5c0.7-0.2,0.9-0.6,0.9-1.3c0-3.8,0-7.5,0-11.3
		c0-0.7-0.3-1.1-1-1.3c-0.3-0.1-0.3-0.3-0.2-0.6c1.6,0,3.2,0,4.8,0C49.4,5,49.3,5.1,49,5.2c-0.6,0.1-0.9,0.6-0.9,1.2
		c0,1.5,0,3,0,4.5c0,0.3,0.1,0.4,0.3,0.4c2.7,0,5.3,0,8,0c0.3,0,0.3-0.1,0.3-0.3c0-1.5,0-3,0-4.4c0-0.7-0.2-1.1-1-1.3
		c-0.1,0-0.1,0-0.2-0.1c0-0.2,0-0.3,0-0.5c1.6,0,3.3,0,4.9,0c0.1,0.2,0.1,0.4-0.2,0.5c-0.7,0.2-1,0.6-1,1.3c0,3.8,0,7.6,0,11.3
		c0,0.8,0.2,1.1,0.9,1.3c0.3,0.1,0.3,0.2,0.3,0.5c-0.6,0-1.2,0-1.8,0c-0.4,0-0.8,0-1.2,0c-0.6,0-1.1,0-1.7,0c-0.1,0-0.2-0.1-0.2-0.1
		c0-0.1,0.1-0.2,0.2-0.3c0.2-0.1,0.4-0.2,0.6-0.4c0.3-0.2,0.4-0.5,0.4-0.8c0-1.7,0-3.5,0-5.2c0-0.3-0.1-0.3-0.3-0.3
		C54.6,12.6,52.8,12.6,50.9,12.6z"/>
	<path class="st1" d="M86.4,4.6c1.1,0,2.2,0,3.3,0.3C91,5.3,92,6,92.5,7.3c0.6,1.8,0,3.6-1.7,4.5c-0.5,0.3-1.1,0.5-1.7,0.8
		c1.2,1,2,2.4,3,3.7c0.6,0.7,1.1,1.4,1.7,2.1c0.4,0.5,0.9,0.9,1.6,1c0.1,0,0.2,0.1,0.2,0.2c0,0.1-0.1,0.2-0.2,0.2
		c-0.9,0.1-1.9,0.2-2.8,0c-0.8-0.3-1.5-0.8-2-1.5c-1-1.3-2-2.6-2.9-4C87,13.5,86.1,13,85,12.8c-0.1,0-0.1,0-0.2,0c0,0-0.1,0-0.2,0
		c0,0.1,0,0.3,0,0.4c0,1.5,0,3.1,0,4.6c0,0.9,0.5,1.2,1.1,1.4c0.3,0.1,0.4,0.2,0.3,0.5c-1.7,0-3.4,0-5.1,0c-0.1-0.3,0-0.4,0.3-0.5
		c0.7-0.2,1-0.6,1-1.4c0-3.7,0-7.5,0-11.2c0-0.7-0.3-1.1-1-1.3c-0.3-0.1-0.4-0.3-0.3-0.6C82.7,4.7,84.5,4.7,86.4,4.6 M89.3,11.1
		c0.6-0.7,0.9-1.4,0.8-2.3c-0.1-1.1-0.5-2-1.6-2.5c-1.2-0.6-2.4-0.5-3.7-0.4c-0.2,0-0.2,0.2-0.2,0.3c0,1.8,0,3.6,0,5.4
		c0,0.3,0.1,0.4,0.4,0.4c0.2,0,0.4,0,0.6,0C86.9,12.1,88.2,12,89.3,11.1z"/>
	<path class="st1" d="M147.3,19.7c-0.6,0-1.2,0.1-1.8,0.1c-0.1-0.3-0.1-0.5,0.2-0.6c0.7-0.2,1.1-0.6,1.1-1.4c0-3.7,0-7.5,0-11.2
		c0-0.9-0.3-1.2-1.1-1.5c-0.1,0-0.1,0-0.2-0.1c0-0.1,0-0.3,0-0.5c0.7,0,1.5,0,2.2,0c0.7,0,1.3,0,2,0c0.1,0,0.1,0,0.2,0
		c1.1,0,2.2-0.1,3.3-0.1c1.8,0.1,3.5,0.5,5,1.6c1.6,1.1,2.5,2.7,2.8,4.6c0.1,0.5,0.1,1.1,0.1,1.6c-0.1,1.7-0.5,3.2-1.6,4.5
		c-1.3,1.5-2.9,2.4-4.8,2.8c-1.3,0.3-2.6,0.3-3.8,0.3C149.6,19.8,148.4,19.8,147.3,19.7 M151.5,5.7c-0.7,0-1.5,0.1-2.2,0.1
		c0,4.3,0,8.6,0,12.9c0.5,0,0.9,0.1,1.4,0.1c0.8,0,1.7,0,2.5-0.1c1.2-0.2,2.3-0.6,3.2-1.4c1.3-1.1,1.9-2.6,2-4.3
		c0.1-1.2-0.1-2.4-0.5-3.5c-0.5-1.3-1.4-2.2-2.5-2.9C154.1,5.9,152.8,5.6,151.5,5.7z"/>
	<path class="st1" d="M133.4,4.6c0.6,0,1.2,0,1.8,0c1.4,0.1,2.7,0.3,3.9,1.2c0.6,0.5,1,1.2,1.2,2c0.2,0.9,0.1,1.7-0.3,2.5
		c-0.4,0.7-1,1.3-1.7,1.6c-0.5,0.2-1,0.4-1.5,0.7c0.9,0.7,1.5,1.7,2.2,2.6c0.9,1.1,1.6,2.4,2.7,3.4c0.4,0.4,0.9,0.7,1.4,0.8
		c0.1,0,0.2,0.2,0.2,0.2c0,0.1-0.1,0.2-0.2,0.2c-1.2,0.2-2.4,0.3-3.5-0.4c-0.6-0.3-1-0.8-1.4-1.3c-1-1.3-1.9-2.7-2.9-4
		c-0.7-1-1.7-1.4-3-1.5c0,0.1,0,0.2,0,0.4c0,1.5,0,3,0,4.6c0,0.8,0.3,1.3,1.1,1.5c0.3,0.1,0.3,0.1,0.2,0.5c-1.7,0-3.4,0-5.1,0
		c-0.1-0.3-0.1-0.4,0.3-0.5c0.7-0.2,1-0.6,1-1.3c0-3.8,0-7.6,0-11.4c0-0.6-0.3-1.1-0.9-1.2c-0.4-0.1-0.4-0.2-0.3-0.6
		C130.1,4.7,131.7,4.7,133.4,4.6 M132.2,9.4c0,0.7,0,1.4,0,2.1c0,0.3,0.1,0.4,0.4,0.4c0.2,0,0.4,0,0.6,0c1,0.1,2,0.1,2.9-0.3
		c1.3-0.5,1.9-2,1.6-3.4c-0.2-1-0.8-1.7-1.7-2.1c-1.2-0.5-2.4-0.4-3.7-0.2C132.2,7,132.2,8.2,132.2,9.4z"/>
	<path class="st1" d="M112.1,18.3c0.3-0.8,0.7-1.5,1-2.3c0.7-1.7,1.4-3.3,2.1-5c0.5-1.3,1.1-2.6,1.6-4c0.3-0.8,0.6-1.5,0.9-2.3
		c0-0.1,0.1-0.2,0.2-0.2c0.4,0,0.7,0,1.1,0c0.1,0,0.2,0.1,0.3,0.2c0.3,1.3,1,2.5,1.5,3.8c0.6,1.4,1.2,2.8,1.8,4.1
		c0.6,1.4,1.2,2.8,1.8,4.2c0.2,0.4,0.3,0.8,0.5,1.2c0.3,0.6,0.8,1.1,1.5,1.2c0.3,0.1,0.2,0.3,0.2,0.5c-1.8,0-3.5,0-5.3,0
		c-0.1-0.3,0-0.4,0.3-0.5c0.7-0.2,0.8-0.7,0.6-1.3c-0.4-0.9-0.8-1.9-1.2-2.8c0-0.1-0.2-0.1-0.2-0.1c-1.7,0-3.5,0-5.2,0
		c-0.1,0-0.2,0.1-0.3,0.1c-0.4,1-0.7,2-1.1,3c-0.2,0.6,0.1,1,0.6,1.2c0.4,0.1,0.4,0.1,0.3,0.5c-1.4,0-2.8,0-4.3,0
		c0-0.2-0.1-0.3-0.1-0.5C111.3,19.1,111.8,18.9,112.1,18.3 M116.3,13.7c1.3,0,2.5,0,3.8,0c-0.8-1.8-1.6-3.6-2.3-5.3c0,0-0.1,0-0.1,0
		c-0.7,1.8-1.4,3.5-2.1,5.3C115.9,13.7,116.1,13.7,116.3,13.7z"/>
	<path class="st1" d="M65.5,15.4c1-2.5,2.1-5,3.1-7.5c0.4-1,0.8-2.1,1.2-3.1c0-0.1,0.2-0.2,0.3-0.2c0.3,0,0.7,0,1,0
		c0.1,0,0.2,0.1,0.2,0.2c0.5,1.7,1.3,3.2,2,4.8c0.5,1.2,1.1,2.4,1.6,3.6c0.7,1.6,1.4,3.2,2.1,4.7c0.3,0.6,0.7,1.2,1.4,1.4
		c0.3,0.1,0.4,0.2,0.3,0.5c-1.7,0-3.5,0-5.2,0c0-0.2-0.1-0.4,0.2-0.5c0.8-0.2,0.9-0.7,0.6-1.5c-0.3-0.7-0.7-1.4-0.9-2.1
		c-0.2-0.6-0.5-0.7-1.1-0.7c-1.5,0-3,0-4.5,0c-0.2,0-0.3,0.1-0.4,0.3c-0.3,0.8-0.6,1.5-0.9,2.3c-0.1,0.3-0.2,0.6-0.2,0.8
		c-0.1,0.4,0.2,0.6,0.4,0.8c0.1,0.1,0.2,0.1,0.3,0.1c0.3,0.1,0.4,0.3,0.3,0.6c-0.2,0-0.4,0-0.5,0c-1.1,0-2.2,0-3.3,0
		c-0.4,0-0.6-0.1-0.5-0.5c0,0,0.1-0.1,0.2-0.1c0.8-0.2,1.2-0.8,1.5-1.5C64.8,17,65.1,16.2,65.5,15.4 M68.3,12.2
		c-0.2,0.5-0.4,0.9-0.6,1.4c1.5,0,3,0,4.5,0c-0.8-1.8-1.5-3.6-2.3-5.3c0,0-0.1,0-0.1,0C69.4,9.6,68.8,10.9,68.3,12.2z"/>
	<path class="st1" d="M101.6,17c-0.9-2-1.8-4-2.7-5.9c-0.4-0.9-0.8-1.7-1.2-2.6c-0.3-0.7-0.6-1.3-0.9-2c-0.3-0.6-0.7-1.1-1.4-1.3
		c-0.3-0.1-0.2-0.3-0.2-0.5c1.8,0,3.6,0,5.3,0c0.1,0.3,0,0.4-0.2,0.5c0,0-0.1,0-0.1,0.1c-0.6,0.3-0.7,0.4-0.5,1.1
		c0.3,0.8,0.6,1.5,0.9,2.2c0.8,1.8,1.6,3.6,2.4,5.4c0.4,0.8,0.7,1.6,1.1,2.5c0.3-0.6,0.5-1.2,0.7-1.7c0.7-1.8,1.5-3.6,2.2-5.4
		c0.4-0.9,0.8-1.9,1.1-2.8c0.1-0.3,0.2-0.6,0-0.9c-0.2-0.2-0.4-0.4-0.6-0.5c-0.3-0.1-0.4-0.2-0.3-0.5c1.4,0,2.9,0,4.3,0
		c0.1,0.3,0.1,0.4-0.2,0.5c-0.7,0.2-1.2,0.7-1.5,1.3c-0.4,0.8-0.8,1.7-1.1,2.5c-0.6,1.4-1.2,2.7-1.7,4.1c-0.6,1.4-1.2,2.7-1.7,4.1
		c-0.3,0.8-0.7,1.6-1,2.4c-0.1,0.2-0.2,0.3-0.5,0.3c0,0,0,0,0,0c-0.9,0-0.9,0-1.3-0.9C102.2,18.4,101.9,17.7,101.6,17z"/>
	<path class="st1" d="M79.8,33.5c-1.3-1.5-2.6-3.1-4-4.7c0,0.2,0,0.3,0,0.4c0,1.5,0,3.1,0,4.6c0,0.4,0.1,0.6,0.5,0.8
		c0.1,0,0.1,0.1,0.2,0.2c0,0-0.1,0.1-0.1,0.1c-0.7,0-1.4,0-2.1,0c0,0,0-0.1-0.1-0.1c0.1-0.1,0.2-0.2,0.3-0.3
		c0.3-0.1,0.4-0.3,0.4-0.6c0-2,0-4,0-5.9c0-0.4-0.2-0.6-0.5-0.8c-0.1,0-0.1-0.1-0.2-0.2c0.1,0,0.2-0.1,0.3-0.1c0.4,0,0.8,0,1.2,0
		c0.2,0,0.3,0.1,0.4,0.2c0.6,0.7,1.1,1.3,1.7,2c0.7,0.8,1.3,1.6,2,2.4c0.4,0.5,0.8,0.9,1.2,1.4c0-0.1,0-0.2,0-0.3c0-1.5,0-3.1,0-4.6
		c0-0.3-0.1-0.6-0.4-0.7c-0.1,0-0.2-0.2-0.3-0.3c0.1,0,0.2-0.1,0.4-0.1c0.5,0,1.1,0,1.6,0c0.1,0,0.2,0.1,0.3,0.1
		c-0.1,0.1-0.1,0.2-0.2,0.2c-0.4,0.2-0.6,0.4-0.6,0.9c0,2.2,0,4.3,0,6.5c0,0.1,0,0.3,0,0.4c-0.5,0.1-0.8-0.2-1.1-0.4
		C80.4,34.2,80.1,33.9,79.8,33.5z"/>
	<path class="st1" d="M106.7,34.5c0.3-0.1,0.4-0.4,0.4-0.7c0-2,0-4,0-6c0-0.3-0.1-0.6-0.5-0.7c-0.1,0-0.1-0.1-0.2-0.2
		c0.1,0,0.2-0.1,0.2-0.1c0.4,0,0.8,0.1,1.2,0.1c0.7,0,1.4-0.1,2-0.1c0.4,0,0.8,0,1.1,0.1c1.1,0.3,1.7,1,1.7,2.1c0,1-0.7,1.6-1.6,1.9
		c-0.1,0-0.2,0.1-0.3,0.1c0,0,0,0,0,0c0.4,0.5,0.8,0.9,1.1,1.4c0.4,0.5,0.8,1.1,1.3,1.6c0.2,0.2,0.5,0.3,0.8,0.5
		c0.1,0,0.1,0.1,0.2,0.1c-0.1,0-0.1,0.1-0.2,0.1c-1.4,0.2-1.9,0-2.7-1c-0.5-0.6-0.9-1.2-1.3-1.8c-0.4-0.5-0.9-0.8-1.6-0.9
		c0,0.1,0,0.2,0,0.3c0,0.8,0,1.5,0,2.3c0,0.4,0.1,0.6,0.5,0.7c0.1,0,0.1,0.1,0.2,0.2c-0.1,0-0.2,0.1-0.3,0.1c-0.7,0-1.5,0-2.2,0
		c-0.1,0-0.2-0.1-0.3-0.1C106.5,34.7,106.6,34.6,106.7,34.5 M108.4,27.5c0,1,0,2,0,3c0,0,0,0.1,0.1,0.1c0.5,0,1.1,0,1.6-0.1
		c0.9-0.1,1.2-0.8,1.2-1.5c0-0.8-0.5-1.5-1.2-1.6C109.5,27.4,109,27.5,108.4,27.5z"/>
	<path class="st1" d="M71.6,29.3c0,1,0,1.9,0,2.8c0,1.6-0.9,2.7-2.5,2.9c-1,0.1-1.9,0.1-2.8-0.2c-0.8-0.3-1.3-0.9-1.4-1.7
		c-0.1-0.3-0.1-0.5-0.1-0.8c0-1.4,0-2.8,0-4.1c0-0.4-0.1-0.7-0.5-0.8c-0.1,0-0.1-0.2-0.2-0.2c0.1,0,0.2-0.1,0.3-0.1
		c0.7,0,1.4,0,2.1,0c0.1,0,0.2,0.1,0.2,0.1c0,0.1-0.1,0.2-0.1,0.2c-0.4,0.2-0.5,0.5-0.5,0.9c0,1.3,0,2.6,0,3.9
		c0,0.6,0.1,1.1,0.5,1.6c0.6,0.6,1.3,0.6,2.1,0.6c0.2,0,0.4-0.1,0.5-0.1c1-0.2,1.5-0.9,1.5-1.9c0-1.4,0-2.8,0-4.3
		c0-0.4-0.2-0.6-0.5-0.8c-0.1,0-0.2-0.1-0.3-0.2c0.1,0,0.2-0.1,0.2-0.1c0.6,0,1.3,0,1.9,0c0.1,0,0.1,0.1,0.2,0.1
		c-0.1,0.1-0.1,0.2-0.2,0.2c-0.5,0.1-0.6,0.5-0.5,0.9C71.6,28.4,71.6,28.8,71.6,29.3z"/>
	<path class="st1" d="M98.9,30.8c0-1,0-1.9,0-2.9c0-0.3-0.1-0.6-0.5-0.7c-0.1,0-0.1-0.1-0.2-0.2c0.1,0,0.2-0.1,0.3-0.1
		c1.5,0,3,0,4.5,0c0.2,0,0.5,0,0.7-0.1c0.2-0.1,0.3,0,0.3,0.2c0,0.4,0,0.8,0,1.2c0,0.1-0.1,0.2-0.1,0.2c-0.1-0.1-0.2-0.1-0.2-0.2
		c-0.2-0.6-0.7-0.8-1.3-0.8c-0.6,0-1.2,0-1.7,0c-0.2,0-0.3,0.1-0.3,0.3c0,0.7,0,1.5,0,2.2c0,0.1,0.1,0.3,0.1,0.3c0.7,0,1.3,0,2,0
		c0.3,0,0.5-0.2,0.7-0.5c0-0.1,0.2-0.1,0.3-0.2c0,0.1,0.1,0.2,0.1,0.3c0,0.5,0,1.1,0,1.6c0,0.1-0.1,0.2-0.1,0.2
		c-0.1,0-0.2,0-0.2-0.1c-0.2-0.5-0.7-0.6-1.1-0.6c-0.5,0-1,0-1.5,0c-0.2,0-0.2,0.1-0.2,0.3c0,0.9,0,1.8,0,2.8c0,0.1,0.1,0.2,0.2,0.2
		c0.9,0,1.7,0,2.6-0.1c0.5,0,0.8-0.3,1-0.7c0.1-0.1,0.2-0.2,0.3-0.3c0,0,0.1,0,0.1,0.1c-0.1,0.5-0.1,1-0.2,1.5
		c0,0.1-0.2,0.2-0.3,0.2c-1.8,0-3.7,0-5.5,0c-0.1,0-0.2-0.1-0.2-0.1c0.1-0.1,0.1-0.2,0.2-0.2c0.4-0.1,0.5-0.5,0.5-0.8
		C98.9,32.8,98.9,31.8,98.9,30.8z"/>
	<path class="st1" d="M91.8,33c-0.6-1.2-1.1-2.5-1.7-3.7c-0.2-0.5-0.5-1-0.7-1.5c-0.1-0.3-0.3-0.5-0.7-0.6c-0.1,0-0.1-0.1-0.2-0.2
		c0.1,0,0.1-0.1,0.2-0.1c0.4,0,0.8,0,1.2,0c0.4,0,0.8,0,1.2,0c0.1,0,0.2,0.1,0.3,0.1c-0.1,0.1-0.1,0.2-0.2,0.2
		c-0.3,0.2-0.4,0.3-0.3,0.7c0.4,1,0.9,2,1.3,3c0.3,0.7,0.6,1.4,1,2.2c0.2-0.5,0.4-1,0.6-1.5c0.5-1.2,1-2.3,1.5-3.5
		c0.2-0.4,0.2-0.7-0.3-0.9c-0.1,0-0.1-0.2-0.1-0.2c0-0.1,0.1-0.1,0.2-0.1c0.6,0,1.3,0,1.9,0c0.1,0,0.2,0.1,0.2,0.1
		c0,0,0,0.2-0.1,0.2c-0.7,0.2-0.9,0.9-1.1,1.5c-0.6,1.4-1.2,2.8-1.8,4.3c-0.2,0.5-0.5,1.1-0.7,1.6c-0.1,0.2-0.1,0.4-0.4,0.4
		c-0.3,0-0.5,0-0.6-0.3C92.3,34,92,33.5,91.8,33z"/>
	<path class="st1" d="M115.3,29c-0.1-1.2,0.8-1.9,1.8-2.1c0.7-0.1,1.5,0,2.2,0.1c0.2,0,0.5,0,0.7,0.1c0.1,0,0.2,0.1,0.2,0.2
		c0,0.4,0,0.9,0,1.3c0,0.1-0.1,0.2-0.1,0.2c-0.1,0-0.2,0-0.2-0.1c-0.6-1-1.7-1.4-2.7-1c-0.8,0.3-1,1.2-0.4,1.9
		c0.5,0.5,1.2,0.8,1.8,1.1c0.7,0.3,1.3,0.7,1.7,1.3c0.7,1.2,0.1,2.8-1.5,3.2c-1,0.3-2,0.1-2.9-0.2c-0.2,0-0.4-0.1-0.6-0.1
		c0-0.5-0.1-1-0.1-1.5c0-0.1,0.1-0.1,0.1-0.2c0.1,0,0.2,0.1,0.2,0.1c0.2,0.6,0.5,0.9,1,1.1c0.6,0.2,1.2,0.3,1.7,0.1
		c0.8-0.2,1.3-1,0.9-1.6c-0.1-0.3-0.4-0.5-0.6-0.7c-0.6-0.4-1.3-0.7-1.9-1.1c-0.4-0.2-0.7-0.5-1-0.8C115.4,29.9,115.2,29.5,115.3,29
		z"/>
	<path class="st1" d="M137,28.3c0.5,0.8,0.9,1.5,1.4,2.3c0.4-0.7,0.8-1.3,1.1-1.9c0.2-0.3,0.4-0.6,0.5-1c0.1-0.2,0.1-0.5-0.2-0.6
		c0,0-0.1-0.1-0.1-0.2c0,0,0.1-0.1,0.2-0.1c0.6,0,1.1,0,1.7,0c0.1,0,0.2,0.1,0.2,0.1c0,0.1,0,0.2-0.1,0.2c-1,0.5-1.3,1.5-1.8,2.4
		c-0.3,0.5-0.7,1.1-1,1.6c-0.1,0.2-0.2,0.4-0.2,0.6c0,0.7,0,1.3,0,2c0,0.4,0.1,0.6,0.5,0.8c0.1,0,0.2,0.1,0.3,0.3
		c-0.2,0-0.2,0.1-0.3,0.1c-0.7,0-1.5,0-2.2,0c-0.1,0-0.2-0.1-0.3-0.1c0.1-0.1,0.1-0.2,0.2-0.2c0.4-0.2,0.5-0.5,0.5-0.9
		c0-0.4,0-0.8,0-1.2c0.1-0.6-0.1-1.2-0.5-1.7c-0.6-0.9-1.2-1.9-1.9-2.9c-0.2-0.3-0.4-0.4-0.7-0.7c-0.1-0.1-0.1-0.2-0.1-0.2
		c0.1,0,0.2-0.1,0.2-0.1c0.7,0,1.4,0,2.2,0c0.1,0,0.2,0.1,0.2,0.1c0,0.1-0.1,0.2-0.1,0.2c-0.3,0.1-0.3,0.3-0.2,0.6
		C136.8,27.9,136.9,28.1,137,28.3z"/>
	<path class="st1" d="M129.5,34.8c-0.3,0-0.5,0-0.8,0c0.1-0.1,0.1-0.3,0.2-0.3c0.5-0.2,0.6-0.5,0.6-1c0-1.9,0-3.8,0-5.7
		c0-0.3-0.1-0.4-0.3-0.3c-0.5,0-1.1,0-1.6,0.1c-0.4,0-0.6,0.3-0.8,0.6c0,0.1-0.2,0.2-0.3,0.3c0-0.1-0.1-0.2-0.1-0.3
		c0-0.4,0-0.9,0-1.3c2.5,0,5,0,7.5,0c0,0.5,0,1,0,1.6c0,0,0,0-0.1,0.1c-0.1-0.1-0.2-0.2-0.3-0.3c-0.2-0.6-0.7-0.7-1.2-0.7
		c-0.4,0-0.8,0-1.2,0c-0.2,0-0.2,0.1-0.2,0.2c0,2,0,4.1,0,6.1c0,0.2,0.2,0.4,0.4,0.6c0.1,0.1,0.4,0.2,0.3,0.3
		c-0.1,0.3-0.3,0.1-0.5,0.1C130.6,34.8,130.1,34.8,129.5,34.8z"/>
	<path class="st1" d="M125,27.2c-0.3,0.2-0.3,0.4-0.3,0.6c0,2,0,4,0,6c0,0.3,0.1,0.5,0.4,0.7c0.1,0,0.1,0.2,0.2,0.2
		c-0.1,0-0.2,0.1-0.3,0.1c-0.8,0-1.5,0-2.3,0c-0.1,0-0.2-0.1-0.2-0.1c0.1-0.1,0.1-0.2,0.2-0.2c0.5-0.1,0.5-0.5,0.5-0.9
		c0-1.9,0-3.8,0-5.7c0-0.4-0.1-0.7-0.6-0.9c-0.1,0-0.1-0.1-0.1-0.2c0.1,0,0.1-0.1,0.2-0.1c0.4,0,0.8,0.1,1.1,0.1
		c0.4,0,0.7,0,1.1-0.1c0.1,0,0.2,0.1,0.4,0.1C125.2,27.1,125.1,27.1,125,27.2z"/>
	<path class="st1" d="M85.6,29.6c0-0.6,0-1.1,0-1.6c0-0.4-0.2-0.7-0.5-0.8c-0.1,0-0.1-0.1-0.2-0.2c0.1,0,0.2-0.1,0.2-0.1
		c0.4,0,0.7,0.1,1.1,0c0.4,0,0.8,0,1.2,0c0.1,0,0.2,0.1,0.3,0.1c-0.1,0.1-0.2,0.2-0.2,0.2c-0.4,0.2-0.5,0.4-0.5,0.8
		c0,1.9,0,3.8,0,5.8c0,0.5,0.1,0.6,0.5,0.8c0.1,0,0.1,0.1,0.2,0.2c-0.1,0-0.2,0.1-0.3,0.1c-0.8,0-1.5,0-2.3,0
		c-0.1,0-0.2-0.1-0.3-0.1c0.1-0.1,0.1-0.2,0.2-0.2c0.4-0.2,0.6-0.3,0.6-0.8C85.6,32.4,85.6,31,85.6,29.6z"/>
	<path class="st2" d="M10.2,20.6c0.1-0.1,0.2-0.2,0.3-0.3c0.2-0.3,0.3-0.3,0.6-0.1c0,0,0.1,0.1,0.2,0.1c0.1,0.1,0.1,0.1,0.1,0.1
		c0,0,0.1,0,0.1,0.1c0.2,0.1,0.4,0.1,0.6,0.2c0,0,0,0,0,0c0.3,0,0.6,0.1,0.9,0.1c0.6,0,1.2-0.1,1.8-0.1c0.5,0,1,0.1,1.5,0.1
		c0,0,0,0,0,0c0,0,0,0,0,0c0,0,0,0,0-0.1c0.1,0,0.3,0,0.4-0.1c0.3-0.3,0.7-0.3,1.1-0.3c1.1,0,2.2,0.2,3.3,0c0.1,0,0.3-0.1,0.4-0.1
		c0.3-0.2,0.7-0.2,1,0c0.3,0.2,0.6,0.1,0.9,0.1c0.7,0,1,0.3,1,1.1c0,0.2,0,0.4,0,0.6c0,0.3,0.1,0.4,0.4,0.4c0.3,0,0.6,0,0.9,0.3
		c0.4,0.3,0.1,1.1-0.3,1.2c-0.2,0-0.4,0.1-0.6,0.1c-0.3,0-0.4,0.2-0.4,0.4c0,0.2,0,0.3,0,0.5c0,1,0,2,0,3c0,0.1,0,0.3,0.1,0.4
		c0,0,0,0,0,0c0,0,0,0,0,0c0,0,0,0,0,0c0,0,0,0,0,0c0.4,0.1,0.8,0.1,1.2,0.2c0,0,0,0,0,0c0.2,0.2,0.2,0.2,0.3,0.1
		c0.4,0.6,0.1,1.2-0.6,1.3c-1,0.2-0.8,0.3-0.9,1.1c0,0.1,0,0.2,0,0.3c0,0.6-0.2,0.8-0.8,0.8c-0.8,0.1-1.5,0.1-2.3,0.1
		c-1.2,0-2.3,0-3.5,0.1c-0.3,0-0.6,0.1-0.9,0.2c-0.3,0.1-0.6,0.2-0.9,0c-0.3-0.2-0.6-0.3-0.9-0.3c-1.4,0-2.8,0-4.2,0
		c-0.4,0-0.9,0-1.3,0c-0.6,0-0.8-0.1-0.8-0.7c0-0.4,0-0.8,0-1.2c0-0.3-0.1-0.4-0.4-0.4c-0.4,0-0.9,0-1.2-0.4
		c-0.1-0.2-0.3-0.5-0.1-0.8c0.2-0.3,0.4-0.5,0.8-0.5c0.2,0,0.3,0,0.5,0c0.2,0,0.3-0.1,0.3-0.3c0-1.2,0-2.5,0-3.7
		c0-0.2-0.1-0.3-0.3-0.3c-0.4,0-0.7-0.1-1.1-0.2C7,24,6.9,23.6,7,23.3c0.1-0.4,0.6-0.7,1-0.6c0.8,0,0.8,0,0.8-0.7c0-0.2,0-0.5,0-0.7
		c0-0.1,0.1-0.3,0.2-0.4c0,0,0,0,0,0c0,0,0,0,0.1,0c0,0,0,0,0,0c0.1,0,0.1,0,0.1-0.1c0,0,0,0,0,0c0.4,0,0.8,0.2,1.2-0.1
		C10.4,20.7,10.3,20.7,10.2,20.6C10.2,20.6,10.2,20.6,10.2,20.6 M17.3,24.8c0.2,0.6,0.3,1.3,0.5,1.9c0.1,0.3,0.2,0.5,0.5,0.7
		c0.1,0,0.1,0.1,0.2,0.2c-0.4,0.2-0.8,0.1-1.3,0.1c0.2-0.6,0-1.1-0.3-1.4c-0.3,0.1-0.4,0.3-0.4,0.7c0,1.1,0,2.2,0,3.3
		c0,0.1,0,0.2,0.1,0.3c0.5-0.1,1-0.2,1.5-0.2c0.9,0,1.8,0,2.7,0.1c0.2,0,0.5,0,0.7-0.1c0.3-0.1,0.5-0.3,0.5-0.6c0-0.6,0-1.2,0-1.8
		c0-2.2,0-4.5,0.1-6.7c0-0.3-0.2-0.4-0.4-0.3c-0.6,0.4-1.4,0.3-2.1,0.3c-0.6,0-1.1-0.1-1.7-0.1c-0.3,0-0.5,0-0.8,0
		c-0.4,0-0.6,0.3-0.6,0.7c0,0.3,0,0.7,0,1c0,0.1,0,0.2,0.1,0.3C16.8,23.6,17,24.2,17.3,24.8 M14.9,27.4c0.1-0.2,0.4-0.4,0.4-0.6
		c0.2-0.8,0.4-1.5,0.7-2.3c0.1-0.5,0.3-1,0.2-1.6c-0.1-0.4,0-0.8,0-1.3c0-0.4-0.2-0.6-0.5-0.6c-0.7,0-1.4,0.1-2.1,0
		c-0.7,0-1.4,0.1-2.1-0.2c-0.2-0.1-0.4,0-0.4,0.3c0,0.6,0.1,1.1,0.1,1.7c0,0.8,0,1.7,0,2.5c0,1.4,0,2.8,0,4.2c0,0.6,0.1,0.8,0.7,0.8
		c1,0,2,0,3,0.1c0.3,0,0.7,0,1,0.1c0.3,0,0.4,0,0.4-0.3c0-1.2,0-2.4,0-3.6c0-0.1-0.1-0.2-0.1-0.2c-0.1,0-0.2,0.1-0.2,0.1
		c-0.1,0.3-0.2,0.6-0.2,0.9c0,0.3-0.1,0.5-0.5,0.5c-0.1,0-0.2,0-0.3-0.1C14.9,27.6,14.9,27.5,14.9,27.4 M23.9,22.3
		c0-0.3,0.1-0.6,0.1-0.9c0-0.5-0.1-0.5-0.6-0.5c-0.2,0-0.3,0.1-0.2,0.3c0.1,0.2,0.2,0.4,0.2,0.6c0,2,0,4,0,6c0,1,0,2-0.1,2.9
		c0,0.3-0.1,0.5-0.4,0.6c-0.3,0-0.5,0.1-0.8,0.1c-1.5,0-2.9,0-4.4,0c-0.1,0-0.2,0-0.3,0c-0.1,0.1-0.1,0.2-0.2,0.3
		c0.1,0.1,0.2,0.2,0.3,0.2c0.1,0,0.2,0,0.4,0c0.9,0,1.8,0,2.8,0c0.8,0,1.7,0,2.5,0c0.6,0,0.7-0.2,0.7-0.8c0-0.3,0.1-0.7,0.1-1
		c0-0.3,0.2-0.4,0.4-0.5c0.2,0,0.5,0,0.7,0c0.2,0,0.3-0.1,0.3-0.4c0-0.2-0.1-0.4-0.3-0.4c-0.2,0-0.4,0-0.6,0c-0.5,0-0.6-0.1-0.6-0.6
		c0-1.3,0-2.7,0-4c0-0.3,0.2-0.5,0.5-0.6c0.2,0,0.5,0,0.7-0.1c0.1,0,0.2-0.2,0.3-0.3c0-0.1-0.1-0.2-0.2-0.3
		c-0.2-0.1-0.4-0.1-0.5-0.1C24.2,22.9,24,22.8,23.9,22.3 M9.4,21.6c0,0.3,0,0.5-0.1,0.8c0,0.5-0.2,0.7-0.7,0.7
		c-0.3,0-0.6,0.1-0.9,0.2c-0.3,0.1-0.2,0.4,0.1,0.5c0.2,0.1,0.5,0.1,0.7,0.1c0.7,0,0.8,0.1,0.8,0.8c0,1.3,0,2.6-0.1,3.9
		c0,0.5-0.1,0.5-0.6,0.5c-0.3,0-0.5,0-0.8,0.1c-0.1,0-0.3,0.2-0.3,0.3c0,0.1,0.2,0.3,0.3,0.3c0.2,0.1,0.4,0,0.5,0
		c0.5,0,0.7,0.1,0.7,0.6c0,0.3,0,0.6,0,0.9c0,0.5,0.1,0.6,0.7,0.6c0.4,0,0.9,0,1.3,0c1.4,0,2.7-0.1,4.1-0.1c0.1,0,0.2-0.1,0.2-0.2
		c-0.1-0.1-0.1-0.2-0.2-0.2c-0.2,0-0.3-0.1-0.5-0.1c-1.6,0-3.1,0-4.7,0.1c-0.5,0-0.6-0.2-0.6-0.6c0-2.7,0-5.3,0-8
		c0-0.6-0.1-1.3,0.3-1.8C9.6,21,9.5,21,9.4,21.5C9.4,21.5,9.4,21.5,9.4,21.6 M22.4,25.2c0,0.8,0,1.5,0,2.3c0,0.8,0,1.6,0,2.4
		c0,0.2,0.4,0.7,0.6,0.8c0-0.1,0-0.1,0-0.2c0-2.8,0-5.5,0-8.3c0-0.3,0-0.6-0.2-0.8c-0.1-0.1-0.2-0.2-0.3-0.3c0,0.1-0.1,0.3-0.1,0.4
		C22.3,22.7,22.4,23.9,22.4,25.2 M10.6,27.1c0-1.8,0-3.6,0-5.4c0-0.2,0-0.3-0.1-0.5c-0.4,0.4-0.5,0.8-0.5,1.2c0,2.7-0.1,5.4-0.1,8.1
		c0,0.1,0,0.2,0,0.4c0.4-0.3,0.6-0.6,0.6-1C10.6,28.9,10.6,28.1,10.6,27.1 M19.3,31.2c1,0,2,0,3,0c0.1,0,0.3-0.1,0.5-0.1
		c-0.3-0.3-0.4-0.5-0.6-0.6c-0.1-0.1-0.3,0.1-0.5,0.1c-0.1,0-0.1,0-0.2,0c-1,0-1.9,0.1-2.9,0.1c-0.3,0-0.7-0.1-1,0
		c-0.2,0-0.6,0.3-0.5,0.4c0,0.3,0.3,0.2,0.6,0.2C18.1,31.2,18.7,31.2,19.3,31.2 M10.3,30.9c-0.1,0.2,0,0.3,0.2,0.3
		c0.2,0,0.3,0,0.5,0c1.5,0,3,0.1,4.5,0.1c0.1,0,0.2,0,0.2,0c0.1,0,0.2-0.1,0.2-0.2c0-0.1-0.1-0.2-0.2-0.2c-0.1,0-0.3-0.1-0.4-0.1
		c-1.1,0-2.1,0-3.2,0c-0.5,0-1-0.1-1.4-0.4C10.6,30.5,10.5,30.7,10.3,30.9 M16.2,31.2c-0.3,0.3-0.3,0.6-0.1,0.9
		c0.1,0.1,0.3,0.2,0.4,0.2c0.1,0,0.3-0.1,0.3-0.1c0-0.3,0.1-0.6,0-0.8C16.7,31.2,16.5,31,16.2,31.2 M16.5,24.9
		c0-0.1-0.1-0.2-0.1-0.3c-0.4,0.1-0.3,0.5-0.5,0.8c-0.2,0.4-0.1,0.7,0.5,0.6c0.3,0,0.4-0.1,0.3-0.4C16.7,25.4,16.6,25.2,16.5,24.9z"
		/>
	<path class="st3" d="M17.3,6.6c0.3,0,0.6-0.1,0.8-0.1c0.2,0,0.3-0.2,0.3-0.4c0-0.4,0-0.7,0-1.1c0-0.4,0.1-0.5,0.5-0.5
		c0.3,0,0.6,0,0.8,0c0.1,0,0.2,0,0.3-0.1c0.2-0.3,0.4-0.3,0.7-0.2c0.9,0.4,1.8,0.3,2.7,0.3c0.4,0,0.8-0.1,1.2,0.2
		c0.1,0,0.2,0.1,0.3,0c0.7-0.3,1.5-0.2,2.2-0.1c0.6,0,1.2,0,1.7-0.3c0.3-0.2,0.5-0.1,0.6,0.1c0.2,0.2,0.3,0.4,0.6,0.3c0,0,0,0,0.1,0
		c0.8,0,1.1,0.2,1,1c0,0.2,0,0.4,0,0.6c0,0.3,0.1,0.4,0.4,0.4c0.1,0,0.2,0,0.3,0c0.4,0,0.7,0.2,0.7,0.5c0.1,0.5-0.1,0.9-0.5,1.1
		c-0.1,0-0.3,0.1-0.4,0.1c-0.4,0-0.5,0.1-0.5,0.5c0,0.9,0,1.8-0.1,2.7c0,0.2,0,0.4,0,0.6c0,0.3,0.1,0.4,0.4,0.5c0.1,0,0.3,0,0.4,0
		c0.5,0.1,0.7,0.4,0.7,0.9c0,0.5-0.3,0.8-0.8,0.8c-0.1,0-0.2,0-0.2,0c-0.5,0-0.5,0.1-0.6,0.5c0,0.4,0,0.7-0.1,1.1
		c0,0.4-0.2,0.6-0.6,0.6c-0.5,0-1,0-1.5,0c-1.1,0-2.2,0-3.3,0c-0.1,0-0.2,0-0.2,0.1c-0.3,0.4-0.6,0.5-1,0.2c-0.7-0.4-1.3-0.3-2-0.4
		c-1.1,0-2.2,0-3.3-0.1c-0.4,0-0.6-0.2-0.6-0.6c0-0.4,0.1-0.7,0.1-1.1c0-0.4-0.1-0.5-0.5-0.5c-0.1,0-0.2,0-0.4,0
		c-0.4-0.1-0.7-0.3-0.7-0.7c0-0.5,0.2-0.7,0.6-0.9c0.1,0,0.3,0,0.5-0.1c0.4,0,0.5,0,0.5-0.5c0-1.2,0-2.4,0-3.6
		c0-0.1-0.1-0.2-0.2-0.3c-0.1-0.1-0.3-0.1-0.4,0c-0.4,0-0.8-0.1-0.9-0.4C16.8,7.4,17,6.9,17.3,6.6 M29,10.2C29,8.5,29,6.8,29,5
		c0-0.3-0.1-0.4-0.4-0.3c-0.2,0.1-0.5,0.1-0.7,0.2c-0.6,0-1.2,0-1.9,0c-0.3,0-0.5,0-0.8,0.1c-0.2,0-0.3,0.2-0.4,0.4
		c-0.1,2.9-0.1,5.8-0.2,8.7c0,0.2,0,0.3,0.3,0.2c0.4-0.1,0.9-0.1,1.3-0.1c0.7,0,1.5,0.1,2.2-0.1c0.3-0.1,0.3-0.2,0.3-0.4
		C28.9,12.5,28.9,11.4,29,10.2 M20.6,6.7c0,2.2-0.1,4.5-0.1,6.7c0,0.4,0.2,0.6,0.6,0.7c0.3,0,0.6,0,1,0c0.7,0,1.5,0,2.2,0
		c0-0.1,0-0.2,0-0.3c0-2.5,0.1-5,0.1-7.5c0-0.3,0-0.7-0.1-1c0-0.3-0.2-0.5-0.6-0.5c-1,0.1-1.9,0.1-2.9-0.1c-0.2-0.1-0.4,0.1-0.3,0.3
		C20.6,5.5,20.6,6.1,20.6,6.7 M18.8,8.5c0,1.2,0,2.4,0,3.6c0,0.6-0.1,0.7-0.7,0.7c-0.2,0-0.4,0.1-0.6,0.2c-0.3,0.1-0.3,0.4,0,0.6
		c0.2,0.1,0.4,0.1,0.6,0.1c0.4,0,0.7,0.3,0.7,0.7c0,0.3,0,0.5,0,0.8c0,0.5,0.1,0.6,0.7,0.6c1,0,2,0,3,0c0.3,0,0.7,0,1,0
		c0.1,0,0.2-0.1,0.3-0.2c-0.1-0.1-0.2-0.2-0.3-0.2c-0.1,0-0.1,0-0.2,0c-1.1,0-2.2,0-3.3,0c-0.4,0-0.6-0.1-0.6-0.5c0-0.1,0-0.3,0-0.4
		c0-2.6,0-5.1,0-7.7c0-0.5,0.1-1,0.2-1.6c0-0.2,0-0.2-0.2-0.3c-0.2,0-0.5,0.2-0.5,0.5c0,0.3,0,0.6,0,0.8c0,0.4-0.2,0.6-0.6,0.6
		c-0.3,0-0.5,0.1-0.8,0.2c-0.1,0-0.2,0.2-0.2,0.3c0,0.1,0.2,0.2,0.3,0.3c0.2,0.1,0.4,0,0.5,0.1C18.7,7.8,18.8,7.8,18.8,8.5
		 M30.2,5.5c0,0.3,0.1,0.7,0.1,1c0,2.4-0.1,4.7-0.1,7.1c0,0.5,0,1-0.1,1.5c0,0.2,0,0.4-0.3,0.4c-1.2,0-2.5,0-3.7,0
		c-0.1,0-0.2,0-0.3,0c-0.1,0.1-0.2,0.2-0.2,0.3c0.1,0.1,0.2,0.1,0.3,0.2c0.1,0,0.2,0,0.3,0c1.3,0,2.5,0,3.8,0c0.5,0,0.6-0.1,0.7-0.7
		c0-0.4,0.1-0.8,0.1-1.2c0-0.2,0.1-0.4,0.4-0.4c0.2,0,0.5,0,0.7,0c0.1,0,0.3-0.2,0.3-0.3c0.1-0.2,0-0.4-0.3-0.4
		c-0.1,0-0.3-0.1-0.4-0.1c-0.6,0-0.7-0.1-0.7-0.8c0-1.3,0-2.6,0-3.9c0-0.3,0.1-0.4,0.4-0.4c0.2,0,0.5,0,0.7,0c0.1,0,0.3-0.2,0.3-0.3
		c0-0.1-0.1-0.4-0.2-0.4c-0.2-0.1-0.4-0.2-0.7-0.2c-0.4,0-0.5-0.1-0.5-0.5c0-0.3,0-0.6,0-0.9c0-0.1-0.1-0.3-0.2-0.4
		c-0.1-0.1-0.4-0.1-0.4,0C30.1,5.1,30.2,5.3,30.2,5.5 M29.9,12.9c0-2.3,0.1-4.6,0.1-6.9c0-0.3-0.2-0.6-0.3-0.9
		c0-0.1-0.2-0.1-0.3-0.1c-0.1,0-0.1,0.1-0.2,0.2c0,0.1,0,0.1,0,0.2c0,2.7,0,5.3,0,8c0,0.1,0,0.2,0,0.3c0,0.4,0.3,0.7,0.6,0.7
		C29.9,14,29.9,13.5,29.9,12.9 M20.2,13.7c0-2.9,0-5.7,0-8.6c0,0-0.1,0-0.1,0c-0.1,0.1-0.3,0.2-0.3,0.3c-0.1,0.2-0.2,0.5-0.2,0.7
		c0,2.7,0,5.3-0.1,8c0,0.2,0.1,0.3,0.1,0.5C20.1,14.4,20.2,14.1,20.2,13.7 M25.2,14.7c-0.1,0.3,0.1,0.4,0.3,0.4c0.2,0,0.5,0,0.7,0
		c1.1,0,2.1,0,3.2,0c0.1,0,0.2,0,0.3-0.1c0,0,0-0.2-0.1-0.2c-0.2-0.3-0.5-0.4-0.8-0.3c-0.2,0-0.3,0.1-0.5,0.1c-0.8,0-1.6,0-2.4,0
		C25.6,14.5,25.4,14.5,25.2,14.7 M24.3,14.8c-0.1-0.2-0.3-0.4-0.6-0.4c-0.3,0-0.6,0-0.9,0c-0.7,0-1.5,0.1-2.2-0.2
		c-0.2-0.1-0.4,0.1-0.5,0.3c-0.1,0.2,0,0.3,0.2,0.3c0.3,0,0.5,0,0.8,0c0.9,0,1.8-0.1,2.7,0.1C24,15.1,24.2,15,24.3,14.8 M24.6,16.2
		c0.3,0.2,0.6,0.1,0.7-0.2c0.1-0.3,0-0.5-0.1-0.7c-0.1-0.1-0.2-0.3-0.4-0.2c-0.2,0.1-0.3,0.3-0.4,0.4C24.3,15.7,24.5,15.9,24.6,16.2
		z"/>
	<path class="st4" d="M15.4,12.5c0.8,0.2,1,0.5,0.9,1.1c-0.1,0.4-0.4,0.6-0.8,0.6c-0.1,0-0.3,0-0.4,0c-0.3,0-0.4,0.1-0.4,0.4
		c0,0.4,0,0.8-0.1,1.2c0,0.4-0.3,0.6-0.7,0.6c-0.5,0-0.9,0-1.4,0c-1.1,0-2.1,0-3.2,0c-0.1,0-0.2,0-0.2,0.1C8.7,16.9,8.5,17,8,16.7
		c-0.5-0.3-0.9-0.3-1.4-0.3c-1.3,0-2.5,0-3.8-0.1c-0.4,0-0.6-0.2-0.6-0.6c0-0.3,0.1-0.7,0.1-1c0-0.5-0.1-0.6-0.5-0.6
		c-0.2,0-0.3,0-0.5-0.1c-0.3-0.1-0.5-0.3-0.5-0.7c0-0.4,0.1-0.7,0.4-0.8c0.2-0.1,0.5-0.1,0.7-0.1c0.2,0,0.4-0.1,0.4-0.3
		c0-1.3,0-2.5,0-3.8c0-0.3-0.2-0.3-0.5-0.4c-0.1,0-0.1,0-0.2,0C1.2,8,0.8,8,0.7,7.7C0.5,7.4,0.6,7,0.8,6.8C0.9,6.7,1,6.6,1.2,6.6
		c0.1,0,0.2,0,0.4,0c0.5,0,0.6-0.1,0.6-0.6c0-0.3,0-0.6,0-0.9c0-0.4,0.2-0.5,0.6-0.5c0.2,0,0.4,0,0.6,0c0.2,0,0.4,0,0.6-0.2
		c0.1-0.1,0.4-0.1,0.5-0.1c1,0.4,2,0.3,3.1,0.3c0.3,0,0.5,0.1,0.8,0.2c0.2,0,0.3,0,0.5,0c0.1,0,0.2-0.1,0.3-0.1c0.7,0,1.3,0,2,0
		c0.5,0,1-0.1,1.5-0.3c0.4-0.2,0.5-0.2,0.7,0.1c0.2,0.2,0.3,0.3,0.6,0.2c0.9-0.1,1.1,0.2,1.1,1.1c0,0.2,0,0.3-0.1,0.5
		c0,0.3,0.1,0.4,0.4,0.4c0.1,0,0.1,0,0.2,0c0.7,0,0.9,0.2,0.9,0.9c0,0.5-0.3,0.7-0.8,0.8c-0.6,0-0.6,0-0.6,0.7c0,1,0,2-0.1,3
		C14.7,12.4,14.8,12.5,15.4,12.5 M8.6,5.8c0,2.3-0.1,4.6-0.1,6.9c0,0.4,0,0.9-0.1,1.3c0,0.2,0,0.3,0.3,0.2c0.5-0.1,0.9-0.1,1.4-0.1
		c0.7,0,1.4,0.1,2.2-0.1c0.3-0.1,0.3-0.2,0.4-0.5c0-2.9,0.1-5.7,0.1-8.6c0-0.4-0.1-0.4-0.4-0.3c-0.3,0.1-0.6,0.2-0.8,0.2
		c-0.7,0-1.3,0-2,0C8.8,4.9,8.6,5.1,8.6,5.8 M8.2,5.6c0-0.7-0.2-0.8-0.8-0.7C6.5,4.9,5.6,4.9,4.8,4.7C4.5,4.6,4.4,4.7,4.4,5
		c0,2.8-0.1,5.5-0.1,8.3c0,0.6,0.1,0.7,0.8,0.8c1,0.1,2-0.1,3,0.1c0-0.2,0-0.3,0-0.5c0-0.7,0-1.5,0.1-2.2C8.2,9.6,8.2,7.6,8.2,5.6
		 M2.5,12.2c0,0.6,0,0.7-0.7,0.7c-0.2,0-0.4,0-0.5,0.1c-0.1,0.1-0.3,0.2-0.3,0.3c0,0.1,0.1,0.3,0.2,0.3c0.2,0.1,0.4,0.1,0.6,0.1
		c0.4,0,0.7,0.2,0.7,0.7c0,0.2,0,0.5,0,0.7c0,0.6,0.1,0.7,0.7,0.7c1.3,0,2.5,0,3.8,0c0.2,0,0.5,0.1,0.5-0.2c0-0.3-0.3-0.3-0.5-0.3
		c-1.1,0-2.3-0.1-3.4-0.1c-0.3,0-0.4-0.1-0.5-0.4c0-0.2-0.1-0.3-0.1-0.5c0-2.6,0-5.3,0.1-7.9c0-0.5,0.1-0.9,0.2-1.3
		c0-0.1,0-0.2,0-0.3c-0.1,0-0.3,0-0.4,0C2.7,5,2.6,5.2,2.6,5.4c0,0.3,0,0.7-0.1,1c0,0.4-0.2,0.5-0.6,0.5C1.8,6.9,1.5,7,1.3,7
		C1.1,7.1,1,7.2,1,7.4c0,0.2,0.2,0.3,0.4,0.3c0.2,0,0.4,0,0.6,0.1C2.5,7.8,2.5,8,2.5,8.4C2.5,9.6,2.5,10.9,2.5,12.2 M14.8,13.7
		c0.2,0,0.5,0,0.7,0c0.2,0,0.4,0,0.5-0.3c0-0.3-0.2-0.4-0.4-0.5c-0.1,0-0.3,0-0.4,0c-0.5,0-0.6-0.2-0.6-0.7c0-1.4,0-2.7,0-4.1
		c0-0.2,0.1-0.4,0.4-0.4c0.2,0,0.4,0,0.7,0c0.2,0,0.4-0.1,0.5-0.3C16,7.2,15.9,7,15.7,7c-0.2-0.1-0.5-0.1-0.7-0.1
		c-0.3,0-0.4-0.1-0.4-0.4c0-0.3,0-0.7,0-1c0-0.1,0-0.3,0-0.3C14.4,5,14.2,5,14,4.9c0,0-0.2,0.2-0.2,0.3c0,0.4,0.2,0.9,0.2,1.3
		c0,2.8-0.1,5.6-0.2,8.4c0,0.1,0,0.2-0.1,0.3c-0.1,0.1-0.2,0.2-0.3,0.2c-1.2,0-2.3,0-3.5,0c-0.2,0-0.3,0-0.5,0
		c-0.1,0-0.2,0.2-0.3,0.2c0.1,0.1,0.2,0.2,0.3,0.2c1.3,0,2.7,0,4,0c0.5,0,0.7-0.1,0.7-0.7c0-0.4,0-0.8,0.1-1.1
		C14.5,13.9,14.5,13.7,14.8,13.7 M13.7,9.7c0-1.2,0.1-2.4,0-3.6c0-0.3-0.2-0.6-0.3-0.9c0-0.1-0.2-0.2-0.3-0.1
		c-0.1,0-0.2,0.2-0.2,0.3c0,0.1,0,0.2,0,0.3c0,2.3,0,4.6,0,6.9c0,0.4,0,0.8,0,1.2c0,0.4,0.3,0.8,0.6,0.8
		C13.7,12.9,13.7,11.3,13.7,9.7 M3.9,14c0-0.1,0-0.3,0-0.4C4,11.1,4,8.5,4,6C4,5.7,4,5.4,4,5.1c0,0-0.1,0-0.1,0
		C3.8,5.2,3.6,5.3,3.6,5.4C3.5,5.6,3.4,5.9,3.4,6.1c0,2.7,0,5.3-0.1,8c0,0.2,0.1,0.3,0.1,0.5c0,0,0.1,0,0.1,0
		C3.7,14.4,3.8,14.3,3.9,14 M4.8,15.1c0.9,0,1.9-0.1,2.8,0.1c0.1,0,0.3-0.1,0.5-0.2c-0.1-0.1-0.1-0.3-0.2-0.4
		c-0.1-0.1-0.2-0.1-0.3-0.1c-0.3,0-0.7,0-1,0c-0.7,0-1.5,0.1-2.2-0.2c-0.3-0.1-0.4,0.1-0.5,0.3c-0.1,0.2,0,0.4,0.3,0.4
		C4.3,15.1,4.5,15.1,4.8,15.1 M12.9,15.1c0.1,0,0.3,0,0.4,0c-0.3-0.6-0.5-0.7-1-0.6c-0.1,0-0.3,0.1-0.4,0.1c-0.8,0-1.6,0-2.4,0
		c-0.1,0-0.3,0-0.3,0c-0.1,0.1-0.2,0.2-0.3,0.3C9,15,9.1,15.1,9.2,15.2c0.1,0,0.3,0,0.4,0C10.7,15.1,11.8,15.1,12.9,15.1 M8.6,16.3
		c0.1-0.1,0.3-0.2,0.3-0.3c0.2-0.2,0-0.7-0.3-0.8c-0.2-0.1-0.4,0-0.6,0.2C7.8,15.7,8,16.2,8.6,16.3z"/>
	<path class="st5" d="M16.2,20.8C16.2,20.9,16.2,20.9,16.2,20.8C16.3,20.9,16.3,20.9,16.2,20.8c-0.5,0-1,0-1.4,0
		c-0.6,0-1.2,0.1-1.8,0.1c-0.3,0-0.6,0-0.8-0.1c1-0.1,1.9-0.1,2.9-0.1c0.3,0,0.7-0.1,1,0.1C16.1,20.7,16.2,20.8,16.2,20.8z"/>
	<path class="st2" d="M15.1,20.6c-0.9,0.1-1.9,0.1-2.9,0.1c0,0,0,0,0,0c0,0,0-0.1,0-0.1c0.8,0,1.7,0,2.5-0.1
		C14.8,20.6,14.9,20.6,15.1,20.6z"/>
	<path class="st5" d="M12.1,20.7c0,0,0,0.1,0,0.1c-0.2,0-0.4-0.1-0.6-0.2C11.7,20.6,11.9,20.6,12.1,20.7z"/>
	<path class="st2" d="M9.2,20.7c0.1,0,0.3,0,0.4-0.1c0.2,0,0.4,0,0.6,0c0,0,0,0,0,0C9.9,20.7,9.5,20.7,9.2,20.7
		C9.2,20.7,9.2,20.7,9.2,20.7z"/>
	<path class="st2" d="M24.4,28.5c0.3,0,0.7,0.1,1,0.1c0,0,0,0,0,0C25,28.6,24.7,28.6,24.4,28.5C24.3,28.5,24.3,28.5,24.4,28.5
		C24.3,28.5,24.3,28.5,24.4,28.5C24.3,28.5,24.3,28.5,24.4,28.5z"/>
	<path class="st5" d="M25.8,28.8c-0.1,0.1-0.1,0.1-0.2-0.1C25.6,28.7,25.6,28.7,25.8,28.8C25.7,28.8,25.7,28.8,25.8,28.8z"/>
	<path class="st2" d="M9.1,20.8c0,0,0.1,0,0.1-0.1c0,0,0,0,0,0c0,0,0,0.1,0,0.1s0,0,0,0C9.1,20.8,9.1,20.8,9.1,20.8
		C9.1,20.8,9.1,20.8,9.1,20.8z"/>
	<path class="st2" d="M25.4,28.6c0,0,0.1,0,0.1,0C25.5,28.7,25.5,28.7,25.4,28.6C25.4,28.7,25.4,28.6,25.4,28.6
		C25.4,28.6,25.4,28.6,25.4,28.6z"/>
	<path class="st2" d="M25.7,28.7c0,0-0.1,0-0.1,0c0,0,0,0,0,0s0,0,0,0s0,0,0,0C25.6,28.7,25.6,28.7,25.7,28.7z"/>
	<path class="st5" d="M11.4,20.5c0,0-0.1,0-0.1,0C11.3,20.5,11.4,20.5,11.4,20.5C11.4,20.5,11.4,20.5,11.4,20.5
		C11.4,20.5,11.4,20.5,11.4,20.5z"/>
	<path class="st2" d="M9,20.8C9,20.8,9,20.8,9,20.8C9.1,20.8,9.1,20.8,9,20.8C9.1,20.8,9.1,20.9,9,20.8C9.1,20.9,9.1,20.9,9,20.8
		C9,20.9,9,20.9,9,20.8C9,20.9,9,20.8,9,20.8z"/>
	<path class="st5" d="M11.4,20.5C11.4,20.5,11.4,20.4,11.4,20.5C11.4,20.4,11.4,20.5,11.4,20.5C11.4,20.5,11.4,20.5,11.4,20.5z"/>
	<path class="st6" d="M108.4,27.5c0,1,0,2,0,3.1c0,0-0.1,0-0.1-0.1C108.4,29.5,108.4,28.5,108.4,27.5z"/>
	<path class="st7" d="M17.3,24.8c-0.2-0.6-0.4-1.2-0.6-1.7c0-0.1-0.1-0.2-0.1-0.3c0-0.3,0-0.7,0-1c0-0.4,0.2-0.6,0.6-0.7
		c0.3,0,0.5,0,0.8,0c0.6,0,1.1,0.1,1.7,0.1c0.7,0,1.4,0.1,2.1-0.3c0.2-0.1,0.4,0,0.4,0.3c0,2.2,0,4.5-0.1,6.7c0,0.6,0,1.2,0,1.8
		c0,0.4-0.2,0.6-0.5,0.6c-0.2,0.1-0.5,0.1-0.7,0.1c-0.9,0-1.8-0.1-2.7-0.1c-0.5,0-1,0.1-1.5,0.2c0-0.1-0.1-0.2-0.1-0.3
		c0-1.1,0-2.2,0-3.3c0-0.3,0.1-0.5,0.4-0.7c0.4,0.3,0.5,0.8,0.3,1.4c0.4,0.1,0.8,0.2,1.3-0.1c-0.1-0.1-0.1-0.1-0.2-0.2
		c-0.3-0.2-0.4-0.4-0.5-0.7C17.6,26.1,17.4,25.5,17.3,24.8 M20.6,26.6c0,0.4-0.2,0.7-0.5,0.7c-0.4,0-0.8-0.2-0.9-0.6
		c0-0.1-0.1-0.2-0.2-0.3c0,0-0.1,0-0.1,0c0,0.4,0,0.7,0,1c0.3,0,0.5,0,0.7,0.1c0.5,0.2,0.9,0.1,1.3-0.3c0.4-0.4,0.4-0.9,0.1-1.3
		c-0.2-0.3-0.6-0.5-0.9-0.8c-0.2-0.2-0.5-0.3-0.7-0.5c-0.2-0.2-0.2-0.4,0-0.6c0.2-0.2,0.5-0.2,0.8,0c0.1,0.1,0.3,0.2,0.4,0.4
		c0.3-0.3,0.1-0.6,0.1-0.9c0-0.2-0.1-0.2-0.3-0.2c-0.2,0-0.4,0-0.6,0c-0.1,0-0.2,0-0.3,0c-0.7,0.2-1,1-0.5,1.6
		c0.2,0.3,0.5,0.5,0.8,0.6C20.1,26,20.4,26.2,20.6,26.6z"/>
	<path class="st7" d="M14.9,27.4c0,0.1,0,0.2,0.1,0.2c0.1,0,0.2,0.1,0.3,0.1c0.4,0,0.5-0.1,0.5-0.5c0-0.3,0.1-0.6,0.2-0.9
		c0-0.1,0.2-0.2,0.2-0.1c0.1,0,0.1,0.2,0.1,0.2c0,1.2,0,2.4,0,3.6c0,0.3-0.1,0.3-0.4,0.3c-0.3,0-0.7,0-1-0.1c-1,0-2,0-3-0.1
		c-0.6,0-0.7-0.2-0.7-0.8c0-1.4,0-2.8,0-4.2c0-0.8,0-1.7,0-2.5c0-0.6,0-1.1-0.1-1.7c0-0.3,0.1-0.4,0.4-0.3c0.7,0.4,1.4,0.2,2.1,0.2
		c0.7,0,1.4,0,2.1,0c0.3,0,0.5,0.2,0.5,0.6c0,0.4,0,0.9,0,1.3c0.1,0.6-0.1,1.1-0.2,1.6c-0.2,0.8-0.4,1.6-0.7,2.3
		C15.3,27,15,27.2,14.9,27.4 M13.2,27.8c0.2,0,0.4,0,0.6,0c0.1,0,0.2,0,0.3-0.1c0-0.1-0.1-0.2-0.1-0.4c-0.1-0.2-0.2-0.4-0.2-0.6
		c0-0.8,0-1.6,0-2.4c0-0.1,0-0.2,0-0.3c0-0.1,0.1-0.1,0.2-0.2c0,0,0.1,0.1,0.2,0.1c0.1,0.1,0.1,0.2,0.2,0.2c0.1,0,0.3,0,0.3,0
		c0.2-0.3,0.2-0.5,0.1-0.9c-0.1,0.1-0.2,0.1-0.3,0.1c-0.5,0.2-1.1,0.2-1.7,0c-0.5-0.1-0.4-0.2-0.6,0.3c0,0.1-0.1,0.2-0.1,0.2
		c0,0.1,0.1,0.3,0.1,0.4c0.2-0.2,0.3-0.4,0.5-0.5c0.1-0.1,0.3-0.1,0.5-0.1c0.1,0,0.1,0.2,0.1,0.4c0,0.8,0,1.6-0.1,2.4
		c0,0.3-0.1,0.6-0.2,0.9C12.9,27.6,12.9,27.8,13.2,27.8z"/>
	<path class="st8" d="M23.9,22.4c0.1,0.4,0.3,0.6,0.7,0.6c0.2,0,0.4,0,0.5,0.1c0.1,0,0.2,0.2,0.2,0.3c-0.1,0.1-0.2,0.3-0.3,0.3
		c-0.2,0.1-0.5,0-0.7,0.1c-0.3,0-0.5,0.2-0.5,0.6c0,1.3,0,2.7,0,4c0,0.5,0.1,0.6,0.6,0.6c0.2,0,0.4,0,0.6,0c0.2,0,0.3,0.2,0.3,0.4
		c0,0.2-0.1,0.3-0.3,0.4c-0.2,0-0.5,0-0.7,0c-0.3,0-0.5,0.1-0.4,0.5c0,0.3-0.1,0.7-0.1,1c0,0.6-0.1,0.8-0.7,0.8c-0.8,0-1.7,0-2.5,0
		c-0.9,0-1.8,0-2.8,0c-0.1,0-0.2,0.1-0.4,0c-0.1,0-0.2-0.1-0.3-0.2c0.1-0.1,0.1-0.2,0.2-0.3c0.1,0,0.2,0,0.3,0c1.5,0,2.9,0,4.4,0
		c0.3,0,0.5-0.1,0.8-0.1c0.3-0.1,0.4-0.3,0.4-0.6c0-1,0-2,0.1-2.9c0-2,0-4,0-6c0-0.2-0.1-0.4-0.2-0.6c-0.1-0.2-0.1-0.3,0.2-0.3
		c0.5-0.1,0.6,0,0.6,0.5C23.9,21.7,23.9,22,23.9,22.4z"/>
	<path class="st9" d="M9.4,21.6c0-0.1,0-0.1,0-0.1c0.1-0.5,0.2-0.5,0.7-0.3c-0.5,0.5-0.3,1.2-0.3,1.8c0,2.7,0,5.3,0,8
		c0,0.4,0.1,0.6,0.6,0.6c1.6-0.1,3.1,0,4.7-0.1c0.2,0,0.3,0,0.5,0.1c0.1,0,0.1,0.1,0.2,0.2c-0.1,0.1-0.2,0.2-0.2,0.2
		c-1.4,0.1-2.7,0.1-4.1,0.1c-0.4,0-0.9,0-1.3,0c-0.5,0-0.6-0.1-0.7-0.6c0-0.3,0-0.6,0-0.9c-0.1-0.5-0.3-0.6-0.7-0.6
		c-0.2,0-0.4,0-0.5,0c-0.1,0-0.3-0.2-0.3-0.3c0-0.1,0.1-0.3,0.3-0.3c0.2-0.1,0.5-0.1,0.8-0.1c0.5,0,0.5,0,0.6-0.5
		c0-1.3,0-2.6,0.1-3.9c0-0.7-0.1-0.8-0.8-0.8c-0.2,0-0.5,0-0.7-0.1c-0.3-0.1-0.3-0.4-0.1-0.5c0.3-0.1,0.6-0.2,0.9-0.2
		c0.5,0,0.7-0.2,0.7-0.7C9.4,22.1,9.4,21.9,9.4,21.6z"/>
	<path class="st10" d="M22.4,25.2c0-1.2,0-2.4,0-3.6c0-0.1,0.1-0.3,0.1-0.4c0.1,0.1,0.2,0.2,0.3,0.3c0.2,0.2,0.2,0.5,0.2,0.8
		c0,2.8,0,5.5,0,8.3c0,0.1,0,0.1,0,0.2c-0.3-0.1-0.6-0.6-0.6-0.8c0-0.8,0-1.6,0-2.4C22.4,26.7,22.4,26,22.4,25.2z"/>
	<path class="st11" d="M10.6,27.2c0,0.9,0,1.8,0,2.6c0,0.4-0.2,0.8-0.6,1c0-0.2,0-0.3,0-0.4c0-2.7,0.1-5.4,0.1-8.1
		c0-0.4,0.1-0.8,0.5-1.2c0,0.2,0.1,0.4,0.1,0.5C10.6,23.5,10.6,25.3,10.6,27.2z"/>
	<path class="st12" d="M19.3,31.2c-0.6,0-1.1,0-1.7,0c-0.2,0-0.6,0.1-0.6-0.2c0-0.1,0.3-0.3,0.5-0.4c0.3-0.1,0.7,0,1,0
		c1,0,1.9,0,2.9-0.1c0.1,0,0.1,0,0.2,0c0.2-0.1,0.4-0.2,0.5-0.1c0.2,0.1,0.4,0.4,0.6,0.6c-0.2,0.1-0.4,0.1-0.5,0.1
		C21.3,31.2,20.3,31.2,19.3,31.2z"/>
	<path class="st13" d="M10.3,30.9c0.2-0.2,0.3-0.4,0.5-0.6c0.4,0.4,0.9,0.4,1.4,0.4c1.1,0,2.1,0,3.2,0c0.1,0,0.3,0,0.4,0.1
		c0.1,0,0.2,0.1,0.2,0.2c0,0.1-0.1,0.2-0.2,0.2c-0.1,0-0.1,0-0.2,0c-1.5,0-3-0.1-4.5-0.1c-0.2,0-0.3,0-0.5,0
		C10.3,31.3,10.2,31.2,10.3,30.9z"/>
	<path class="st14" d="M16.2,31.2c0.3-0.2,0.5-0.1,0.6,0.2c0.1,0.3,0,0.6,0,0.8c0,0.1-0.2,0.2-0.3,0.1c-0.2,0-0.4-0.1-0.4-0.2
		C15.9,31.8,15.9,31.5,16.2,31.2z"/>
	<path class="st14" d="M16.5,24.9c0.1,0.2,0.1,0.5,0.2,0.7c0.1,0.2,0,0.4-0.3,0.4c-0.6,0-0.7-0.2-0.5-0.6c0.1-0.3,0-0.6,0.5-0.8
		C16.4,24.7,16.5,24.8,16.5,24.9z"/>
	<path class="st5" d="M25.5,28.7C25.5,28.7,25.5,28.7,25.5,28.7c-0.4,0-0.7,0-1.1-0.1c0.3,0,0.6,0,1,0
		C25.4,28.6,25.4,28.7,25.5,28.7z"/>
	<path class="st5" d="M9.2,20.8C9.2,20.8,9.2,20.8,9.2,20.8c0.3-0.1,0.6-0.1,1-0.1c0.1,0,0.1,0,0.2,0C10,21,9.6,20.8,9.2,20.8z"/>
	<path class="st5" d="M9.1,20.9C9.1,20.9,9.1,20.8,9.1,20.9C9.1,20.8,9.1,20.8,9.1,20.9C9.2,20.8,9.2,20.8,9.1,20.9z"/>
	<path class="st5" d="M24.3,28.5C24.3,28.5,24.3,28.5,24.3,28.5C24.3,28.5,24.3,28.5,24.3,28.5C24.3,28.5,24.3,28.5,24.3,28.5z"/>
	<path class="st5" d="M9,20.9C9,20.9,9,20.9,9,20.9C9.1,20.9,9,20.9,9,20.9z"/>
	<path class="st5" d="M16.3,20.9C16.3,20.9,16.3,20.9,16.3,20.9C16.3,20.9,16.3,20.9,16.3,20.9C16.3,20.9,16.3,20.9,16.3,20.9z"/>
	<path class="st15" d="M29,10.2c0,1.2,0,2.3-0.1,3.5c0,0.2-0.1,0.3-0.3,0.4c-0.7,0.2-1.5,0.1-2.2,0.1c-0.4,0-0.9,0.1-1.3,0.1
		c-0.2,0-0.3,0-0.3-0.2c0.1-2.9,0.1-5.8,0.2-8.7c0-0.2,0.1-0.4,0.4-0.4c0.3,0,0.5-0.1,0.8-0.1c0.6,0,1.2,0,1.9,0
		c0.2,0,0.5-0.1,0.7-0.2C29,4.7,29,4.7,29,5C29,6.8,29,8.5,29,10.2 M26.9,11.4c0-0.8,0-1.7,0-2.5c0-0.3,0-0.6,0.2-0.9
		c0.1-0.2,0.1-0.3-0.2-0.4c-0.2,0-0.3-0.1-0.5-0.1c-0.2,0-0.3,0.1-0.5,0.1C26,8,26.2,8.3,26.2,8.6c0,0.8,0,1.5,0,2.3
		c0,0.3-0.2,0.5-0.3,0.7c0,0.1-0.1,0.2-0.1,0.2c0,0.1,0.1,0.1,0.2,0.1c0.3,0,0.5,0,0.8,0c0.1,0,0.2-0.1,0.3-0.1
		C27.1,11.7,27,11.6,26.9,11.4z"/>
	<path class="st15" d="M20.6,6.7c0-0.6,0-1.2,0-1.7c0-0.3,0.1-0.4,0.3-0.3c1,0.2,1.9,0.2,2.9,0.1c0.3,0,0.5,0.2,0.6,0.5
		c0,0.3,0.1,0.7,0.1,1c0,2.5-0.1,5-0.1,7.5c0,0.1,0,0.3,0,0.3c-0.8,0-1.5,0-2.2,0c-0.3,0-0.7,0-1,0c-0.4,0-0.6-0.2-0.6-0.7
		C20.5,11.2,20.6,9,20.6,6.7 M23.8,9.2c0.2-0.9-0.2-1.5-0.9-1.6c-0.5,0-0.9,0-1.4,0c-0.1,0-0.2,0-0.2,0.1c0,0.1,0,0.2,0.1,0.3
		c0.2,0.2,0.3,0.4,0.3,0.7c0,0.7,0,1.5,0,2.2c0,0.3,0,0.5-0.2,0.8c-0.2,0.2-0.1,0.3,0.2,0.3c0.2,0,0.4,0.1,0.5,0.1
		c0.3,0,0.4-0.2,0.3-0.4c-0.3-0.4-0.2-0.8-0.1-1.2c0-0.1,0.1-0.1,0.1-0.2c0.1,0,0.1,0.1,0.2,0.1c0.3,0.4,0.5,0.8,0.8,1.3
		c0.1,0.1,0.2,0.2,0.4,0.3c0.1,0,0.2,0,0.3-0.1c0,0,0-0.2,0-0.2c-0.2-0.4-0.5-0.7-0.7-1.1c-0.2-0.3-0.1-0.5,0.2-0.8
		C23.5,9.6,23.7,9.4,23.8,9.2z"/>
	<path class="st14" d="M18.8,8.5c0-0.6-0.1-0.7-0.7-0.8c-0.2,0-0.4,0-0.5-0.1c-0.1,0-0.3-0.2-0.3-0.3c0-0.1,0.1-0.3,0.2-0.3
		c0.2-0.1,0.5-0.2,0.8-0.2c0.4,0,0.6-0.2,0.6-0.6c0-0.3,0-0.6,0-0.8c0-0.3,0.3-0.5,0.5-0.5c0.1,0,0.2,0.1,0.2,0.3
		c-0.1,0.5-0.2,1-0.2,1.6c0,2.6,0,5.1,0,7.7c0,0.1,0,0.3,0,0.4c0.1,0.4,0.2,0.5,0.6,0.5c1.1,0,2.2,0,3.3,0c0.1,0,0.2,0,0.2,0
		c0.1,0.1,0.2,0.2,0.3,0.2c-0.1,0.1-0.2,0.2-0.3,0.2c-0.3,0-0.7,0-1,0c-1,0-2,0-3,0c-0.5,0-0.7-0.1-0.7-0.6c0-0.3,0-0.5,0-0.8
		c0-0.4-0.3-0.7-0.7-0.7c-0.2,0-0.4,0-0.6-0.1c-0.3-0.1-0.3-0.4,0-0.6c0.2-0.1,0.4-0.1,0.6-0.2c0.6,0,0.7-0.1,0.7-0.7
		C18.7,10.9,18.8,9.7,18.8,8.5z"/>
	<path class="st14" d="M30.2,5.5c0-0.2,0-0.4,0-0.5c0-0.1,0.3-0.1,0.4,0c0.1,0.1,0.2,0.2,0.2,0.4c0,0.3,0,0.6,0,0.9
		c0,0.4,0.1,0.5,0.5,0.5c0.2,0,0.5,0.1,0.7,0.2c0.1,0.1,0.2,0.3,0.2,0.4c0,0.1-0.2,0.2-0.3,0.3c-0.2,0-0.5,0-0.7,0
		c-0.3,0-0.4,0.1-0.4,0.4c0,1.3,0,2.6,0,3.9c0,0.6,0.1,0.8,0.7,0.8c0.2,0,0.3,0,0.4,0.1c0.2,0.1,0.3,0.3,0.3,0.4
		c0,0.1-0.2,0.2-0.3,0.3c-0.2,0-0.5,0-0.7,0c-0.3,0-0.4,0.1-0.4,0.4c0,0.4-0.1,0.8-0.1,1.2c0,0.5-0.2,0.6-0.7,0.7
		c-1.3,0-2.5,0-3.8,0c-0.1,0-0.2,0.1-0.3,0c-0.1,0-0.2-0.1-0.3-0.2c0.1-0.1,0.1-0.2,0.2-0.3c0.1,0,0.2,0,0.3,0c1.2,0,2.5,0,3.7,0
		c0.3,0,0.3-0.2,0.3-0.4c0-0.5,0-1,0.1-1.5c0.1-2.4,0.1-4.7,0.1-7.1C30.3,6.1,30.2,5.8,30.2,5.5z"/>
	<path class="st16" d="M29.9,13c0,0.5,0,1,0,1.6c-0.3,0-0.6-0.3-0.6-0.7c0-0.1,0-0.2,0-0.3c0-2.7,0-5.3,0-8c0-0.1,0-0.2,0-0.2
		c0-0.1,0.1-0.2,0.2-0.2c0.1,0,0.2,0,0.3,0.1C29.8,5.5,30,5.8,30,6C30,8.3,29.9,10.6,29.9,13z"/>
	<path class="st11" d="M20.2,13.7c0,0.4-0.2,0.7-0.5,0.9c0-0.2-0.1-0.4-0.1-0.5c0-2.7,0-5.3,0.1-8c0-0.2,0.1-0.5,0.2-0.7
		c0.1-0.1,0.2-0.2,0.3-0.3c0,0,0.1,0,0.1,0C20.2,8,20.2,10.8,20.2,13.7z"/>
	<path class="st8" d="M25.2,14.7c0.2-0.2,0.4-0.2,0.6-0.2c0.8,0,1.6,0,2.4,0c0.2,0,0.3,0,0.5-0.1c0.3-0.1,0.6,0,0.8,0.3
		c0,0.1,0.1,0.2,0.1,0.2c-0.1,0.1-0.2,0.1-0.3,0.1c-1.1,0-2.1,0-3.2,0c-0.2,0-0.5,0-0.7,0C25.3,15.1,25.1,15,25.2,14.7z"/>
	<path class="st12" d="M24.3,14.9c-0.1,0.1-0.3,0.3-0.4,0.2c-0.9-0.3-1.8-0.1-2.7-0.1c-0.3,0-0.5,0-0.8,0c-0.2,0-0.3-0.1-0.2-0.3
		c0.1-0.2,0.2-0.4,0.5-0.3c0.7,0.2,1.4,0.1,2.2,0.2c0.3,0,0.6,0,0.9,0C24,14.5,24.2,14.6,24.3,14.9z"/>
	<path class="st11" d="M24.5,16.2c-0.1-0.2-0.2-0.4-0.2-0.6c0-0.2,0.2-0.3,0.4-0.4c0.2-0.1,0.3,0.1,0.4,0.2c0.2,0.2,0.3,0.4,0.1,0.7
		C25.1,16.2,24.9,16.3,24.5,16.2z"/>
	<path class="st15" d="M8.6,5.8c0-0.7,0.1-0.9,0.9-0.9c0.7,0,1.3,0,2,0c0.3,0,0.6-0.1,0.8-0.2c0.3-0.1,0.4-0.1,0.4,0.3
		c0,2.9-0.1,5.7-0.1,8.6c0,0.3-0.1,0.4-0.4,0.5c-0.7,0.2-1.4,0.1-2.2,0.1c-0.5,0-0.9,0.1-1.4,0.1c-0.2,0-0.3-0.1-0.3-0.2
		c0-0.4,0-0.9,0.1-1.3C8.6,10.4,8.6,8.1,8.6,5.8 M9.7,7.6c-0.2,0-0.4,0-0.6,0c0.1,0.1,0.1,0.2,0.1,0.3c0.1,0.2,0.2,0.3,0.2,0.5
		c0,0.8,0,1.7,0,2.5c0,0.2-0.1,0.3-0.1,0.5c-0.1,0.3-0.1,0.4,0.2,0.4c0.5,0.1,1,0.1,1.5,0.1c0.6,0,0.8-0.4,0.5-1
		c-0.1,0.1-0.1,0.1-0.1,0.2c-0.2,0.4-0.6,0.5-0.9,0.4c-0.3,0-0.4-0.2-0.4-0.5c0-0.4,0-0.7,0-1.1c0-0.3,0.3-0.4,0.5-0.3
		c0.1,0,0.2,0.1,0.3,0.1c0.1,0,0.2,0,0.2-0.1c0-0.2,0-0.4,0-0.6c0,0-0.1,0-0.1,0c-0.1,0.1-0.2,0.1-0.3,0.2C10.3,9.5,10,9.4,9.9,9
		c0-0.3,0-0.6,0.1-0.9c0-0.1,0.3-0.2,0.4-0.2c0.2,0.1,0.5,0.2,0.8,0.3c0.2-0.1,0-0.3,0-0.5c0-0.1-0.2-0.2-0.3-0.2
		C10.5,7.6,10.1,7.6,9.7,7.6z"/>
	<path class="st15" d="M8.2,5.6c0,2,0,4,0,6c0,0.7,0,1.5-0.1,2.2c0,0.1,0,0.3,0,0.5c-1-0.3-2,0-3-0.1c-0.6,0-0.8-0.2-0.8-0.8
		c0-2.8,0.1-5.5,0.1-8.3c0-0.4,0.1-0.4,0.4-0.3c0.8,0.2,1.7,0.2,2.5,0.1C8,4.8,8.1,4.9,8.2,5.6 M7.3,9.5c0.2-0.6,0.3-1.2,0.5-1.8
		c-0.2,0-0.3-0.1-0.5-0.1C7.1,7.6,7,7.7,7.1,7.9c0.2,0.4,0.2,0.8,0,1.2C7,9.5,6.9,9.9,6.8,10.3c0,0.1-0.1,0.2-0.2,0.4
		c-0.1-0.2-0.2-0.2-0.2-0.3C6.2,9.7,6,9.1,5.8,8.5C5.8,8.3,5.8,8.2,5.9,8C6.1,7.8,6,7.6,5.8,7.6c-0.3,0-0.6,0-0.9,0
		c-0.1,0-0.2,0.1-0.2,0.2c0,0.1,0.1,0.2,0.2,0.3C4.9,8.2,5,8.3,5.1,8.5C5.2,8.6,5.2,8.8,5.3,9c0.3,0.8,0.5,1.6,0.8,2.5
		c0,0.1,0.2,0.2,0.3,0.3c0.1-0.1,0.2-0.2,0.2-0.3C6.9,10.8,7.1,10.2,7.3,9.5z"/>
	<path class="st9" d="M2.5,12.2c0-1.3,0-2.6,0.1-3.8c0-0.4-0.1-0.5-0.5-0.6c-0.2,0-0.4-0.1-0.6-0.1C1.2,7.7,1.1,7.6,1,7.4
		C1,7.2,1.1,7.1,1.3,7C1.5,7,1.8,6.9,2,6.9c0.4,0,0.5-0.1,0.6-0.5c0-0.3,0.1-0.6,0.1-1C2.6,5.2,2.7,5,2.9,5c0.1,0,0.3,0,0.4,0
		c0,0.1,0,0.2,0,0.3C3.2,5.7,3.1,6.2,3.1,6.6c0,2.6,0,5.3-0.1,7.9c0,0.2,0,0.3,0.1,0.5c0.1,0.2,0.2,0.4,0.5,0.4
		c1.1,0,2.3,0.1,3.4,0.1c0.2,0,0.5-0.1,0.5,0.3c0,0.3-0.3,0.2-0.5,0.2c-1.3,0-2.5,0-3.8,0c-0.6,0-0.7-0.1-0.7-0.7c0-0.2,0-0.5,0-0.7
		c0-0.4-0.2-0.6-0.7-0.7c-0.2,0-0.4,0-0.6-0.1c-0.1-0.1-0.2-0.2-0.2-0.3c0-0.1,0.1-0.3,0.3-0.3C1.5,13,1.7,13,1.8,12.9
		C2.5,12.9,2.5,12.8,2.5,12.2z"/>
	<path class="st13" d="M14.7,13.7c-0.3,0-0.3,0.2-0.3,0.3c0,0.4-0.1,0.8-0.1,1.1c0,0.6-0.2,0.7-0.7,0.7c-1.3,0-2.7,0-4,0
		c-0.1,0-0.2-0.1-0.3-0.2c0.1-0.1,0.2-0.2,0.3-0.2c0.2,0,0.3,0,0.5,0c1.2,0,2.3,0,3.5,0c0.1,0,0.2-0.1,0.3-0.2
		c0.1-0.1,0-0.2,0.1-0.3c0.1-2.8,0.1-5.6,0.2-8.4c0-0.4-0.1-0.9-0.2-1.3c0-0.1,0.1-0.3,0.2-0.3c0.2,0,0.4,0.1,0.5,0.2
		c0.1,0,0,0.2,0,0.3c0,0.3,0,0.7,0,1c0,0.3,0.1,0.4,0.4,0.4c0.2,0,0.5,0.1,0.7,0.1C15.9,7,16,7.2,16,7.4c0,0.3-0.2,0.3-0.5,0.3
		c-0.2,0-0.4,0-0.7,0c-0.3,0-0.4,0.1-0.4,0.4c0,1.4,0,2.7,0,4.1c0,0.5,0.1,0.7,0.6,0.7c0.1,0,0.3,0,0.4,0c0.3,0,0.5,0.2,0.4,0.5
		c0,0.3-0.3,0.3-0.5,0.3C15.2,13.7,15,13.7,14.7,13.7z"/>
	<path class="st17" d="M13.7,9.7c0,1.6,0,3.2-0.1,4.8c-0.4-0.1-0.6-0.4-0.6-0.8c0-0.4,0-0.8,0-1.2c0-2.3,0-4.6,0-6.9
		c0-0.1,0-0.2,0-0.3c0-0.1,0.1-0.2,0.2-0.3c0.1,0,0.2,0.1,0.3,0.1c0.1,0.3,0.3,0.6,0.3,0.9C13.8,7.3,13.7,8.5,13.7,9.7z"/>
	<path class="st11" d="M3.9,14c-0.1,0.2-0.2,0.4-0.4,0.6c0,0-0.1,0-0.1,0c0-0.2-0.1-0.3-0.1-0.5c0-2.7,0-5.3,0.1-8
		c0-0.2,0.1-0.5,0.2-0.7c0.1-0.1,0.2-0.2,0.3-0.3c0,0,0.1,0,0.1,0C4,5.4,4,5.7,4,6c0,2.5,0,5.1-0.1,7.6C4,13.7,4,13.9,3.9,14z"/>
	<path class="st12" d="M4.8,15.1c-0.3,0-0.5,0-0.7,0c-0.2,0-0.4-0.2-0.3-0.4c0.1-0.2,0.3-0.4,0.5-0.3c0.7,0.2,1.5,0.1,2.2,0.2
		c0.3,0,0.7,0,1,0c0.1,0,0.3,0,0.3,0.1C7.9,14.7,8,14.8,8,15c-0.2,0.1-0.3,0.2-0.5,0.2C6.7,14.9,5.7,15.1,4.8,15.1z"/>
	<path class="st14" d="M12.9,15.1c-1.1,0-2.1,0-3.2,0c-0.2,0-0.3,0.1-0.4,0c-0.1,0-0.3-0.1-0.4-0.2c0.1-0.1,0.2-0.3,0.3-0.3
		c0.1-0.1,0.2,0,0.3,0c0.8,0,1.6,0,2.4,0c0.1,0,0.3,0,0.4-0.1c0.6-0.2,0.8,0,1,0.6C13.2,15.1,13,15.1,12.9,15.1z"/>
	<path class="st9" d="M8.5,16.3c-0.5-0.1-0.8-0.6-0.5-1c0.1-0.2,0.3-0.3,0.6-0.2c0.3,0.2,0.4,0.6,0.3,0.8
		C8.8,16.1,8.7,16.2,8.5,16.3z"/>
	<path class="st18" d="M20.6,26.6c-0.2-0.4-0.5-0.6-0.9-0.8c-0.3-0.2-0.6-0.4-0.8-0.6c-0.4-0.6-0.1-1.5,0.5-1.6c0.1,0,0.2,0,0.3,0
		c0.2,0,0.4,0,0.6,0c0.2,0,0.3,0,0.3,0.2c0,0.3,0.2,0.6-0.1,0.9c-0.1-0.1-0.3-0.2-0.4-0.4c-0.3-0.2-0.6-0.2-0.8,0
		c-0.2,0.2-0.2,0.4,0,0.6c0.2,0.2,0.5,0.3,0.7,0.5c0.3,0.3,0.6,0.5,0.9,0.8c0.3,0.4,0.2,0.9-0.1,1.3c-0.4,0.4-0.8,0.5-1.3,0.3
		c-0.2-0.1-0.5-0.1-0.7-0.1c0-0.3,0-0.7,0-1c0,0,0.1,0,0.1,0c0.1,0.1,0.2,0.2,0.2,0.3c0.2,0.4,0.5,0.6,0.9,0.6
		C20.4,27.3,20.6,27,20.6,26.6z"/>
	<path class="st19" d="M13.1,27.8c-0.3,0-0.2-0.1-0.2-0.3c0.1-0.3,0.2-0.6,0.2-0.9c0-0.8,0.1-1.6,0.1-2.4c0-0.1-0.1-0.4-0.1-0.4
		c-0.2,0-0.3,0-0.5,0.1c-0.2,0.1-0.3,0.3-0.5,0.5c0-0.2-0.1-0.3-0.1-0.4c0-0.1,0-0.2,0.1-0.2c0.2-0.5,0.1-0.4,0.6-0.3
		c0.5,0.2,1.1,0.2,1.7,0c0.1,0,0.2-0.1,0.3-0.1c0.1,0.3,0.1,0.6-0.1,0.9c0,0.1-0.2,0.1-0.3,0c-0.1,0-0.1-0.2-0.2-0.2
		c0-0.1-0.1-0.1-0.2-0.1c-0.1,0-0.1,0.1-0.2,0.2c0,0.1,0,0.2,0,0.3c0,0.8,0,1.6,0,2.4c0,0.2,0.1,0.4,0.2,0.6c0,0.1,0.1,0.2,0.1,0.4
		c-0.1,0-0.2,0.1-0.3,0.1C13.6,27.8,13.4,27.8,13.1,27.8z"/>
	<path class="st20" d="M26.9,11.4c0.1,0.1,0.2,0.3,0.3,0.4c-0.1,0-0.2,0.1-0.3,0.1c-0.3,0-0.5,0-0.8,0c-0.1,0-0.2-0.1-0.2-0.1
		c0-0.1,0-0.1,0.1-0.2c0.1-0.2,0.2-0.5,0.3-0.7c0-0.8,0-1.5,0-2.3c0-0.3-0.2-0.5-0.3-0.9c0.1,0,0.3-0.1,0.5-0.1
		c0.2,0,0.3,0.1,0.5,0.1c0.3,0,0.3,0.2,0.2,0.4c-0.2,0.3-0.2,0.6-0.2,0.9C26.9,9.7,26.9,10.6,26.9,11.4z"/>
	<path class="st18" d="M23.8,9.2c-0.2,0.2-0.3,0.4-0.5,0.5c-0.3,0.2-0.3,0.5-0.2,0.8c0.2,0.4,0.5,0.7,0.7,1.1c0,0.1,0.1,0.2,0,0.2
		c-0.1,0.1-0.2,0.1-0.3,0.1c-0.1-0.1-0.3-0.1-0.4-0.3c-0.3-0.4-0.5-0.8-0.8-1.3c0-0.1-0.1-0.1-0.2-0.1c0,0.1-0.1,0.1-0.1,0.2
		c0,0.4-0.1,0.8,0.1,1.2c0.2,0.2,0,0.4-0.3,0.4c-0.2,0-0.4,0-0.5-0.1c-0.2,0-0.3-0.2-0.2-0.3c0.2-0.2,0.2-0.5,0.2-0.8
		c0-0.7,0-1.5,0-2.2c0-0.3-0.1-0.5-0.3-0.7c-0.1-0.1-0.1-0.2-0.1-0.3c0,0,0.1-0.1,0.2-0.1c0.5,0,0.9,0,1.4,0
		C23.7,7.6,24,8.3,23.8,9.2 M22.9,7.9c-0.5-0.1-0.6,0-0.6,0.5c0,0.3,0,0.6,0,0.9c0,0.3,0.3,0.5,0.5,0.3c0.5-0.2,0.7-0.9,0.4-1.4
		C23.1,8.2,23,8.1,22.9,7.9z"/>
	<path class="st18" d="M9.7,7.6c0.4,0,0.8,0,1.2,0c0.1,0,0.2,0.1,0.3,0.2c0.1,0.2,0.2,0.4,0,0.5c-0.3-0.1-0.5-0.3-0.8-0.3
		c-0.1,0-0.3,0.1-0.4,0.2C10,8.4,9.9,8.7,9.9,9c0,0.4,0.3,0.5,0.6,0.3c0.1-0.1,0.2-0.1,0.3-0.2c0,0,0.1,0,0.1,0c0,0.2,0,0.4,0,0.6
		c0,0-0.1,0.1-0.2,0.1c-0.1,0-0.2-0.1-0.3-0.1c-0.3-0.1-0.5,0-0.5,0.3c0,0.4,0,0.7,0,1.1c0,0.3,0.2,0.4,0.4,0.5c0.4,0,0.8,0,0.9-0.4
		c0-0.1,0.1-0.2,0.1-0.2c0.3,0.6,0.1,1-0.5,1c-0.5,0-1,0-1.5-0.1c-0.3,0-0.3-0.1-0.2-0.4c0.1-0.1,0.1-0.3,0.1-0.5c0-0.8,0-1.7,0-2.5
		c0-0.2-0.1-0.3-0.2-0.5c0-0.1-0.1-0.2-0.1-0.3C9.3,7.6,9.5,7.6,9.7,7.6z"/>
	<path class="st18" d="M7.3,9.5c-0.2,0.7-0.4,1.3-0.6,2c0,0.1-0.2,0.2-0.2,0.3c-0.1-0.1-0.3-0.2-0.3-0.3C5.8,10.6,5.6,9.8,5.3,9
		C5.2,8.8,5.2,8.6,5.1,8.5C5,8.3,4.9,8.2,4.8,8C4.7,7.9,4.6,7.8,4.6,7.7c0-0.1,0.1-0.2,0.2-0.2c0.3,0,0.6,0,0.9,0
		C6,7.6,6.1,7.8,5.9,8C5.8,8.2,5.8,8.3,5.8,8.5C6,9.1,6.2,9.7,6.4,10.3c0,0.1,0.1,0.2,0.2,0.3c0.1-0.2,0.1-0.3,0.2-0.4
		C6.9,9.9,7,9.5,7.1,9.1c0.2-0.4,0.2-0.8,0-1.2C7,7.7,7.1,7.6,7.3,7.6c0.2,0,0.3,0.1,0.5,0.1C7.6,8.3,7.5,8.9,7.3,9.5z"/>
	<path class="st10" d="M22.9,7.9c0.1,0.1,0.2,0.2,0.3,0.4c0.3,0.5,0.1,1.1-0.4,1.4c-0.3,0.1-0.5,0-0.5-0.3c0-0.3,0-0.6,0-0.9
		C22.2,7.9,22.3,7.8,22.9,7.9z"/>
</g>
</svg>
