<?xml version="1.0" encoding="utf-8"?>
<!-- Generator: Adobe Illustrator 26.0.1, SVG Export Plug-In . SVG Version: 6.00 Build 0)  -->
<svg version="1.1" id="Layer_1" xmlns="http://www.w3.org/2000/svg" xmlns:xlink="http://www.w3.org/1999/xlink" x="0px" y="0px"
	 viewBox="0 0 171 40" style="enable-background:new 0 0 171 40;" xml:space="preserve">
<style type="text/css">
	.st0{fill:#0177FE;}
	.st1{fill:#0579FE;}
	.st2{fill:#077AFE;}
</style>
<path class="st0" d="M113.7,9.5c-3.2,9.8-6.3,19.7-9.4,29.5c-0.2,0.7-0.6,1.1-1.4,1c-2.2-0.1-4.3-0.1-6.5,0c-0.9,0-1.2-0.4-1.5-1.2
	c-1.5-5.2-3.1-10.5-4.7-15.7c-0.1-0.2-0.2-0.4-0.4-0.9c-1.2,4.1-2.4,7.9-3.5,11.7c-0.5,1.7-1.1,3.4-1.5,5.1c-0.2,0.8-0.6,1-1.4,1
	c-2.2-0.1-4.3-0.1-6.5,0c-0.9,0-1.2-0.3-1.5-1.1c-3.1-9.7-6.2-19.5-9.3-29.2c-0.4-1.2-0.2-1.5,1.1-1.5c2.3,0.1,4.6,0.1,6.8,0
	c1.2-0.1,1.5,0.4,1.8,1.4c1.3,5.1,2.7,10.2,4.1,15.4c0.1,0.3,0,0.6,0.5,0.7c1.3-4.3,2.6-8.6,3.8-12.9c1.3-4.5,1.3-4.5,5.9-4.5
	c4,0,4,0,5.2,3.9c1.3,4.5,2.7,9.1,4.2,14.1c1.6-5.8,3.1-11.1,4.4-16.5c0.3-1.2,0.8-1.6,2-1.6c2.3,0.1,4.6,0.1,6.8,0
	C113.8,8.1,114,8.4,113.7,9.5z"/>
<path class="st0" d="M140.3,9.5c-5.3-4-11.3-4.2-17.2-1.4c-6.9,3.2-9.6,9.1-9.2,16.6c0.3,6.6,4.7,12.4,11,14.4
	c4.2,1.3,8.5,1.4,12.8,0.1c2.7-0.9,5-2.3,6.9-4.5c0.6-0.7,0.6-1-0.2-1.5c-1.9-1-3.7-2-5.5-3.1c-0.6-0.4-1-0.3-1.6,0.1
	c-3.2,2.3-6.6,2.2-10.1,0.9c-1.4-0.5-2.4-1.7-3.1-3.1c-0.5-1-0.2-1.1,0.7-1.1c3.4,0,6.9,0,10.4,0c3.5,0,7,0,10.5,0
	c0.8,0,1.2-0.1,1.3-1C147.6,19.2,145.7,13.5,140.3,9.5z M136.9,20.2c-4.5,0-9,0-13.5,0c0.7-3.4,2.9-5.4,6.2-5.6
	c4-0.3,6.8,1.2,7.9,4.3C137.7,19.4,138.2,20.2,136.9,20.2z"/>
<path class="st0" d="M62.8,33.1c-0.1,1.8-0.1,3.7,0,5.5c0,1-0.2,1.4-1.3,1.4c-7.6-0.1-15.2,0-22.9,0c-0.9,0-1.3-0.2-1.2-1.2
	c0.1-1,0.1-2.1,0-3.1c-0.1-1.2,0.3-2.2,1-3.2c3.4-4.6,6.7-9.2,10.1-13.8c0.4-0.6,0.8-1.2,1.4-2c-3.6,0-7-0.1-10.4,0
	c-1.2,0-1.6-0.2-1.5-1.5c0.1-1.9,0.1-3.9,0-5.8c0-0.9,0.2-1.2,1.2-1.2c7.2,0,14.5,0,21.7,0c1,0,1.3,0.3,1.2,1.2v0.2
	c0.4,3.2-0.5,5.8-2.6,8.4c-3.4,4.3-6.5,8.8-10,13.6c4.1,0,7.8,0,11.5,0C62.4,31.4,63,31.7,62.8,33.1z"/>
<path class="st1" d="M33.3,38.9c0,0.8-0.2,1.1-1,1.1c-2.4,0-4.8-0.1-7.2,0c-0.9,0-1.1-0.4-1.1-1.2c0-7.1,0-14.2,0-21.3
	c0-0.5,0-1,0.4-1.4c2.8-2.6,5.7-5.1,8.8-8C33.3,18.7,33.3,28.8,33.3,38.9z"/>
<path class="st2" d="M32.6,5C29.8,6,27,7,24,8c0-2.5,0-4.8,0-7.1c0-0.8,0.4-0.9,1-0.9c2.4,0,4.8,0,7.2,0c0.3,0,0.6,0,0.8,0.1
	C33.7,0.6,33.3,4.8,32.6,5z"/>
</svg>
