<?xml version="1.0" encoding="utf-8"?>
<!-- Generator: Adobe Illustrator 26.0.1, SVG Export Plug-In . SVG Version: 6.00 Build 0)  -->
<svg version="1.1" id="Layer_1" xmlns="http://www.w3.org/2000/svg" xmlns:xlink="http://www.w3.org/1999/xlink" x="0px" y="0px"
	 viewBox="0 0 161 40" style="enable-background:new 0 0 161 40;" xml:space="preserve">
<style type="text/css">
	.st0{fill:#FF5A00;}
	.st1{fill:#EB001B;}
	.st2{fill:#F79E1B;}
</style>
<g>
	<rect id="rect19" x="71.7" y="4.1" class="st0" width="17.6" height="31.6"/>
	<path id="XMLID_330_" class="st1" d="M72.9,19.9c0-6.4,3-12.1,7.6-15.8c-3.4-2.7-7.7-4.3-12.4-4.3C57-0.2,48,8.8,48,19.9
		S57,40,68.1,40c4.7,0,9-1.6,12.4-4.3C75.9,32.1,72.9,26.3,72.9,19.9z"/>
	<path id="path22" class="st2" d="M113,19.9C113,31,104,40,92.9,40c-4.7,0-9-1.6-12.4-4.3c4.7-3.7,7.6-9.4,7.6-15.8
		s-3-12.1-7.6-15.8c3.4-2.7,7.7-4.3,12.4-4.3C104-0.2,113,8.9,113,19.9z"/>
</g>
</svg>
