<?xml version="1.0" encoding="utf-8"?>
<!-- Generator: Adobe Illustrator 26.0.1, SVG Export Plug-In . SVG Version: 6.00 Build 0)  -->
<svg version="1.1" id="Layer_1" xmlns="http://www.w3.org/2000/svg" xmlns:xlink="http://www.w3.org/1999/xlink" x="0px" y="0px"
	 viewBox="0 0 161 40" style="enable-background:new 0 0 161 40;" xml:space="preserve">
<style type="text/css">
	.st0{clip-path:url(#SVGID_00000020386458382845114710000017620850116371687077_);}
	.st1{fill:#F8C000;}
</style>
<g>
	<defs>
		<rect id="SVGID_1_" x="40.3" y="-0.2" width="80.3" height="40.2"/>
	</defs>
	<clipPath id="SVGID_00000007419106301509685120000003510224179794060471_">
		<use xlink:href="#SVGID_1_"  style="overflow:visible;"/>
	</clipPath>
	<g style="clip-path:url(#SVGID_00000007419106301509685120000003510224179794060471_);">
		<path class="st1" d="M80.5-0.2c-22.2,0-40.2,9-40.2,20.1S58.3,40,80.5,40s40.2-9,40.2-20.1S102.7-0.2,80.5-0.2z M80.5,36.8
			c-20.4,0-37-7.6-37-16.9S60.1,3,80.5,3s37,7.6,37,16.9S100.9,36.8,80.5,36.8z M75.4,16.4v-3.2h11.3v3.2h-4.1v10.2h-3.2V16.4H75.4z
			 M100.4,13.2v13.4h-3.2l-5.8-8v8h-3.2V13.2h3.2l5.8,8v-8H100.4z M60.5,26.6V13.2h3.2l3.5,5.4l3.5-5.4h3.2v13.4h-3.2V19l-2.4,3.7
			H66L63.6,19v7.6H60.5z"/>
	</g>
</g>
</svg>
