<?xml version="1.0" encoding="utf-8"?>
<!-- Generator: Adobe Illustrator 26.0.1, SVG Export Plug-In . SVG Version: 6.00 Build 0)  -->
<svg version="1.1" id="Layer_1" xmlns="http://www.w3.org/2000/svg" xmlns:xlink="http://www.w3.org/1999/xlink" x="0px" y="0px"
	 viewBox="0 0 213 40" style="enable-background:new 0 0 213 40;" xml:space="preserve">
<style type="text/css">
	.st0{fill:#119C53;}
	.st1{fill:#8A4E23;}
	.st2{fill:#AD6739;}
	.st3{fill:#A46235;}
	.st4{fill:#E39562;}
	.st5{fill:#009648;}
	.st6{fill:#9F5A2C;}
	.st7{fill:#BE7344;}
	.st8{fill:#169D56;}
	.st9{fill:#149D55;}
	.st10{fill:#159D56;}
	.st11{fill:#20A05E;}
	.st12{fill:#29A462;}
</style>
<g>
	<path class="st0" d="M46.6,13.1c-4.4,7.6-8.7,15.2-13.2,22.8c-3.4,5.8-9.2,5.3-12.9-0.4c1.1,0.1,2.3,0.6,3.2-0.4
		c1.7-1.2,2.7-2.8,3-4.8c1.1-0.1,1.2-1.1,1.6-1.8c3.4-5.5,6.3-11.3,10-16.6c0.2,0.2,0.3,0.1,0.4-0.1c2.5,0,5,0,7.5,0
		C46.2,12.2,46.1,12.7,46.6,13.1z"/>
	<path class="st0" d="M26.1,4.2c-0.8,0.2-1.7-0.2-2.4,0.5c-1.9,1-2.7,2.9-3.5,4.7c-3.3,4.9-6.1,10.2-9.2,15.2
		c-0.5,0.9-1.1,1.7-1.6,2.5c-0.1,0.1-0.2,0.3-0.3,0.4l0,0c-2,0-4-0.1-6,0c-1.5,0.1-2.2-0.4-2-1.9c0.1-0.2,0.2-0.3,0.2-0.5
		c0.1-0.1,0.1-0.1,0.2-0.2c4-7.3,8.1-14.5,12.5-21.6C17.5-1.7,24-0.7,26.1,4.2z"/>
	<path class="st1" d="M26.7,30.2c-0.3,2-1.3,3.6-3,4.8c-0.5-0.7-0.7-1.5-0.8-2.3c-0.2-1.1-0.1-2.3-1.3-2.9c-0.1-0.4-0.2-0.8-0.6-0.9
		c-0.4-1.5-2.3-0.6-2.8-1.8c0.8-1.3,1.5-2.5,2.3-3.8c0.8,0.4,0.1,1.9,1.4,1.9c0.1,0.6-0.2,1.4,0.4,1.9c-0.1,0.3-0.1,0.6-0.2,0.9
		c0.6,1.8,2.1,0.6,3.1,0.9C26.2,28.8,26.2,29.8,26.7,30.2z"/>
	<path class="st1" d="M25.2,11.2c-0.1,0-0.3,0.1-0.4,0.1c-1.2-0.5-2.4-0.6-3.7-0.6c-0.2-0.4-0.5-0.9-0.7-1.3
		c0.8-1.8,1.5-3.7,3.5-4.7C24.2,6.9,24.7,9.1,25.2,11.2z"/>
	<path class="st2" d="M27.9,6.1c-1.1,1.5-1.9,3.3-2.3,5.1c-0.1,0-0.3,0-0.4,0h0c-0.5-2.2-0.9-4.4-1.4-6.5c0.7-0.8,1.6-0.3,2.4-0.5
		C26.9,4.7,27.6,5.3,27.9,6.1z"/>
	<path class="st3" d="M23.7,35.1c-1,1-2.1,0.5-3.2,0.4c-0.2-0.3-0.4-0.5-0.6-0.8c1.3-1,1.1-2.5,1.5-3.8c0.1-0.3,0.1-0.6,0.2-0.9
		c1.2,0.6,1.1,1.8,1.3,2.9C23,33.6,23.2,34.4,23.7,35.1z"/>
	<path class="st4" d="M21.6,29.9c-0.1,0.3-0.1,0.6-0.2,0.9c-1.5,0.6-1.4,2.2-1.9,3.4c-1.1-1.1-1.9-2.3-2.3-3.8
		c1.2-0.5,2.5-1,3.7-1.4C21.4,29.2,21.5,29.5,21.6,29.9z"/>
	<path class="st4" d="M29.8,9.4c-1.2,0.6-2.5,1.2-3.7,1.9h-0.5c0.4-1.9,1.2-3.6,2.3-5.1C28.9,7.1,29.5,8.1,29.8,9.4z"/>
	<path class="st2" d="M26.6,16.6c-0.5,1.3-1,2.2-2,0.3c-0.3-0.6-0.6-1.2-0.9-1.8c0.5-1,1-1.9,1.5-2.9C26,13.6,26.5,15,26.6,16.6z"/>
	<path class="st1" d="M29,12.7c-0.8,1.3-1.6,2.6-2.4,3.9c-0.1-1.6-0.6-3.1-1.4-4.4c0-0.3,0-0.6,0-0.9c0.1,0,0.3,0,0.4,0h0.5
		C26.9,12,28.4,11.6,29,12.7z"/>
	<path class="st5" d="M9.3,27.6c-0.8,1.2-1.9,0.5-2.9,0.6c-2.1,0.1-4.1,0-6.4,0c0.1-1,0.7-1.8,1.3-2.5c-0.2,1.6,0.5,2,2,1.9
		C5.3,27.5,7.3,27.6,9.3,27.6z"/>
	<path class="st2" d="M21,29c-1.2,0.5-2.5,1-3.7,1.4c-1-1.4,0.4-2.2,0.9-3.3C18.7,28.4,20.6,27.5,21,29z"/>
	<path class="st2" d="M29,12.7c-0.6-1.2-2-0.7-2.9-1.5c1.2-0.6,2.5-1.2,3.7-1.9C31,10.9,29.5,11.7,29,12.7z"/>
	<path class="st4" d="M25.2,12.2c-0.5,1-1,1.9-1.5,2.9c-0.7-0.6-1.1-1.5-1.4-2.4c0.8-0.5,1.9-0.4,2.5-1.4c0.1,0,0.3,0,0.4-0.1h0
		C25.2,11.6,25.2,11.9,25.2,12.2z"/>
	<path class="st6" d="M22.9,23.9c-0.3,0.5-0.7,0.9-1,1.4c-1.3,0-0.6-1.5-1.4-1.9c0.3-0.5,0.3-1.4,1-1.3
		C22.5,22.1,22.3,23.3,22.9,23.9z"/>
	<path class="st2" d="M24.7,11.3c-0.6,0.9-1.7,0.9-2.5,1.4c-0.4-0.6-0.8-1.3-1.2-1.9C22.3,10.7,23.6,10.9,24.7,11.3z"/>
	<path class="st7" d="M25.2,29c-1-0.3-2.5,0.9-3.1-0.9c1.1,0.1,1.9-0.8,2.9-0.9C25.4,27.7,25.8,28.3,25.2,29z"/>
	<path class="st4" d="M25,27.2c-1,0.1-1.8,1-2.9,0.9c0.1-0.3,0.1-0.6,0.2-0.9c0.5-0.6,1-1.2,1.4-1.9C24.2,25.9,24.6,26.5,25,27.2z"
		/>
	<path class="st7" d="M23.7,25.3c-0.5,0.6-1,1.2-1.4,1.9c-0.6-0.5-0.4-1.2-0.4-1.9c0.3-0.5,0.6-0.9,1-1.4
		C23.4,24.2,23.6,24.7,23.7,25.3z"/>
	<path class="st7" d="M21.4,30.8c-0.4,1.3-0.1,2.9-1.5,3.8c-0.1-0.2-0.3-0.3-0.4-0.5C20,33,19.8,31.4,21.4,30.8z"/>
	<path class="st5" d="M47.1,12c0,0.4-0.4,0.8-0.6,1.1c-0.4-0.4-0.3-0.9-0.3-1.3C46.6,11.7,47.1,11.5,47.1,12z"/>
	<path class="st5" d="M9.3,27.6c0.1-0.1,0.2-0.3,0.3-0.4C9.5,27.3,9.4,27.5,9.3,27.6z"/>
	<path class="st5" d="M1.7,25c-0.1,0.1-0.1,0.1-0.2,0.2C1.5,25.1,1.6,25,1.7,25z"/>
	<path class="st5" d="M38.7,11.8c-0.1,0.2-0.2,0.3-0.4,0.1C38.4,11.8,38.6,11.8,38.7,11.8z"/>
</g>
<g>
	<path class="st8" d="M144.4,26c-0.6,4.3-4,6.6-9.8,6.5c-3.6-0.1-6.9-0.7-8.8-4.3c-0.8-1.5-1.3-2.9,0.4-3.8c1.5-0.9,2.8-1.1,3.8,1.2
		c1.5,3,4.3,3.5,7.3,2.2c1.2-0.5,2-1.3,2.1-2.7c0-1.4-0.9-2.2-2.1-2.6c-2.3-0.8-4.6-1.3-6.9-2.1c-3.1-1.1-5.2-3.4-5.1-6.7
		c0.1-3.6,2.5-5.6,5.9-6.5c4.4-1.2,9.5,0.2,11.3,3.3c0.6,1.1,1.9,2.7,0.4,3.5c-1.3,0.7-3.3,1.8-4.6-0.7c-1.3-2.5-3.5-2.4-5.9-2
		c-1.1,0.2-2,0.7-2.2,1.9c-0.2,1.3,0.8,1.9,1.7,2.3c1.5,0.6,3.2,0.9,4.8,1.4C142.9,18.7,145.1,21.4,144.4,26z"/>
	<path class="st9" d="M104.3,32.2c-1.5,0.1-3-0.4-4.4,0.6c-3.3,0.1-5.5-2-8.2-3.4c-2.1-1.1-4.2-2.8-5.8,0.9
		c-0.5,1.2-2.5,2.3-4.1,1.4c-1.7-1-1-2.5-0.4-3.9c2.4-5.7,4.7-11.4,7.1-17c0.4-1,0.8-1.8,2.2-2.3c3.3-1.2,4.7-0.5,5.7,2.8
		c1.3,4.2,3.2,8.3,4.9,12.6c-5.9,0.4-7-4.2-9.1-7.6c-0.2,0.2-0.4,0.2-0.4,0.3c-3.2,6.7-1,10,8.1,11.5
		C102.7,28.4,104.7,29,104.3,32.2z"/>
	<path class="st10" d="M169.9,29.5c-2.6-6.5-5.1-13.1-7.8-19.6c-0.7-1.6-2.1-2.4-4-2.3c-1.9,0.1-2.8,1.1-3.5,2.9
		c-2.2,6.1-4.7,12-7,18c-0.4,1-1.6,2.6,0,3c1.4,0.3,4,0.7,4.4-1.3c0.9-3.9,3.5-3.6,6.4-3.7c3,0,5.7-0.2,6.3,3.8
		c0.3,1.7,1.8,1.9,3.3,1.1c0.7-0.3,2,0.4,2-1C170.1,30,170,29.8,169.9,29.5z M155.6,22.2c0.1-3,1.8-5.3,2.6-8.3
		c2,2.6,2.5,5.3,3.5,8.3H155.6z"/>
	<path class="st11" d="M212.8,31.4c-0.2,0.2-0.5,0.5-0.7,0.7h-16.3c-0.3-0.5-0.5-0.5-0.8,0c-1.7-0.8-0.9-2.4-0.9-3.5
		c0.4-6.9-1.2-13.9,0.8-20.8c0.3,0.6,0.7,0.6,0.9,0c5.1-0.4,10.2-0.4,15.3,0c0.3,0.3,0.6,0.7,0.9,1v1.8c-0.3,0.3-0.6,0.6-0.9,0.9
		c-2.2,0.1-4.5,0.4-6.7,0.1c-4.7-0.6-6.3,1.2-5,5.6v0c0.1,0.2,0.2,0.5,0.3,0.7c0.3-0.2,0.5-0.3,0.8-0.5c3.1-0.5,6.2-0.4,9.3-0.1
		c0.2,0.2,0.3,0.4,0.6,0.6c0.2,0.3,0.5,0.5,0.8,0.8c0.5,1.8,0.1,2.9-2.1,2.7c-2.1-0.1-4.2,0.1-6.3-0.1c-2.5-0.2-3.7,0.3-3.7,3.3
		c0,3.1,1.4,3.4,3.8,3.2c2.2-0.1,4.5,0.1,6.7-0.1C212.5,27.5,213.5,28.6,212.8,31.4z"/>
	<path class="st9" d="M190,11.5c-2,6.1-4.1,12.2-6.3,18.3c-0.4,1.2-0.6,2.6-2.6,2.5c-1.7-0.1-3.6-0.3-4.2-1.8
		c-2.6-6.8-5-13.8-7.4-20.7c-0.3-0.9-0.5-2.1,1.2-2.2c2-0.1,3.5,0.5,4.2,2.5c1.4,4.1,2.8,8.2,4.2,12.3c0.2,0.6,0.5,1.3,1.1,3
		c1.9-5.7,3.7-10.4,5-15.3c0.7-2.7,2.4-3,4.3-2.4C191.7,8.4,190.4,10.3,190,11.5z"/>
	<path class="st0" d="M77.1,8.7v22.7c-0.2,0.2-0.5,0.5-0.8,0.7h-3.6c-0.3-0.3-0.6-0.5-0.8-0.8c-0.2-0.1-0.3-0.3-0.2-0.5
		c-0.3-0.4-0.5-0.8-0.8-1.2c0.1-1.3,0.1-2.6-1.7-2.8c-0.3-0.6-0.7-1.1-1-1.7c0.1-1.4,0.1-2.7-1.7-2.8v0c0-0.8-0.3-1.4-1-1.7
		c-0.2-0.3-0.5-0.6-0.7-1c-0.2-0.1-0.3-0.3-0.3-0.6c-0.3-0.4-0.5-0.8-0.8-1.2v0c-0.1-0.8-0.2-1.6-1.2-1.6C61,16.1,61,17.4,61,18.4
		c0,4.6,0,9.2-0.1,13.8h-1.8c0-6.4,0.2-12.8-0.1-19.2c-0.2-4,1.2-4.7,4.6-3.3c0.3,0.6,0.7,1.1,1,1.7c0.2,0.3,0.5,0.7,0.7,1
		c2.2,3.4,4.3,6.8,6.5,10.2c0.3,0,0.7,0,1,0V8.7c0.3-0.3,0.6-0.6,0.8-0.9h2.7C76.6,8.1,76.9,8.4,77.1,8.7z"/>
	<path class="st0" d="M122.4,8.7v1.8l-0.8,0.8c-1.2,0.1-2.4,0.3-3.6,0.1c-2.2-0.2-2.7,0.8-2.7,2.9c0.1,5.7-0.1,11.3-0.1,17
		c-0.3,0.3-0.5,0.5-0.8,0.8c-0.9,0-1.9,0-2.8,0c-0.3-0.2-0.6-0.5-0.9-0.8c-0.1-4.4-0.2-8.7-0.2-13.1c0-6.5,0-6.5-6.1-6.9
		c-0.3-0.3-0.7-0.6-1-0.9V8.8c0.4-0.3,0.7-0.7,1.1-1c5.7-0.4,11.4-0.4,17.1,0C121.8,8.1,122.1,8.4,122.4,8.7z"/>
	<path class="st12" d="M63.6,9.6c-3.4-1.4-4.8-0.6-4.6,3.3c0.3,6.4,0.1,12.8,0.1,19.2c-2.7-0.1-1.5-2.2-1.5-3.4
		c-0.1-5.9-0.1-11.7,0-17.6c0-1.3-0.9-3.3,1.4-3.7C60.8,7.2,63,6.8,63.6,9.6z"/>
	<path class="st12" d="M63.7,17.8L63.7,17.8c-2.6,1.3-0.9,3.6-1.4,5.4c-0.7,2.9,1.4,6.3-1.3,9c0-4.6,0-9.2,0.1-13.8
		c0-1,0-2.2,1.5-2.2C63.4,16.2,63.6,17,63.7,17.8z"/>
	<path class="st12" d="M68.2,25.1c-0.9-0.8-1.5-1.7-1.7-2.8C68.2,22.5,68.2,23.8,68.2,25.1z"/>
	<path class="st12" d="M70.9,29.6C70.9,29.6,70.9,29.6,70.9,29.6c-0.6-0.9-1.1-1.9-1.7-2.8C71,27,70.9,28.3,70.9,29.6z"/>
	<path class="st12" d="M104.3,32.2c-1.3,1.4-2.9,0.8-4.4,0.6C101.3,31.8,102.8,32.3,104.3,32.2z"/>
	<path class="st12" d="M66.4,22.3c-0.3-0.6-0.7-1.1-1-1.7c0,0,0,0,0-0.1C66.1,20.9,66.4,21.5,66.4,22.3z"/>
	<path class="st5" d="M77.1,8.7c-0.3-0.3-0.5-0.6-0.8-0.9C77.1,7.7,77.2,8.1,77.1,8.7z"/>
	<path class="st5" d="M104.4,7.8c-0.4,0.3-0.7,0.7-1.1,1C103.2,7.9,103.7,7.7,104.4,7.8z"/>
	<path class="st5" d="M73.7,7.8c-0.3,0.3-0.6,0.6-0.8,0.9C72.7,8.1,72.9,7.7,73.7,7.8z"/>
	<path class="st5" d="M122.4,8.7c-0.3-0.3-0.6-0.6-0.9-1C122.3,7.7,122.5,8.1,122.4,8.7z"/>
	<path class="st5" d="M195.8,7.7c-0.3,0.6-0.6,0.7-0.9,0C195.1,7.8,195.5,7.8,195.8,7.7z"/>
	<path class="st5" d="M212,8.7c-0.3-0.3-0.6-0.7-0.9-1C211.8,7.7,212.1,8,212,8.7z"/>
	<path class="st5" d="M104.4,11.4c-0.6,0.1-1.1-0.1-1-0.9C103.7,10.8,104,11.1,104.4,11.4z"/>
	<path class="st5" d="M121.6,11.4l0.8-0.8C122.5,11.2,122.2,11.5,121.6,11.4z"/>
	<path class="st5" d="M212,10.5c0.1,0.7-0.2,0.9-0.9,0.9C211.4,11.1,211.7,10.8,212,10.5z"/>
	<path class="st12" d="M65.3,12.3c-0.2-0.3-0.5-0.7-0.7-1C64.9,11.6,65.1,12,65.3,12.3z"/>
	<path class="st11" d="M211,17.8c-0.2,0-0.4,0.1-0.6,0.1c-0.2-0.2-0.4-0.4-0.6-0.6C210.4,17,211,16.7,211,17.8z"/>
	<path class="st12" d="M63.6,17.8c0.3,0.4,0.5,0.8,0.8,1.2C64.2,18.6,63.9,18.2,63.6,17.8z"/>
	<path class="st5" d="M200.5,17.3c-0.3,0.2-0.5,0.3-0.8,0.5c-0.1-0.2-0.2-0.5-0.3-0.7C199.8,17.2,200.1,17.3,200.5,17.3z"/>
	<path class="st5" d="M211.1,18.7c-0.2-0.3-0.5-0.5-0.8-0.8c0.2,0,0.4-0.1,0.6-0.1C211,18.1,211.1,18.4,211.1,18.7z"/>
	<path class="st12" d="M64.7,19.6c0.2,0.3,0.5,0.7,0.7,1C65.2,20.2,64.9,19.9,64.7,19.6z"/>
	<path class="st12" d="M70.9,29.5c0.3,0.4,0.5,0.8,0.8,1.2C71.4,30.4,71.1,30,70.9,29.5z"/>
	<path class="st5" d="M76.4,32.1c0.2-0.2,0.5-0.5,0.8-0.7C77.2,32,77,32.2,76.4,32.1z"/>
	<path class="st5" d="M111.6,32.1c-0.6,0.1-1-0.1-0.9-0.8C111,31.6,111.3,31.8,111.6,32.1z"/>
	<path class="st5" d="M114.4,32.1c0.3-0.3,0.5-0.5,0.8-0.8C115.3,32,115,32.2,114.4,32.1z"/>
	<path class="st5" d="M195.7,32.1l-0.4,0.1l-0.4-0.1C195.2,31.6,195.4,31.6,195.7,32.1z"/>
	<path class="st5" d="M212,32.1c0.2-0.2,0.5-0.5,0.7-0.7C212.9,32,212.6,32.2,212,32.1z"/>
	<path class="st12" d="M72.7,32.1c-0.6,0.1-0.8-0.2-0.8-0.8C72.2,31.6,72.5,31.8,72.7,32.1z"/>
</g>
</svg>
