<?xml version="1.0" encoding="utf-8"?>
<!-- Generator: Adobe Illustrator 26.0.1, SVG Export Plug-In . SVG Version: 6.00 Build 0)  -->
<svg version="1.1" id="Layer_1" xmlns="http://www.w3.org/2000/svg" xmlns:xlink="http://www.w3.org/1999/xlink" x="0px" y="0px"
	 viewBox="0 0 246 40" style="enable-background:new 0 0 246 40;" xml:space="preserve">
<style type="text/css">
	.st0{fill:#FBFCFD;}
	.st1{fill:#035EAC;}
	.st2{fill:#5CB349;}
	.st3{fill:#16457F;}
	.st4{fill:#3172BA;}
	.st5{fill:#0C5FA9;}
	.st6{fill:#E5262C;}
	.st7{fill:#4573A7;}
	.st8{fill:#0960A6;}
	.st9{fill:#E3F2F2;}
	.st10{fill:#306EB4;}
	.st11{fill:#2E6EB5;}
	.st12{fill:#2D6DB5;}
	.st13{fill:#DA3436;}
	.st14{fill:#D25152;}
	.st15{fill:#F6EAE7;}
</style>
<g>
	<g>
		<path class="st0" d="M72.6,40.8L72.6,40.8L72.6,40.8L72.6,40.8z M72.3,40.7L72.3,40.7L72.3,40.7L72.3,40.7z M72.6,40.8L72.6,40.8
			L72.6,40.8L72.6,40.8z M72.3,40.7L72.3,40.7L72.3,40.7L72.3,40.7z M50,26.8L50,26.8c0.1,0,0.1,0,0.2,0C50.1,26.8,50,26.8,50,26.8z
			 M32.5,17.2C32.5,17.2,32.5,17.2,32.5,17.2L32.5,17.2L32.5,17.2z"/>
		<path class="st1" d="M61.2,18.3c-0.5-0.6-0.9-1.1-1.5-1.6c-2-1.7-4.4-2.3-7-1.9c-2.4,0.3-4.4,1.5-6.1,3.3c0,0-0.1,0.1-0.1,0.1
			c0,0-0.1,0-0.1,0l0,0c0,0,0-0.1-0.1-0.1l0,0c0.1-0.1,0.1-0.2,0.1-0.3c-0.2-1.2-0.2-2.3-0.2-3.5c0-0.2,0-0.3,0-0.5
			c0.1-0.6,0.1-1.2,0.2-1.7c0.1-0.7,0.3-1.5,0.5-2.2c0.2-0.5,0.4-1,0.5-1.4c0.2-0.6,0.4-1.1,0.7-1.6c0.7-1.1,1.5-2.1,2.4-2.9
			c0.2-0.1,0.3-0.2,0.5-0.2c0.3,0,0.6,0,0.9-0.1c0.1,0,0.3,0,0.4,0c0.1,0,0.1,0,0.2,0c0.1,0,0.1,0,0.2,0c0.7,0,1.4,0,2.1,0
			c0.4,0.1,0.8,0.1,1.2,0.2c0,0-0.1,0.1,0,0.1c0.1,0,0.2,0,0.4,0c0,0,0,0,0.1,0C56.5,4,56.6,4,56.7,4c0.4,0.2,0.7,0.4,1,0.8
			c0.2,0.3,0.5,0.5,0.8,0.8c0.3,0,0.2,0.3,0.4,0.4c0.4,0.3,0.6,0.7,0.8,1.1c0.2,0.3,0.4,0.7,0.6,1.1c0.2,0.4,0.3,0.7,0.5,1.1
			c-0.1,0.2,0.1,0.4,0.1,0.6c0.1,0.4,0.2,0.8,0.3,1.2c0,0.1,0.1,0.1,0.1,0.1c0.1,0.5,0.2,1,0.3,1.4c0.1,0.8,0.2,1.7,0.2,2.6
			c0.1,0.8-0.1,1.6-0.1,2.4C61.5,17.8,61.6,18.2,61.2,18.3z"/>
		<path class="st2" d="M53.6,37.2c0,0,0,0.1,0,0.1c-0.6,0.6-1.1,1.3-1.9,1.7c-0.2,0.1-0.3,0.1-0.4,0c-0.2-0.1-0.3-0.2-0.5-0.3
			c-0.2-0.1-0.4-0.1-0.5,0.1c-0.2,0.2-0.5,0.1-0.6-0.1c-0.1-0.1-0.2-0.2-0.3-0.2c0,0-0.1,0-0.1,0c-0.5,0.1-0.9,0-1.3-0.4
			c-0.2-0.2-0.4-0.2-0.6-0.2c-0.4,0-0.9,0-1.3,0.1c-0.7,0.1-1.5-0.1-2.2-0.3c-0.1,0-0.2-0.1-0.3-0.2c-0.6-0.5-1.1-1-1.7-1.6
			c-0.1-0.1-0.3-0.3-0.5-0.3c-0.2,0-0.1-0.2-0.1-0.3c0-1.5,0-3,0-4.5c0-0.5,0-1,0-1.4c0-0.3,0.1-0.3,0.3-0.3c1.3,0,2.5,0,3.8,0
			c0.3,0,0.4-0.1,0.4-0.4c0-1.1,0-2.1-0.1-3.2c0-0.1,0-0.2,0-0.3c0-0.1,0-0.2,0.1-0.2c0.1,0,0.1,0,0.2,0.1c0,0.1,0.1,0.2,0.1,0.2
			c0.4,0,0.4,0.3,0.4,0.5c0,0.1,0,0.3,0.2,0.3c0.2,0.1,0.3,0,0.4-0.1c0.3-0.3,0.7-0.3,1.1-0.4c0.3,0,0.4,0.1,0.4,0.3
			c0,0.2-0.1,0.5,0.3,0.6c0,0.1,0.2,0.1,0.3,0.2c0.3,0.1,0.7,0.2,1,0.3v0c0,0.1,0.1,0.1,0.2,0.1c0.5,0.1,1.1,0.1,1.6,0.1
			c0.2,0,0.3-0.1,0.3-0.4c0,0,0,0,0,0c0.1-0.1,0-0.3,0.3-0.3c0.2,0,0.2,0.2,0.3,0.4c0,0.2,0.1,0.3,0.1,0.5c0,0.3,0.2,0.4,0.4,0.4
			c0,0.1,0,0.2,0,0.3c0,0.2,0,0.3-0.1,0.5c-0.8,0.3-1.5,0.7-2,1.4c-0.3,0.5-0.2,1.6,0.3,1.9c0.4,0.3,0.8,0.6,1.2,0.8
			c0.2,0.1,0.4,0.3,0.7,0.3c0,0.2,0.1,0.4,0.1,0.6c0,0.7,0,1.5,0,2.2c-0.5,0.2-0.9,0.5-1.3,0.8c-0.2,0.2-0.4,0.5-0.5,0.8
			c0,0.1,0,0.3,0.1,0.3c0.1,0,0.2-0.1,0.2-0.2c0.1-0.2,0.2-0.3,0.4-0.4c0.2-0.2,0.5-0.3,0.7-0.5c0.2,0.1,0.4-0.2,0.5,0
			C53.7,36.7,53.6,37,53.6,37.2z"/>
		<path class="st2" d="M66.1,24.7c-0.3,0.1-0.4,0.3-0.3,0.6c0,0.3,0.1,0.5-0.2,0.7c-0.1,0.1,0,0.3,0,0.5c0,0.2,0,0.4,0,0.7
			c0,0.3,0,0.5,0.3,0.6c0.2,0.1,0.1,0.2,0,0.2c-0.2,0.1-0.4,0.1-0.5,0.2c-0.3,0.1-0.4,0.3-0.4,0.6c0.1,0.4,0,0.8-0.2,1.1
			c-0.2,0.4-0.2,0.6,0.1,0.9c0.1,0.1,0.3,0.1,0.2,0.2c0,0.1-0.2,0.2-0.3,0.2c-1.1,0.3-2.3,0.7-3.4,1c-0.6,0.2-1.1,0.3-1.7,0.5
			c-0.5,0.2-0.6,0.3-0.4,0.8c0,0.1,0,0.1,0.1,0.2c0.2,0.5,0.1,0.6-0.4,0.5c-0.9-0.1-1.7,0-2.5,0.5c-0.2,0.1-0.3,0.2-0.3,0.5
			c-0.1,1-0.4,1.1-1.2,1.3c-0.2,0.1-0.4,0.1-0.6,0.1c0-0.1-0.1-0.3-0.1-0.4v0c0.1,0,0.1,0,0.2-0.1c0,0,0,0,0,0c0,0,0,0,0.1,0
			c0.1,0,0.1,0,0.2,0c0,0,0,0,0,0c0,0,0,0,0-0.1l0,0c0,0,0,0,0,0c0.1,0,0.2,0,0.3-0.1c0.5-0.2,0.9-0.5,1.1-1c0.1,0,0-0.1,0.1-0.1
			c0.1-0.3,0.1-0.6,0-0.9c0,0,0-0.1,0-0.1c0,0,0-0.1,0-0.1c0,0,0,0,0,0c0,0,0,0,0,0c0,0,0,0,0,0c0,0,0,0,0,0c0,0,0,0,0,0
			c0,0,0,0,0,0c0,0,0,0,0,0c0,0,0,0,0,0c0,0,0,0-0.1,0v0c-0.3-0.4-0.6-0.7-1.1-0.9l0,0h0c0,0,0,0,0,0c-0.2-0.1-0.2-0.2-0.2-0.5
			c0-0.5,0-1,0-1.4c0-0.2,0-0.5,0-0.7c0.2,0,0.1-0.2,0.1-0.3c0-0.3,0.1-0.5,0.4-0.5c0.1,0,0.2-0.1,0.2-0.2c0.1,0,0.1,0,0.2,0
			c0.1,0,0.2,0.2,0.3,0.2c0,0,0,0,0,0c0,0.2,0.1,0.3,0.2,0.4l0,0c0,0.1,0,0.1,0.1,0.1c0,0,0,0,0,0c0.1,0.1,0.1,0.2,0.3,0.2l0,0
			c0.3,0.3,0.4,0.3,0.8,0.1c0.1-0.1,0.2-0.1,0.3-0.2c0.1-0.1,0.2-0.1,0.2,0.1c0,0.2,0.1,0.3,0.3,0.3c0.2,0,0.3-0.2,0.3-0.4
			c0-0.5,0-0.9,0-1.3c0-0.1,0-0.1-0.1-0.2c0,0,0,0,0-0.1c-0.1-0.3-0.1-0.3-0.3-0.1c0,0,0,0-0.1,0c-0.1,0-0.3,0.1-0.4,0.1
			c-0.1,0-0.2,0-0.3,0c-0.2-0.1-0.4,0-0.6,0.1c0-0.1-0.1-0.1-0.2-0.1c0-0.1,0.1-0.2,0.2-0.2c0.5-0.5,0.6-1.7,0.3-2.3
			c-0.3-0.5-0.6-0.8-1.1-1.1c0-0.3-0.1-0.5,0-0.8c0,0,0,0,0-0.1c0,0,0-0.1,0.1-0.1c0.1-0.4-0.1-0.7-0.3-1c-0.1-0.2-0.3-0.3-0.2-0.5
			c0.1-0.2,0.3-0.2,0.5-0.3c0.4-0.3,0.7-0.6,0.7-1.1c0-0.2,0.2-0.1,0.3-0.2c0.1,0,0.1,0,0.2,0c0.8-0.1,1.6-0.1,2.4-0.2
			c0.2,0,0.4-0.2,0.6-0.2c0.3,0,0.4,0.2,0.5,0.4c0.1,0.3,0.3,0.4,0.7,0.4c0.2,0,0.3,0,0.5,0c0.2,0,0.4,0.1,0.3,0.3
			c0,0.2,0.2,0.2,0.3,0.2c0.2,0,0.4,0,0.4,0.2c0,0.1,0.1,0.1,0.2,0.1c0.4,0,0.8,0.2,1.2,0.4c0.2,0.1,0.5,0.1,0.6,0.3
			c0.3,0.4,0.9,0.5,1,1.1c0.1,0.3,0.4,0.6,0.6,0.9C66.4,24.4,66.4,24.6,66.1,24.7z"/>
		<path class="st3" d="M75.7,17.9c-0.1,0-0.1-0.1-0.2-0.1c-1-0.9-2.1-1.7-3.4-2.2c-3.6-1.4-7.6-0.4-10.2,2.4
			c-0.1,0.1-0.2,0.2-0.3,0.3c-0.2,0.3-0.3,0.2-0.4-0.1c0.4-0.2,0.3-0.6,0.3-0.9c0-0.8,0.2-1.6,0.1-2.4c-0.1-0.9-0.1-1.7-0.2-2.6
			c-0.1-0.5-0.2-1-0.3-1.4c0.1-0.4-0.1-0.8-0.2-1.2c0-0.2,0-0.6-0.3-0.7c-0.1-0.4-0.3-0.7-0.5-1.1C60,7.8,59.9,7.3,59.6,7
			c-0.3-0.4-0.5-0.8-0.8-1.1c-0.2-0.1-0.1-0.4-0.4-0.4c0-0.3-0.4-0.7-0.8-0.8c-0.3-0.3-0.6-0.6-1-0.8c-0.1,0-0.1,0-0.1-0.1
			c0.6,0,1.2,0.1,1.8,0.2c4,0.7,7.6,2.2,10.8,4.7c2.7,2.2,4.8,4.9,6.3,8c0.1,0.3,0.2,0.6,0.3,0.9C75.7,17.8,75.8,17.8,75.7,17.9z"/>
		<polygon class="st4" points="32.5,17.2 32.5,17.2 32.5,17.2 		"/>
		<polygon class="st4" points="33.7,16.3 33.7,16.3 33.7,16.3 		"/>
		<path class="st4" d="M52.1,3.7c-0.3,0.1-0.6,0.1-0.9,0.1c-0.2,0-0.4,0.1-0.5,0.2c-1,0.9-1.7,1.9-2.4,2.9c-0.3,0.5-0.6,1-0.7,1.6
			c-0.1,0.5-0.3,1-0.5,1.4c-0.2,0.7-0.4,1.4-0.5,2.2c-0.1,0.6-0.1,1.2-0.2,1.7c0,0.2,0,0.3,0,0.5c0,1.2,0,2.4,0.2,3.5
			c0,0.1,0,0.2-0.1,0.3c-0.3-0.4-0.6-0.7-0.9-1.1c-0.6-0.7-1.4-1.2-2.2-1.6c0-0.1,0-0.1-0.1-0.1c-0.4-0.2-0.8-0.4-1.2-0.5
			c-0.4-0.1-0.8-0.2-1.2-0.2c-1.2,0-2.3-0.2-3.5,0.1c-0.6,0.1-1.1,0.3-1.6,0.5c-0.4,0.1-0.7,0.3-1.1,0.4c-0.3,0.2-0.7,0.3-0.9,0.6
			c-0.6,0-0.9,0.5-1.3,0.9c0,0,0,0.1,0,0.1c0,0,0,0-0.1,0.1c-0.3,0-0.1-0.2-0.2-0.3c0.4-1,1-2,1.6-3c2.8-4.3,6.8-7.3,11.7-9
			c2.1-0.7,4.2-1.2,6.4-1.3C51.9,3.7,52,3.7,52.1,3.7z"/>
		<path class="st5" d="M58.2,19.2c-0.5-1-1.4-1.7-2.5-1.4c-0.1,0-0.3,0-0.4,0c-1,0-1.9,0.1-2.8,0.3c-1.7,0.5-2.7,2.2-2.2,3.8
			c0.4,1.2,1.4,1.9,2.4,2.5c0-0.1,0-0.2,0.1-0.1c0.3,0.1,0.3-0.1,0.2-0.3c0-0.2,0-0.4,0-0.5c0-0.2,0-0.4-0.2-0.4
			c0.1-0.1,0.2,0,0.3,0c0,0,0-0.1,0-0.1c-0.1,0-0.2-0.2-0.3-0.1c-0.1,0.1-0.2,0-0.2-0.1c-0.2-0.2-0.4-0.4-0.6-0.6
			c-0.1-0.1-0.2-0.3-0.1-0.4c-0.2-0.8-0.1-1.5,0.6-2c0-0.1,0.1-0.1,0.1-0.1l0,0c0.4-0.3,0.8-0.3,1.3-0.4c0,0,0.1,0,0.1,0
			c0,0,0,0,0.1,0c0.1,0,0.2,0,0.2,0c0.2-0.1,0.5-0.1,0.7,0c0,0,0,0,0.1,0c0.1,0,0.1,0,0.1,0.1c0,0,0,0,0.1,0c0,0,0.1,0,0.1,0l0,0
			c0.2,0.1,0.4,0.1,0.6,0.2c0.4,0,0.8,0.1,1.3,0.1c0.3,0,0.5-0.1,0.8-0.1l0,0C57.9,19.5,58.2,19.6,58.2,19.2z M56.9,18.8
			c-0.1,0-0.2,0-0.2-0.2c0-0.1,0.1-0.2,0.2-0.2c0.1,0,0.2,0.1,0.2,0.2C57.1,18.7,57,18.8,56.9,18.8z"/>
		<path class="st5" d="M54.6,20c0,0.2,0,0.5,0,0.7c0,0.1,0,0.2,0,0.2c0,1.4-0.1,2.8-0.1,4.2c-0.1,0-0.1,0.1-0.1,0.2
			c-0.1,0.7-0.1,1.4-0.1,2.1c0,0.1,0,0.3-0.1,0.4c-0.1,0-0.3,0-0.4,0c-0.1,0.2-0.2,0.2-0.4,0.2c0,0-0.1,0-0.1,0c0,0,0,0-0.1,0
			c0,0,0,0-0.1,0c0,0-0.1,0-0.1,0c0-0.1,0-0.2,0-0.3c0-0.1,0-0.1,0-0.2c0-0.1,0-0.3,0-0.4c0,0,0-0.1,0-0.1c-0.1-2.3-0.1-4.6-0.1-6.8
			c0-0.2,0-0.3,0.3-0.4c0.3,0,0.6,0,1-0.1c0.1,0,0.1,0,0.2,0C54.7,19.7,54.6,19.8,54.6,20z"/>
		<path class="st6" d="M55,3.6c-0.7,0-1.4,0-2.1,0c-0.1,0-0.1,0-0.2,0c0.3,0,0.3-0.1,0.4-0.5c0.1-0.9,0.3-1.8,0.4-2.7
			c0-0.3,0.2-0.4,0.6-0.4c0.3,0,0.5,0.1,0.5,0.4C54.7,1.5,54.9,2.6,55,3.6z"/>
		<path class="st5" d="M54.8,17c-0.1,0.1-0.3,0.2-0.2,0.4c0,0.1-0.1,0.1-0.2,0.1h-0.5v0c-0.1,0-0.3,0-0.4,0c-0.2,0-0.3,0-0.3-0.3
			c0-0.1-0.1-0.2-0.2-0.3c-0.3-0.2-0.5-0.5-0.4-0.9c0.1-0.4,0.4-0.6,0.8-0.7c0.3-0.1,0.7-0.1,1,0C55.2,15.6,55.4,16.4,54.8,17z"/>
		<path class="st7" d="M43.3,15.5c-0.8-0.3-1.6-0.6-2.4-0.7c-2.5-0.3-4.8,0.1-6.9,1.4c-0.1,0-0.1,0.1-0.2,0.1h0c0,0,0,0,0,0
			c0.2-0.3,0.5-0.5,0.9-0.6c0.4-0.2,0.7-0.3,1.1-0.4c0.5-0.2,1.1-0.4,1.6-0.5c1.2-0.2,2.3-0.1,3.5-0.1c0.4,0,0.8,0.1,1.2,0.2
			c0.4,0.1,0.8,0.3,1.2,0.5C43.3,15.4,43.3,15.4,43.3,15.5z"/>
		<path class="st7" d="M54.1,36.2c-0.3,0.1-0.7,0-1,0.4c0.2,0.1,0.4-0.2,0.5,0c0.1,0.2,0,0.4,0,0.6c0,0,0,0.1,0,0.1
			c0.1,0.1,0.1,0.3,0.1,0.5c0,0.5,0,0.9,0,1.4c0,0.1,0.1,0.3,0.2,0.3c0.2,0,0.2-0.1,0.2-0.3c0-0.1,0-0.2,0-0.3c0-0.7,0-1.4,0.1-2.2
			C54.2,36.5,54.2,36.3,54.1,36.2z M54.1,38.9c0,0.1,0.1,0.3-0.1,0.3c-0.2,0-0.2-0.1-0.2-0.3c0-0.2,0-0.5,0-0.7c0-0.4,0-0.8,0-1.3
			c0-0.1,0-0.2,0.1-0.3c0.1,0,0-0.2,0.1-0.2c0.1,0,0.2,0.1,0.2,0.3c0,0.4,0,0.8,0,1.2c0,0,0,0,0,0C54.1,38.2,54.1,38.6,54.1,38.9z"
			/>
		<path class="st8" d="M53,24.7c0,0-0.1,0-0.1,0c-0.1,0-0.3-0.1-0.4-0.2c0-0.1,0-0.2,0.1-0.1c0.3,0.1,0.3-0.1,0.2-0.3
			c0-0.2,0-0.4,0-0.5c0-0.2,0-0.4-0.2-0.4c0.1-0.1,0.2,0,0.3,0c0.1,0,0.1,0,0.1,0.1c0,0.2-0.1,0.5,0,0.7
			C53.1,24.2,53.1,24.4,53,24.7z"/>
		<path class="st9" d="M50.2,26.8c-0.1,0-0.1,0-0.2,0h0v0c0,0,0,0,0,0C50,26.8,50.1,26.8,50.2,26.8z"/>
		<path class="st7" d="M33.7,16.3L33.7,16.3L33.7,16.3c-0.4,0.3-0.8,0.6-1.3,1c0,0,0,0,0,0c0,0,0-0.1,0-0.1
			C32.8,16.7,33.1,16.3,33.7,16.3z"/>
		<path class="st7" d="M32.4,17.3c-0.2,0.2-0.3,0.4-0.6,0.5c0-0.3,0.2-0.6,0.4-0.8C32.3,17,32.1,17.3,32.4,17.3L32.4,17.3z"/>
		<polygon class="st9" points="50,26.8 50,26.8 50,26.8 50,26.8 		"/>
		<path class="st7" d="M59.1,19.7L59.1,19.7c-0.3,0-0.6,0.2-0.8-0.1c0-0.1,0-0.1,0-0.2c0,0,0,0,0.1,0c0,0,0,0,0.1,0c0,0,0.1,0,0.1,0
			c0.2,0,0.3,0.1,0.5,0.1C59.1,19.6,59.1,19.7,59.1,19.7z"/>
		<path class="st3" d="M56.5,3.9c-0.1,0-0.2,0-0.4,0c-0.1,0,0-0.1,0-0.1C56.3,3.8,56.4,3.8,56.5,3.9z"/>
		<path class="st9" d="M55.2,23.7C55.2,23.8,55.2,23.8,55.2,23.7C55.2,23.8,55.2,23.8,55.2,23.7C55.2,23.8,55.2,23.7,55.2,23.7
			C55.2,23.7,55.2,23.7,55.2,23.7z"/>
		<path class="st4" d="M46.6,18.3C46.6,18.3,46.6,18.4,46.6,18.3C46.5,18.4,46.5,18.3,46.6,18.3C46.5,18.3,46.5,18.3,46.6,18.3z"/>
		<path class="st5" d="M53.1,24.8c0,0-0.1,0-0.1-0.1C53,24.7,53,24.7,53.1,24.8C53,24.7,53.1,24.7,53.1,24.8z"/>
		<path class="st9" d="M53.9,19.3C53.9,19.3,53.8,19.3,53.9,19.3C53.8,19.3,53.9,19.3,53.9,19.3z"/>
		<path class="st4" d="M46.5,18.3C46.4,18.3,46.4,18.3,46.5,18.3C46.5,18.2,46.5,18.2,46.5,18.3z"/>
		<polygon class="st7" points="31.8,17.8 31.8,17.8 31.8,17.8 		"/>
		<path class="st7" d="M32.4,17.3C32.4,17.3,32.4,17.2,32.4,17.3C32.4,17.2,32.4,17.3,32.4,17.3z"/>
		<path class="st9" d="M58.4,19.5C58.4,19.5,58.4,19.5,58.4,19.5C58.4,19.5,58.4,19.5,58.4,19.5z"/>
		<path class="st8" d="M60.7,9.2C61,9.3,61,9.7,61,9.9c0,0.4,0.2,0.8,0.2,1.2c-0.1,0-0.1,0-0.1-0.1c-0.1-0.4-0.1-0.8-0.3-1.2
			C60.8,9.6,60.6,9.4,60.7,9.2z"/>
		<path class="st8" d="M57.7,4.8c0.3,0,0.7,0.4,0.8,0.8C58.1,5.3,57.8,5.1,57.7,4.8z"/>
		<path class="st8" d="M56.4,27.7c-0.1,0.1-0.2,0.1-0.2,0.2c-0.3,0.2-0.5,0.4-0.8,0.5c-0.1,0-0.2,0.1-0.2,0.2c-0.1,0-0.1,0-0.2,0
			c-0.1,0-0.2,0-0.2,0.1c-0.4,0.2-0.9,0.4-1.3,0.6c-0.3,0-0.5,0.1-0.7,0.4c-0.2,0-0.3,0.2-0.4,0.3c-0.5,0.4-0.5,0.9,0,1.3
			c0.3,0.2,0.6,0.3,0.9,0.5c0.2,0.3,0.1,0.7,0.1,1c-0.3,0-0.5-0.2-0.7-0.3c-0.5-0.2-0.9-0.5-1.2-0.8c-0.5-0.4-0.6-1.4-0.3-1.9
			c0.5-0.7,1.2-1.2,2-1.4c0.3-0.1,0.6-0.2,0.9-0.4c0.1-0.1,0.3-0.1,0.3-0.2c0.1,0,0.2,0.1,0.3-0.1l0,0c0,0,0,0,0.1,0
			c0.2-0.2,0.5-0.3,0.6-0.5c0.3-0.5,0.3-0.9,0-1.3c-0.1-0.1-0.2-0.2-0.3-0.2c-0.4-0.1-0.4-0.4-0.4-0.7c0-0.2,0-0.4,0-0.7
			c0-0.2,0-0.3,0.3-0.2c0.2,0.1,0.5,0.2,0.7,0.4c0.4,0.3,0.8,0.6,1.1,1.1C57.1,26,56.9,27.2,56.4,27.7z"/>
		<path class="st8" d="M54.1,36.2c-0.3,0.1-0.7,0-1,0.4c-0.2,0.2-0.5,0.3-0.7,0.5c-0.1,0.1-0.3,0.2-0.4,0.4c0,0.1-0.1,0.2-0.2,0.2
			c-0.1,0-0.1-0.2-0.1-0.3c0-0.3,0.2-0.6,0.5-0.8c0.4-0.4,0.9-0.6,1.3-0.8c0.3-0.1,0.6-0.2,0.9-0.4c1-0.3,1.1-1,0.4-1.7
			c0,0-0.1-0.1-0.1-0.1c-0.2-0.1-0.4-0.8-0.2-1c0,0,0.1,0,0.1,0c0,0,0,0,0,0c0,0,0,0,0,0c0.5,0.2,0.8,0.5,1.1,0.9c0,0.1,0,0.2,0,0.2
			c0.2,0.2,0.2,0.4,0.2,0.7c0,0.2,0,0.4,0,0.6c-0.2,0.5-0.5,0.9-1.1,1c-0.1,0-0.3-0.1-0.3,0.1c0,0,0,0,0,0c-0.1,0-0.2-0.1-0.2,0.1
			c0,0-0.1,0-0.1,0C54.2,36,54.1,36,54.1,36.2L54.1,36.2z"/>
		<path class="st7" d="M54.4,35.2c-0.3,0.2-0.6,0.3-0.9,0.4c0-0.7,0-1.5,0-2.2c0-0.2-0.1-0.4-0.1-0.6c0-0.4,0.1-0.7-0.1-1
			c0.1,0,0.1,0,0.2,0c0.1,0.1,0,0.2,0,0.3c0,0.2-0.1,0.5,0.1,0.7c0,0.1,0,0.2-0.1,0.3c0,0.7,0,1.3,0,2c0,0.2-0.1,0.3,0.1,0.5
			c0.2-0.1,0.4-0.2,0.6-0.3C54.3,35.2,54.4,35.2,54.4,35.2z"/>
		<path class="st7" d="M54.3,27.7c0,0.2-0.2,0.2-0.3,0.2c-0.3,0.2-0.6,0.3-0.9,0.4c0.1-0.2,0.1-0.3,0.1-0.5c0.2,0,0.5,0.3,0.7-0.1
			C54,27.7,54.2,27.7,54.3,27.7z"/>
		<path class="st8" d="M53.6,33c0-0.1,0.1-0.2,0.1-0.3c0-0.4,0.1-0.8-0.1-1.3c0,0,0-0.1,0-0.1c0.1-0.2,0-0.4,0-0.6c0,0-0.1,0-0.1,0
			c0-0.3,0-0.6,0-1c0-0.2,0.2-0.3,0.3-0.4c0.5-0.3,0.5-0.3,0.5,0.3c0,0.2,0,0.5,0,0.7c-0.1,0.1,0,0.2-0.1,0.3c0,0.6,0,1.2,0,1.8
			c0,0.6-0.1,1.2-0.1,1.8c0,0.3,0,0.6,0,0.9c-0.2,0.2-0.4,0.2-0.6,0.3c0-0.6,0-1.2,0-1.7C53.6,33.5,53.7,33.2,53.6,33z"/>
		<path class="st7" d="M54.3,34.3c0-0.6,0-1.2,0.1-1.8c0-0.6,0-1.2,0-1.8c0-0.1,0-0.2,0.1-0.3c0,0.5,0,1,0,1.4c0,0.2,0,0.4,0.2,0.5
			c0,0-0.1,0-0.1,0c-0.2,0.2,0,0.9,0.2,1c-0.2,0-0.3,0-0.3,0.3c0,0.3,0,0.7,0,1.1C54.3,34.6,54.4,34.4,54.3,34.3z"/>
		<path class="st7" d="M54.4,29.7c0-0.6,0-0.6-0.5-0.3c-0.2,0.1-0.4,0.2-0.3,0.4c-0.1-0.1-0.1-0.3-0.3-0.3c0.1-0.1,0.2-0.1,0.4-0.2
			c0.4-0.2,0.9-0.4,1.3-0.6c0.1,0,0.2,0,0.2-0.1c0,0.1-0.1,0.2-0.2,0.2c-0.3,0-0.4,0.2-0.4,0.5C54.5,29.5,54.6,29.7,54.4,29.7z"/>
		<path class="st3" d="M56,34.8c0-0.2,0-0.4,0-0.6c0-0.3,0-0.5-0.2-0.7c-0.1,0,0-0.1,0-0.2c0.2,0,0.2,0.3,0.3,0.4c0,0.3,0,0.6,0,0.9
			C56.1,34.7,56.1,34.7,56,34.8z"/>
		<path class="st7" d="M56.1,34.6c0-0.3,0-0.6,0-0.9C56.2,34,56.2,34.3,56.1,34.6z"/>
		<path class="st7" d="M54.6,35.9c0-0.2,0.2-0.1,0.3-0.1C54.9,35.9,54.8,35.9,54.6,35.9z"/>
		<path class="st7" d="M54.4,36c0-0.2,0.1-0.1,0.2-0.1C54.6,36.1,54.5,36,54.4,36z"/>
		<path class="st7" d="M54.1,36.2c0-0.1,0.1-0.1,0.2-0.1C54.3,36.1,54.2,36.2,54.1,36.2z"/>
		<path class="st7" d="M54.7,32.4C54.7,32.4,54.6,32.4,54.7,32.4C54.6,32.4,54.7,32.4,54.7,32.4L54.7,32.4z"/>
		<path class="st8" d="M52.5,22.9c-0.1,0.1-0.2,0-0.2-0.1c-0.2-0.2-0.4-0.4-0.6-0.6c-0.1-0.1-0.2-0.3-0.1-0.4
			c0.1,0.1,0.1,0.2,0.2,0.3c0,0.1,0,0.1,0.1,0.1c0.1,0,0.1,0.1,0.1,0.2c0,0,0,0.1,0.1,0.1c0.1,0,0.1,0.1,0.2,0.2c0,0,0,0.1,0.1,0.1
			C52.5,22.8,52.5,22.8,52.5,22.9z"/>
		<path class="st9" d="M52.4,19.7c0,0.1-0.1,0.1-0.1,0.1C52.3,19.7,52.3,19.7,52.4,19.7z"/>
		<path class="st7" d="M54.6,27.6c-0.1,0.1-0.2,0.1-0.3,0.1c0.1-0.1,0.1-0.3,0.1-0.4c0-0.7,0-1.4,0.1-2.1c0-0.1,0-0.1,0.1-0.2
			c0,0.8,0,1.6,0,2.4C54.5,27.5,54.4,27.7,54.6,27.6z"/>
		<path class="st2" d="M55.3,27.1c-0.3-0.4-0.2-0.8,0-1.3C55.7,26.2,55.7,26.5,55.3,27.1z"/>
		<path class="st7" d="M54.7,27.6C54.7,27.6,54.6,27.6,54.7,27.6C54.6,27.6,54.7,27.6,54.7,27.6z"/>
		<path class="st5" d="M53,23.9c-0.1-0.2,0-0.5,0-0.7C53.1,23.4,53,23.7,53,23.9z"/>
		<path class="st5" d="M54.1,37.9c0,0.3,0,0.7,0,1c0,0.1,0.1,0.3-0.1,0.3c-0.2,0-0.2-0.1-0.2-0.3c0-0.2,0-0.5,0-0.7
			c0-0.4,0-0.8,0-1.3c0-0.1,0-0.2,0.1-0.3c0.1-0.1,0-0.2,0.1-0.2c0.1,0,0.2,0.1,0.2,0.3C54.1,37.1,54.1,37.5,54.1,37.9
			C54.1,37.9,54.1,37.9,54.1,37.9z"/>
		<path class="st2" d="M53.2,29.6c0.2,0,0.2,0.2,0.3,0.3c0,0.3,0,0.6,0,1c0,0.1,0,0.2,0,0.3c0,0.2,0,0.4,0,0.6c0,0,0,0.1,0,0.1
			c-0.1,0-0.1,0-0.2,0c-0.3-0.2-0.6-0.3-0.9-0.5c-0.5-0.4-0.5-0.9,0-1.3c0.1-0.1,0.2-0.3,0.4-0.3C53,29.7,53.1,29.6,53.2,29.6z"/>
		<path class="st3" d="M53.2,29.6c-0.1,0-0.2,0.1-0.3,0.1c0.1-0.3,0.4-0.3,0.7-0.4C53.4,29.4,53.3,29.5,53.2,29.6z"/>
		<path class="st2" d="M54.3,34.3c0.1,0.1,0,0.3,0.1,0.5c0-0.4,0-0.7,0-1.1c0-0.3,0.1-0.3,0.3-0.3c0,0,0.1,0.1,0.1,0.1
			c0.7,0.7,0.6,1.4-0.4,1.7c-0.1,0-0.1,0-0.2,0C54.2,34.9,54.2,34.6,54.3,34.3z"/>
		<path class="st2" d="M53.6,33c0.1,0.2,0,0.5,0,0.7c0,0.6,0,1.2,0,1.7c-0.1-0.1-0.1-0.3-0.1-0.5C53.5,34.3,53.6,33.7,53.6,33z"/>
		<path class="st3" d="M53.5,31.7c0,0,0-0.1,0-0.1c0,0,0-0.1,0.1-0.1c0.1,0.4,0,0.8,0.1,1.3c-0.1-0.2,0-0.5-0.1-0.7
			C53.5,32,53.6,31.9,53.5,31.7z"/>
		<path class="st3" d="M53.5,31.1c0-0.1,0-0.2,0-0.3c0,0,0.1,0,0.1,0c0,0.2,0.1,0.4,0,0.6C53.5,31.3,53.6,31.2,53.5,31.1z"/>
		<path class="st7" d="M53.5,31.1c0.1,0.1,0,0.2,0.1,0.3c0,0,0,0.1,0,0.1c0,0,0,0.1-0.1,0.1C53.5,31.4,53.5,31.3,53.5,31.1z"/>
		<path class="st5" d="M51.9,22.2c-0.1,0-0.1,0-0.1-0.1C51.8,22.2,51.9,22.2,51.9,22.2z"/>
		<path class="st5" d="M52.4,22.7C52.3,22.7,52.3,22.7,52.4,22.7C52.3,22.7,52.4,22.7,52.4,22.7z"/>
		<path class="st5" d="M52.1,22.5C52.1,22.5,52.1,22.4,52.1,22.5L52.1,22.5z"/>
	</g>
	<g>
		<path class="st10" d="M186.8,22.4c-1.7,0-3.4,0-5.1,0c-0.6,0-0.7-0.2-0.8-0.7c-0.5-3.9-0.9-7.8-1.4-11.7c-0.1-0.7-0.5-1.3-0.3-2.1
			c0-0.2-0.1-0.3-0.2-0.3c-0.2,0-0.2,0.1-0.3,0.3c-0.1,0.3-0.1,0.7-0.2,1c-1.2,4.3-2.5,8.6-3.7,12.9c-0.1,0.5-0.4,0.6-0.8,0.6
			c-1.6,0-3.1,0-4.7,0c-0.5,0-0.7-0.2-0.9-0.6c-1.5-4.5-3-9-4.4-13.4c-0.1-0.4-0.3-1.2-0.7-1.1C162.7,7.3,163,8,163,8.4
			c-0.5,4.4-1,8.9-1.5,13.3c-0.1,0.5-0.2,0.7-0.8,0.7c-0.8,0-1.6-0.1-2.5,0c-0.8,0.1-0.9-0.2-0.7-0.9c0.8-4,1.5-8,2.2-12
			c0.5-2.8,1-5.5,1.5-8.3c0.1-0.6,0.3-0.8,0.9-0.7c1.5,0,2.9,0,4.4,0c0.6,0,0.9,0.2,1,0.8c1.6,5,3.3,10,4.9,14.9
			c0.1,0.2,0.2,0.4,0.3,0.8c0.2-0.6,0.4-1.1,0.6-1.5c1.6-4.7,3.1-9.4,4.7-14.1c0.2-0.7,0.5-0.9,1.2-0.9c1.4,0.1,2.8,0.1,4.1,0
			c0.7,0,0.9,0.2,1,0.8c0.6,3.9,1.2,7.8,1.8,11.6c0.4,2.9,0.9,5.8,1.3,8.7C187.6,22.2,187.5,22.4,186.8,22.4z"/>
		<path class="st11" d="M141.2,21.4c0,0.7-0.3,0.9-0.9,0.9c-1.7,0-3.4,0-5.1,0l0,0c0-2.8,0-5.5,0-8.3c0-1.3,0-1.2-1.3-1.3
			c-2.4-0.1-4.9,0.3-7.3-0.2c-0.2,0-0.2,0.1-0.2,0.2c-0.2,0.3-0.4,0.6-0.4,1.1c0,2.4,0,4.7,0,7.1c0,0.3-0.1,0.6,0.4,0.7
			c0,0.1,0,0.2,0,0.3c-0.3,0-0.4,0.2-0.4,0.4c-0.1,0-0.2,0-0.4,0c-0.5-0.5-1.2-0.2-1.8-0.2c-0.9,0-1.9,0.3-2.8-0.1
			c-0.4-0.2-0.3,0.1-0.3,0.3c-0.1,0-0.2,0-0.3,0c-0.2-0.6-0.6-1.1-0.1-1.7c0-0.1,0-0.3,0-0.3c-0.4-0.4-0.2-0.9-0.2-1.3
			c0-4.9,0-9.8,0-14.8c0-0.6-0.1-1.3,0.3-1.9c0.1-0.2,0.1-0.5-0.1-0.8c-0.4-0.6-0.1-0.8,0.5-0.8c1.5,0,3,0,4.5,0
			c0.7,0,0.8,0.2,0.8,0.8c0,2.5,0,5,0,7.5c0,1,0.2,1.2,1.2,1.2c2.4,0,4.7,0,7.1,0c0.7,0,0.9-0.2,0.8-0.9c0-2.6,0-5.3,0-7.9
			c0-0.6,0.2-0.8,0.8-0.8c1.5,0,2.9,0,4.4,0c0.6,0,0.9,0.2,0.9,0.8C141.2,8.2,141.2,14.8,141.2,21.4z"/>
		<polygon class="st12" points="204.3,2.6 204.3,2.6 204.3,2.6 		"/>
		<polygon class="st12" points="205.2,2.9 205.2,2.9 205.2,2.9 		"/>
		<path class="st12" d="M208.4,1.5L208.4,1.5C208.4,1.5,208.4,1.5,208.4,1.5C208.4,1.5,208.4,1.5,208.4,1.5z"/>
		<path class="st12" d="M214,13.7c0,0.1,0,0.2,0,0.3c-0.4,0-0.3,0.4-0.4,0.6c-0.2,0.7-0.1,1.6-0.5,2.2c-0.6,1.2-0.8,2.6-1.6,3.7
			c-1,1.4-1.6,3-2.8,4.3c-0.3,0.2-0.4,0.5-0.3,0.9c-0.2,0.4-0.6,0.7-0.9,1c-0.3,0.3-0.5,0.3-0.9,0.1c-0.1-0.1-0.2-0.1-0.3-0.2
			c-1.7-0.9-1.7-0.9-0.7-2.6c0.3,0,0.5-0.2,0.5-0.4c0.2-1.1,1-2.1,0.8-3.3c0-0.1,0-0.2,0.1-0.3c0.8-1.1,0.7-2.4,1-3.7
			c0.2-1.2,0-2.4,0-3.6v-1.4c0-0.5,0-1.1,0-1.6c0.2-1.9-0.1-3.8-1.1-5.4c-0.4-0.6-0.7-1.5-1.7-1.3c-0.1-0.6-0.6-0.3-0.9-0.4
			c0-0.4-0.4-0.4-0.6-0.4c-0.5,0-1.1,0-1.6,0c-0.5,0-0.9,0.2-1,0.7l-0.1,0c0,0-0.1,0-0.1,0c-0.9-0.3-1.2,0.5-1.6,1
			c-1,1.3-1.3,2.9-1.4,4.4c-0.1,1.8,0,3.6,0,5.4c0,0.8,0.3,1.1,1.1,1.1c1.6,0,3.2,0,4.7,0c0.9,0,0.9,0,0.9,0.8c0,0.1,0,0.1,0.1,0.2
			c0.3,0.8,0.1,1.1-0.8,1.1c-1.7,0-3.3,0-5,0c-0.7,0-1,0.2-1,0.9c0.1,1-0.1,2.1,0,3.1c0.1,0.9-0.5,1.2-1.2,1.3c-1.3,0.1-2.7,0-4,0
			c-0.4,0-0.7-0.2-0.6-0.6c0-0.7,0.2-1.5,0.2-2.2c0-1.7-0.1-3.4,0-5.1c0.1-1.6-0.4-3.2-0.1-4.9c0.2-1,0.4-1.9,0.8-2.8
			c0.4-0.8,0.6-1.9,1.3-2.4c0.9-0.6,1.4-1.7,2.5-2.2c0.9-0.4,1.7-1.1,2.6-1.2c0.8-0.1,1.7-0.2,2.3-0.5c1.4-0.6,2.5,0.2,3.7,0.3
			c1,0.1,1.8,1,2.9,0.8c0,0.4,0,0.6,0.4,0.8c0.4,0.2,1,0.3,1.2,0.7c0.5,1.1,1.6,1.7,2.2,2.8c0.6,1.1,1.3,2,1.1,3.3
			c0,0.2,0,0.5,0.1,0.7c0.4,0.5,0.6,1.1,0.6,1.8C214,12.2,214,12.9,214,13.7z"/>
		<path class="st10" d="M111.3,15.2L111.3,15.2L111.3,15.2C111.3,15.2,111.3,15.2,111.3,15.2z"/>
		<path class="st10" d="M114.4,1.9V21c0,1-0.2,1.2-1.3,1.2c-1.1,0.1-2.1-0.2-3.1-0.3c-0.1,0-0.1,0-0.1-0.1c0,0-0.1-0.1-0.1-0.1
			c-2-1.9-3.8-4-5.7-5.9c-2.4-2.5-4.8-5.1-7.2-7.6c-0.2-0.2-0.4-0.4-0.6-0.6c-0.2,0.5-0.1,0.9-0.1,1.3c0,4.2,0,8.3,0,12.5
			c0,0.8-0.2,1-1,1c-2.1,0-2.1,0-2.1-2.1c0-6.3,0-12.5,0-18.8c0-0.9,0.2-1.2,1.1-1c0.3,0,0.7,0.1,1.1,0c1.5-0.2,2.5,0.3,3.6,1.4
			c2.9,3.2,5.9,6.3,8.9,9.5c0.4,1.3,1.4,2,2.5,2.7h0c0.1,0.6,0.2,1.2,1,1.1c0,0.1,0,0.2,0.1,0.3c0.1,0.1,0.2,0,0.2-0.1
			c0-0.1,0-0.1,0.1-0.1c0.5-0.2,0.3-0.6,0.3-0.9c0-4.2,0-8.4,0-12.6c0-0.3-0.1-0.7,0.1-0.8c0.6-0.3,1.3-0.2,1.9-0.1
			C114.5,0.9,114.4,1.5,114.4,1.9z"/>
		<path class="st10" d="M153.3,21.4c0,0.9-0.3,1.1-1.1,1.1c-1.5-0.1-3-0.1-4.5,0c-0.8,0-1-0.2-1-1c0-4.9,0-9.9,0-14.8
			c0-1.8,0-3.5,0-5.3c0-0.7,0.2-0.9,0.9-0.9c1.6,0.1,3.2,0.1,4.7,0c0.7,0,0.9,0.2,0.9,0.9c0,3.4,0,6.7,0,10.1
			C153.3,14.7,153.2,18,153.3,21.4z"/>
		<path class="st7" d="M208.4,1.5L208.4,1.5c-1.1,0.1-1.9-0.8-3-0.8c-1.2-0.1-2.3-0.9-3.7-0.3c-0.7,0.3-1.5,0.5-2.3,0.5
			c-0.9,0.1-1.7,0.8-2.6,1.2c-1.1,0.5-1.6,1.6-2.5,2.2c-0.7,0.5-0.9,1.6-1.3,2.4c-0.5,0.9-0.7,1.8-0.8,2.8c-0.3,1.7,0.2,3.3,0.1,4.9
			c-0.1,1.7,0,3.4,0,5.1c0,0.7-0.1,1.5-0.2,2.2c0,0.4,0.3,0.6,0.6,0.6c1.3,0,2.7,0.1,4,0c0.6,0,1.2-0.3,1.2-1.3c-0.1-1,0-2.1,0-3.1
			c0-0.8,0.3-0.9,1-0.9c1.7,0,3.3,0,5,0c0.9,0,1.1-0.3,0.8-1.1c0-0.1-0.1-0.1-0.1-0.2c0-0.8,0-0.8-0.9-0.8c-1.6,0-3.2,0-4.7,0
			c-0.8,0-1.1-0.3-1.1-1.1c0-1.8-0.1-3.6,0-5.4c0.1-1.6,0.4-3.2,1.4-4.4c0.4-0.4,0.7-1.3,1.6-1c-0.3,0.2-0.5,0.4-0.7,0.6
			c-0.1,0.1-0.2,0.2-0.3,0.3c-0.2,0.2-0.4,0.4-0.5,0.7c-0.2,0.3-0.4,0.7-0.6,1.1c-0.4,1-0.6,2.1-0.6,3.3c-0.1,1.7,0,3.3-0.1,5
			c0,0.5,0.2,0.7,0.7,0.7c1.9,0,3.8,0,5.8,0c0.1,0,0.2,0,0.3,0c0.6,0.6,0.1,1.4,0.3,2c0.1,0.4-0.1,0.6-0.6,0.5c-1.8,0-3.7,0-5.5,0
			c-0.7,0-0.9,0.1-0.9,0.9c0.1,1.2,0,2.5,0,3.7c0,0.6-0.1,0.8-0.7,0.8c-1.7,0-3.5,0-5.2,0c-0.5,0-0.7-0.1-0.7-0.6
			c0-3.8-0.1-7.6,0.1-11.4c0.2-5.4,4.3-9.7,9.7-10.3c2.3-0.2,4.6,0.1,6.7,1.1C208.1,1.2,208.3,1.3,208.4,1.5
			C208.4,1.5,208.4,1.5,208.4,1.5z"/>
		<path class="st7" d="M141.5,1.1c0,6.9,0,13.8,0,20.7c0,0.3,0,0.6-0.5,0.6c-1.9,0-3.8,0-5.7,0c0,0-0.1-0.1-0.1-0.1
			c1.7,0,3.4,0,5.1,0c0.7,0,0.9-0.1,0.9-0.9c0-6.6,0-13.2,0-19.8c0-0.7-0.2-0.9-0.9-0.8c-1.5,0-2.9,0-4.4,0c-0.6,0-0.8,0.2-0.8,0.8
			c0,2.6,0,5.3,0,7.9c0,0.7-0.2,0.9-0.8,0.9c-2.4,0-4.7,0-7.1,0c-1,0-1.2-0.2-1.2-1.2c0-2.5,0-5,0-7.5c0-0.6-0.2-0.9-0.8-0.8
			c-1.5,0-3,0-4.5,0c-0.6,0-0.9,0.2-0.5,0.8c0.2,0.2,0.2,0.6,0.1,0.8c-0.4,0.6-0.3,1.2-0.3,1.9c0,4.9,0,9.8,0,14.8
			c0,0.5-0.1,0.9,0.2,1.3c0.1,0.1,0.1,0.3,0,0.3c-0.6,0.6-0.2,1.2,0.1,1.7c-0.5,0.1-0.5-0.2-0.5-0.6c0-1.1,0-2.2,0-3.3
			c0-5.7,0-11.4,0-17.1c0-0.7,0.2-1,0.9-0.9c1.6,0.1,3.2,0,4.8,0c0.6,0,0.8,0.2,0.8,0.8c0,2.6,0,5.2,0,7.8c0,0.7,0.2,1,0.9,0.9
			c2.2,0,4.5,0,6.7,0c0.7,0,1-0.2,1-0.9c0-2.6,0-5.2,0-7.7c0-0.7,0.1-0.9,0.9-0.9c1.7,0,3.3,0,5,0C141.4,0.4,141.5,0.6,141.5,1.1z"
			/>
		<path class="st13" d="M177.5,33.8c-0.3-0.1-0.4-0.3-0.1-0.6c0.5-0.4,0.9-0.9,0.5-1.6c-0.3-0.7-1-0.9-1.7-0.9c-1.1,0-2.2,0-3.2,0
			c-0.4,0-0.6,0.2-0.5,0.6c0,0.8,0,1.7,0,2.5v2.5c0,0.3,0,0.6,0.4,0.6c1.3,0,2.6,0,3.9-0.1c0.8-0.1,1.4-0.5,1.5-1.4
			C178.4,34.7,178.1,34.1,177.5,33.8z M174.2,32.2c0-0.5-0.1-1,0.7-1c0.7,0.1,1.2,0.1,1.3,1c0,0.7-0.5,1.1-1.4,1.1
			C174.2,33.3,174.2,33.2,174.2,32.2z M175.4,36.3c-0.4,0-0.8,0-1.1,0c-0.4-0.8-0.1-1.6-0.2-2.4c-0.2,0-0.4,0-0.5,0
			c0,0.8,0,1.6,0,2.4c0,0.2-0.1,0.4-0.3,0.4c-0.3,0-0.4-0.2-0.4-0.4c0-1.7,0-3.3,0-5c0,0,0.1-0.1,0.2-0.1c0.2,0.7,0.1,1.3,0.1,2
			c0,0.3-0.1,0.7,0.3,0.8v-2.7c0.1,0,0.2,0,0.2,0c0.3,0.9-0.2,1.9,0.5,2.7c0.3,0,0.7,0,1,0c0.8,0,1.2,0.4,1.2,1.2
			C176.5,35.8,176.1,36.2,175.4,36.3z"/>
		<path class="st13" d="M162.6,32.4c-1.1-0.9-2.1-1-3-0.2c-0.4,0.4-0.7,0.6-1-0.1c-0.1-0.2-0.3-0.3-0.6-0.2
			c-0.3,0.1-0.2,0.3-0.2,0.5c0,1.3,0,2.6,0,3.9c0,0.6,0.4,0.6,0.8,0.5c0.4,0,0.9,0.2,0.8-0.5c0-0.7,0-1.5,0-2.2c0-1,0.5-1.6,1.1-1.6
			c0.6,0,1,0.6,1,1.7c0,1-0.2,1.9-0.5,2.8c-0.1,0.3-0.3,0.6,0.1,0.8c0.4,0.3,0.6-0.1,0.8-0.4c0.4-0.4,0.6-1,0.9-1.5
			C162.9,34.8,163.2,33.6,162.6,32.4z M159,33.4c-0.5,0.8-0.1,1.7-0.2,2.6c0,0.3,0.1,0.6-0.4,0.6c-0.4,0-0.3-0.4-0.3-0.6
			c0-0.7,0-1.3,0-2c0-0.5,0.3-0.7,0.6-0.9C158.9,33.2,159.1,33.2,159,33.4z"/>
		<path class="st7" d="M114.7,21.5c0,0.7-0.2,0.9-0.9,0.9c-0.9-0.1-1.9,0-2.8,0c-0.4,0-0.8,0-0.9-0.5c1,0.2,2,0.4,3.1,0.3
			c1-0.1,1.3-0.2,1.3-1.2V1.9c0-0.4,0.1-0.9-0.4-1c-0.6-0.1-1.3-0.2-1.9,0.1C111.8,1,112,1.4,112,1.7c0,4.2,0,8.4,0,12.6
			c0,0.3,0.2,0.7-0.3,0.9c0-1.3,0-2.7,0-4c0-3.3,0-6.6,0-9.9c0-0.6,0.1-0.8,0.8-0.8c2.3,0,2.3,0,2.3,2.2
			C114.7,8.9,114.7,15.2,114.7,21.5z"/>
		<path class="st14" d="M156.5,35.3c-0.6,1.3-2.1,1.9-3.7,1.7c-1.6-0.2-2.6-1.1-2.9-2.5c-0.3-1.5,0.3-3,1.5-3.5
			c-0.4,0.8-1.2,1.4-1.2,2.6c0.1,1,0.6,2.5,1.6,2.9c0.4,0.2,0.7,0.1,0.8-0.3c1.8,0.1,2.4-0.7,2.4-2.8c-0.1-1.8-0.7-2.3-2.5-2
			c0-0.7-0.7-0.1-0.9-0.4c1.1-0.7,2.6-0.7,3.7,0.1c-0.3,0.1-0.7-0.1-1,0.1c0.1,0.4,0.5,0.2,0.6,0.5c0.3,1.2,1,2.4,0.2,3.6
			c-0.1,0.2-0.2,0.4,0,0.6c0.2,0.2,0.4,0,0.6-0.1c0.5-0.4,0.9-1.9,0.6-2.4c-0.4-0.6-0.1-1.6-1-2c-0.1,0,0-0.2,0-0.3
			C156.7,31.6,157.3,33.7,156.5,35.3z"/>
		<path class="st13" d="M103.6,33.5c-0.1-0.3-0.2-0.6-0.2-0.9l0,0l0,0c-0.1-0.1-0.1-0.1-0.2-0.2c0,0,0,0,0,0c0,0,0,0,0,0s0,0,0,0
			c-0.2,0-0.3-0.1-0.3-0.2c-0.7-0.3-1.4-0.4-2.1-0.3c-1.2,0.1-2.1,1-2.3,2.3c-0.2,1.1,0.4,2.2,1.5,2.6c0.8,0.1,1.7,0.1,2.5,0
			c0.1,0,0.1,0,0.1-0.1c0-0.3-0.3-0.3-0.4-0.5c-0.2,0.1-0.3,0.1-0.5,0.2c-0.7,0.2-1.5-0.3-1.6-0.9c0-0.4,0.3-0.3,0.5-0.3
			c0.8,0.1,1.6,0,2.3-0.3c0.2-0.2,0.4-0.4,0.6-0.6c-0.1-0.1,0-0.3,0.1-0.4C103.6,33.7,103.6,33.6,103.6,33.5z M100.8,34.7
			c-0.4-0.1-1-0.1-1-0.8c0-0.7,0.8-1.5,1.4-1.5c0.7,0,1.1,0.4,1.1,0.9C102.3,34.1,101.5,34.8,100.8,34.7z"/>
		<path class="st6" d="M139.7,36.1c0,0.2,0,0.5-0.3,0.5c-0.2,0-0.6,0.1-0.7-0.2c-0.2-0.5-0.6-0.7-1.1-0.8c0,0,0,0,0,0
			c-0.6-1-1.3-1.9-2.1-2.7c-0.2-0.2-0.4-0.5-0.7-0.3c-0.3,0.2-0.4,0.6-0.3,0.8c0.4,0.6,0.2,1.3,0.3,1.9c0,0,0,0.1-0.1,0.1
			c-0.1,0.1-0.1,0.1,0,0.2c0,0,0,0.1,0.1,0.1c-0.1,0.3-0.1,0.6-0.2,0.8c-0.2,0.1-0.3,0.1-0.5,0c0-1.4,0-2.8,0-4.1
			c0-0.8-0.1-1.5,0.7-2c0.1,0,0.2,0,0.3,0c0,0.2,0.1,0.3,0.3,0.3l0,0c-0.1,0.4,0.2,0.6,0.4,0.9c0.8,0.8,1.7,1.5,2.2,2.5
			c0.1,0.3,0.5,0.5,0.8,0.4c0.4-0.2,0.5-0.5,0.4-0.9c-0.2-0.8-0.1-1.6-0.1-2.4c0-0.2,0-0.5,0.3-0.5c0.3,0,0.2,0.3,0.2,0.5
			C139.7,33.1,139.7,34.6,139.7,36.1z"/>
		<path class="st13" d="M199.2,35.6L199.2,35.6c-0.2,0.3-0.4,0.7-0.4,1.1c-0.1,0.1-0.2,0.2-0.3,0.3c-0.1,0-0.2,0-0.3,0v0
			c0.4-1,0.8-2.1,0.7-3.2c0-0.4-0.1-0.7-0.4-0.9c-0.1-0.1-0.3-0.1-0.5,0c-0.2,0.1-0.2,0.3-0.1,0.5c0.5,0.7,0.2,1.4,0.3,2.1
			c0,0.4-0.1,0.5-0.5,0.5c0.2-0.6,0.2-1.2,0.2-1.8c0-0.6-0.2-1.1-0.9-1.2c-0.7-0.1-1,0.5-1.1,1c-0.2,0.7-0.1,1.5-0.1,2.3
			c0,0.6-0.1,0.9-0.8,0.9c-0.7,0-0.8-0.3-0.8-0.9c0-1.1,0-2.2,0-3.3c0-0.2,0-0.5,0.3-0.6c0.2,0,0.4,0.1,0.5,0.3
			c0.3,0.5,0.6,0.4,1,0.1c1.2-0.9,2.5-0.6,3.3,0.6C199.4,34.1,199.3,34.8,199.2,35.6z"/>
		<path class="st13" d="M146.6,34.3c0,1-0.4,1.8-1.4,2.2c-0.1,0-0.1,0.1-0.2,0.1c0,0.1,0,0.1-0.1,0.1c-0.2,0-0.3,0-0.5,0
			c-0.6,0-0.2-0.2-0.1-0.4c0.8-0.9,0.9-2,0.5-3.1c-0.2-0.6-0.7-0.9-1.3-0.8c-0.6,0.1-1,0.5-1,1.1c-0.1,0.8-0.1,1.5,0.2,2.2
			c0,0-0.1,0-0.1,0c-0.4-0.1-0.4-0.4-0.3-0.7c0-0.2,0-0.4-0.2-0.4c-0.1,0-0.3,0-0.4,0.1c-0.1,0.2-0.1,0.4,0,0.5
			c0.3,0.3,0.3,0.6,0.1,1c-0.1,0-0.1,0-0.2,0c-0.5-0.6-0.8-1.2-0.8-1.9c0.6-2,1.7-2.6,3.9-2.3C145.9,32.3,146.6,33.2,146.6,34.3z"/>
		<path class="st13" d="M109.5,31.9L109.5,31.9c-0.2,0-0.4,0-0.6,0h0c-0.5,1-0.5,1-1.2,0.2l0,0c-0.2-0.1-0.5-0.2-0.7-0.3h0
			c-0.2,0-0.4,0-0.5,0c-0.1,0-0.2,0-0.4,0c-0.2,0.1-0.4,0.2-0.5,0.3c0.2,0,0.4,0.1,0.7,0.1c-0.6,0.4-0.8,1-1,1.6
			c-0.3,0.8,0,1.6,0.6,2.3c0.3,0.4,0.2,0.6-0.3,0.6c0.4,0.4,1,0.2,1.4,0.3l0,0c0.4-0.3,0.8-0.5,1.4-0.2c0.8,0.4,1.1,0,1.1-0.9
			C109.6,34.6,109.6,33.2,109.5,31.9z M106.9,36.3c-0.7,0-1.2-0.9-1.1-2c0.1-1.2,0.5-1.8,1.2-1.8c0.8,0,1.2,0.6,1.2,1.8
			C108.1,35.5,107.6,36.3,106.9,36.3z"/>
		<path class="st14" d="M205.5,36.2c0-1.6,0-3.2,0-4.8c0-0.7-0.3-0.9-0.9-0.9c-0.7,0-0.7,0.4-0.7,0.9c0,0.1,0,0.3,0,0.4
			c0,0.5,0,0.8-0.7,0.5c-0.6-0.2-1.2-0.3-1.7,0.1c0.6,0,1.2-0.1,1.9,0.1c-0.4,0.5-1.1-0.1-1.3,0.5c0.8-0.2,1.4-0.1,1.7,0.7
			c0.3,0.9,0.1,2.2-0.4,2.5c-0.7,0.4-1.2,0-1.6-0.5c-0.3,0.3,0.5,0.7,0.1,0.9c-0.5,0.2-0.6-0.4-1-0.6c-0.8-0.6-0.5-1.4-0.6-2.2
			l-0.1,0l-0.1,0c0,0-0.1,0.1-0.1,0.1c0,0.2-0.1,0.5-0.1,0.7c0,1.1,0.5,1.9,1.5,2.4c0.9,0.4,1.9,0.4,2.7-0.4
			c0.3-0.3,0.4-0.2,0.5,0.1c0.2,0.3,0.4,0.6,0.8,0.4C205.7,36.9,205.5,36.4,205.5,36.2z M205.2,36.5c-1.4-0.5-0.8-1.7-1.1-2.6
			c-0.4-0.9,0.3-1.7,0.1-2.6c-0.1-0.4,0.3-0.4,0.5-0.4c0.3,0,0.5,0.1,0.5,0.5C205.2,33.2,205.2,34.9,205.2,36.5z"/>
		<path class="st14" d="M115.3,32.5c-0.5,1.3-1.1,2.6-1.6,4c-0.2,0.4-0.5,0.5-0.8,0.5c-0.4,0-0.8,0.1-1-0.4c-0.2-0.7-0.6-1.3-0.7-2
			c0.6,0.4,0.7,1.2,1,1.7c0.2,0.3,0.3,0.4,0.6,0.4c0.2,0,0.4,0,0.5-0.3c0.1-0.3-0.1-0.5-0.3-0.6c-0.3-0.1-0.3-0.4-0.4-0.6
			c-0.3-0.9-0.7-1.8-1-2.7c-0.1-0.4-0.4-0.4-0.7-0.4c-0.4,0.1-0.2,0.4-0.2,0.7c0.1,0.6,0.6,1,0.4,1.6c-0.4-0.5-0.5-1.2-0.7-1.8
			c-0.1-0.2-0.4-0.7,0.1-0.8c0.4-0.1,1.1-0.4,1.4,0.4c0.2,0.7,0.5,1.4,0.7,2.1c0.1,0.3,0.2,0.7,0.6,1c0.3-0.9,0.6-1.8,0.9-2.7
			c0.1-0.2,0.1-0.5,0.3-0.6c0.2-0.3,0.6-0.3,0.9-0.2C115.6,32,115.4,32.3,115.3,32.5z"/>
		<path class="st14" d="M130.2,36.5c0,1.1-0.5,2-1.5,2.5c-1,0.5-2.1,0.3-3-0.3c-0.3-0.2-0.8-0.4-0.4-0.9c0.3-0.4,0.6,0,0.8,0.2
			c0.5,0.6,1.1,0.5,1.7,0.4l0,0c-0.1,0.3-0.1,0.5,0.3,0.4c0.7-0.1,1.1-0.5,1.4-1c0.8-1.8,0.2-3.7,0.4-5.9c-0.6,0.6-1,0.8-1.5,1.1
			c-0.4-0.4-0.8-0.6-1.4-0.5c0.2-0.3,0.7,0,1-0.3c-1.6-0.6-3.4,0.6-3.1,2.4c0.1,0.5,0.4,1,0.4,1.5c-0.9-0.9-0.9-2.6,0-3.6
			c0.8-0.9,2.1-1,3.2-0.2c0.4,0.3,0.6,0.2,0.8-0.1c0.2-0.2,0.3-0.4,0.7-0.3c0.3,0.1,0.2,0.4,0.2,0.7
			C130.2,33.9,130.3,35.2,130.2,36.5z"/>
		<path class="st13" d="M120.4,33.7c0,0.8-0.1,1.7,0,2.5c0,0.6-0.2,0.7-0.8,0.7c-0.6,0-0.8-0.1-0.8-0.8c0-1.2,0-2.3,0-3.5
			c0-0.3-0.2-0.7,0.3-0.8c0.5-0.1,0.6,0.3,0.6,0.7C119.6,33.2,120.6,33,120.4,33.7z"/>
		<path class="st7" d="M135.2,14c0,2.8,0,5.5,0,8.3c-0.4-0.2-0.1-0.5-0.1-0.8c0-2.6,0-5.2,0-7.8c0-0.6-0.2-0.9-0.8-0.9
			c-2.3,0-4.6,0-6.8,0c-0.7,0-0.9,0.3-0.9,0.9c0,2.3,0,4.6,0,6.9c0,0.3,0,0.6-0.1,0.9c-0.4-0.1-0.4-0.4-0.4-0.7c0-2.4,0-4.7,0-7.1
			c0-0.4,0.2-0.7,0.4-1.1c0-0.1,0.1-0.2,0.2-0.2c2.4,0.5,4.9,0.1,7.3,0.2C135.2,12.8,135.2,12.7,135.2,14z"/>
		<path class="st6" d="M186.8,32.8c-0.5,1-0.4,2.2-0.4,3.2c0,0.4-0.1,0.7-0.6,0.7c-0.5,0-0.7-0.2-0.6-0.7c0-0.3,0-0.5,0-0.8v-0.3
			c0.1-1.3,0.1-2.6,0-4v-0.3c0.4,0,0.6-0.6,1-0.3c0.3,0.3,0.3,0.7,0.2,1.1c-0.1,0.4,0,0.7,0.3,1C186.7,32.6,186.9,32.5,186.8,32.8z"
			/>
		<path class="st13" d="M190.2,34.9c-0.2,1.1-0.7,1.9-1.3,2.8l0,0c-0.1,0-0.2,0-0.2,0.1l0,0c-0.5-0.1-0.6-0.4-0.4-0.8
			c0.2-0.5,0.4-1.1,0.4-1.6l0.1,0c0.4-0.7,0-1.4,0.2-2.1c0.1-0.2-0.2-0.3-0.4-0.4c0,0-0.1-0.1-0.1-0.1c-0.2-0.5-0.7-0.3-1.1-0.6
			c0.6-0.4,1.2-0.3,1.9-0.2c0.1,0,0.1,0.1,0.2,0.1c0,0.2,0.1,0.2,0.3,0.3l0.1,0l0.1,0c0.1,0.1,0.1,0.2,0.2,0.3
			C190.2,33.5,190.3,34.2,190.2,34.9z"/>
		<path class="st13" d="M180.6,34.6c0,0.2,0,0.4,0,0.6c0,0.5,0.3,0.9,0.7,1.2c-0.1,0.5-0.5,0.3-0.8,0.4c-0.1,0-0.2,0-0.3,0
			c-1.8-1.5-1.8-3.2,0.1-4.6c0.3,0,0.6,0,1,0c0.3,0,0.2,0.2,0.2,0.4C180.6,32.9,180.3,33.5,180.6,34.6z"/>
		<path class="st14" d="M97.3,36c-0.4,0-0.8,0-1.2,0c-0.7,0.1-0.9-0.2-0.9-0.9c0-1.3,0-2.6,0-3.9c0-0.7-0.4-0.7-0.9-0.7
			c-0.4,0-1.1-0.2-1,0.7c0,0.8,0,1.6,0,2.5c0,0.9,0,1.8,0,2.6c0,0.4,0.1,0.6,0.6,0.6c1.2,0,2.3,0,3.5,0c0.3,0,0.6,0,0.6-0.4
			C98,36,97.7,36,97.3,36z M94.2,36.7c-0.4,0-0.6-0.2-0.6-0.6c0-1.5,0-3,0-4.5c0-0.5,0.3-0.9,0.8-0.9c0.5,0,0.6,0.4,0.6,0.9
			c0,1.1,0,2.3-0.3,3.4c-0.2,0.6,0.2,1,0.7,1.5C95,36.8,94.6,36.6,94.2,36.7z M95.7,36.5c0.7-0.4,1.2-0.2,1.7-0.1
			C96.9,36.7,96.4,36.7,95.7,36.5z"/>
		<path class="st13" d="M192.8,36.6c0,0.1-0.1,0.2-0.1,0.2c-0.1,0-0.3,0-0.4,0c-0.8,0.1-1.1-0.2-1-1c0.1-1,0-2.1,0-3.1
			c0-0.5,0.1-0.9,0.7-0.9c0.7,0,0.8,0.3,0.8,0.8C192.8,34,192.7,35.3,192.8,36.6z"/>
		<path class="st14" d="M124.1,34c0,1.4-0.5,2.6-1.3,3.6c-0.2,0.2-0.4,0.4-0.7,0.3c-0.4-0.2-0.3-0.5-0.2-0.8
			c0.3-0.9,0.5-1.9,0.6-2.8c0-0.8-0.1-1.5-0.9-1.9c0.5,0,0.7,0.2,0.9,0.7c0.6,1.3,0.2,2.5-0.2,3.7c-0.1,0.2-0.2,0.4,0,0.5
			c0.2,0.1,0.4,0,0.5-0.3c0.3-0.7,0.6-1.3,0.8-2c0.3-1.1,0.1-2.1-0.8-2.8c-0.5-0.4-1.4-0.3-1.6,0.1c-0.4,0.3-0.7,0.8-0.9,1.2
			c0.2-0.6-0.8-0.5-0.7-1.1c0.3,0.1,0.5,0.1,0.7-0.2c0.7-0.8,1.6-0.9,2.5-0.5C123.8,32.3,124.1,33.1,124.1,34z"/>
		<path class="st14" d="M139.7,36.9c-0.4,0.1-0.8,0.2-1.2-0.1c-0.4-0.3-0.8-0.6-0.9-1.1c0.5,0.1,0.9,0.3,1.1,0.8
			c0.1,0.3,0.4,0.2,0.7,0.2c0.3,0,0.3-0.3,0.3-0.5c0-1.5,0-3,0-4.5c0-0.2,0-0.5-0.2-0.5c-0.3,0-0.3,0.3-0.3,0.5
			c0,0.8-0.1,1.6,0.1,2.4c0.1,0.4,0,0.7-0.4,0.9c-0.4,0.1-0.7-0.1-0.8-0.4c-0.5-1.1-1.5-1.7-2.2-2.5c-0.2-0.3-0.5-0.5-0.4-0.9
			c1,0.7,1.5,1.7,2.3,2.4c0.2,0.2,0.3,0.4,0.5,0.6c0.1,0.1,0.2,0.3,0.4,0.2c0.2-0.1,0.2-0.3,0.2-0.5c0-0.9,0-1.8,0-2.6
			c0-0.3,0-0.6,0.5-0.7c0.5,0,0.5,0.3,0.5,0.6c0,1.6,0,3.2,0,4.8C139.9,36.3,140,36.7,139.7,36.9z"/>
		<path class="st7" d="M214,13.7c0-0.7,0-1.5,0-2.2c0-0.7-0.3-1.2-0.6-1.8c-0.1-0.2-0.1-0.4-0.1-0.7c0.1-1.3-0.6-2.3-1.1-3.3
			C211.6,4.6,210.5,4,210,3c-0.2-0.4-0.8-0.5-1.2-0.7c-0.5-0.2-0.5-0.4-0.4-0.8c0,0,0,0,0,0c1.5,0.6,2.6,1.8,3.5,3
			C213.9,7.2,214.6,10.3,214,13.7z"/>
		<polygon class="st13" points="167.2,31.8 167.2,31.8 167.2,31.8 		"/>
		<path class="st13" d="M168.8,34.2L168.8,34.2c-0.1,0-0.1,0.1-0.1,0.2l0,0.1c0,0-0.1,0.1-0.1,0.1h0l0,0c-0.1,0-0.1,0-0.1,0.1l0,0
			c-0.8,0.3-1.6,0.5-2.5,0.4c-0.2,0-0.4-0.1-0.4,0.1c-0.1,0.2,0,0.3,0.2,0.4c0,0.3,0.1,0.4,0.4,0.6c-0.2,0.2-0.4,0.1-0.5-0.1
			c-0.5-0.5-0.4-1.1-0.2-1.8c0.5,0.4,1.1,0.2,1.6,0.2c0.4,0,0.7-0.3,0.8-0.7c0.1-0.5,0-0.9-0.4-1.3c-0.3-0.2-0.7-0.1-1-0.2
			c-0.1-0.5-0.6-0.2-0.9-0.4c0.6-0.4,1.3-0.2,1.9-0.3c0.5,0.2,0.9,0.5,1.4,0.7c0.1,0.1,0.1,0.2,0.2,0.3
			C168.8,33.3,168.8,33.7,168.8,34.2z"/>
		<path class="st6" d="M152.6,36.2c-0.2,0.4-0.4,0.5-0.8,0.3c-1-0.4-1.5-1.9-1.6-2.9c-0.1-1.2,0.8-1.7,1.2-2.6c0,0,0.1-0.1,0.1-0.1
			c0.2,0.3,0.9-0.3,0.9,0.4c-0.1,0.1-0.2,0.2-0.4,0.3c-0.5,0.1-0.3,0.4-0.4,0.7v0c-0.6,0.6-0.5,2.4,0.1,3.2
			C152.1,35.8,152.4,36,152.6,36.2z"/>
		<path class="st14" d="M116.6,32.1c0.6-0.1,0.7,0.3,0.8,0.7c0,0.2,0.1,0.3,0.2,0.5c0-0.6,0.4-1.3-0.5-1.6c0.1-0.1,0.1-0.2,0.2-0.2
			c0.5-0.3,0.6-0.8,0.3-1.3c-0.3-0.4-0.7-0.4-1.1-0.2c-0.5,0.3-0.6,0.7-0.2,1.2c0.1,0.1,0.2,0.3,0.1,0.5c-0.5,1.5-0.1,3.1-0.2,4.7
			c-0.1,0.6,0.3,0.6,0.7,0.6c0.4,0,0.9,0.2,0.8-0.5c0-1,0-1.9-0.1-2.9c-0.3,0.8-0.1,1.5-0.1,2.3c0,0.4,0.1,0.9-0.6,0.9
			c-0.7,0-0.6-0.4-0.6-0.8c0-1,0-2,0-3C116.2,32.6,116.1,32.2,116.6,32.1z M116.6,30.6C116.5,30.6,116.6,30.6,116.6,30.6
			c0-0.1,0-0.1,0-0.1c0,0,0,0,0-0.1c0,0,0,0,0,0c0,0,0,0,0,0c0.1,0,0.1,0,0.2,0c0,0,0,0,0,0c0,0,0.1,0,0.1,0c0,0,0,0,0.1,0
			c0,0,0,0,0.1,0c0,0,0,0,0.1,0.1c0,0,0,0,0,0.1c0,0,0,0,0,0.1c0,0,0,0.1,0,0.1c0,0.3-0.1,0.4-0.4,0.4
			C116.6,31,116.6,30.9,116.6,30.6C116.5,30.7,116.5,30.7,116.6,30.6z"/>
		<path class="st7" d="M214,14c-0.2,2.6-1.1,4.9-2.3,7.2c-0.9,1.7-1.8,3.2-3.3,4.5c-0.1-0.3,0-0.6,0.3-0.9c1.3-1.2,1.8-2.9,2.8-4.3
			c0.8-1.1,1-2.5,1.6-3.7c0.3-0.6,0.3-1.5,0.5-2.2C213.7,14.3,213.6,14,214,14z"/>
		<path class="st6" d="M117.6,33.5c-0.3,0.8-0.1,1.5-0.1,2.3c0,0.4,0.1,0.9-0.6,0.9c-0.7,0-0.6-0.4-0.6-0.8c0-1,0-2,0-3
			c0-0.3-0.2-0.7,0.4-0.8c0.6-0.1,0.7,0.3,0.8,0.7c0,0.2,0.1,0.3,0.2,0.5V33.5z"/>
		<path class="st6" d="M127.3,36.3c0.1,0.2,0.3,0.5-0.2,0.4c-0.4-0.1-0.7-0.1-1.1-0.1c-0.1-0.1-0.3-0.3-0.4-0.4l-0.1-0.1l0,0
			c0-0.5-0.3-1-0.4-1.5c-0.2-1.8,1.5-3,3.1-2.4c-0.3,0.3-0.8,0-1,0.3c-0.1,0.1-0.3,0.1-0.4,0.2c-0.3,0-0.3,0.3-0.3,0.5l0,0
			c-0.5,0.7-0.5,1.8,0,2.3C126.6,36,126.8,36.4,127.3,36.3z"/>
		<path class="st6" d="M203.4,32.5c-0.4,0.5-1.1-0.1-1.3,0.5c-0.7,0.8-0.5,1.8-0.4,2.7c-0.3,0.3,0.5,0.7,0.1,0.9
			c-0.5,0.2-0.6-0.4-1-0.6c-0.8-0.6-0.5-1.4-0.6-2.2c0-0.1,0-0.3,0.1-0.4c0.3-0.3,0.5-0.5,0.8-0.8c0.2,0,0.3,0,0.4-0.1
			C202.1,32.5,202.7,32.4,203.4,32.5z"/>
		<path class="st6" d="M123.7,35.1c-0.2,0.7-0.5,1.3-0.8,2c-0.1,0.3-0.3,0.4-0.5,0.3c-0.2-0.1-0.1-0.3,0-0.5
			c0.4-1.2,0.9-2.4,0.2-3.7c-0.2-0.5-0.4-0.7-0.9-0.7h-0.3c0.2-0.5,1.1-0.5,1.6-0.1C123.8,33,124,33.9,123.7,35.1z"/>
		<path class="st6" d="M166.2,36.3c-0.2,0.6-0.7,0.5-1,0.2c-0.6-0.5-1.3-1-1.2-1.9c0.1-0.4,0-0.9,0-1.4c0,0,0-0.1,0.1-0.1
			c0.4-0.1,0.6-0.4,0.7-0.7c0.3,0,0.4-0.1,0.5-0.4v0c0.3,0.2,0.8-0.2,0.9,0.4c-0.7,0.5-1,1.1-0.9,2c-0.2,0.6-0.3,1.2,0.2,1.8
			c0.2,0.2,0.3,0.2,0.5,0.1C166.1,36.1,166.1,36.2,166.2,36.3z"/>
		<path class="st14" d="M187.4,32.3c0.4,0.2,0.9,0.1,1.1,0.6c-1-0.4-1.4-0.3-1.7,0.7c-0.3,0.9-0.1,1.7-0.1,2.6
			c0,0.3,0.1,0.7-0.4,0.7c-0.4,0-1.1,0.4-1.2-0.4c0.1-0.4,0.1-0.7,0-1.1c0-0.1,0.1-0.1,0.1-0.2c0,0.3,0.1,0.5,0,0.8
			c0,0.5,0.1,0.7,0.6,0.7c0.5,0,0.6-0.3,0.6-0.7c0-1.1-0.2-2.2,0.4-3.2c0.1-0.2-0.1-0.2-0.2-0.2c-0.3-0.3-0.5-0.6-0.3-1
			c0.1-0.4,0.2-0.8-0.2-1.1c-0.4-0.4-0.6,0.2-1,0.3c-0.2-0.2,0-0.4-0.1-0.6c1.5-0.2,1.6-0.2,1.5,1.2c0,0.1,0,0.1,0,0.2
			c0,0.6,0.1,0.8,0.7,0.5c0.6-0.4,1.3-0.4,2,0.1C188.6,32,188,31.9,187.4,32.3z"/>
		<path class="st13" d="M113.4,36.4c-0.1,0.3-0.3,0.3-0.5,0.3c-0.3,0-0.4-0.1-0.6-0.4c-0.3-0.6-0.4-1.3-1-1.7c0,0,0-0.1,0-0.1
			c0.2-0.6-0.4-1.1-0.4-1.6c0-0.3-0.2-0.5,0.2-0.7c0.3-0.1,0.5,0,0.7,0.4c0.3,0.9,0.7,1.8,1,2.7c0.1,0.3,0.2,0.5,0.4,0.6
			C113.3,35.9,113.4,36.1,113.4,36.4z"/>
		<path class="st6" d="M104.9,32.6C104.9,32.6,104.9,32.6,104.9,32.6C104.9,32.6,104.9,32.6,104.9,32.6
			C104.9,32.6,104.9,32.6,104.9,32.6z"/>
		<path class="st6" d="M105.1,32.4C105.1,32.4,105.1,32.4,105.1,32.4C105.1,32.4,105.1,32.4,105.1,32.4
			C105.1,32.4,105.1,32.4,105.1,32.4C105.1,32.4,105.1,32.4,105.1,32.4z"/>
		<path class="st6" d="M105.4,33.7c-0.3,0.8,0,1.6,0.6,2.3c0.3,0.4,0.2,0.6-0.3,0.6c-0.1,0-0.2,0-0.3,0c0-0.1-0.1-0.1-0.1-0.1
			c-0.1-0.1-0.1-0.1-0.2-0.2c-0.1-0.2-0.1-0.4-0.4-0.5l0,0c-0.1-0.3-0.2-0.6-0.4-0.8c0-0.1,0-0.1,0-0.2c0-0.2,0-0.5,0.1-0.7
			c0.3-0.5,0.9-0.9,0.6-1.6c0.1,0,0.2-0.1,0.2-0.2c0.3,0,0.5,0.1,0.5-0.4v0c0.2,0,0.4,0.1,0.7,0.1C105.8,32.6,105.5,33.2,105.4,33.7
			z"/>
		<path class="st14" d="M168.2,36.4c-1.3,1.1-3.9,0.8-4.5-1.2c0-0.7-0.2-1.4,0.3-2c0,0.5,0.1,0.9,0,1.4c-0.1,1,0.6,1.5,1.2,1.9
			c0.3,0.2,0.8,0.4,1-0.2c0.5,0,1.1,0.2,1.4-0.5c0.1-0.1,0.1-0.1,0.2-0.2v0c0.1-0.1,0.1-0.1,0.2-0.2c0.3,0.1,0.6,0,0.7,0.4
			C168.7,36.1,168.4,36.3,168.2,36.4z"/>
		<polygon class="st15" points="167.2,31.8 167.2,31.8 167.2,31.8 		"/>
		<path class="st6" d="M198.2,37L198.2,37c0,0.1,0,0.2,0,0.4c-0.4,0-0.6-0.2-0.7-0.7c0.2-0.2,0-0.5,0.2-0.8c0.4,0,0.6-0.2,0.5-0.5
			c-0.1-0.7,0.2-1.5-0.3-2.1c-0.1-0.1-0.1-0.4,0.1-0.5c0.2-0.1,0.3-0.1,0.5,0c0.3,0.2,0.4,0.5,0.4,0.9C199,35,198.6,36,198.2,37z"/>
		<path class="st7" d="M208,9.7c-0.1-0.8-0.2-1.7-0.4-2.5c-0.3-1.7-1-3.2-2.4-4.2v0c1-0.1,1.4,0.7,1.7,1.3
			C207.9,5.9,208.2,7.7,208,9.7z"/>
		<path class="st14" d="M127.9,38.5L127.9,38.5c0.1-0.2,0.3-0.4,0.4-0.6c0.2-0.3,0.4-0.6,0.2-0.9c-0.2-0.3-0.5,0-0.8,0
			c-0.6,0.1-1.3,0.2-1.8-0.3c0.4,0,0.7,0,1.1,0.1c0.6,0.1,0.3-0.2,0.2-0.4c0.6,0,0.9-0.4,1.2-0.9c0,0.4,0,0.7,0.2,1.1
			C129.1,37.2,128.6,38.2,127.9,38.5z"/>
		<path class="st14" d="M137.6,35.6c-0.8-0.5-1.2-1.3-1.9-1.9c-0.2-0.2-0.3-0.5-0.6-0.4c-0.4,0.1-0.2,0.5-0.2,0.8
			c0,0.5,0.1,0.9-0.1,1.4c-0.1-0.6,0.1-1.3-0.3-1.9c-0.2-0.3,0-0.6,0.3-0.8c0.4-0.2,0.5,0.1,0.7,0.3C136.4,33.7,137,34.7,137.6,35.6
			z"/>
		<path class="st14" d="M184,34.3c-0.1,0-0.2,0.1-0.3,0.1c-0.1-0.7,0.2-1.5-0.6-2c-0.6-0.4-0.5-0.1-0.5,0.3
			c-0.4-0.3-0.8-0.4-1.2-0.3c0-0.2,0.1-0.4-0.2-0.4c-0.3,0-0.6,0-1,0c0.1-0.1,0.3-0.2,0.4-0.3c1-0.1,2,0,2.9,0.5
			c0,0.1,0.1,0.2,0.2,0.3c0,0.1,0.1,0.1,0.1,0.2C184.1,33.3,184.2,33.8,184,34.3z"/>
		<path class="st7" d="M208,16.3c-0.2,1.2-0.2,2.6-1,3.7c0.5-2.4,0.8-4.8,1-7.2C208,13.9,208.2,15.1,208,16.3z"/>
		<path class="st14" d="M145,36.7c-1.1,0.6-2.3,0.4-3.2-0.4l0,0c0.4,0.1,0.8,0.3,0.8-0.4c0,0,0.1,0,0.1,0c0.4,0.6,1,0.7,1.7,0.6
			c-0.1,0.1-0.5,0.4,0.1,0.4C144.6,36.7,144.8,36.7,145,36.7z"/>
		<path class="st13" d="M192.8,31c0,0.1-0.1,0.1-0.1,0.2c-0.4,0.3-0.8,0.3-1.2,0.2l0,0c-0.3-0.5-0.3-0.9,0-1.4c0.3,0,0.6,0,0.9-0.1
			l0,0C192.7,30.3,192.8,30.6,192.8,31z"/>
		<path class="st7" d="M206.1,23.6c0,0.2-0.2,0.4-0.5,0.4c0.4-1.3,0.9-2.5,1.3-3.8C207.1,21.5,206.3,22.5,206.1,23.6z"/>
		<path class="st15" d="M183.7,32.3L183.7,32.3C183.7,32.3,183.7,32.3,183.7,32.3L183.7,32.3z"/>
		<path class="st14" d="M134.2,32.7c0,1.4,0,2.8,0,4.1c-0.3-0.6-0.1-1.2-0.1-1.8c0-1.2,0-2.4,0-3.7c0-0.7,0.2-0.9,0.8-0.7
			C134,31.1,134.1,31.9,134.2,32.7z"/>
		<path class="st7" d="M110.3,14.1L110.3,14.1L110.3,14.1c-1.1-0.7-2.1-1.4-2.5-2.7C108.6,12.2,109.6,13.1,110.3,14.1z"/>
		<path class="st7" d="M204.3,2.6L204.3,2.6c-1.1-0.1-2.2-0.1-3.3,0.3c0.2-0.5,0.5-0.7,1-0.7c0.5,0,1.1,0,1.6,0
			C203.9,2.2,204.3,2.1,204.3,2.6z"/>
		<path class="st7" d="M125.7,22.3c-1.6,0.1-3.3,0.1-4.9,0c0-0.2,0-0.5,0.3-0.3c0.9,0.4,1.9,0.1,2.8,0.1
			C124.5,22.1,125.1,21.8,125.7,22.3z"/>
		<path class="st14" d="M103.3,35.9c-0.1,0.4-0.4,0.7-0.9,0.8c0-0.3-0.3-0.3-0.4-0.5c0.2-0.2,0.4-0.4,0.6-0.7c0,0,0.1,0,0.1,0
			C103.1,35.4,103.4,35.6,103.3,35.9z"/>
		<path class="st14" d="M198.2,37.4c0,0.1,0,0.2-0.1,0.3c-0.2,0.3-0.6,0.5-0.8,0.2c-0.4-0.4,0-0.8,0.2-1.2
			C197.5,37.1,197.8,37.3,198.2,37.4L198.2,37.4z"/>
		<path class="st14" d="M102.3,36.7c-0.8,0.5-1.7,0.5-2.5,0C100.7,36.8,101.5,36.7,102.3,36.7z"/>
		<path class="st14" d="M185.1,34.9c0-0.1-0.1-0.3-0.1-0.4c0.1-1.1,0.1-2.2,0-3.3c0-0.1,0.1-0.2,0.1-0.2
			C185.2,32.3,185.2,33.6,185.1,34.9z"/>
		<path class="st13" d="M104.3,34.2c0-0.2,0-0.4,0-0.5c0.2-0.4,0.2-0.9,0.7-1.1c0,0,0,0,0,0C105.1,33.3,104.5,33.7,104.3,34.2z"/>
		<path class="st7" d="M111.3,15.2L111.3,15.2c-0.9,0.1-0.9-0.5-1-1.1v0C110.7,14.4,111,14.7,111.3,15.2L111.3,15.2
			C111.3,15.2,111.3,15.2,111.3,15.2z"/>
		<path class="st14" d="M188.9,33.3c-0.2,0.7,0.1,1.4-0.2,2.1c0-0.8,0.2-1.7-0.2-2.5C188.7,33.1,189,33.2,188.9,33.3z"/>
		<path class="st15" d="M200.3,33.3L200.3,33.3L200.3,33.3C200.3,33.4,200.3,33.4,200.3,33.3L200.3,33.3z"/>
		<path class="st7" d="M205.2,2.9L205.2,2.9c-0.3,0-0.6-0.1-0.9-0.4v0C204.6,2.6,205.1,2.3,205.2,2.9z"/>
		<path class="st7" d="M126,22.3c0-0.2,0.1-0.4,0.4-0.4C126.5,22.2,126.5,22.4,126,22.3z"/>
		<path class="st13" d="M105.6,32.1c0,0.4-0.3,0.4-0.5,0.4c0,0,0,0,0,0c0,0,0,0,0,0c0.1-0.1,0.1-0.2,0.2-0.3
			C105.4,32.1,105.5,32.1,105.6,32.1z"/>
		<path class="st14" d="M134.7,36.8c0.1-0.3,0.1-0.6,0.2-0.8C134.9,36.2,135.2,36.6,134.7,36.8z"/>
		<path class="st14" d="M135.5,31.1c-0.2,0-0.3-0.1-0.3-0.3C135.4,30.7,135.5,30.9,135.5,31.1z"/>
		<path class="st15" d="M200.3,33.3L200.3,33.3L200.3,33.3C200.3,33.4,200.3,33.4,200.3,33.3L200.3,33.3z"/>
		<path class="st7" d="M111.6,15.3c0,0.1-0.1,0.2-0.2,0.1c-0.1-0.1-0.1-0.2-0.1-0.3v0C111.4,15.2,111.5,15.3,111.6,15.3z"/>
		<path class="st14" d="M198.5,37.2c-0.1,0.1-0.2,0.1-0.3,0.2h0c0-0.1,0-0.2,0-0.3v0c0.1,0,0.2,0,0.3,0
			C198.5,37.1,198.5,37.1,198.5,37.2z"/>
		<path class="st15" d="M183.7,32.3L183.7,32.3C183.7,32.3,183.7,32.3,183.7,32.3L183.7,32.3z"/>
		<path class="st15" d="M103.1,32.3L103.1,32.3C103.1,32.3,103.1,32.3,103.1,32.3C103.1,32.3,103.1,32.3,103.1,32.3
			C103.1,32.3,103.1,32.3,103.1,32.3z"/>
		<path class="st15" d="M167.9,35.5c-0.1,0.1-0.1,0.1-0.2,0.2C167.8,35.6,167.9,35.5,167.9,35.5z"/>
		<path class="st7" d="M208,11.3v0.2C207.9,11.5,207.9,11.4,208,11.3z"/>
		<path class="st13" d="M105.1,32.4C105.1,32.4,105.1,32.4,105.1,32.4c0,0.1-0.1,0.2-0.2,0.2c0,0,0,0,0,0c0,0,0,0,0,0
			C104.9,32.5,105,32.4,105.1,32.4C105.1,32.4,105.1,32.4,105.1,32.4z"/>
		<path class="st14" d="M134.8,35.6v0.2C134.7,35.7,134.7,35.7,134.8,35.6z"/>
		<path class="st15" d="M167.7,35.6c-0.1,0.1-0.1,0.1-0.2,0.2C167.6,35.8,167.7,35.7,167.7,35.6z"/>
		<path class="st14" d="M125.4,36.1c0,0,0.1,0.1,0.1,0.1C125.5,36.2,125.4,36.2,125.4,36.1z"/>
		<path class="st14" d="M141.8,36.2L141.8,36.2c-0.1,0-0.2,0-0.2-0.1c0.1,0,0.1,0,0.2,0C141.8,36.2,141.8,36.2,141.8,36.2z"/>
		<path class="st14" d="M145,36.6c0.1,0,0.1-0.1,0.2-0.1C145.2,36.5,145.1,36.6,145,36.6z"/>
		<path class="st7" d="M109.9,21.7c0,0,0.1,0.1,0.1,0.1C110,21.8,110,21.8,109.9,21.7z"/>
		<path class="st15" d="M103.1,32.3L103.1,32.3C103.1,32.3,103.1,32.3,103.1,32.3C103.1,32.3,103.1,32.3,103.1,32.3z"/>
		<path class="st15" d="M188.8,37.8c-0.1,0-0.1,0.1-0.2,0.1C188.7,37.8,188.7,37.8,188.8,37.8z"/>
		<path class="st6" d="M173.5,33.9c0,0.8,0,1.6,0,2.4c0,0.2-0.1,0.4-0.3,0.4c-0.3,0-0.4-0.2-0.4-0.4c0-1.7,0-3.3,0-5
			c0,0,0.1-0.1,0.2-0.1c0.2,0.7,0.1,1.3,0.1,2C173.2,33.4,173,33.8,173.5,33.9L173.5,33.9z"/>
		<path class="st6" d="M174.3,33.9h-0.2c-0.2,0-0.4,0-0.5,0l0,0v-2.7c0.1,0,0.2,0,0.2,0C174.1,32,173.6,33.1,174.3,33.9L174.3,33.9z
			"/>
		<path class="st14" d="M174.3,33.9c0,0.8,0,1.6,0,2.4c-0.4-0.8-0.1-1.6-0.2-2.4H174.3z"/>
		<path class="st6" d="M158.7,33.1c0.3,0,0.4,0.1,0.3,0.3c-0.5,0.8-0.1,1.7-0.2,2.6c0,0.3,0.1,0.6-0.4,0.6c-0.4,0-0.3-0.4-0.3-0.6
			c0-0.7,0-1.3,0-2C158,33.5,158.4,33.3,158.7,33.1z"/>
		<path class="st6" d="M155.2,31c0,0.1,0,0.3,0,0.3c0.9,0.4,0.6,1.3,1,2c0.3,0.6-0.1,2-0.6,2.4c-0.2,0.2-0.4,0.3-0.6,0.1
			c-0.2-0.2-0.1-0.4,0-0.6c0.8-1.2,0.1-2.4-0.2-3.6c-0.1-0.3-0.5-0.1-0.6-0.5C154.6,30.9,154.9,31.1,155.2,31L155.2,31z"/>
		<path class="st6" d="M141.8,36.2C141.8,36.2,141.8,36.2,141.8,36.2c0.2-0.5,0.1-0.8-0.2-1.1c-0.1-0.1-0.1-0.3,0-0.5
			c0.1-0.1,0.3-0.1,0.4-0.1c0.2,0.1,0.2,0.3,0.2,0.4c-0.1,0.3-0.1,0.6,0.3,0.8C142.6,36.5,142.2,36.3,141.8,36.2z"/>
		<path class="st6" d="M205.2,36.6c-1.4-0.5-0.8-1.7-1.1-2.6c-0.4-0.9,0.3-1.7,0.1-2.6c-0.1-0.4,0.3-0.4,0.5-0.4
			c0.3,0,0.5,0.1,0.5,0.5C205.2,33.2,205.2,34.9,205.2,36.6z"/>
		<path class="st13" d="M129.5,37.8c-0.2,0.6-0.7,1-1.4,1c-0.4,0.1-0.4-0.1-0.3-0.4c0.8-0.2,1.3-1.2,0.9-2c-0.2-0.4-0.2-0.7-0.2-1.1
			c0.3-0.8,0.2-1.6,0-2.4c0.5-0.2,0.9-0.5,1.5-1.1C129.8,34.1,130.3,36,129.5,37.8z"/>
		<path class="st14" d="M189.7,32.4c-0.2,0-0.3-0.1-0.3-0.3C189.6,32.2,189.7,32.3,189.7,32.4z"/>
		<path class="st14" d="M183.7,36.1c-0.2,0.2-0.4,0.4-0.5,0.6c-0.9,0.3-1.8,0.6-2.7,0.1c0.3-0.1,0.7,0.1,0.8-0.4
			c0.7,0,1.5,0.1,1.9-0.7c0.1-0.2,0.3-0.2,0.5-0.1C184,35.7,183.9,35.9,183.7,36.1z"/>
		<path class="st14" d="M182.9,34.9c-0.7,0.4-1.6,0.1-2.3,0.2c0-0.2,0-0.4,0-0.6c0.6,0,1.2,0,1.8,0C182.3,35,182.7,34.9,182.9,34.9z
			"/>
		<path class="st6" d="M95.4,36.5c-0.5,0.2-0.9,0.1-1.2,0.2c-0.4,0-0.6-0.2-0.6-0.6c0-1.5,0-3,0-4.5c0-0.5,0.3-0.9,0.8-0.9
			c0.5,0,0.6,0.4,0.6,0.9c0,1.1,0,2.3-0.3,3.4C94.6,35.7,95,36.1,95.4,36.5z"/>
		<path class="st6" d="M97.4,36.5c-0.5,0.2-1,0.2-1.7,0.1C96.4,36.2,96.9,36.3,97.4,36.5z"/>
		<path class="st14" d="M151.9,35.6c-0.6-0.7-0.7-2.6-0.1-3.2C151.6,33.5,151.6,34.6,151.9,35.6z"/>
		<path class="st14" d="M151.7,32.4c0-0.3-0.1-0.6,0.4-0.7C152,32,151.9,32.2,151.7,32.4z"/>
		<path class="st6" d="M116.9,30.3c0.2,0,0.3,0.1,0.3,0.3c0,0.3-0.1,0.4-0.4,0.4c-0.2,0-0.3-0.1-0.3-0.3
			C116.5,30.4,116.7,30.3,116.9,30.3z"/>
		<path class="st14" d="M126.4,35.6c-0.5-0.5-0.5-1.6,0-2.3C126.3,34.1,126.3,34.8,126.4,35.6z"/>
		<path class="st14" d="M126.7,32.8c0,0.2-0.1,0.4-0.3,0.5C126.4,33.1,126.4,32.8,126.7,32.8z"/>
		<path class="st14" d="M164.8,32.4c-0.2,0.3-0.4,0.6-0.7,0.7c0.1-0.4,0.4-0.7,0.7-0.9C164.8,32.3,164.8,32.4,164.8,32.4z"/>
		<path class="st13" d="M165.2,32c0,0.3-0.2,0.4-0.5,0.4c0-0.1,0-0.1,0-0.2C164.9,32.1,165,32.1,165.2,32z"/>
		<path class="st6" d="M183.8,34.4c-0.2,0.4-0.6,0.3-0.8,0.5c-0.2-0.1-0.6,0-0.6-0.4c0,0,0.1,0,0.1,0c0.1,0,0.2,0,0.2-0.2
			c0.3-0.5,0.2-1.1,0-1.6c0-0.4-0.1-0.7,0.5-0.3C184,33,183.7,33.7,183.8,34.4z"/>
		<path class="st14" d="M182.6,34.3c0,0.1-0.1,0.2-0.2,0.2C182.5,34.5,182.6,34.4,182.6,34.3z"/>
	</g>
</g>
</svg>
