<?xml version="1.0" encoding="utf-8"?>
<!-- Generator: Adobe Illustrator 26.0.1, SVG Export Plug-In . SVG Version: 6.00 Build 0)  -->
<svg version="1.1" id="Layer_1" xmlns="http://www.w3.org/2000/svg" xmlns:xlink="http://www.w3.org/1999/xlink" x="0px" y="0px"
	 viewBox="0 0 193 40" style="enable-background:new 0 0 193 40;" xml:space="preserve">
<style type="text/css">
	.st0{fill:#FEFEFE;}
	.st1{fill:#005EAA;}
	.st2{fill:#0F224C;}
	.st3{fill:#08315D;}
	.st4{fill:#00559C;}
	.st5{fill:#014681;}
	.st6{fill:#014B8E;}
	.st7{fill:#013A6B;}
	.st8{fill:#0F1D3A;}
	.st9{fill:#D7D5D4;}
	.st10{fill:#C9C4C6;}
	.st11{fill:#E4E1E1;}
	.st12{fill:#FDFCFC;}
	.st13{fill:#F1EEEF;}
	.st14{fill:#0071B8;}
	.st15{fill:#008DCF;}
</style>
<g>
	<path class="st0" d="M116.1,20.9v0.2c0,0.1,0,0.2,0,0.3v-0.3C116.1,21,116.1,21,116.1,20.9z"/>
	<path class="st1" d="M138,20.4c-0.5-0.8-1.2-1-2.1-1.2c0.9-0.2,1.6-0.7,2-1.6c0.2-0.6,0.3-1.2,0.2-1.8c-0.1-0.7-0.4-1.3-1-1.8
		c-0.8-0.6-1.8-0.6-2.7-0.7c-1.5-0.1-3,0-4.6,0c-0.2,0-0.3,0.1-0.3,0.3c0,3.8,0,7.6,0,11.4c0,0.2,0.1,0.3,0.3,0.3c1.7,0,3.4,0,5.1,0
		c1,0,1.9-0.3,2.6-1c0.5-0.5,0.7-1.1,0.8-1.9C138.5,21.7,138.4,21,138,20.4z M132.3,16.8v-1.3c0-0.1,0-0.3,0.2-0.3
		c0.7,0,1.4-0.1,2.1,0.1c0.7,0.2,1.1,1,0.9,1.8c-0.1,0.5-0.4,0.9-1,1c-0.6,0.2-1.3,0.2-1.9,0.2c-0.2,0-0.2-0.1-0.2-0.3
		C132.3,17.7,132.3,17.2,132.3,16.8z M135.5,22.3c-0.2,0.8-0.9,1-1.6,1.1c-0.5,0.1-1.1,0.2-1.5,0c-0.4-0.3-0.1-0.9-0.1-1.4
		c0,0,0-0.1,0-0.1v-1.4c0-0.1,0-0.3,0.2-0.3c0.6,0,1.2,0,1.9,0.1C135.5,20.4,135.7,21.4,135.5,22.3z"/>
	<path class="st2" d="M59.8,20.4c0-0.1,0.1-0.4-0.2-0.4c-0.2,0-0.5,0-0.5,0.2c-0.1,0.5-0.6,0.7-0.8,1.1c0,0.1-0.1,0.1-0.2,0.1
		c-0.1,0-0.1-0.1-0.1-0.2c0-0.2,0-0.5-0.1-0.8c-0.2,0.1-0.1,0.3-0.1,0.4c0,0.3,0,0.5-0.3,0.8c-0.2,0.2-0.1,0.6,0.1,0.9
		c-0.2,0-0.4,0-0.3,0.3c0,0.1,0,0.2-0.2,0.2c-0.2,0.9-0.5,1.8-0.8,2.6c-0.1,0.2-0.1,0.3-0.2,0.5v0c0,0.1,0,0.2-0.1,0.3
		c-0.6,1.4-1.5,2.7-2.5,3.9c-0.1,0.2-0.3,0.3-0.4,0.4c-0.1,0.1-0.3,0.3-0.4,0.4c-0.3,0.3-0.5,0.5-0.8,0.8c-0.2,0.2-0.4,0.4-0.5,0.5
		c-0.1,0.1-0.2,0.2-0.3,0.2h0c0,0,0,0,0,0v0c0.3,0,0.4,0.1,0.2,0.3c-0.1,0.2-0.2,0.4-0.4,0.4c-0.2,0-0.3,0.1-0.3,0.3
		c-0.4,0.7-1.2,1-1.7,1.5c-0.2,0.2-0.3,0.5-0.7,0.4c0,0-0.1,0.1-0.1,0.1c-0.1,0.1,0.1,0.4-0.2,0.3c-0.5,0-1,0.3-1.4,0
		c0,0-0.1-0.1-0.1-0.1c0-0.5-0.6-0.9-0.4-1.5c0,0,0-0.1-0.1-0.1c-0.3-0.4-0.4-1-0.7-1.5c-0.4-0.7-0.4-1.6-0.9-2.3
		c-0.3-0.4-0.4-1-0.4-1.5c0-0.1,0.1-0.4-0.2-0.2c-0.1,0-0.4-0.4-0.2-0.5c0.2-0.3,0-0.6,0.1-0.8c-0.1-0.1-0.2,0.2-0.3,0.1
		c-0.1-0.1,0-0.2,0-0.3c0.1-0.1,0-0.2,0-0.3c0-0.2,0-0.4,0.3-0.4l0,0v0c0,0,0-0.1,0-0.1c0-0.1-0.1-0.1-0.1-0.2c0,0,0-0.1,0-0.1
		c-0.2-0.2-0.3-0.4-0.4-0.6c-0.1-0.2-0.2-0.3-0.3-0.5c0,0,0-0.1-0.1-0.1v0c0,0-0.1,0-0.1,0c0,0,0,0,0,0c0,0,0,0,0,0c0,0,0-0.1,0-0.1
		c0,0,0,0,0-0.1v0c0,0,0,0,0,0c0,0,0,0,0-0.1c-0.3-0.1-0.4-0.3-0.3-0.6c0,0,0-0.1,0-0.1c0,0-0.1,0-0.1,0.1c-0.2,0.4-0.3,0.9-0.2,1.3
		v0.1h0c0.1,0,0.2,0,0.3,0c0,0,0,0,0,0c0,0,0,0.1,0,0.1c0,0.2,0,0.3,0.1,0.5c0,0.1,0,0.2,0.1,0.2c0,0.2,0.1,0.3,0.2,0.5
		c0.1,0.2,0.1,0.3,0.2,0.5c0,0.1,0.1,0.2,0.1,0.2c0.1,0.3,0.2,0.7,0.3,1c0,0.1,0.1,0.2,0.1,0.3c0,0,0,0.1,0,0.2
		c0.1,0.1,0.2,0.1,0.2,0.2c0,0,0,0,0.1,0.1c0,0,0.1,0.1,0.1,0.1c0,0,0,0.1,0.1,0.1c0,0.1,0,0.1,0,0.2c0,0,0,0.1,0,0.1
		c0,0.1,0,0.1,0,0.2c0,0,0,0.1,0,0.1c0,0.1,0,0.1,0.1,0.2c0,0,0,0,0,0c0,0.1,0.1,0.1,0.1,0.2c0,0.1,0.1,0.2,0.1,0.2
		c0,0.1,0,0.1,0,0.2c0,0.1,0,0.3-0.2,0.4c0,0,0,0.2,0.1,0.2c0,0,0,0,0,0c0,0,0.1,0,0.1,0c0,0,0.1,0,0.1,0c0,0,0.1,0,0.1,0
		c0,0,0.1,0.2,0.1,0.2c0.1,0.4,0.3,0.8,0.4,1.2c0,0,0.1,0,0.1,0c0,0,0,0,0,0c0,0,0,0,0,0c0,0,0,0,0,0.1c0,0,0,0,0,0.1
		c0,0,0,0.1,0,0.1c0,0,0,0,0,0c0,0-0.1,0-0.1,0c0,0.1,0.1,0.2,0.1,0.3c0,0.1,0.1,0.2,0.1,0.3h0c0.1,0,0.1,0.1,0.1,0.2c0,0,0,0,0,0
		c0,0,0,0,0,0c0,0,0,0,0,0.1c0,0,0,0,0,0v0c0.2,0.5,0.6,1,0.8,1.6c0.2,0.1,0,0.2,0,0.3c-0.4,0.4-0.8,0.6-1.4,0.7c0,0,0,0.1,0,0.1
		c0.1,0,0.4,0,0.1,0.2l-0.1,0.1c0,0-0.1,0.1-0.1,0.1c0,0-0.1,0-0.1,0.1c0,0,0,0.1,0,0.1c0,0.1,0,0.1-0.1,0.2
		c-0.1,0.2-0.2,0.2-0.4,0.3c-0.1,0-0.2,0.1-0.2,0.1c-0.2,0.1-0.3,0.1-0.5,0.2c-0.2,0.1-0.5,0.1-0.8,0.2c-0.4,0.2-0.9,0.2-1.4,0
		c-0.2-0.1-0.4-0.3-0.6-0.1c0,0-0.1,0-0.1,0c-0.5-0.6-1.4-0.6-2-1.1c-0.4-0.3-0.9-0.5-1.2-0.8c-0.3-0.2-0.6-0.3-0.9-0.5
		c-0.5-0.3-0.9-0.6-1.3-1c-0.2-0.2-0.5-0.3-0.7-0.5c-0.2-0.2-0.4-0.3-0.6-0.5c0,0-0.1-0.1-0.1-0.1c-0.1-0.1-0.2-0.2-0.3-0.2
		c0,0,0,0-0.1-0.1c-0.1-0.1-0.3-0.3-0.4-0.4c-0.1-0.1-0.2-0.2-0.2-0.3c-0.2-0.2-0.4-0.5-0.7-0.7c-0.2-0.3-0.5-0.6-0.7-0.9
		c0,0,0,0,0,0c-0.2-0.2-0.4-0.4-0.5-0.5C30,30.7,30,30.8,30,30.9c0,0.2,0.3,0.4,0.5,0.6c0.6,0.8,1.3,1.4,1.8,2.2
		c0.1,0.1,0.1,0.2,0.3,0.2c0,0,0,0,0,0c0,0,0-0.1,0.1-0.1c0,0,0,0,0,0c0,0.1-0.1,0.1-0.1,0.1h0c0,0.4,0.5,0.2,0.7,0.5
		c0,0.1,0.2,0.2,0.2,0.3c0,0.1,0.1,0.3,0.3,0.2c0.1-0.1,0.2,0.1,0.3,0.2c0.5,0.4,1,0.9,1.6,1.2c0.2,0.1,0.3,0.1,0.3,0.4
		c0,0.3,0.3,0.2,0.5,0.3c0.2,0,0.3,0,0.5,0.1c0.5,0.2,0.5,0.2,0.3,0.7c1.6,0.9,3.3,1.5,5,2.1c0.5,0.2,0.9,0.1,1.3-0.1
		c1.6-0.5,3.1-1.1,4.5-1.9c1.9-1,3.7-2.2,5.2-3.7c1.2-1.1,2.3-2.4,3.3-3.8c1-1.5,1.8-3.1,2.4-4.8c0.3-1,0.7-2,0.8-3.1
		c0-0.2,0-0.5,0-0.7c0-0.2,0.1,0,0.2,0c0-0.2,0-0.3,0-0.5C59.8,21,59.8,20.7,59.8,20.4z M42,25.3c0,0-0.1-0.1-0.1-0.1l0,0
		c-0.1-0.1-0.2-0.2-0.2-0.3c0-0.1,0-0.1,0-0.2c0,0,0,0,0,0c0,0,0,0,0,0.1c0,0,0,0.1,0,0.2c0,0,0,0,0,0.1c0,0,0,0,0.1,0
		C42.1,25.1,42.1,25.2,42,25.3z M57.6,23C57.6,23,57.6,23,57.6,23c0-0.1,0-0.1,0-0.1C57.7,22.9,57.7,22.9,57.6,23
		C57.7,23,57.7,23,57.6,23z M58.8,21.9c-0.1,0-0.1,0-0.2-0.1c0,0-0.1-0.1-0.1-0.2c0,0,0-0.1,0-0.1c0,0,0,0,0,0c0,0,0,0,0,0
		c0,0,0.1,0,0.2,0c0.1,0,0.2,0,0.2,0.2C59,21.8,58.9,21.9,58.8,21.9z M59.3,22.8c-0.1-0.2-0.3,0.1-0.4,0c-0.2-0.3,0.2-0.3,0.2-0.5
		C59.2,22.5,59.6,22.6,59.3,22.8z"/>
	<path class="st1" d="M109.8,19c-0.2-0.7-0.5-1.4-1.1-1.8c-1-0.7-2-0.8-3.1-0.2c-0.4,0.2-0.7,0.4-1.1,0.6v-4.9
		c-0.8,0.1-1.6,0.3-2.3,0.3c-0.4,0-0.4,0.2-0.4,0.5c0,3.8,0,7.6,0,11.5v0.3c0,0.2,0.1,0.2,0.2,0.2c0.5,0,0.9,0,1.4,0
		c0.8,0,0.8,0,0.8-0.9c0.1,0.1,0.2,0.2,0.3,0.3c0.8,0.8,1.8,0.9,2.8,0.7c1.2-0.2,1.9-1.1,2.3-2.3C110.2,21.8,110.1,20.4,109.8,19z
		 M106.9,22.7c-0.3,0.9-1.4,0.8-1.9,0.4c-0.3-0.3-0.5-0.6-0.5-1c0-0.8,0-1.6,0-2.4c0-0.3,0.1-0.5,0.4-0.7c0.4-0.2,0.7-0.3,1.1-0.2
		c0.8,0.1,1,0.7,1.1,1.3c0.1,0.3,0.2,0.7,0.1,1.1C107.2,21.7,107.1,22.2,106.9,22.7z"/>
	<path class="st1" d="M73.2,24.1c-0.8,1-1.9,1.3-3.1,1.4c-0.2,0-0.5,0-0.8,0c-1.2,0.1-2.4-0.2-3.5-0.8c-0.2-0.1-0.3-0.2-0.1-0.4
		c0.2-0.3,0.4-0.8,0.6-1.1c0.1-0.3,0.3-0.4,0.6-0.2c0.8,0.4,1.6,0.6,2.5,0.6c0.9,0,1.6-0.4,1.8-1.1c0.2-0.5,0-1-0.4-1.3
		c-0.8-0.5-1.8-0.7-2.7-1c-1-0.4-1.8-0.9-2.1-2c-0.7-2.1,0.1-4.2,2.6-4.8c1.6-0.4,3.1-0.1,4.6,0.4c0.4,0.1,0.6,0.3,0.4,0.7
		c-0.1,0.3-0.2,0.6-0.3,0.9c-0.1,0.3-0.3,0.4-0.6,0.3c-0.8-0.3-1.6-0.4-2.5-0.4c-0.5,0-1,0.1-1.4,0.5c-0.6,0.6-0.4,1.4,0.4,1.9
		c0.8,0.4,1.8,0.6,2.6,0.9c0.9,0.4,1.7,0.9,2,1.9C74.1,21.8,74,23,73.2,24.1z"/>
	<path class="st1" d="M167.5,25.4h-3c-0.1,0-0.2-0.1-0.2-0.2c-0.8-1.1-1.6-2.3-2.4-3.5c0,1.2,0,2.2,0,3.3c0,0.4-0.1,0.5-0.5,0.5
		c-0.6,0-1.3,0-1.9,0c-0.2,0-0.3-0.1-0.3-0.3c0-3.9,0-7.9,0-11.8c0-0.2,0.1-0.3,0.3-0.3c0.7-0.1,1.4-0.1,2.1-0.3
		c0.4-0.1,0.4,0,0.4,0.3c0,2.3,0,4.6,0,6.8v0.6c0.9-1.2,1.7-2.2,2.4-3.3c0.1-0.2,0.2-0.2,0.5-0.2c0.8,0,1.7,0,2.6,0
		c-0.7,0.9-1.3,1.7-1.9,2.5c-0.3,0.5-0.7,0.9-1,1.4c-0.1,0.2-0.1,0.3,0,0.4c0.5,0.7,1,1.4,1.5,2.1C166.5,23.9,167,24.6,167.5,25.4z"
		/>
	<path class="st1" d="M99.8,24.9c0,0.3,0,0.4-0.4,0.4c-0.6,0-1.3,0-1.9,0c-0.4,0-0.5-0.1-0.5-0.4c0-1.6,0-3.2,0-4.7
		c0-0.2,0-0.4-0.1-0.6c-0.2-0.7-0.3-0.8-1.1-0.8c-0.5,0-0.9,0.3-1.3,0.5c-0.2,0.1-0.1,0.3-0.1,0.5c0,1.7,0,3.5,0,5.2
		c0,0.3,0,0.4-0.4,0.4c-0.6,0-1.3,0-1.9,0c-0.3,0-0.4-0.1-0.4-0.4c0-1.3,0-2.6,0-3.9c0-1.3,0-2.6,0-3.9c0-0.3,0.1-0.4,0.4-0.4
		c0.5,0,1,0.1,1.4,0c0.5-0.1,0.6,0.2,0.6,0.6c0,0.1-0.1,0.3,0.1,0.4c0.1,0.1,0.2-0.1,0.3-0.2c0.9-0.7,2-1.1,3.1-0.9
		c0.8,0.1,1.6,0.7,1.8,1.6c0.1,0.6,0.1,1.2,0.2,1.7C99.8,21.6,99.8,23.3,99.8,24.9z"/>
	<path class="st1" d="M157.1,25.1c0,0.2-0.1,0.3-0.3,0.3c-0.7,0-1.3,0-2,0c-0.3,0-0.3-0.1-0.3-0.3c0-1.6,0-3.2,0-4.8
		c0-0.3-0.1-0.6-0.1-0.9c-0.1-0.4-0.6-0.7-1.2-0.6c-0.2,0.1-0.5,0.1-0.7,0.3c-0.4,0.2-0.5,0.4-0.5,0.9c0,1.7,0,3.4,0,5.1
		c0,0.3-0.1,0.4-0.4,0.4c-0.7,0-1.3,0-2,0c-0.3,0-0.4-0.1-0.4-0.4c0-2.6,0-5.3,0-7.9c0-0.3,0.1-0.4,0.3-0.4c0.5,0,1.1,0,1.6,0
		c0.3,0,0.4,0,0.5,0.4c0,0.2,0,0.4,0.1,0.6c0.6-0.4,1.2-0.8,1.9-1.1c0.8-0.2,1.6-0.2,2.3,0.1c0.9,0.4,1.2,1.2,1.2,2
		C157.1,20.9,157.1,23,157.1,25.1z"/>
	<path class="st1" d="M89.8,22.2c0-1.1,0-2.3-0.1-3.5c-0.1-0.9-0.6-1.8-1.5-2c-1.7-0.4-3.2-0.1-4.8,0.5c-0.1,0-0.2,0.1-0.1,0.2
		c0.1,0.4,0.2,0.8,0.4,1.1c0.1,0.2,0.2,0.2,0.4,0.2c0.6-0.2,1.3-0.2,1.9-0.2c1,0,1.3,0.3,1.3,1.3c0,0.2-0.1,0.3-0.3,0.3
		c-0.7,0-1.4,0-2.1,0.2c-1,0.2-1.9,0.6-2.2,1.7c-0.2,0.6-0.2,1.2,0,1.8c0.2,0.6,0.5,1.2,1.1,1.5c1,0.5,2.5,0.3,3.4-0.5
		c0.1-0.1,0.2-0.2,0.3-0.2c0.1,0,0.1,0.2,0.1,0.3c0,0.3,0.1,0.5,0.5,0.5c0.5,0,0.9,0,1.4,0c0.4,0,0.5,0,0.5-0.4
		C89.8,24,89.8,23.2,89.8,22.2z M86.5,23.6c-0.5,0.2-1,0.1-1.3-0.2c-0.3-0.3-0.3-0.6-0.2-1c0.1-0.5,0.5-0.7,0.9-0.8
		c0.3-0.1,0.6-0.1,0.9-0.2c0.2,0,0.3,0,0.3,0.2c0,0.3,0,0.5,0,0.8c0,0.1,0,0.2,0,0.3C87.3,23.2,86.9,23.4,86.5,23.6z"/>
	<path class="st1" d="M147.1,18.7c-0.1-1.1-0.5-1.8-1.8-2c-1.1-0.2-2.2-0.1-3.4,0.2c-0.4,0.1-1,0.1-1.2,0.4
		c-0.3,0.3,0.2,0.8,0.2,1.2c0,0.3,0.2,0.3,0.4,0.3c0.6-0.2,1.3-0.2,1.9-0.2c0.8,0,1.4,0.3,1.2,1.3c0,0.2-0.1,0.2-0.2,0.2
		c-0.5,0-1,0-1.6,0.1c-0.8,0.1-1.5,0.2-2.1,0.8c-0.9,0.8-0.9,1.8-0.6,2.9c0.2,1,1.2,1.8,2.2,1.7c1,0,1.8-0.4,2.5-1
		c0.1,0.1,0.1,0.3,0.1,0.5c0,0.2,0.1,0.4,0.4,0.4c0.5,0,1.1,0,1.7,0c0.2,0,0.3,0,0.3-0.3C147.1,22.9,147.3,20.8,147.1,18.7z
		 M144.5,22.3v0.3c0,0.6-0.1,0.8-0.8,0.9c-0.6,0.2-1,0.1-1.3-0.3c-0.5-0.6,0-1.6,0.8-1.8c0.3-0.1,0.6,0,0.9-0.2
		c0.2-0.1,0.3,0,0.2,0.2C144.5,21.8,144.5,22.1,144.5,22.3z"/>
	<path class="st1" d="M80.9,25.3c-1,0.3-2.1,0.5-3.2,0.2c-0.9-0.2-1.4-0.9-1.6-1.7c-0.1-0.9,0-1.8-0.1-2.6c0-0.9,0-1.6,0-2.3
		c0-0.2-0.1-0.3-0.3-0.3c-0.3,0-0.6,0-0.9,0c-0.3,0-0.4-0.1-0.3-0.3c0-0.1,0-0.3,0-0.4c0-0.8,0-0.8,0.8-0.9c0.7-0.1,0.7-0.1,0.8-0.8
		c0.1-0.6,0.2-1.1,0.3-1.7c0-0.2,0.1-0.2,0.2-0.2c0.5-0.1,1.1-0.2,1.6-0.2c0.3,0,0.5-0.1,0.4,0.3c0,0.7,0,1.4,0,2.1
		c0,0.4,0.1,0.5,0.5,0.5c0.6,0,1.3,0,1.9,0c0.3,0,0.3,0.1,0.3,0.3c-0.1,0.3-0.1,0.6-0.1,0.8c0,0.4-0.2,0.6-0.6,0.6c-0.5,0-1,0-1.5,0
		c-0.2,0-0.3,0.1-0.3,0.3c0,1.2,0,2.3,0,3.5c0,0.3,0,0.5,0.1,0.8c0.1,0.4,0.5,0.6,0.9,0.6c0.2,0,0.4,0,0.6-0.1
		c0.8-0.1,0.8-0.1,1.1,0.6C81.7,25,81.7,25,80.9,25.3z"/>
	<path class="st1" d="M122.9,24.9c-1.8,0.8-3.6,1.1-5.3-0.1c-0.8-0.5-1.1-1.4-1.3-2.4c0-0.1,0-0.2,0-0.3c0-0.3,0-0.5,0-0.8
		c0-0.1,0-0.2,0-0.3c0-0.2,0-0.4,0-0.6c0-0.1,0-0.2,0-0.4c0-0.4,0.1-0.7,0.2-1.1c0-0.1,0.1-0.2,0.1-0.4c0.1-0.2,0.2-0.5,0.4-0.7
		c0.6-0.9,1.5-1.3,2.6-1.4c1.1-0.1,2.2,0,3.3,0.4c0.4,0.1,0.6,0.3,0.3,0.7c0,0,0,0.1,0,0.2c-0.4,1-0.4,1-1.4,0.7
		c-0.4-0.1-0.9-0.1-1.3,0c-0.6,0.1-0.9,0.5-1.1,1c-0.4,1-0.3,2,0,2.9c0.2,0.6,1.2,1.1,1.9,1c0.5-0.1,1-0.2,1.4-0.4
		c0.2-0.1,0.3,0,0.4,0.1c0.1,0.2,0.2,0.5,0.3,0.7C123.5,24.5,123.3,24.7,122.9,24.9z"/>
	<path class="st3" d="M59.9,19.9c0,0.5,0,1-0.2,1.4c0-0.3,0-0.6,0-0.9c0-0.2,0.1-0.4-0.2-0.4c-0.2,0-0.5,0-0.5,0.2
		c-0.1,0.5-0.6,0.7-0.8,1.1c0,0.1-0.1,0.1-0.2,0.1c-0.1,0-0.1-0.1-0.1-0.2c0-0.2,0-0.5-0.1-0.8c-0.2,0.1-0.1,0.3-0.1,0.4
		c0,0.3,0.1,0.5-0.3,0.8c-0.2,0.2-0.1,0.6,0.1,0.9c-0.2,0-0.4,0-0.4,0.3c0,0.1,0,0.2-0.2,0.2c0.1-0.6,0.2-1.2,0.3-1.8
		c0-0.5,0.1-1,0.1-1.6c0-1,0-2.1,0-3.2c0-0.1,0.1-0.3-0.1-0.5c0-0.8,0-1.7-0.1-2.5c-0.1-0.7,0-1.5-0.1-2.2c-0.1-0.5,0-1-0.1-1.4
		c0-0.1,0-0.2,0-0.3c0,0,0,0,0,0c0,0,0,0,0-0.1c0-0.2,0-0.5,0-0.7c0.5,0,0.4-0.4,0.4-0.6l0,0c0.4,0.1,0,0.5,0.3,0.7
		c0.3-0.5-0.2-1.1,0.4-1.5c0.2,0.3-0.1,0.8,0.4,1c0-0.3-0.1-0.6,0.3-0.8c0,0,0-0.1,0-0.2C58.8,7,59,6.8,59.2,6.5
		c0.1,0.7,0.2,1.5,0.2,2.2c0.1,1.5,0.2,2.9,0.3,4.4c0,0.5,0.1,1.1,0.1,1.6C59.9,16.5,60,18.2,59.9,19.9z"/>
	<path class="st4" d="M44.5,0.1c-0.4,0-0.7,0-1,0c-0.3,0-0.5,0.1-0.5,0.4c0,0.2-0.2,0.2-0.3,0.2c-0.4,0-0.8,0.1-1.3,0.1
		c-0.1,0-0.2-0.1-0.3,0.1c0.3,0.1,0.6,0,1,0c0.1,0,0.3,0,0.3,0.2c0,0.1-0.2,0.1-0.3,0.2c-0.3,0-0.5,0-0.8,0.1
		c0.3,0.3,0.7,0.2,1.1,0.4c-0.3,0.2-0.5,0-0.7,0.1c0.2,0.3,0.5-0.1,0.6,0.3c-0.8,0.1-1.5,0.1-2.3,0.1c-0.4,0-0.9,0-1.3,0
		c-0.9,0.2-1.7,0.2-2.6,0.3c-0.7,0.1-1.4,0.2-2.1,0.3c-1,0.2-2,0.3-2.9,0.5c-0.4,0.1-0.5-0.3-0.7-0.4c-0.1,0-0.1-0.1,0-0.2
		c0.1-0.1,0.1,0,0.2,0c0.3,0.1,0.5,0.4,0.9,0.1c-0.1,0-0.2-0.1-0.2-0.1c-0.1,0-0.2-0.1-0.2-0.2c0-0.2,0.2-0.1,0.3-0.1
		c0.1,0,0.2,0.1,0.3,0.1c0.1,0,0.3,0.1,0.3,0c0.1-0.4,0.4-0.8,0.1-1.3c0-0.1-0.1-0.1,0-0.2c0.1-0.1,0.2,0,0.2,0
		c0.3,0.1,0.6,0.2,0.9,0c0.3-0.3,0.7-0.4,1-0.4c0.5,0,1-0.3,1.5-0.2c0.1,0,0.1-0.1,0.1-0.2c1.7-0.2,3.4-0.3,5.2-0.4
		C41.9,0,43.1,0,44.3,0C44.4,0,44.5,0,44.5,0.1z"/>
	<path class="st1" d="M114.4,21.1c0,1.3,0,2.6,0,3.9c0,0.3-0.1,0.4-0.4,0.4c-0.7,0-1.4,0-2.1,0c-0.3,0-0.3-0.1-0.3-0.3
		c0-2.7,0-5.3,0-8c0-0.2,0.1-0.3,0.3-0.3c0.7,0,1.4,0,2.1,0c0.3,0,0.4,0.1,0.4,0.4C114.4,18.4,114.4,19.7,114.4,21.1z"/>
	<path class="st5" d="M57.5,2.5c-0.3,0.1-0.2,0.5-0.5,0.7c-0.1-0.1,0-0.3-0.2-0.4c0,0.7-0.5,0.5-0.9,0.3c0.1,0.2,0.3,0.2,0.3,0.4
		c0,0.3,0.1,0.4,0.4,0.2c0.2-0.1,0.3,0.2,0.3,0.2c-0.2,0.4,0.2,0.7-0.1,1.1c-0.2-0.4-0.4-0.9-0.8-1.2c0,0,0.1-0.1,0-0.1
		c-0.1,0-0.1,0-0.1,0.1c-0.5-0.1-0.9-0.2-1.4-0.3c-1.4-0.3-2.8-0.5-4.2-0.7c-0.6-0.1-1.2-0.2-1.8-0.2c-0.3-0.2-0.6-0.1-1-0.1
		c0,0-0.1,0-0.1,0c0-0.2-0.1-0.2-0.3-0.2c-0.1,0-0.1,0.1-0.1,0.2h-0.3c0-0.2,0-0.3,0.2-0.4c0.3-0.2,0.6-0.1,1-0.1
		c0.1,0,0.2,0,0.2-0.1c0-0.1-0.1-0.1-0.2-0.1c-0.1,0-0.2,0-0.3,0c-0.5,0.1-0.9-0.3-1.3-0.2c0.3-0.1,0.6-0.1,0.9-0.1
		c0.3,0,0.4-0.2,0.5-0.4c0.1-0.2-0.2-0.1-0.1-0.3c0.5-0.4,1.1-0.2,1.7-0.3c1.2,0,2.4,0.3,3.6,0.5c1,0.2,2,0.3,3,0.6
		c0.4,0.1,0.9,0.3,1.2,0.6C57.4,2.2,57.5,2.3,57.5,2.5z"/>
	<path class="st3" d="M37.1,37.8c-1.4-0.6-2.6-1.5-3.8-2.4c-0.7-0.5-1.4-1.1-2-1.8c-0.5-0.5-1.1-1-1.4-1.6c0-0.2,0.2-0.3-0.1-0.4
		c-0.1,0-0.2-0.1-0.2-0.3c0.1,0,0.2-0.1,0.1-0.2c0,0-0.1-0.1-0.1,0c-0.2,0,0,0.2,0,0.2c-0.1,0-0.1,0-0.2,0c0-0.1,0-0.2-0.2-0.2
		c0,0,0,0,0-0.1c0.1-0.4-0.2-0.7-0.3-1c-0.1-0.8-0.8-1.2-0.9-1.9c-0.1-0.4-0.2-1-0.6-1.4c0,0,0-0.1,0-0.2c0-0.4-0.2-0.7-0.3-1
		c-0.1-0.6-0.6-1.1-0.3-1.7c0-0.1,0-0.2,0-0.2c-0.1-0.2-0.1-0.4-0.1-0.5v-6.5c0-0.1,0-0.2,0-0.3c0.4-0.7,0.1-1.5,0.3-2.2
		c0.2-0.7,0.1-1.5,0.2-2.3c0.1-1.1,0.5-2.2,0.2-3.4c0,0,0-0.1,0-0.1c0.5-0.8,0.2-1.7,0.5-2.5c0-0.2,0.3-0.1,0.4-0.3
		c0.1-0.2,0.1-0.2,0.3,0.1c-0.1,0.3,0.1,0.5-0.1,0.8c0-0.1,0.1-0.3-0.1-0.3c-0.1,0.6-0.6,1.1-0.2,1.7c0.1,0.1,0,0.3,0,0.3
		C27.9,8.4,28,8.9,28,9.3c0,0.1,0,0.1,0,0.2c0,0-0.1,0.1-0.1,0.1c0,0.5-0.5,1-0.1,1.5c0.1,0.1,0,0.3-0.1,0.5
		c-0.1,0.6-0.4,1.1-0.2,1.7c0.2,0.5-0.1,0.9-0.1,1.4c-0.1,0.5-0.2,0.9-0.3,1.4c-0.1,1.2,0,2.3-0.1,3.5c-0.2,1.4-0.1,2.8,0.2,4.1
		c0.1,0.4,0,0.8,0.2,1.1c0.4,0.6,0.2,1.4,0.6,2c0.2,0.3,0.1,0.8,0.5,0.9c0,0.2,0.2,0.3,0.2,0.5c-0.3,0.1-0.2,0.2,0,0.4
		c0.2,0.1,0.3,0.3,0.4,0.5c0.2,0.5,0.4,0.8,0.7,1.2c0.1,0.2,0.2,0.2,0.4,0.2C30,30.7,30,30.8,30,30.9c0,0.3,0.3,0.4,0.5,0.6
		c0.6,0.8,1.3,1.4,1.8,2.2c0.1,0.1,0.1,0.2,0.3,0.2c0,0.4,0.5,0.2,0.7,0.5c0,0.1,0.2,0.2,0.2,0.3c0,0.1,0.1,0.3,0.3,0.2
		c0.1-0.1,0.2,0.1,0.3,0.2c0.5,0.4,1,0.9,1.6,1.2c0.2,0.1,0.3,0.1,0.3,0.4c0,0.3,0.3,0.3,0.5,0.3c0.2,0,0.3,0,0.5,0.1
		C37.4,37.3,37.4,37.3,37.1,37.8z"/>
	<path class="st1" d="M35.6,0.5c0,0.1,0,0.2-0.1,0.2c-0.5-0.1-1,0.2-1.5,0.2c-0.3,0-0.7,0.1-1,0.4c-0.2,0.2-0.6,0.2-0.9,0
		c-0.1,0-0.2-0.1-0.2,0c-0.1,0.1,0,0.1,0,0.2c0.2,0.5-0.1,0.8-0.1,1.3c0,0.1-0.2,0.1-0.3,0c-0.1,0-0.2-0.1-0.3-0.1
		c-0.1,0-0.3-0.1-0.3,0.1c0,0.1,0.1,0.2,0.2,0.2c0.1,0,0.1,0.1,0.2,0.1c-0.4,0.2-0.6-0.1-0.9-0.1c-0.1,0-0.1-0.1-0.2,0
		c0,0.1,0,0.2,0,0.2c0.3,0.1,0.4,0.5,0.7,0.4c-0.5,0.2-1.1,0.3-1.5,0.7c0-0.1,0-0.4-0.2-0.3c-0.2,0.1-0.5,0.2-0.5,0.5
		c-0.1,0-0.1,0-0.2-0.1c0-0.1,0-0.2-0.2-0.2c-0.2,0-0.1,0.2-0.2,0.3c0,0.1,0,0.2-0.1,0.2c-0.4,0-0.4,0.2-0.5,0.5
		c0,0.1-0.1,0.3-0.2,0.4c-0.1-0.2,0-0.4-0.2-0.6c0,0.7-0.2,1.2-0.5,1.7c-0.2,0.4-0.4,0.8-0.1,1.3c0.1,0.1,0,0.3-0.1,0.5
		c-0.2,0.4-0.6,0.7-0.4,1.2c0,0.1-0.1,0.2-0.1,0.2c0.1-1.4,0.2-2.8,0.3-4.1c0.2-1.6,1-2.9,2.5-3.7c0.7-0.4,1.5-0.5,2.3-0.6
		C32.5,0.9,34,0.7,35.6,0.5C35.5,0.4,35.5,0.5,35.6,0.5z"/>
	<path class="st6" d="M49.4,0.4c-0.6,0-1.2-0.1-1.7,0.3c0,0.1,0.3,0.1,0.1,0.3c-0.1,0.2-0.3,0.4-0.5,0.4c-0.3,0-0.6,0-0.9,0.1
		c0.5,0,0.8,0.4,1.3,0.2c0.1,0,0.2,0,0.3,0c0.1,0,0.1,0,0.2,0.1c0,0.1-0.1,0.1-0.2,0.1c-0.3,0-0.6,0-1,0.1c-0.2,0.1-0.2,0.2-0.2,0.4
		c-0.1,0-0.2,0-0.3,0c-1.3-0.1-2.7-0.2-4-0.2c-0.1,0-0.2,0-0.3,0c-0.1-0.3-0.5,0-0.6-0.3c0.2-0.1,0.5,0,0.7-0.1
		c-0.4-0.1-0.8,0-1.1-0.4c0.3-0.1,0.6,0,0.8-0.1c0.1,0,0.3,0,0.3-0.2C42.4,1,42.2,1,42,1c-0.3,0-0.6,0-1,0c0-0.2,0.2-0.1,0.3-0.1
		c0.4,0,0.8-0.1,1.3-0.1c0.1,0,0.3-0.1,0.3-0.2c0-0.3,0.3-0.4,0.5-0.4c0.4,0,0.7,0,1,0c1.6-0.1,3.1,0.2,4.7,0.3
		C49.3,0.4,49.3,0.4,49.4,0.4z"/>
	<path class="st7" d="M58.9,7.4c0,0.1,0,0.2,0,0.2c-0.4,0.1-0.3,0.5-0.3,0.8c-0.5-0.2-0.2-0.7-0.4-1c-0.6,0.4,0,1-0.4,1.5
		c-0.3-0.1,0.1-0.6-0.3-0.7c0-0.1,0.1-0.3,0.1-0.5c0-0.1-0.1-0.3-0.2-0.3c-0.1,0-0.2,0.1-0.2,0.2c0.1,0.2,0,0.5,0.3,0.6
		c0,0.3,0.1,0.6-0.4,0.6c0,0-0.1,0-0.1-0.1c-0.1-1.3-0.2-2.5-0.3-3.8c0.3-0.3-0.2-0.7,0.1-1.1c0-0.1-0.1-0.3-0.3-0.2
		c-0.3,0.2-0.4,0-0.4-0.2c0-0.1-0.2-0.1-0.3-0.4c0.5,0.2,0.9,0.3,0.9-0.3C57,2.9,56.9,3,57.1,3.1c0.2-0.2,0.1-0.6,0.5-0.7
		c0.1,0,0.1,0.1,0.2,0.1c0,0.1,0.1,0.2,0.2,0.2c0,0.1,0.1,0.2,0.2,0.2c0,0.1,0,0.2,0.2,0.2c0,0.1,0,0.1,0.1,0.2c0,0,0,0.1,0.1,0.1
		c0,0.1,0,0.3,0.2,0.3c0,0,0,0,0,0.1c0,0.1,0,0.3,0.1,0.3C59,4.6,59.1,5.3,59.2,6c0,0.2,0,0.3,0,0.5C59,6.8,58.8,7,58.9,7.4z"/>
	<path class="st7" d="M29.2,31.1c-0.8-1-1.4-2.1-1.9-3.2c-0.3-0.5-0.5-1-0.6-1.6c0.3-0.3,0.2-0.6,0-0.9c-0.1-0.1-0.1-0.2,0-0.3
		c0.2-0.2,0.1-0.3,0-0.5c-0.1-0.1-0.1-0.2-0.1-0.3c-0.1-0.6,0-1.1-0.1-1.7c-0.1-0.5-0.2-1.1-0.1-1.6c0.3-1.3,0-2.7,0.3-4
		c0.2-0.8,0-1.6,0.1-2.4c0.1-1,0.2-2,0.2-3c0-0.8,0.3-1.5,0.2-2.3c0,0,0,0,0,0c0.3-0.8,0.2-1.6,0.3-2.5c0.1-0.4,0.3-0.7,0.6-1
		c-0.3,0.8,0,1.7-0.5,2.5c0,0,0,0.1,0,0.1c0.3,1.2-0.2,2.3-0.2,3.4c-0.1,0.8,0.1,1.6-0.2,2.3c-0.2,0.8,0.1,1.5-0.3,2.2
		c0,0.1,0,0.2,0,0.3v6.5c0,0.2,0,0.4,0.1,0.5c0,0.1,0.1,0.2,0,0.2c-0.3,0.6,0.2,1.1,0.3,1.7c0.1,0.3,0.3,0.6,0.3,1
		c0,0.1,0,0.2,0,0.2c0.4,0.4,0.5,0.9,0.6,1.4c0.1,0.7,0.8,1.2,0.9,1.9C29,30.3,29.3,30.7,29.2,31.1z"/>
	<path class="st4" d="M28.7,4.3v0.2c-0.1,0-0.2,0.1-0.2,0.2c-0.1,0-0.2,0.1-0.2,0.2c-0.2,0.1-0.5-0.2-0.5,0.3c0,0.1,0,0.1,0,0.2
		c-0.7,0.5-0.5,1.3-0.7,1.9c-0.1,0.3,0,0.6-0.3,0.8c-0.1,0-0.1,0.1,0,0.2C27,8.3,27,8.5,27,8.7c0,0.6-0.3,1.1-0.2,1.7
		c0,0.1,0,0.2,0,0.3c-0.2,0.8-0.3,1.6-0.3,2.4c0,0.6-0.1,1.3-0.3,1.9c-0.2,0.9,0.1,1.9-0.3,2.8c0.3,0.6-0.3,1.2,0,1.7
		c0,0,0,0.1-0.1,0.1c-0.3,0.1-0.3,0.4-0.3,0.6c-0.2-0.1-0.1-0.3-0.1-0.4c-0.1-1.4,0.1-2.9,0.1-4.3c0-0.7,0.1-1.5,0.1-2.2
		c0-1.2,0.2-2.5,0.3-3.7c0.1,0,0.2-0.1,0.1-0.2c-0.1-0.5,0.2-0.8,0.4-1.2c0.1-0.2,0.1-0.4,0.1-0.5c-0.3-0.5-0.1-0.9,0.1-1.3
		c0.3-0.5,0.5-1,0.5-1.7c0.3,0.2,0.1,0.4,0.2,0.6c0.2-0.1,0.2-0.3,0.2-0.4c0.1-0.3,0.1-0.5,0.5-0.5c0.1,0,0.1-0.1,0.1-0.2
		c0-0.1,0-0.2,0.2-0.3c0.2,0,0.2,0.1,0.2,0.2C28.6,4.3,28.7,4.3,28.7,4.3z"/>
	<path class="st5" d="M29.1,4.5c-0.2,0.3-0.4,0.6-0.4,1c-0.1-0.3-0.2-0.3-0.3-0.1C28.3,5.6,28,5.5,28,5.7c-0.3,0.3-0.5,0.6-0.6,1
		c-0.1,0.8,0,1.7-0.3,2.5c0,0,0,0,0,0c0.1,0.8-0.2,1.5-0.2,2.3c0,1-0.1,2-0.2,3c-0.1,0.8,0,1.6-0.1,2.4c-0.3,1.3-0.1,2.7-0.3,4
		c-0.1,0.5,0,1.1,0.1,1.6c0.1,0.6,0,1.1,0.1,1.7c0,0.1,0,0.3,0.1,0.3c0.1,0.2,0.2,0.3,0,0.5c-0.1,0.1-0.1,0.2,0,0.3
		c0.2,0.3,0.3,0.6,0,0.9c-0.5-1.2-0.8-2.5-1-3.8c-0.1-0.7-0.2-1.4-0.1-2.1c0,0,0-0.1-0.1-0.1c0-0.2,0-0.5,0.3-0.6
		c0,0,0.1-0.1,0.1-0.1c-0.3-0.6,0.3-1.2,0-1.7c0.4-0.9,0.1-1.9,0.3-2.8c0.1-0.6,0.2-1.2,0.3-1.9c0-0.8,0.1-1.6,0.3-2.4
		c0-0.1,0-0.2,0-0.3c-0.1-0.6,0.1-1.1,0.2-1.7c0-0.2,0.1-0.4-0.1-0.5c-0.1-0.1,0-0.1,0-0.2c0.3-0.2,0.2-0.5,0.3-0.8
		c0.2-0.6,0-1.4,0.7-1.9c0,0,0-0.1,0-0.2c0.2-0.1,0.5,0,0.5-0.3c0.1,0,0.2-0.1,0.2-0.2c0.1,0,0.2-0.1,0.2-0.2
		C28.8,4.6,29,4.1,29.1,4.5z"/>
	<path class="st1" d="M114.5,14.2c0,0.8-0.6,1.4-1.6,1.4c-0.8,0-1.3-0.6-1.3-1.6c0-0.7,0.7-1.4,1.5-1.3
		C114,12.6,114.5,13.2,114.5,14.2z"/>
	<path class="st7" d="M30,32c-0.2-0.2-0.4-0.4-0.5-0.7h0c0.1,0,0.1,0,0.2,0h0c0,0.2,0.1,0.3,0.2,0.3C30.2,31.7,30,31.9,30,32z"/>
	<path class="st3" d="M59.8,21.8c0,0.2,0,0.5-0.2,0.7c0-0.2,0-0.5,0-0.7C59.6,21.6,59.7,21.8,59.8,21.8z"/>
	<path class="st5" d="M58.7,4c-0.2,0-0.2-0.2-0.1-0.3C58.7,3.7,58.7,3.8,58.7,4z"/>
	<path class="st5" d="M58.5,3.6c-0.2,0-0.2-0.1-0.2-0.3C58.5,3.4,58.5,3.5,58.5,3.6z"/>
	<path class="st5" d="M58,2.9L58,2.9c-0.1,0-0.2,0-0.2-0.2C58,2.7,58,2.8,58,2.9z"/>
	<path class="st5" d="M57.9,2.7c-0.1,0-0.2,0-0.2-0.2C57.8,2.6,57.8,2.6,57.9,2.7z"/>
	<path class="st7" d="M29.4,31.3L29.4,31.3c-0.1,0-0.2-0.1-0.2-0.2C29.4,31.1,29.4,31.2,29.4,31.3z"/>
	<path class="st5" d="M58.2,3.1C58.1,3.1,58,3,58,2.9v0C58.1,2.9,58.2,3,58.2,3.1z"/>
	<path class="st5" d="M58.3,3.2c-0.1,0-0.1-0.1-0.1-0.2C58.3,3.1,58.3,3.2,58.3,3.2z"/>
	<path class="st8" d="M28.7,28.3c0.1-0.2-0.1-0.3-0.2-0.5c0.1,0,0.2-0.1,0.1-0.2c-0.1-0.4-0.3-0.8-0.4-1.2c-0.1-0.2,0-0.4-0.1-0.5
		c-0.3-0.1-0.3-0.4-0.3-0.7c0-0.3,0.3-0.6-0.2-0.7c0,0,0-0.2,0-0.3c0-0.6-0.3-1.3,0-1.9c0,0,0-0.1,0-0.1c-0.1-0.5-0.1-0.9-0.1-1.4
		c0-0.3,0.1-0.3,0.4-0.3l0,0c0,0.4,0,0.9,0,1.3c0,0.3,0.1,0,0.2,0c0.2,1.3,0.5,2.6,0.9,3.9c0.6,1.7,1.5,3.2,2.6,4.6
		c0.6,0.8,1.3,1.6,2.1,2.2c0.7,0.6,1.4,1.2,2.2,1.8c0.9,0.6,1.8,1.2,2.8,1.6c1.2,0.7,2.5,1.2,3.8,1.6c0.1,0,0.2,0,0.3,0
		c0.5-0.1,1-0.4,1.6-0.5c0.1,0,0.4,0,0.1,0.2c-0.1,0.1-0.3,0.2-0.3,0.4c-0.2,0.5-0.7,0.6-1.2,0.8c-0.2,0.1-0.5,0.1-0.8,0.2
		c-0.4,0.2-0.9,0.2-1.3,0c-0.2-0.1-0.4-0.3-0.6-0.1c0,0-0.1,0-0.1,0c-0.5-0.6-1.4-0.6-2-1.1c-0.4-0.3-0.9-0.5-1.2-0.8
		c-0.3-0.2-0.6-0.3-0.9-0.5c-0.5-0.3-0.9-0.6-1.3-1c-0.2-0.2-0.5-0.3-0.7-0.5c-1.2-1-2.2-2.1-3.1-3.3c-0.2-0.2-0.4-0.4-0.5-0.6
		c0,0,0,0,0,0c0-0.2-0.1-0.4-0.2-0.6c-0.4-0.6-0.6-1.2-0.9-1.9C28.9,28.2,28.9,28.4,28.7,28.3z"/>
	<path class="st9" d="M57.5,21.2c-0.1,0.6-0.2,1.2-0.3,1.8c-0.2,0.9-0.5,1.8-0.8,2.6c-0.1,0.2-0.1,0.4-0.3,0.5
		c0.1-0.5-0.4-0.5-0.4-0.9c-0.1,0.2,0,0.5-0.3,0.6C55.1,26,55,26.2,55,26.5c0,0.2,0,0.3-0.2,0.3c-0.2,0-0.1-0.2-0.2-0.3
		c0-0.1,0-0.2-0.1-0.2c-0.1,0-0.2,0-0.2,0.1c-0.1,0.6-0.6,1-1,1.4c-0.3,0.3-0.5,0.7-1,0.8c-0.2,0-0.4,0.2-0.4,0.5
		c0,0.4-0.4,0.5-0.6,0.7c-0.1,0-0.2,0.1-0.2,0.1c0.1,0.8-0.7,0.8-1,1.3c-0.3,0.4-0.7,0.7-1.1,1.1c-0.2,0.2-0.4,0.3-0.6,0.4
		c-0.2,0-0.4,0-0.5,0.2c-0.1,0.3,0,0.5,0.4,0.6c-0.2,0.1-0.5,0.1-0.2,0.3c0.1,0.1,0.1,0.3-0.1,0.3c-0.3-0.5-0.6-1.1-0.9-1.6
		c0-0.1,0-0.2,0-0.3c0-0.1,0-0.1,0-0.2c0.1,0,0.2,0,0.2-0.1c0,0-0.1-0.1-0.1-0.1c-0.1,0-0.1,0.1-0.1,0.2c-0.1,0-0.1,0-0.2,0
		c0-0.1,0-0.1,0-0.2c0-0.2-0.1-0.4,0.3-0.5c0.3-0.1,0.7-0.5,0.6-1.1c0.1,0.1,0.2,0.2,0.2,0.2c0.1,0.1,0.2,0.2,0.3,0.2
		c0.1-0.1,0-0.2,0-0.3c-0.1-0.2-0.1-0.3,0-0.5c0.2,0,0.2,0.5,0.6,0.3c0.1,0.1,0.1,0.1,0.2,0.2c0,0.1,0.1,0.4,0.2,0.2
		c0.5-0.4,1-0.8,1.4-1.3c0.1-0.1,0.1-0.2,0.2-0.3c0,0,0,0,0,0c0.2-0.2,0.4-0.3,0.5-0.5c0.9-1.2,1.6-2.4,2.1-3.8
		c0.4,0,0.2-0.2,0.2-0.4l0,0c0.1,0,0.2,0,0.2-0.1c0.2-0.2,0-0.6,0.3-0.7c0.3,0.1,0,0.5,0.4,0.5c0.3,0,0.3-0.3,0.5-0.5
		c0,0,0,0,0.1-0.1c0.8-0.8,1.8-1.4,2.3-2.6C57.3,20.9,57.3,21.1,57.5,21.2z"/>
	<path class="st10" d="M47.9,34.1c0.2,0,0.2-0.2,0.1-0.3c-0.2-0.3,0.1-0.2,0.2-0.3c-0.3-0.1-0.4-0.3-0.4-0.6
		c0.1-0.3,0.3-0.2,0.5-0.2c0.3,0,0.4-0.2,0.6-0.4c0.4-0.4,0.8-0.7,1.1-1.1c0.3-0.4,1.1-0.5,1-1.3c0,0,0.1,0,0.2-0.1
		c0.3-0.2,0.6-0.3,0.6-0.7c0-0.2,0.3-0.4,0.4-0.5c0.5-0.1,0.7-0.5,1-0.8c0.4-0.4,0.9-0.8,1-1.4c0-0.1,0.1-0.1,0.2-0.1
		c0.1,0,0.1,0.1,0.1,0.2c0,0.1-0.1,0.3,0.2,0.3c0.2,0,0.2-0.2,0.2-0.3c0-0.3,0.1-0.5,0.3-0.6c0.3-0.1,0.1-0.4,0.3-0.6
		c0,0.4,0.6,0.4,0.4,0.9c0,0,0,0,0,0c-0.1,0-0.3,0-0.3,0.2c0,0.1,0.1,0.1,0.2,0.2c-0.6,1.4-1.5,2.7-2.5,3.9
		c-0.7,0.8-1.4,1.5-2.2,2.2c-0.1,0.1-0.2,0.2-0.3,0.2c-0.1,0-0.2,0.1-0.2,0.2l0,0c0,0-0.1,0.1-0.1,0.1c0,0,0,0,0,0
		c-0.5,0.1-0.8,0.5-1.3,0.8c-0.1,0.1-0.2,0.2-0.1,0.3c0,0,0,0,0,0c0,0-0.1,0-0.1,0c-0.3-0.1-0.4,0.2-0.6,0.3
		C48.2,34.7,48,34.7,47.9,34.1z"/>
	<path class="st11" d="M44.5,33.4c0.1,0.2,0.1,0.3,0.2,0.5c-0.2,0.1-0.4,0.3-0.4,0.6c0,0.1-0.1,0.1-0.2,0.2
		c-0.4,0.4-0.8,0.7-1.2,1.1c-0.1,0.1-0.2,0.2-0.1,0.3c0.1,0.3-0.1,0.2-0.2,0.2c-0.1,0-0.1-0.2-0.2,0c0,0.1,0,0.2,0.1,0.2
		c0,0.1,0.1,0.1,0.1,0.2c-0.1,0-0.3,0-0.4,0c-0.6-0.2-1.3-0.5-1.9-0.8c-0.2-0.1-0.3-0.3-0.6-0.2c-0.1,0-0.3,0.1-0.3-0.1
		c-0.1-0.2,0.3-0.1,0.2-0.3c-0.4-0.1-0.4-0.1-0.7-0.4c0.2,0,0.4,0,0.6,0c0.1,0,0.2,0,0.1-0.1c-0.2-0.4,0.1-0.5,0.4-0.7
		c0.5-0.3,0.6-0.5,0.5-1.1c0,0,0-0.1,0.1-0.1c0.2,0.3,0.6,0.3,0.9,0.4c0.2,0,0.3-0.1,0.2-0.3c-0.2-0.2,0-0.4,0.1-0.5
		c0.2-0.4,0.6-0.6,0.8-1c0.1-0.2,0.4-0.4,0.7-0.1c0.1,0.1,0.2,0.1,0.4,0.1c0.4,0.4,0.5,1,0.9,1.5c0,0,0,0.1,0,0.1c0,0,0,0.1,0.1,0.1
		C44.4,33.3,44.4,33.3,44.5,33.4C44.4,33.4,44.5,33.4,44.5,33.4L44.5,33.4z"/>
	<path class="st8" d="M51,32.9L51,32.9c-0.1,0-0.1,0.1-0.2,0.1c0,0-0.1,0-0.1,0.1c-0.2,0.3-0.7,0.5-0.9,0.8c0,0.2-0.1,0-0.2,0.1
		c-0.1,0-0.2,0.2-0.3,0.2c0,0-0.1,0-0.1,0.1c-0.5,0.3-0.9,0.6-1.4,0.9c-0.2,0.1-0.3,0.1-0.3-0.1c-0.5-1-1-1.9-1.5-2.9
		c-0.2-0.2-0.3-0.4-0.3-0.7v0c-0.1-0.2-0.2-0.4-0.3-0.5c-0.1-0.2-0.2-0.4-0.3-0.6c-0.2-0.5-0.5-1-0.7-1.5c-0.1-0.1-0.1-0.3-0.2-0.4
		c-0.1-0.2-0.2-0.5-0.4-0.7c-0.1-0.2-0.2-0.5-0.4-0.7h-0.1c0,0-0.1,0-0.1,0c0,0,0-0.1,0-0.1C43,26.7,43,27,43,27.2
		c0,0.1,0.1,0.2,0,0.3c-0.1,0.1-0.1,0.2,0,0.3c0.1,0.1,0.1-0.2,0.3-0.1c-0.1,0.2,0.1,0.5-0.1,0.8C43,28.6,43.3,29,43.4,29
		c0.3-0.1,0.2,0.1,0.2,0.2c0,0.5,0.2,1.1,0.4,1.5c0.5,0.7,0.6,1.5,0.9,2.3c0.2,0.5,0.3,1,0.7,1.5c0,0,0.1,0.1,0.1,0.1
		c-0.2,0.6,0.4,1,0.4,1.5c0,0,0.1,0.1,0.1,0.1c0.5,0.3,1,0,1.4,0c0.3,0,0.1-0.3,0.2-0.3c0,0,0.1-0.1,0.1-0.1
		c0.4,0.2,0.5-0.2,0.7-0.4c0.5-0.5,1.3-0.7,1.7-1.5c0.1-0.1,0.2-0.2,0.3-0.3c0.2-0.1,0.3-0.3,0.4-0.4C51.4,33,51.3,32.9,51,32.9z
		 M48.3,35.5c0,0,0-0.1,0-0.1c0,0,0,0,0,0s0,0,0,0c0,0,0,0,0,0c0,0,0,0,0,0C48.3,35.4,48.4,35.4,48.3,35.5
		C48.4,35.4,48.3,35.5,48.3,35.5z"/>
	<path class="st7" d="M44.3,33.1c-0.3-0.5-0.5-1.1-0.9-1.5c-0.1-0.3-0.2-0.5-0.4-0.8c-0.4-0.8-0.7-1.6-1.2-2.4c0-0.1,0-0.1-0.1-0.1
		l0,0c-0.2-0.4-0.4-0.8-0.5-1.2c0.1-0.5-0.2-0.9-0.4-1.2c-0.3-0.7-0.5-1.4-0.9-2c-0.3-0.6-0.5-1.3-0.9-2c-0.2-0.3-0.1-0.7,0-1
		c0.1-0.5,0.5-0.7,0.9-0.6c0.1,0.1,0.2,0.2,0.2,0.4c-0.1,0.1-0.3,0.1-0.4,0.2c-0.2,0.2-0.4,0.4-0.2,0.7c0.4,0.7,0.6,1.5,1,2.2
		c0.2,0.4,0.5,0.9,0.6,1.4c0,0.1,0.1,0.6,0.5,0.3c0,0,0,0.1,0,0.1c0,0.2-0.1,0.5,0.1,0.7c0.4,0.7,0.7,1.5,1,2.3
		c0.1,0.2,0.1,0.4,0.3,0.4c0,0.1,0,0.1,0,0.2c0,0.5,0.2,0.8,0.5,1.1c0.1,0.4,0.6,0.8,0.2,1.3c0,0.1,0,0.2,0.1,0.2
		c0.3-0.2,0.3,0.1,0.3,0.2c0.2,0.4,0.3,0.8,0.4,1.2C44.5,33.1,44.4,33.1,44.3,33.1z"/>
	<path class="st9" d="M44.9,34.2L44.9,34.2C44.9,34.2,44.9,34.2,44.9,34.2C44.8,34.2,44.8,34.2,44.9,34.2
		C44.8,34.2,44.8,34.1,44.9,34.2C44.8,34,44.8,34,44.7,34h0c-0.2,0.1-0.4,0.3-0.4,0.6c0,0,0,0.1,0,0.1c0,0-0.1,0-0.1,0.1
		c-0.2,0.2-0.4,0.4-0.6,0.6c-0.2,0.2-0.4,0.4-0.6,0.6c0,0,0,0,0,0.1c0,0-0.1,0.1-0.1,0.1c0,0,0,0,0,0c0,0,0,0.1,0,0.1c0,0,0,0,0,0.1
		c0,0.2-0.1,0.2-0.2,0.1c0,0-0.1,0-0.1-0.1c0,0,0,0-0.1,0c0,0,0,0,0,0c0,0.1,0,0.2,0,0.2c0,0,0,0.1,0.1,0.1c0,0,0,0,0,0.1
		C42.6,37,42.8,37,43,37c-0.1,0.1-0.2,0.3-0.4,0.4c0.5-0.1,1-0.4,1.6-0.5c0,0,0-0.1,0-0.1h0c-0.1,0-0.2-0.1-0.4-0.1
		c0,0,0.1-0.1,0.1-0.1c0.1-0.1,0.2-0.1,0.3-0.1c0.2,0,0.3-0.1,0.5-0.1c0.1,0,0.2-0.1,0.3-0.1c0.1,0,0.1,0,0.2-0.1
		c0.1,0,0.2-0.1,0.3-0.2c0,0,0.1-0.1,0.1-0.2C45.5,35.2,45.1,34.7,44.9,34.2z M44.6,34.4C44.6,34.4,44.6,34.4,44.6,34.4L44.6,34.4
		C44.6,34.4,44.6,34.4,44.6,34.4C44.6,34.3,44.6,34.4,44.6,34.4C44.7,34.4,44.6,34.4,44.6,34.4z M44.8,34.7
		C44.8,34.7,44.8,34.7,44.8,34.7C44.8,34.7,44.8,34.7,44.8,34.7C44.8,34.8,44.8,34.8,44.8,34.7C44.8,34.8,44.8,34.7,44.8,34.7z"/>
	<path class="st3" d="M41.5,25.4c-0.4,0.3-0.5-0.1-0.5-0.3c-0.1-0.5-0.3-0.9-0.6-1.4c-0.4-0.7-0.6-1.5-1-2.2
		c-0.2-0.3,0.1-0.5,0.2-0.7c0.1-0.1,0.3-0.1,0.4-0.2c0.6,1.1,1.2,2.2,1.7,3.3c0,0-0.1,0-0.1,0.1C41.5,24.5,41.4,24.9,41.5,25.4z"/>
	<path class="st10" d="M41.9,24c-0.5-1.1-1.1-2.2-1.7-3.3c0-0.1-0.1-0.3-0.2-0.4c0-0.1-0.2-0.3,0-0.4c0.1-0.1,0.2-0.2,0.3-0.3
		c0,0.3,0.2,0.5,0.4,0.7c0.7,1.5,1.5,3,2.3,4.5c0,0.1,0,0.2,0,0.3c-0.1,0-0.2-0.1-0.3,0.1c0,0,0,0,0,0c0,0,0,0,0,0
		c0.1,0.1,0.3,0.2,0.3,0.4c0,0.2,0,0.4,0.2,0.5c0.1,0,0.2,0.2,0,0.3c-0.3-0.4-0.5-0.8-0.7-1.2c0-0.1-0.1-0.2-0.2-0.3
		c0,0,0-0.1,0-0.1C42.1,24.4,42.1,24.2,41.9,24C41.9,24,41.9,24,41.9,24z"/>
	<path class="st9" d="M43.1,26.2c0.3-0.1,0.1-0.3,0-0.3c-0.2-0.1-0.2-0.3-0.2-0.5c0-0.2-0.2-0.3-0.3-0.4l0,0c0-0.2,0.2,0,0.3-0.1
		c0.4,0.1,0.2,0.6,0.5,0.7l0,0c0.4,1,0.9,1.9,1.4,2.9c0.1,0.1,0.1,0.2,0.2,0.3c0,0.2,0,0.4,0.2,0.4c0.2,0,0-0.3,0.2-0.4
		c0.1,0.2,0,0.3,0,0.5c-0.1,0.2-0.2,0.3-0.1,0.5c0.4,0.4,0.3,1,0.3,1.5c-0.6-0.9-1-2-1.6-3c-0.3-0.5-0.5-1-0.8-1.5
		c0-0.1,0-0.2-0.1-0.2c0,0,0,0,0,0C43.3,26.6,43.1,26.4,43.1,26.2z"/>
	<path class="st3" d="M42.9,28.9c-0.2,0-0.3-0.3-0.3-0.4c-0.3-0.8-0.6-1.6-1-2.3c-0.1-0.2,0-0.5-0.1-0.7c0.2,0,0.3,0,0.3,0.2
		c0,0.7,0.4,1.3,0.6,1.9C42.7,28,42.8,28.4,42.9,28.9z"/>
	<path class="st11" d="M44.3,36.8c-0.1,0-0.2-0.1-0.4-0.1c0.3-0.3,0.8-0.3,1.2-0.5c0.2-0.1,0.5-0.2,0.6-0.5c0.2,0.1,0.1,0.2,0,0.4
		C45.3,36.6,44.8,36.7,44.3,36.8z"/>
	<path class="st3" d="M43.5,30.2c-0.3-0.3-0.6-0.7-0.5-1.1C43.4,29.3,43.5,29.7,43.5,30.2z"/>
	<path class="st3" d="M59.1,21.7c0,0.1-0.1,0.2-0.3,0.2c-0.1,0-0.2-0.1-0.2-0.2c0-0.2,0.1-0.2,0.3-0.2C59,21.5,59.1,21.5,59.1,21.7z
		"/>
	<path class="st3" d="M59.2,22.4c0,0.2,0.4,0.2,0.1,0.5c-0.1-0.2-0.3,0.1-0.4,0C58.8,22.6,59.2,22.5,59.2,22.4z"/>
	<path class="st3" d="M41.9,24c0.2,0.2,0.2,0.4,0.3,0.6C41.9,24.6,41.8,24.3,41.9,24z"/>
	<path class="st3" d="M44.3,33.1c0.1,0,0.1,0,0.2,0c0.2,0,0.2,0.1,0.2,0.2c0,0.1-0.1,0.1-0.2,0.1c0,0,0,0,0,0c0,0-0.1-0.1-0.1-0.1
		c0,0,0-0.1,0-0.1C44.4,33.2,44.4,33.2,44.3,33.1C44.4,33.1,44.3,33.1,44.3,33.1z"/>
	<path class="st9" d="M56,26.5c-0.1-0.1-0.2-0.1-0.2-0.2c0-0.1,0.2-0.2,0.3-0.2C56.1,26.3,56.1,26.4,56,26.5z"/>
	<path class="st3" d="M42,25.3c-0.1-0.1-0.1-0.2-0.1-0.3c0,0,0.1,0,0.1,0C42.1,25.1,42.1,25.2,42,25.3z"/>
	<path class="st3" d="M41.9,25c-0.3-0.1-0.3-0.2-0.2-0.4C41.9,24.8,41.8,24.9,41.9,25z"/>
	<path class="st3" d="M32.6,34c0-0.1,0-0.1,0.1-0.1c0,0,0,0,0,0C32.7,33.9,32.7,33.9,32.6,34L32.6,34z"/>
	<path class="st3" d="M42.2,24.7c0.1,0.1,0.1,0.2,0.2,0.3C42.2,25,42.2,24.9,42.2,24.7z"/>
	<path class="st11" d="M51,32.9c-0.1,0-0.1,0.1-0.2,0.1C50.8,32.9,50.9,32.8,51,32.9C51,32.8,51,32.9,51,32.9z"/>
	<path class="st3" d="M57.7,22.9C57.7,23,57.6,23,57.7,22.9C57.6,23,57.6,23,57.7,22.9C57.6,22.9,57.6,22.9,57.7,22.9
		C57.6,22.9,57.7,22.9,57.7,22.9z"/>
	<path class="st11" d="M44.9,34.2c0,0,0-0.1-0.1-0.1C44.8,34.1,44.9,34.2,44.9,34.2z"/>
	<path class="st12" d="M57.2,9.9c0-0.1,0-0.2,0-0.3V9.5c0-0.2,0-0.5,0-0.7c0,0-0.1,0-0.1-0.1c-0.1-1.3-0.2-2.5-0.3-3.8
		c-0.2-0.4-0.4-0.9-0.8-1.1c0,0-0.1-0.1-0.1-0.1c-0.5-0.1-0.9-0.2-1.4-0.3c-1.4-0.3-2.8-0.5-4.2-0.7c-0.6-0.1-1.2-0.2-1.8-0.2
		c-0.3-0.1-0.7,0.1-1-0.1c0,0-0.1,0-0.1,0c-0.1,0-0.2,0-0.3,0h-0.4c-0.1,0-0.2,0-0.3,0c-1.3-0.1-2.7-0.2-4-0.2c-0.1,0-0.2,0-0.3,0
		c-0.8,0.1-1.5,0.1-2.3,0.1c-0.4,0-0.9,0-1.3,0c-0.9,0.2-1.7,0.2-2.6,0.3c-0.7,0.1-1.4,0.2-2.1,0.3c-1,0.2-2,0.3-2.9,0.5
		c-0.5,0.2-1.1,0.3-1.5,0.7c0,0,0,0,0,0.1l0,0c0,0.1-0.1,0.2-0.1,0.2c0,0.1-0.1,0.1-0.1,0.2c0,0,0,0,0,0c-0.1,0.2-0.1,0.5-0.2,0.7
		c-0.1,0.5-0.1,1-0.1,1.5c0,0.2,0,0.3,0,0.5c-0.1,1.6-0.3,3.1-0.4,4.7c0,0.6-0.1,1.1-0.1,1.7c0,0.4,0,0.7-0.1,1.1V15
		c0,0.2,0,0.4,0,0.5c0,0.4,0,0.7-0.1,1.1c0,0.4,0,0.8,0,1.2v1.4c0,0.1,0,0.2,0,0.3c0,0.1,0,0.3,0,0.4c0,0.2,0,0.5,0,0.7
		c0.1,0.8,0.2,1.7,0.4,2.5c0,0.1,0,0.2,0.1,0.3c0,0,0,0.1,0,0.1c0.1,0.3,0.2,0.7,0.3,1c0.2,0.5,0.3,1,0.5,1.5c0.2,0.5,0.4,1,0.7,1.4
		c0.5,0.9,1.1,1.8,1.8,2.7c0.5,0.6,1,1.1,1.5,1.6c0.1,0.1,0.1,0.2,0.1,0.2c0.1,0,0.1,0,0.1,0.1c0.1,0,0.1,0.1,0.1,0.1
		c0,0,0.1,0.1,0.1,0.1c0.1,0.1,0.2,0.2,0.4,0.2c0,0,0.1,0,0.1,0h0c0,0,0.1,0,0.1,0c0,0,0,0,0.1,0c0,0,0,0.1,0,0.1c0.1,0,0.1,0,0.2,0
		c0.3,0.1,1,0.1,1.2,0c0.2-0.1,0.4-0.2,0.4-0.5c0.1-0.2-0.2-0.2-0.3-0.4c0.5-0.1,0.9,0.1,1.3-0.3c0-0.1-0.3-0.2-0.1-0.4
		c0-0.2-0.3-0.2-0.4-0.3c0,0,0,0,0,0c-0.1-0.1-0.2-0.1-0.3-0.2c-0.1,0-0.1-0.1-0.2-0.2c-0.1,0-0.1-0.1-0.2-0.2
		c-0.5-0.4-1-0.9-1.4-1.4c-0.8-0.8-1.4-1.7-2-2.7c-0.3-0.6-0.6-1.1-0.8-1.8c-0.2-0.5-0.4-1-0.5-1.5c0-0.1-0.1-0.2-0.1-0.3
		c-0.1-0.2-0.1-0.5-0.2-0.7c-0.1-0.3-0.1-0.6-0.1-0.9c0-0.2,0-0.5-0.1-0.7c0-0.2,0-0.5,0-0.7c0-0.2,0-0.5,0-0.7c0-0.3,0-0.6,0-0.8
		c0-0.1-0.1-0.3,0.1-0.4c0-0.8,0-1.5,0-2.2c0-0.1-0.1-0.3,0.1-0.4v0c0-0.1,0-0.2,0-0.2v-1.1c0,0,0,0,0,0c0.4,0.7,0.8,1.4,1.2,2.2
		c0.4,0.7,0.8,1.5,1.1,2.2c0.2,0.3,0.4,0.6,0.5,1c0.2,0.3,0.3,0.7,0.5,1v0c0.4,0.7,0.8,1.5,1.2,2.2c0.3,0.7,0.6,1.4,1,2.1
		c0.4,0.8,0.7,1.7,1.2,2.4c0,0,0,0.1,0,0.1c0.2,0.2,0.3,0.6,0.5,0.9v0c0,0,0.1,0.1,0.2,0.1c0,0.1,0,0.1,0,0.2v0.2
		c0.1,0.1,0.2,0.3,0.3,0.4c0.1,0.1,0.2,0.2,0.2,0.4c0,0.1,0.1,0.2,0.1,0.3c0,0.1,0.1,0.3,0.1,0.4c0.1,0,0.2-0.1,0.3-0.2
		c0.1-0.1,0.1-0.2,0.2-0.3c0,0.3,0,0.6-0.3,0.8v0.1c0.3,0.3,0.5,0.2,0.7-0.1c0.3-0.3,0.6-0.6,0.8-1.1c0.1-0.3,0.3-0.6,0.7-0.7h0
		c-0.2-0.4-0.4-0.8-0.5-1.2c-0.9-1.7-1.8-3.4-2.6-5.2c-0.2-0.1-0.2-0.3-0.3-0.4c-0.5-0.9-1-1.8-1.4-2.8c-0.1-0.1-0.2-0.3-0.3-0.4
		c-0.1-0.2-0.1-0.3-0.2-0.5c-0.9-1.8-1.8-3.6-2.7-5.4c-0.1-0.3-0.3-0.5-0.5-0.8c-0.1-0.1-0.1-0.2-0.2-0.2c-0.1-0.1-0.2-0.2-0.4-0.3
		C32.6,11,32.5,11,32.4,11c-0.1,0-0.1-0.1-0.2-0.1c-0.1-0.1-0.1-0.1-0.2-0.2c-0.1,0-0.1-0.1-0.2-0.2s-0.1-0.1-0.1-0.2
		c0-0.1-0.1-0.1-0.1-0.2c0-0.2-0.1-0.4,0-0.6c0-0.2,0-0.4,0-0.7v-1c0-0.5,0-0.9,0-1.4c0-0.1,0-0.2,0-0.3c0,0,0,0,0.1-0.1
		c0,0,0.1,0,0.1,0c0.2-0.1,0.4,0,0.5,0.2c0.1,0,0.1,0,0.2,0.1c0,0,0.1,0.1,0.1,0.1h0c0,0,0.1,0,0.1,0c0,0,0.1,0,0.1,0.1
		c0,0,0.1,0,0.1,0.1c0,0,0.1,0.1,0.1,0.1c0,0,0,0.1,0.1,0.1c0.1,0,0.1,0.1,0.2,0.1C34,7.3,34.5,7.8,35,8.3c0.2,0.2,0.2,0.3,0.2,0.5
		c0,0.5,0.2,1,0,1.5c0,0.2,0.1,0.2,0.2,0.2c0,0,0.1,0,0.1,0c0.2-0.1,0.3-0.2,0.5-0.4c0.2-0.1,0.4-0.2,0.6-0.3
		c0.2-0.1,0.4-0.1,0.6-0.2c0.2-0.1,0.4-0.1,0.6-0.1c0.8-0.2,1.6-0.2,2.4-0.2c0.5,0,1,0.1,1.5,0.2c0.5,0,0.9,0.3,1.4,0.4
		c0.9,0.3,1.8,0.8,2.7,1.1c0.3,0.1,0.6,0.2,1,0.3c0.3,0.1,0.7,0.1,1,0.2c0.6,0,1.1,0,1.7,0c0.3,0,0.7,0,1,0c0.1,0,0.2,0,0.3,0
		c0,0,0.1-0.1,0-0.2v0c0,0,0,0,0-0.1c0,0,0,0,0,0c0,0,0.1,0,0.1,0c0.3,0.1,0.5,0.2,0.8-0.1c0.3-0.3,0.7-0.1,1-0.2
		c0.2-0.1,0.5-0.2,0.7-0.3c0-0.1,0.1-0.1,0.1-0.2c0,0,0.1-0.1,0.2-0.1s0.1-0.1,0.2-0.1c0.2,0,0.3,0,0.4,0.1c0,0,0.1,0,0.1,0
		c0,0,0,0,0.1,0.1c0,0,0,0.1,0,0.2c0,0.3,0,0.7,0,1c0,0.1,0,0.2,0,0.2c0,0.1,0,0.1,0,0.2v0.4c0,0,0,0,0.1,0.1
		c0.1,0.2-0.1,0.5,0.3,0.6c0.3,0.1,0.3-0.3,0.6-0.3c0,0,0.1,0,0.1,0c0,0,0-0.1,0-0.2v-0.1c0,0,0-0.1,0-0.1c0-0.1-0.1-0.2-0.1-0.4
		c0,0,0-0.1,0-0.1c0-0.1,0-0.2,0-0.3c0-0.1,0.1-0.1,0.4,0c0.1,0,0.2,0.1,0.2,0c0,0,0,0,0.1,0c0,0,0,0,0.1-0.1c0,0,0,0,0-0.1
		c0,0,0-0.1,0-0.1c0,0,0-0.1,0-0.1c0,0,0,0,0-0.1c0-0.1,0.1-0.1,0.2-0.1c0,0,0.1,0,0.1,0h0c0,0,0,0,0.1,0c0,0,0.1,0,0.1,0
		c0,0,0,0,0,0c0,0,0,0,0,0c0,0,0,0,0,0c0,0,0-0.1,0-0.2C57,10.5,57.2,10.2,57.2,9.9L57.2,9.9z M53.9,7.8L53.9,7.8
		C53.8,7.8,53.8,7.8,53.9,7.8C53.8,7.8,53.8,7.7,53.9,7.8c-0.1-0.2-0.2-0.2-0.2-0.2c0,0,0,0,0,0c0,0.1-0.1,0.1-0.2,0.2
		C53.3,8,53.1,8,52.9,8.1h0c0,0,0,0,0,0c0,0.1-0.2,0-0.2,0c-0.1,0.2-0.3,0.2-0.4,0.2c-0.1,0.1-0.3,0.2-0.5,0.2h0
		c-1.2,0.4-2.3,0.5-3.5,0.4c-1.8-0.2-3.4-0.9-5-1.5c-0.4-0.1-0.9-0.3-1.3-0.4C41.6,7,41.4,7,41.2,7c-0.5-0.1-1-0.1-1.5-0.1
		c-0.1,0-0.1,0-0.2,0c-0.2,0-0.3,0-0.5,0c-0.3,0.1-0.6,0.1-1,0.2c-0.3,0.1-0.6-0.1-0.8-0.3c-0.1,0-0.1-0.1-0.2-0.1
		c-0.1,0-0.1-0.1-0.2-0.1c0,0-0.1,0-0.1-0.1c0,0,0,0-0.1-0.1h0c-0.1,0-0.1,0-0.2-0.1c-0.2-0.1-0.3-0.2-0.4-0.3
		c-0.1,0-0.1-0.1-0.2-0.1c-0.1,0-0.1-0.1-0.2-0.1c-0.1-0.1-0.1-0.1-0.2-0.2c0.2,0,0.5-0.1,0.7-0.1c0.2,0,0.5-0.1,0.7-0.1
		c0.2,0,0.4,0,0.6-0.1c0.2,0,0.4,0,0.7,0c0.3,0,0.7,0,1,0c0,0,0,0,0.1,0c0,0,0,0,0,0c0,0,0,0,0,0c0,0,0.1,0,0.1,0c0.1,0,0.1,0,0.2,0
		c0.1,0,0.1,0,0.2,0c0,0,0.1,0,0.1,0c0.1,0,0.1,0,0.2,0c0.2,0,0.5,0,0.7,0c1.5,0,3,0,4.5,0c0.6,0,1.1,0.2,1.7,0.2
		c0.6,0,1.3,0,1.9,0.1c0.2,0,0.3,0,0.5,0.1c0.2,0,0.3,0.1,0.5,0.1c0.6,0.1,1.3,0.2,1.9,0.5c0,0,0.1,0,0.2,0c0.1,0,0.2,0,0.3,0
		c0.1,0,0.2-0.1,0.3,0c0,0,0,0,0,0.1c0,0,0,0.1,0,0.1c0,0.1,0.1,0,0.2,0c0.1,0,0.1,0,0.2,0c0,0,0,0,0,0.1c0,0,0,0.1,0,0.2
		c0.1,0,0.3,0,0.4,0c0.2,0,0.3-0.1,0.4-0.2c0.1-0.1,0.2-0.1,0.3-0.1c0,0,0.1,0.1,0.1,0.1c0,0,0.1,0.1,0.1,0.2
		C54,6.9,54.1,7.4,53.9,7.8z M54.1,9.9C54.1,9.9,54,9.9,54.1,9.9C54,9.8,54,9.8,54.1,9.9C54.1,9.8,54.1,9.8,54.1,9.9
		C54.1,9.8,54.1,9.9,54.1,9.9z M55,12.2c0,0.1-0.1,0.2-0.2,0.2c0,0-0.1,0-0.1,0s0,0,0,0c0,0,0-0.1,0-0.2c0-0.2,0.2-0.3,0.3-0.6
		c0.1,0.1,0.1,0.3,0.1,0.4C55,12,55,12.1,55,12.2z"/>
	<path class="st13" d="M54.4,12.4C54.5,12.4,54.5,12.4,54.4,12.4c0.2,0.3,0,0.6,0.3,0.7c0.3,0.1,0.3-0.3,0.6-0.3
		c0.1,0,0.1-0.2,0.1-0.3c0-0.2-0.1-0.3-0.1-0.5c0-0.3-0.1-0.6,0.4-0.4c0.2,0.1,0.4,0,0.5-0.3c0-0.2,0.2-0.3,0.4-0.3
		c0.2,0,0.3-0.1,0.3-0.3c0-0.3,0.3-0.5,0.2-0.8c0.2,0.5,0.1,1,0.2,1.4c0.1,0.7,0,1.4,0.1,2.2c0.1,0.8,0.1,1.7,0.1,2.5
		c0,0.2,0,0.3,0,0.5c0,0.5,0,1.1,0,1.6c0,0-0.1,0-0.1,0c0-0.1,0-0.1-0.1-0.2c-0.1-0.1,0-0.3-0.2-0.3c-0.2,0-0.2,0.2-0.2,0.3
		c-0.1,0.2-0.2,0.3-0.4,0.5c-0.5,0.5-1.1,0.9-1.5,1.6c-0.1,0.2-0.3,0.4-0.3,0.7c0,0.2,0.1,0.5-0.2,0.7c-0.1-0.2,0.1-0.4-0.2-0.5
		c-0.2-0.2-0.4-0.1-0.4,0.2c0,0,0,0.1-0.1,0.1c0,0,0,0,0,0c0,0,0-0.1,0-0.1c0.1,0,0.1,0.1,0.1,0.2c0,0-0.1,0.1-0.1,0.1
		c0,0-0.1,0.1-0.1,0.1c-0.4,0.3-0.8,0.5-1.1,0.8c-0.1,0-0.1,0-0.1,0.1l0,0c-0.4,0.1-0.7,0.4-1.1,0.5c-0.3,0-0.5,0-0.8,0.1
		c-0.7,0.1-1.5,0-2.2,0c-0.9,0-1.7-0.3-2.5-0.6c0.4,0,0.8,0,0.9-0.4c0.1-0.3,0.2-0.4,0.5-0.5c0.2,0,0.3-0.2,0.3-0.4
		c0-0.2-0.1-0.3-0.3-0.3c-0.3,0-0.2-0.2-0.2-0.4c0-0.2,0.1-0.3,0.2-0.5c0.8,0.3,1.6,0.4,2.4,0.3c0.1,0,0.2,0.1,0.3-0.1
		c0.1,0,0.3,0.1,0.4-0.1c0.2,0.2,0.3-0.1,0.5-0.1c0.6-0.2,1.2-0.4,1.8-0.8c0.2-0.1,0.5-0.2,0.6-0.4c0.4-0.2,0.8-0.3,1-0.7
		c0.1,0,0.3,0.2,0.2-0.1c-0.1-0.4,0-0.9,0-1.3C54.5,15.2,54.6,13.8,54.4,12.4z"/>
	<path class="st11" d="M54.5,21.4c0.4-0.1,0.2-0.4,0.2-0.7c0-0.3,0.2-0.5,0.3-0.7c0.3-0.7,1-1.1,1.5-1.6c0.1-0.1,0.3-0.3,0.4-0.5
		c0-0.1,0.1-0.3,0.2-0.3c0.2,0,0.1,0.2,0.2,0.3c0,0,0,0.1,0.1,0.2c0,0,0.1,0,0.1,0c0-0.5,0-1.1,0-1.6c0-0.2,0-0.3,0-0.5
		c0.1,0.1,0.1,0.3,0.1,0.5c0,1.1,0,2.1,0,3.2c0,0.5-0.1,1-0.1,1.6c-0.2-0.1-0.2-0.3-0.3-0.5c-0.5,1.1-1.4,1.8-2.3,2.6
		c0,0,0,0-0.1,0.1c-0.1,0.2-0.2,0.5-0.5,0.5c-0.3,0-0.1-0.4-0.4-0.5c0-0.1,0.1-0.1,0.1-0.2C54.2,22.6,54.4,22,54.5,21.4z"/>
	<path class="st7" d="M57.2,9.6C57.2,9.5,57.2,9.5,57.2,9.6C57.2,9.5,57.2,9.5,57.2,9.6C57.2,9.5,57.2,9.6,57.2,9.6z"/>
	<path class="st6" d="M48.5,2.5c-0.3-0.1-0.7,0.1-1-0.1C47.9,2.4,48.2,2.3,48.5,2.5z"/>
	<path class="st6" d="M47.5,2.4c-0.1,0-0.2,0-0.4,0c0-0.1,0-0.2,0.1-0.2C47.4,2.1,47.5,2.2,47.5,2.4z"/>
	<path class="st7" d="M56,3.8C56,3.8,55.9,3.7,56,3.8c-0.1-0.1,0-0.2,0-0.1C56.1,3.7,56,3.8,56,3.8z"/>
	<path class="st10" d="M29.4,4.2c-0.5,1-0.4,2.1-0.5,3.2c-0.1,1.6-0.3,3.1-0.4,4.7c-0.1,1.1-0.1,2.3-0.2,3.4
		c-0.1,1.2-0.1,2.5-0.1,3.7c0,1.8,0.3,3.6,0.9,5.3c0.3,1,0.7,1.9,1.2,2.8c0.5,0.9,1.1,1.9,1.8,2.7c0.5,0.6,1,1.1,1.5,1.6
		c0.1,0.1,0.1,0.2,0.1,0.2c0,0.2-0.2,0.3-0.2,0.5c-0.8-0.6-1.5-1.4-2.1-2.2c-1.1-1.4-2-2.9-2.6-4.6c-0.5-1.3-0.8-2.5-0.9-3.9
		c-0.1-0.4,0-0.9-0.2-1.3c0,0,0,0,0,0c0-1.3,0-2.6,0.1-3.9c0.1-2,0.3-4,0.3-6c0.2-0.3,0.1-0.6,0.1-1c0.2-0.4,0.1-0.9,0.1-1.3
		c0.2-0.4,0-0.8,0.2-1.2c0-0.3,0-0.6,0-0.9c0.2-0.2,0-0.5,0.1-0.8c0.1-0.4,0.2-0.7,0.4-1C29.2,4.4,29.3,4.3,29.4,4.2z"/>
	<path class="st2" d="M28.2,10.5c0,2-0.2,4-0.3,6c0,1.3,0,2.6-0.1,3.9c-0.2,0-0.4,0.1-0.4,0.3c0,0.5,0,0.9,0.1,1.4c0,0,0,0.1,0,0.1
		c-0.2,0.6,0.1,1.3,0,1.9c0,0.1,0,0.2,0,0.3c0.5,0.2,0.2,0.5,0.2,0.7c0,0.2-0.1,0.5,0.3,0.7c0.2,0.1,0,0.3,0.1,0.5
		c0.2,0.4,0.3,0.8,0.4,1.2c0.1,0.1,0,0.2-0.1,0.2c-0.4-0.2-0.3-0.6-0.5-0.9c-0.5-0.6-0.3-1.4-0.6-2c-0.2-0.3-0.1-0.7-0.2-1.1
		c-0.3-1.3-0.3-2.8-0.2-4.1c0.2-1.2,0-2.3,0.1-3.5c0-0.5,0.2-0.9,0.3-1.4c0.1-0.5,0.3-0.9,0.1-1.4c-0.2-0.6,0.1-1.2,0.2-1.7
		c0-0.2,0.1-0.4,0.1-0.5c-0.4-0.5,0.1-1,0.1-1.5c0,0,0.1-0.1,0.1-0.1l0,0C28,9.9,28.3,10.2,28.2,10.5z"/>
	<path class="st2" d="M28.4,8.3c0,0.4,0.1,0.9-0.1,1.3c-0.1,0-0.2,0-0.3,0l0,0C28.1,9,27.9,8.5,28.2,8c0.1-0.1,0.1-0.3,0-0.3
		c-0.4-0.6,0.1-1.1,0.2-1.7c0.2,0.1,0.1,0.2,0.1,0.3c0,0.3,0,0.6,0,0.9c-0.2,0-0.2,0.2-0.2,0.3C28.4,7.7,28.4,8,28.4,8.3z"/>
	<path class="st2" d="M28.7,28.3c0.2,0,0.2-0.2,0.3-0.2c0.3,0.7,0.5,1.3,0.9,1.9c0.1,0.2,0.2,0.4,0.2,0.6c-0.2,0-0.3,0-0.4-0.2
		c-0.2-0.4-0.5-0.8-0.7-1.2c-0.1-0.2-0.2-0.4-0.4-0.5C28.5,28.6,28.5,28.4,28.7,28.3z"/>
	<path class="st7" d="M29.6,31.3c0-0.1-0.1-0.2,0-0.2c0,0,0.1,0,0.1,0.1C29.8,31.3,29.7,31.3,29.6,31.3
		C29.6,31.3,29.6,31.3,29.6,31.3z"/>
	<path class="st6" d="M29.4,4.2c-0.1,0.1-0.2,0.2-0.3,0.3c-0.1-0.4-0.2,0.1-0.4,0c0-0.1,0-0.1,0-0.2c0.1-0.3,0.4-0.4,0.5-0.5
		C29.4,3.7,29.4,4,29.4,4.2C29.4,4.2,29.4,4.2,29.4,4.2z"/>
	<path class="st3" d="M57.5,8.2c-0.3-0.1-0.2-0.4-0.3-0.6c0-0.1,0.1-0.2,0.2-0.2c0.1,0,0.2,0.2,0.2,0.3C57.6,7.9,57.5,8,57.5,8.2
		C57.5,8.2,57.5,8.2,57.5,8.2z"/>
	<path class="st6" d="M28.4,4.8C28.3,5.1,28,5,27.8,5.1C27.9,4.7,28.2,4.9,28.4,4.8z"/>
	<path class="st6" d="M28.6,4.7c0,0.1-0.1,0.2-0.2,0.2C28.4,4.7,28.4,4.7,28.6,4.7z"/>
	<path class="st6" d="M28.7,4.5c0,0.1-0.1,0.2-0.2,0.2C28.6,4.5,28.6,4.5,28.7,4.5z"/>
	<path class="st13" d="M43.1,30.8c-0.4-0.8-0.7-1.6-1.2-2.4c0,0,0,0-0.1-0.1v0h0c-0.4,0.1-0.6,0.4-0.7,0.7c-0.1,0.5-0.5,0.8-0.8,1.1
		c-0.2,0.3-0.5,0.4-0.7,0.1c-0.2,0.1-0.2,0.3-0.2,0.5v0c0.2,0,0.2,0.1,0.2,0.2c0,0.1,0,0.1,0,0.2c0.1,0.1,0.1,0.3,0.2,0.4
		c0,0.1,0.1,0.2,0.1,0.3c0.1,0.2,0.2,0.4,0.3,0.6c0.1,0.2,0.2,0.3,0.2,0.5v0h0v0l0,0c-0.3-0.1-0.6-0.2-0.8-0.4
		c-0.3-0.1-0.5-0.3-0.7-0.4c-0.1,0-0.2-0.1-0.3-0.2c-0.1-0.1-0.2-0.1-0.2-0.2h0c-0.2,0-0.4-0.2-0.5-0.3c-0.1-0.1-0.2-0.1-0.3-0.2
		c-0.2,0.2,0.1,0.3,0.1,0.4c-0.3,0.4-0.8,0.2-1.3,0.3c0.2,0.1,0.4,0.1,0.3,0.4c-0.1,0.2-0.2,0.4-0.4,0.5c-0.3,0.1-0.9,0.1-1.2,0
		c0,0-0.1,0-0.2,0c0.3,0.5,0.8,0.7,1.2,1.1c0.6,0.4,1.3,0.8,1.8,1.4h0c0,0,0,0,0,0c0.1,0.1,0.1,0.1,0.2,0c0.1-0.1,0.2-0.1,0.2,0
		c0,0,0,0,0,0c0,0,0,0,0,0.1c0,0,0,0.1,0.1,0.1c0.3,0.1,0.3,0.1,0.2,0.4c1.2,0.7,2.5,1.2,3.8,1.6c0.1,0,0.2,0,0.3,0
		c0.1-0.1,0.2-0.3,0.4-0.4c-0.2,0-0.4,0-0.5-0.3c-0.1,0-0.3,0-0.4,0c-0.3-0.1-0.6-0.2-0.9-0.4c-0.3-0.1-0.6-0.3-0.9-0.4
		c0,0-0.1,0-0.1-0.1h0c-0.1,0-0.1-0.1-0.2-0.1c-0.1,0-0.1,0-0.2,0c-0.1,0-0.3,0.1-0.4-0.1c-0.1-0.1,0.2-0.1,0.2-0.3
		c-0.4-0.1-0.4-0.1-0.7-0.4c0.2,0,0.4,0,0.6,0c0.1,0,0.2,0,0.1-0.1c-0.2-0.4,0.1-0.5,0.4-0.7c0.1,0,0.2-0.1,0.2-0.1s0.1-0.1,0.2-0.2
		c0,0,0.1-0.1,0.1-0.2c0-0.1,0-0.3,0-0.6c0-0.1,0-0.1,0.1-0.1c0,0.1,0.1,0.2,0.2,0.2c0.1,0,0.1,0.1,0.2,0.1c0.1,0,0.2,0,0.2,0.1
		c0.1,0,0.2,0,0.2,0c0.2,0,0.3-0.1,0.2-0.3c-0.2-0.2,0-0.4,0.1-0.6c0.1-0.1,0.1-0.2,0.2-0.2c0.1-0.1,0.3-0.3,0.4-0.5
		c0,0,0.1-0.1,0.1-0.1c0,0,0,0,0-0.1c0,0,0,0,0-0.1c0,0,0-0.1,0.1-0.1c0,0,0.1-0.1,0.1-0.1c0,0,0.1-0.1,0.1-0.1c0.1,0,0.2,0,0.3,0
		c0,0,0,0,0.1,0.1c0,0,0,0.1,0.1,0.1c0,0,0.1,0.1,0.1,0.1c0.1,0,0.2,0,0.2,0C43.3,31.3,43.2,31,43.1,30.8z M39.8,31
		C39.8,31,39.8,31,39.8,31C39.8,31,39.8,31,39.8,31C39.8,31,39.8,31,39.8,31C39.8,31,39.8,31,39.8,31C39.8,31,39.8,31,39.8,31
		C39.8,31,39.8,31,39.8,31z M40.2,33.4C40.2,33.4,40.2,33.4,40.2,33.4c-0.1-0.1,0-0.1,0-0.1C40.2,33.3,40.2,33.3,40.2,33.4
		C40.3,33.3,40.3,33.3,40.2,33.4C40.3,33.4,40.2,33.4,40.2,33.4z"/>
	<path class="st9" d="M34.9,32.7c0.3,0.5,0.8,0.7,1.2,1c0.6,0.4,1.3,0.8,1.8,1.4c0.1,0.1,0.1,0.1,0.3,0.1c0.1-0.1,0.2-0.1,0.3,0.1
		c0,0,0,0.1,0.1,0.1c0.3,0.1,0.3,0.1,0.2,0.4c-1-0.4-1.9-1-2.8-1.6c-0.8-0.5-1.5-1.1-2.2-1.8c0-0.2,0.2-0.3,0.2-0.5
		c0.4,0.1,0.5,0.5,0.9,0.5C34.7,32.7,34.8,32.7,34.9,32.7L34.9,32.7z"/>
	<path class="st3" d="M27.9,20.5c0.2,0.4,0,0.9,0.2,1.3c-0.1,0-0.2,0.2-0.2,0C27.8,21.4,27.9,21,27.9,20.5z"/>
	<path class="st13" d="M49.2,34.1c-0.2,0-0.3,0-0.4,0.1c-0.1,0.1-0.1,0.1-0.2,0.2c-0.3,0.2-0.5,0.3-0.6,0.1c0,0-0.1-0.1-0.1-0.2
		c0,0,0-0.1,0-0.1c0,0,0-0.1-0.1-0.1l-0.2-0.4c0-0.1,0-0.1-0.1-0.1c0,0,0-0.1-0.1-0.2c0-0.1-0.1-0.1-0.1-0.2
		c-0.1-0.3-0.3-0.5-0.4-0.8c0,0,0,0,0,0c0-0.1,0-0.2,0-0.2c0,0-0.1,0-0.1,0c0,0,0,0,0-0.1c0,0,0,0,0-0.1v-0.2
		c-0.2-0.1-0.3-0.3-0.4-0.4c-0.1-0.1-0.1-0.2-0.2-0.4c0-0.1,0-0.1-0.1-0.2c0-0.1,0-0.1-0.1-0.2c0-0.1,0-0.1-0.1-0.2
		c-0.1-0.1-0.1-0.3-0.2-0.4c-0.2-0.3-0.1-0.7,0.2-0.9c0.2-0.2,0.4-0.3,0.6-0.5c0.2-0.2,0.4-0.3,0.5-0.5c0.1-0.1,0.1-0.1,0.1-0.2
		c0-0.1,0-0.2,0-0.2c0,0,0.1,0,0.1,0c0.1,0,0.1,0,0.1,0c0.1-0.2-0.2-0.4-0.2-0.6c-0.3-0.6-0.6-1.1-0.9-1.7c0,0,0,0,0-0.1
		c0,0,0,0,0,0c0,0,0,0,0-0.1h0c-0.1,0-0.2,0-0.2,0c-0.1-0.1,0-0.2,0-0.3v0c-0.1-0.1-0.1-0.3-0.2-0.4c-0.1-0.2-0.1-0.3-0.2-0.4
		c-0.1-0.1-0.2-0.3-0.2-0.4c-0.2-0.4-0.5-0.9-0.6-1.3c0,0,0,0-0.1-0.1c0,0,0,0-0.1-0.1c0,0-0.1-0.1-0.2-0.1
		c-0.3,0.5-0.2,0.8,0.3,1.1c0,0,0,0.1,0,0.1c0.4,0.1,0.2,0.3,0.2,0.5c0,0.2-0.2,0.3-0.4,0.2c-0.2-0.1-0.2,0-0.3,0.1
		c-0.1,0.3-0.2,0.7-0.2,1c0,0.3,0.1,0.5-0.4,0.4c-0.1,0-0.2,0-0.3,0.1c0.2,0.5,0.4,1,0.7,1.4c0.2,0.5,0.5,0.9,0.8,1.4
		c0,0.1,0.1,0.2,0.1,0.2c0,0,0,0.1,0,0.1c0,0,0,0.1,0,0.1c0,0,0,0.1,0,0.1c0,0.1,0.1,0.2,0.2,0.2c0.2,0,0-0.3,0.2-0.4
		c0.1,0.2,0,0.3,0,0.5c-0.1,0.2-0.2,0.3-0.1,0.5c0.1,0.1,0.1,0.1,0.2,0.2c0,0,0,0.1,0.1,0.1c0,0.1,0,0.1,0.1,0.2c0,0.1,0,0.1,0,0.2
		c0,0.1,0,0.2,0,0.3c0,0.2,0,0.3,0,0.5v0c0.2,0,0.3,0.3,0.6,0.3c0,0,0,0,0,0c0,0,0,0.1,0,0.1c0,0,0,0,0,0.1c-0.1,0-0.2,0.1-0.2,0.2
		c0.4,1,1,1.9,1.5,2.9c0.1,0.1,0.2,0.2,0.3,0.1C48.4,34.8,48.8,34.5,49.2,34.1C49.2,34.2,49.2,34.2,49.2,34.1z M46.3,25.7
		C46.3,25.7,46.2,25.7,46.3,25.7C46.2,25.7,46.3,25.6,46.3,25.7C46.3,25.6,46.3,25.7,46.3,25.7C46.3,25.7,46.3,25.7,46.3,25.7z"/>
	<path class="st2" d="M45.7,24.1c-0.3-0.6-0.7-1.1-0.9-1.7c1,0.4,1.9,0.7,3,0.8c1.2,0.2,2.4,0.1,3.6-0.5c0.4,0,0.7-0.4,1.1-0.5
		c0,0.1,0,0.1,0,0.2c0,0-0.1,0-0.1,0.1c0,0,0,0,0,0.1c0,0,0.1-0.1,0.1-0.1c0.2,0,0.1,0.1,0.1,0.2c0,0,0,0,0,0c0,0,0,0,0,0
		c0.5,0.2,0.3,0.6,0.2,0.9c-0.1,0.6-0.3,1.2-0.5,1.8c-0.1,0.5-0.4,0.9-0.6,1.3c-0.3,0.5-0.4,1.1-0.8,1.5c-0.3,0.3-0.3,0.6-0.3,0.9
		c0,0,0,0,0,0c-0.1,0-0.3,0-0.3,0.1c0,0.1,0.1,0.1,0.1,0.1c-0.4,0.5-0.8,0.9-1.4,1.3c-0.2,0.1-0.2-0.1-0.2-0.2
		c0-0.2-0.1-0.3,0.1-0.5c0.6-0.4,1-1,1.3-1.6c0.1-0.2,0.4-0.1,0.4-0.5c0-0.2,0.1-0.4,0.3-0.6c0.2-0.2,0.5-0.4,0.5-0.6
		c0-0.4,0.3-0.8,0.2-1.2c0,0,0,0,0,0c0.2,0,0.6,0.1,0.5-0.3c0-0.4,0.1-0.7,0.2-1c0.2-0.7,0.1-0.8-0.6-0.8c0-0.1-0.1-0.2-0.2-0.2
		c0,0-0.1,0.1-0.1,0.1c0.1,0.1,0.2,0.1,0.3,0.1c-0.1,0.3-0.3,0.2-0.5,0.2c-0.4-0.1-0.6,0.1-0.9,0.2c-0.3,0.2-0.5,0.2-0.9,0.2
		c-0.3,0-0.5,0-0.8,0.1c-0.6,0.1-1.2,0.2-1.7,0c-0.3-0.1-0.5-0.1-0.8,0.1l0,0c0-0.1-0.1-0.2-0.2-0.2C45.9,23.9,45.9,24.2,45.7,24.1z
		"/>
	<path class="st11" d="M46.8,31.9c-0.5-0.3-0.6-0.9-0.8-1.4c-0.1-0.1-0.1-0.3-0.2-0.4c-0.2-0.3-0.1-0.7,0.2-0.9
		c0.4-0.3,0.7-0.6,1.1-0.9c0.1-0.1,0.1-0.1,0.1-0.2c-0.1-0.4,0.2-0.1,0.3-0.2c0.4,0.4,0.6,1,0.9,1.4c0.1,0.3,0.2,0.6,0.4,0.9
		c-0.3,0.2-0.3-0.3-0.6-0.3c-0.1,0.1-0.2,0.3,0,0.5c0.1,0.1,0.1,0.2,0,0.3c-0.1,0.1-0.2,0-0.3-0.2c0,0,0-0.1-0.2-0.2
		c0.1,0.6-0.3,1-0.6,1.1C46.7,31.4,46.8,31.6,46.8,31.9z"/>
	<path class="st8" d="M50.7,29c0-0.3,0-0.6,0.3-0.9c0.4-0.4,0.5-1,0.8-1.5c0.2-0.4,0.5-0.8,0.6-1.3c0.2-0.6,0.4-1.2,0.5-1.8
		c0.1-0.3,0.3-0.7-0.2-0.9l0,0c0-0.1,0.1-0.2-0.1-0.2l0,0c0-0.1,0-0.1,0-0.2c0,0,0,0,0,0c0,0,0.1,0,0.1-0.1c0.4-0.3,0.8-0.5,1.1-0.8
		c0,0,0.1-0.1,0.1-0.1c0,0,0.1-0.1,0.1-0.1c0,0,0,0,0,0l0,0c0,0.2,0,0.4,0,0.6c-0.1,0.8-0.4,1.6-0.6,2.4c0,0,0,0,0,0
		c-0.1,0.1-0.2,0.2-0.2,0.4c-0.5,1.4-1.3,2.6-2.1,3.8C51,28.6,50.8,28.8,50.7,29z"/>
	<path class="st3" d="M48.7,30.1c-0.1-0.3-0.2-0.6-0.4-0.9c0-0.3,0-0.7,0.5-0.8c0.4-0.1,0.4-0.5,0.7-0.8c0.6-0.6,1-1.3,1.5-1.9
		c0.1-0.2,0.3-0.4,0.5-0.3c0.1,0.4-0.2,0.8-0.2,1.2c0,0.2-0.3,0.4-0.5,0.6c-0.2,0.2-0.3,0.3-0.3,0.6c0.1,0.3-0.3,0.3-0.4,0.5
		c-0.3,0.6-0.6,1.2-1.3,1.6c-0.2,0.1-0.1,0.3-0.1,0.5C48.8,30.2,48.8,30.1,48.7,30.1z"/>
	<path class="st10" d="M53.5,24.3c0.2-0.8,0.5-1.6,0.6-2.4c0-0.2,0.1-0.4,0-0.6l0,0c0.2,0,0.2-0.2,0.3-0.3l0,0
		c0.3,0.1,0.1,0.3,0.2,0.5c-0.1,0.6-0.3,1.2-0.4,1.8c0,0.1-0.1,0.1-0.1,0.2c-0.3,0.1-0.1,0.5-0.3,0.7C53.6,24.3,53.6,24.3,53.5,24.3
		z"/>
	<path class="st10" d="M53.3,24.7c0-0.1,0.1-0.3,0.2-0.4C53.5,24.4,53.7,24.7,53.3,24.7z"/>
	<path class="st8" d="M50.5,29.2c-0.1,0-0.2,0-0.1-0.1c0.1-0.2,0.2-0.1,0.3-0.1C50.6,29,50.5,29.1,50.5,29.2z"/>
	<path class="st11" d="M47,32c0-0.1,0-0.2,0.1-0.2c0,0,0.1,0,0.1,0.1C47.1,32,47.1,32,47,32C47,32,47,32,47,32z"/>
	<path class="st11" d="M47,32.2c-0.1,0-0.2-0.1-0.2-0.2c0.1,0,0.1,0,0.2,0c0,0,0,0,0,0C47,32.1,47,32.1,47,32.2z"/>
	<path class="st11" d="M49.7,33.9c-0.1,0-0.2,0.2-0.3,0.2c0-0.1,0-0.2,0.1-0.3c0.4-0.2,0.8-0.6,1.3-0.8c-0.2,0.3-0.7,0.4-0.9,0.8
		C49.8,33.9,49.7,33.9,49.7,33.9z"/>
	<path class="st11" d="M50.8,33C50.8,33,50.8,33.1,50.8,33C50.8,33.1,50.8,33,50.8,33z"/>
	<path class="st11" d="M49.3,34.2C49.3,34.2,49.3,34.2,49.3,34.2C49.3,34.1,49.3,34.1,49.3,34.2C49.3,34.2,49.3,34.2,49.3,34.2z"/>
	<path class="st7" d="M44.4,33.2C44.4,33.2,44.4,33.2,44.4,33.2C44.4,33.3,44.3,33.2,44.4,33.2z"/>
	<path class="st7" d="M44.4,33.3C44.5,33.4,44.5,33.4,44.4,33.3C44.5,33.4,44.4,33.4,44.4,33.3z"/>
	<path class="st9" d="M45.8,31.4c0.2,0,0.3,0.3,0.6,0.3c0,0,0.1,0.2,0,0.2c-0.1,0.1-0.2,0.1-0.2,0.2C45.9,31.9,45.8,31.7,45.8,31.4z
		"/>
	<path class="st2" d="M48.4,35.4C48.4,35.4,48.3,35.5,48.4,35.4c-0.1,0.1-0.1,0-0.1,0C48.2,35.3,48.3,35.3,48.4,35.4
		C48.3,35.3,48.4,35.4,48.4,35.4z"/>
	<path class="st2" d="M43.3,26.8c0.1,0,0.1,0.1,0.1,0.2C43.2,26.9,43.2,26.9,43.3,26.8z"/>
	<path class="st2" d="M49.7,33.9c0-0.1,0.1-0.1,0.2-0.1C49.9,34.1,49.7,33.9,49.7,33.9z"/>
	<path class="st4" d="M41.3,27.1c-0.9-1.7-1.8-3.4-2.6-5.2c0.2-0.3-0.1-0.3-0.3-0.4c0,0,0,0,0,0c0-0.3,0.1-0.6,0.2-0.9
		c0.1-0.2,0.3-0.1,0.4-0.3c0.1-0.5,0.6-0.4,1-0.6c0.1,0,0.1,0.1,0.1,0.1c-0.2,0.1,0,0.3,0,0.4c-0.4-0.1-0.7,0.2-0.9,0.6
		c-0.1,0.3-0.1,0.7,0,1c0.4,0.6,0.6,1.3,0.9,2c0.3,0.7,0.5,1.4,0.9,2C41.1,26.3,41.4,26.6,41.3,27.1z"/>
	<path class="st12" d="M41.9,28.4C41.8,28.4,41.8,28.4,41.9,28.4C41.9,28.3,41.9,28.4,41.9,28.4z"/>
	<path class="st11" d="M44.7,34.4C44.6,34.4,44.6,34.4,44.7,34.4c-0.1,0.1-0.1,0.1-0.1,0C44.5,34.4,44.6,34.4,44.7,34.4
		C44.6,34.3,44.6,34.4,44.7,34.4z"/>
	<path class="st11" d="M44.8,34.7C44.8,34.7,44.8,34.7,44.8,34.7C44.8,34.7,44.8,34.8,44.8,34.7C44.8,34.8,44.8,34.7,44.8,34.7
		C44.8,34.7,44.8,34.7,44.8,34.7z"/>
	<path class="st14" d="M40,19.8c0-0.1,0-0.2-0.1-0.1c-0.3,0.2-0.8,0.1-1,0.6c0,0.2-0.3,0.1-0.4,0.3c-0.1,0.3-0.2,0.6-0.2,0.9
		c-0.5-0.9-1-1.8-1.4-2.8c0-0.2,0-0.3-0.1-0.4c0-0.1,0-0.2,0-0.2c0.4,0.2,0.2-0.2,0.3-0.3c0-0.2,0.1-0.3,0.3-0.3
		c0.3,0,0.4-0.2,0.5-0.5c0.1-0.1,0.1-0.2,0.2-0.3c0.5-0.6,1.1-1.2,1.7-1.8c0.5-0.6,1.1-1.2,1.5-1.9c0.1-0.1,0.2-0.2,0.1-0.4
		c-0.5-0.7-1.4-1-2.2-1.1c-1.4-0.1-2.8,0-4.1,0.5c-0.5,0.2-1.1,0-1.4-0.3c-0.2-0.2-0.1-0.5-0.2-0.8C33.4,10,32.4,9,31.7,8.9
		c0-0.2,0-0.5,0-0.7c0.3,0.3,0.7,0.5,1,0.8c0.3,0.2,0.6,0.3,0.7,0.6c0,0.2,0.1,0.3,0.3,0.3l0,0c0,0.2,0,0.4,0,0.6
		c0,0.7,0.4,1.1,1.1,0.9c0.3-0.1,0.6-0.1,0.9-0.2c0.5-0.1,1-0.3,1.6-0.3c0.5,0,1,0,1.5,0c0.2,0,0.3,0,0.5,0.1
		c0.5,0.1,1.1,0.4,1.6,0.4l0,0c0,0.2,0.2,0.2,0.4,0.3c0.4,0.1,0.7,0.2,1.1,0.4c0.2,0.1,0.4,0.2,0.6,0.2c0,0.2,0.1,0.2,0.3,0.2l0,0
		c0,0.1,0.1,0.2,0.2,0.2c0.1,0,0.2,0,0.3,0c0,0.2,0.2,0.2,0.4,0.2l0,0c0.1,0.3,0.4,0.1,0.6,0.2c0.1,0,0.1,0,0.2,0
		c0.5,0.4,1.2,0.4,1.8,0.7c0.1,0.1,0.4,0,0.4,0.2c0.1,0.2,0,0.5-0.1,0.7c-0.6,0.8-1.3,1.5-1.9,2.3c-0.3,0.4-0.8,0.6-0.8,1.2
		c0,0.1-0.1,0.2-0.3,0.2c-0.1,0-0.3-0.1-0.4,0.1c0.1,0.2,0.3,0.1,0.3,0.3c-0.5,0-0.9,0-1.4,0c-0.8,0.1-1.6,0.3-2.3,0.9
		C40.2,19.7,40.1,19.7,40,19.8z"/>
	<path class="st12" d="M47.4,20.6c-0.3,0-0.2-0.2-0.2-0.4c0-0.1,0-0.2,0.1-0.2c0-0.1,0.1-0.2,0.1-0.2h0c0,0,0,0,0,0c0,0-0.1,0-0.1,0
		c0,0,0,0,0,0c0,0,0,0,0,0h0c-0.2,0-0.5-0.1-0.7-0.3c-0.6-0.1-1.1-0.5-1.8-0.6c-0.1-0.1-0.3,0-0.4-0.1c-0.1,0-0.2,0-0.3,0
		c-0.5,0-0.9,0-1.4,0c-0.4,0-0.8,0.1-1.2,0.3c-0.2,0.1-0.4,0.1-0.5,0.2c0,0,0,0,0,0c-0.2,0.1-0.4,0.2-0.5,0.3v0c0,0,0,0.1,0,0.1
		c0,0.1,0,0.1,0.1,0.2c0,0.1,0.1,0.2,0.2,0.2c0,0,0.1,0.1,0.1,0.2c0.4,0.8,0.8,1.5,1.1,2.2l1.1,2.2c0.1,0,0.1,0,0.2,0c0,0,0,0,0,0
		c0.1,0,0.1,0,0.2-0.1c0,0,0.1,0,0.1-0.1c0,0,0.1,0,0.1,0c0,0,0,0,0,0c0.1,0.1,0,0.1,0,0.2c0,0,0,0-0.1,0c0,0-0.1,0-0.1,0.1
		c0,0-0.1,0.1-0.1,0.1c0,0,0,0.1,0,0.1c0.1,0.1,0.2,0,0.2,0c0.1-0.1,0.2-0.1,0.2,0c0.1,0.1,0,0.2-0.1,0.2c-0.2,0.1-0.2,0.3-0.2,0.4
		c0.1,0,0.2-0.1,0.3-0.1c0.4,0.1,0.4-0.1,0.4-0.4c0-0.4,0.1-0.7,0.2-1c0-0.1,0.1-0.2,0.3-0.1c0.2,0.2,0.4,0,0.4-0.2
		c0.1-0.2,0.2-0.5-0.2-0.5c-0.2,0.3-0.2,0.3-0.5,0.1c0.2-0.1,0.3,0,0.5-0.1c0,0,0-0.1,0-0.1c-0.5-0.3-0.5-0.6-0.3-1.1
		c0,0,0-0.1-0.1-0.1c0-0.1-0.1-0.1-0.1-0.2c0,0,0,0,0,0c0,0,0-0.1,0-0.2c0,0-0.1,0-0.1,0s0,0,0,0c0,0,0,0,0,0c0,0,0,0,0,0
		c0,0,0,0,0,0c0.1-0.1,0.3-0.1,0.4,0c0,0,0.1,0,0.1,0.1c0,0,0,0.1,0.1,0.1h0c0.1,0,0.2,0,0.2,0c0.1,0,0.1,0,0.2,0.1c0,0,0,0,0,0.1h0
		c0,0,0.1,0,0.1,0c0.2-0.1,0.4-0.1,0.4,0.2c0,0.2,0.1,0.2,0.2,0.2c0,0,0,0,0,0s0,0,0,0h0c0.1,0,0.2,0,0.2,0c0,0,0.1,0,0.1,0
		s0.1,0,0.1,0c0.1,0,0.1,0,0.2-0.1c0.1,0,0.1-0.1,0.1-0.1c0,0,0-0.1,0.1-0.1c0-0.1,0-0.1,0.1-0.2c0-0.1,0.1-0.1,0.1-0.2
		c0,0,0.1-0.1,0.1-0.1c0,0,0,0,0,0c0,0,0.1,0,0.1-0.1c0.2,0,0.2-0.2,0.3-0.4C47.7,20.7,47.5,20.7,47.4,20.6z M45.7,21.5
		C45.7,21.5,45.6,21.6,45.7,21.5c-0.1,0-0.1,0-0.1,0s0,0,0-0.1c0-0.1,0-0.1,0.1-0.1c0.1,0,0.1,0,0.1,0.1
		C45.7,21.5,45.7,21.5,45.7,21.5z M45.9,20.6c-0.1,0-0.1,0-0.1-0.1c0,0,0.1,0,0.1,0c0,0,0,0,0.1,0c0,0,0,0,0,0c0,0,0,0,0.1,0
		c0,0,0,0,0,0c0,0,0,0,0,0C46,20.6,46,20.6,45.9,20.6z"/>
	<path class="st13" d="M42.9,24.7c0.1,0,0.1,0,0.2,0c0.2,0,0.3-0.3,0.5-0.1c0.2,0.2-0.2,0.2-0.2,0.4c0,0,0,0.1,0,0.1
		c0.1,0.1,0.2,0,0.2,0c0.1-0.1,0.2-0.1,0.2,0c0.1,0.1,0,0.2-0.1,0.2c-0.2,0.1-0.2,0.3-0.2,0.4c-0.3-0.1-0.2-0.6-0.5-0.7
		C42.9,24.9,42.9,24.8,42.9,24.7z"/>
	<path class="st9" d="M42.7,25.1C42.7,25.1,42.7,25.1,42.7,25.1C42.7,25.1,42.7,25.1,42.7,25.1C42.7,25.1,42.7,25.1,42.7,25.1z"/>
	<path class="st15" d="M31.7,8.9c0.7,0.1,1.7,1.2,1.8,1.8c0,0.3,0,0.5,0.2,0.8c0.3,0.3,0.9,0.5,1.4,0.3c1.3-0.5,2.7-0.6,4.1-0.5
		c0.8,0.1,1.6,0.3,2.2,1.1c0.1,0.2,0,0.3-0.1,0.4c-0.5,0.7-1,1.3-1.5,1.9c-0.5,0.6-1.1,1.2-1.7,1.8C38,16.7,38,16.9,37.9,17
		c-0.1,0.2-0.3,0.4-0.5,0.5c-0.2,0-0.2,0.1-0.3,0.3c0,0.1,0.2,0.5-0.3,0.3c-0.1,0-0.1,0.1,0,0.2c0.1,0.1,0.2,0.3,0.1,0.4
		c-0.3-0.2-0.4-0.6-0.5-0.9c-0.9-1.8-1.8-3.6-2.7-5.4c-0.3-0.6-0.7-1.1-1.3-1.5c-0.6-0.3-0.8-0.8-0.7-1.4
		C31.7,9.3,31.7,9.1,31.7,8.9z"/>
	<path class="st14" d="M51.6,8.5c-1.2,0.4-2.3,0.5-3.6,0.4c-1.8-0.2-3.4-0.9-5-1.5c-1.7-0.6-3.3-0.7-5.1-0.3c-0.4,0.1-0.7-0.2-1-0.4
		c0.3-0.1,0.6,0.3,0.8,0.1c0.3-0.2,0.6-0.1,0.8-0.1c1.4,0,2.8,0,4.1,0c0.1,0,0.3,0,0.4,0c0.7,0.3,1.5,0.4,2.2,0.3c0.2,0,0.3,0,0.5,0
		c0.4,0.2,0.8,0.3,1.2,0.3c0.8,0,1.5,0.2,2.3,0.4c0.2,0.1,0.3,0.3,0.6,0.2c0.2-0.1,0.4,0,0.5,0.1C50.7,8.6,51.2,8.5,51.6,8.5z"/>
	<path class="st7" d="M38.4,31.7c-0.2,0-0.4-0.2-0.5-0.3c-0.1-0.3-0.3-0.6-0.4-1c0-0.3-0.1-0.6-0.3-0.8c-0.1-0.2-0.4-0.1-0.4-0.3
		c0-0.5-0.3-0.9-0.5-1.4c-0.6-1.3-1.2-2.6-1.8-3.9c-0.2-0.4-0.3-0.7-0.7-1c0,0,0,0,0,0c0-0.2,0-0.3,0-0.5c-0.2-0.5-0.4-1.1-0.7-1.5
		c-0.5-1-0.8-2-1.4-3c-0.3-0.5-0.4-1.1-0.4-1.7c0-0.4,0-0.8,0-1.2c0-0.1,0-0.2,0-0.2c0.2,0.1,0.2,0.3,0.3,0.5
		c0.6,1.2,1.1,2.4,1.8,3.5c0,0,0,0,0,0c0,0,0,0.1,0,0.1c-0.1,0-0.2,0-0.2,0.1c-0.1,0.3,0.4,0.7-0.1,0.9c0,0,0.1,0.1,0.1,0.1
		c0.5,1,0.9,2.1,1.3,3.2c0.5,1.1,1,2.2,1.5,3.4c0.3,0.6,0.7,1.2,1,1.9c0.2,0.4,0.3,0.8,0.6,1.1c0,0.1,0,0.1,0,0.2
		c0,0.1,0.1,0.2,0.2,0.2c0,0.3,0.3,0.5,0.1,0.9c0,0,0,0.1,0.1,0.1C38.6,31,38.5,31.3,38.4,31.7z"/>
	<path class="st14" d="M35,28.9c-0.8-0.8-1.4-1.7-2-2.7c-0.3-0.6-0.7-1.1-0.8-1.8c0.2-0.5,0.4-0.9,0.6-1.4c0.1-0.2,0.1-0.3,0-0.5
		c-0.2-0.4-0.5-0.9-0.4-1.4c0.3,0.2,0.3,0.6,0.4,0.8c0.3,0.6,0.6,1.1,0.8,1.7c0.2,0.9,0.8,1.6,1,2.5c0.1,0.7,0.9,1.2,0.4,2
		c0,0,0,0.1,0,0.1C35.4,28.5,35.1,28.7,35,28.9z"/>
	<path class="st2" d="M54.3,18c-0.2,0.4-0.6,0.5-1,0.7c-0.2,0-0.2-0.1-0.2-0.2c0-0.3,0-0.7,0-1c0.1-1.1-0.2-2.2,0.2-3.2
		c0-0.1,0-0.2,0-0.2c-0.3-0.5-0.2-1.1-0.1-1.7c0-0.2-0.1-0.5-0.3-0.6c-0.3-0.1-0.3-0.3-0.3-0.6c0.1-0.1,0.1-0.1,0.2-0.2
		c0.2-0.1,0.5-0.2,0.7-0.4c0.4-0.2,0.4,0.1,0.4,0.3c0.1,1.4,0.2,2.9,0.3,4.3C54.2,16.2,54.1,17.1,54.3,18z"/>
	<path class="st1" d="M35,28.9c0.1-0.2,0.3-0.4,0-0.6c0,0,0-0.1,0-0.1c0.4-0.8-0.3-1.3-0.4-2c-0.2-0.9-0.8-1.6-1-2.5
		c-0.1-0.6-0.5-1.1-0.8-1.7c-0.1-0.3-0.1-0.6-0.4-0.8c0,0,0,0,0,0c-0.1-0.2,0.1-0.5-0.2-0.6l0,0c0-0.1,0.1-0.3-0.2-0.4
		c-0.1-0.6-0.7-0.9-0.5-1.6c0.3,0.3,0.5,0.6,0.6,1c0.4,1,1,2,1.4,3c0.1,0.1,0.1,0.3,0.3,0.3c0,0,0,0,0,0c0,0.3,0.2,0.6,0.3,0.9
		c0.2,0.6,0.5,1.2,0.8,1.8c0.5,1,0.9,2,1.3,3c0.3,0.7,0.5,1.5,0.9,2.2C36.3,30.3,35.7,29.6,35,28.9z"/>
	<path class="st1" d="M51.6,8.5c-0.4,0-0.9,0.1-1.2-0.4C50.3,8,50.1,8,49.9,8c-0.3,0.1-0.4-0.2-0.6-0.2c-0.8-0.2-1.5-0.4-2.3-0.4
		c-0.4,0-0.8-0.1-1.2-0.3c-0.2-0.1-0.3-0.1-0.5,0c-0.8,0-1.5-0.1-2.2-0.3c-0.1,0-0.3,0-0.4,0c-1.4,0-2.8,0-4.1,0
		c-0.3,0-0.6,0-0.8,0.1c-0.3,0.2-0.5-0.2-0.8-0.1c-0.1-0.1-0.3-0.1-0.4-0.2c0.5-0.2,1.1-0.1,1.7-0.1c1.8,0,3.6-0.1,5.3,0.2
		c0.7,0.1,1.4,0.3,2.1,0.2c0,0,0.1,0,0.1,0c0.8,0.4,1.7,0.3,2.5,0.5c0.4,0.1,0.8,0.2,1.1,0.2c0.5,0,0.9,0.2,1.4,0.2
		c0.4,0,0.9,0.1,1.1,0.6c0,0,0.1,0,0.2,0.1c0,0,0.1,0,0.1,0C52,8.5,51.8,8.5,51.6,8.5z"/>
	<path class="st9" d="M33.6,18.1c0.4,0.6,0.7,1.3,1,1.9c0.4,0.7,0.8,1.5,1.1,2.2c0.3,0.7,0.6,1.4,1,2.1c0.4,0.8,0.7,1.7,1.2,2.4
		c0,0,0,0.1,0,0.1c-0.2,0.1-0.2,0.3-0.1,0.4c0.1,0.1,0.2,0.3-0.1,0.4c-0.2-0.2-0.3-0.5-0.4-0.8c-0.4-0.9-0.9-1.8-1.3-2.7
		c-0.5-1.1-1.1-2.2-1.6-3.3c0-0.3,0.1-0.6-0.4-0.7l0,0c0-0.1,0-0.3-0.2-0.3c0,0,0-0.1,0-0.1c0,0,0.2,0.1,0.1-0.1
		c-0.1-0.2-0.3-0.4-0.4-0.7c0-0.2-0.1-0.2-0.3-0.3c0,0,0,0,0,0C33.5,18.5,33.4,18.2,33.6,18.1z"/>
	<path class="st7" d="M31.7,7.8c0-0.5,0-0.9,0-1.4c0.5,0.3,0.9,0.7,1.4,1c0.5,0.5,1.1,0.8,1.6,1.3c0.3,0.2,0.4,0.5,0.4,0.8
		c0,0.5,0,0.9,0,1.4c-0.2,0.1-0.5,0.2-0.5-0.1c-0.1-0.5-0.4-0.9-0.7-1.3c-0.3-0.5-0.9-0.8-1.3-1.2C32.4,8.1,32.1,7.7,31.7,7.8z"/>
	<path class="st3" d="M53.7,7.6C53.5,8,53.2,8,52.9,8.1c-0.4-0.5-0.7-1.1-1.5-1c0,0-0.1,0-0.1,0c-0.2-0.4-0.6-0.3-0.9-0.4
		c-0.2,0-0.5,0.1-0.7-0.1c-0.3-0.3-0.6-0.3-0.9-0.2c-0.2,0-0.4,0-0.6,0c-0.7-0.1-1.3-0.4-1.9-0.3c-0.4,0.1-0.2-0.2-0.2-0.3
		c0.1,0,0.1,0,0.2,0c0,0.1,0,0.1,0.1,0.1c0.1,0,0.1-0.1,0.1-0.1c0.1,0,0.1,0,0.2,0c0.1,0.1,0.1,0.1,0.2,0.1c0.1,0,0.2,0,0.2,0
		c0.1,0.1,0.2,0.3,0.3,0c0.1,0,0.1,0,0.2,0c1,0.1,1.9,0.2,2.9,0.4c0.8,0.1,1.6,0.3,2.4,0.4c0.1,0,0.3,0,0.4,0
		c0.3,0.1,0.4,0.3,0.4,0.6C53.5,7.3,53.5,7.5,53.7,7.6z"/>
	<path class="st15" d="M31.5,18.5c-0.1,0.6,0.4,1,0.5,1.6c0,0.1-0.1,0.3,0.2,0.4c0,0,0,0,0,0c0.1,0.2-0.1,0.5,0.2,0.6c0,0,0,0,0,0
		c-0.1,0.5,0.2,1,0.4,1.4c0.1,0.2,0.1,0.3,0,0.5c-0.2,0.5-0.4,0.9-0.6,1.4c-0.5-1.1-0.8-2.3-0.9-3.5c-0.1-1-0.2-1.9-0.2-2.9
		c0-0.1-0.1-0.3,0.1-0.4c0.2,0.1,0.1,0.2,0.1,0.4C31.2,18.2,31.2,18.4,31.5,18.5L31.5,18.5z"/>
	<path class="st5" d="M38.3,6.4c-0.6,0-1.1-0.1-1.7,0.1c-0.3-0.1-0.5-0.4-0.8-0.5C36,5.9,36.2,6,36.4,6c1.3-0.2,2.6-0.3,3.9-0.3
		c1.6-0.1,3.1,0,4.7,0c0.1,0,0.3-0.1,0.4,0.1c-1.5,0-3-0.1-4.6,0.2C41,6,41,6,41.1,6c1.1-0.1,2.2,0.1,3.3,0.1c0.3,0,0.5,0.1,0.6,0.4
		c-0.8,0-1.6,0-2.4-0.1c-1.3-0.1-2.7,0-4,0C38.5,6.2,38.3,6.2,38.3,6.4z"/>
	<path class="st9" d="M41.8,9.6c0.5,0,0.9,0.3,1.3,0.4c0.9,0.3,1.8,0.8,2.7,1.1c0.6,0.2,1.3,0.4,2,0.4c0,0.3,0.1,0.4,0.3,0.3
		c0.5,0,1.1,0,1.6,0c-0.1,0.1-0.2,0.1-0.4,0.1c-0.1,0-0.1,0-0.2,0c-0.5,0-0.9,0-1.4,0c-0.1,0-0.3,0-0.4,0c-0.1,0-0.1,0-0.2-0.1
		c0,0-0.1,0-0.1,0c-0.1,0-0.1,0-0.2,0c-1.1-0.2-2.2-0.6-3.3-1c-0.7-0.3-1.3-0.6-2.1-0.7C41.7,9.9,41.7,9.7,41.8,9.6z"/>
	<path class="st6" d="M37.1,30.8c-0.4-0.7-0.6-1.5-0.9-2.2c-0.5-1-0.8-2-1.3-3c-0.3-0.6-0.6-1.2-0.8-1.8c-0.1-0.3-0.3-0.6-0.3-0.9
		c0.3,0.3,0.5,0.7,0.7,1c0.6,1.3,1.2,2.6,1.8,3.9c0.2,0.4,0.5,0.9,0.5,1.4c0,0.2,0.3,0.2,0.4,0.3c0.1,0.3,0.2,0.6,0.3,0.8
		c0.1,0.4,0.3,0.6,0.4,1c-0.1-0.1-0.2-0.1-0.3-0.2C37.5,31,37.2,31,37.1,30.8z"/>
	<path class="st9" d="M54.3,18c-0.2-0.9-0.1-1.8-0.1-2.7c-0.1-1.4-0.2-2.9-0.3-4.3c0-0.2-0.1-0.5-0.4-0.3c0.1-0.3,0.7-0.6,0.9-0.4
		c0,0.6,0,1.1,0.1,1.7c0,0.1,0,0.3,0,0.4c0.1,1.4,0.1,2.8,0.1,4.2c0,0.4-0.1,0.9,0,1.3C54.6,18.2,54.4,18,54.3,18z"/>
	<path class="st6" d="M31.7,7.8c0.4-0.1,0.6,0.3,0.8,0.4c0.4,0.4,1,0.7,1.3,1.2c0.3,0.4,0.6,0.8,0.7,1.3c0.1,0.3,0.3,0.2,0.5,0.1
		c0.1-0.1,0.3-0.2,0.4-0.3c0.2-0.1,0.4-0.1,0.5-0.2c0.1,0,0.1,0,0.2,0.1c0.4,0.2,0.7-0.1,1.1-0.1c0.8,0,1.6-0.1,2.3,0.2
		c0,0.1,0.1,0.1,0.1,0.2c-0.5,0-1,0-1.4-0.2c-0.5-0.1-1,0.1-1.5,0.2c-0.6,0.1-1.3,0.1-1.8,0.4c-0.4,0.3-0.6,0-0.8-0.3
		c-0.1-0.2-0.3-0.4-0.2-0.7c0-0.1,0-0.3-0.2-0.3c0,0,0,0,0,0c0-0.3-0.1-0.4-0.3-0.3c-0.1-0.3-0.5-0.5-0.7-0.6
		c-0.4-0.2-0.7-0.5-1-0.8C31.7,8,31.7,7.9,31.7,7.8z"/>
	<path class="st10" d="M33.6,18.1c-0.3,0.2-0.1,0.5-0.2,0.7c-0.7-1.1-1.2-2.4-1.8-3.5c-0.1-0.2-0.1-0.4-0.3-0.5c0-0.4,0-0.8,0-1.1
		C32.2,15.1,33,16.5,33.6,18.1z"/>
	<path class="st11" d="M47,5.8c-0.1,0-0.2,0-0.2,0c0,0,0,0,0-0.1c0-0.1,0.1-0.2,0.1-0.4c1,0,2,0,2.9,0.2c0.6,0.1,1.3,0.2,1.9,0.5
		c0.1,0.1,0.3,0,0.5,0c0.1,0,0.4-0.2,0.3,0.2c0,0.1,0.1,0,0.2,0c0.3-0.1,0.1,0.1,0.2,0.2c-0.8-0.1-1.6-0.3-2.4-0.4
		c-1-0.1-1.9-0.2-2.9-0.4c-0.1,0-0.1,0-0.2,0C47.2,5.8,47.1,5.8,47,5.8z"/>
	<path class="st10" d="M45.4,5.7c-0.1-0.1-0.3-0.1-0.4-0.1c-1.6,0-3.1,0-4.7,0c-1.3,0-2.6,0.1-3.9,0.3C36.2,6,36,5.9,35.8,6
		c-0.1-0.1-0.2-0.2-0.4-0.3c1.3-0.2,2.5-0.3,3.6-0.3c0.7-0.1,1.4,0.3,2,0c0.1,0,0.2,0,0.3,0c0.3,0.2,0.6,0.1,0.8,0.1
		c1,0,2.1,0,3.1,0c0.1,0,0.3-0.1,0.4,0.2C45.6,5.7,45.5,5.7,45.4,5.7z"/>
	<path class="st10" d="M36.1,10.5c-0.2,0.1-0.4,0.1-0.5,0.2c0,0,0-0.1,0-0.1c0.7-0.5,1.5-0.7,2.3-0.9c0.8-0.2,1.6-0.2,2.4-0.2
		c0.5,0,1,0.1,1.5,0.2c-0.1,0.2-0.1,0.3-0.2,0.5c-0.3-0.1-0.6-0.2-0.9-0.2c-0.5-0.1-1-0.2-1.4-0.1c0,0-0.1,0-0.1,0
		C38.1,9.8,37.1,10,36.1,10.5z"/>
	<path class="st9" d="M45.7,5.7c-0.1-0.2-0.2-0.2-0.4-0.2c-1,0-2.1,0-3.1,0c-0.3,0-0.6,0.1-0.8-0.1c-0.1-0.1-0.2-0.1-0.3,0
		c-0.7,0.3-1.4-0.1-2,0c0.5-0.1,1-0.1,1.5-0.2c1.5,0,3,0,4.5,0c0.6,0,1.1,0.2,1.7,0.2c0,0.1-0.1,0.2-0.1,0.4c-0.1,0-0.1,0-0.2,0
		c-0.1,0-0.1,0-0.2,0c-0.1,0-0.1,0-0.2,0c-0.1,0-0.1,0-0.2,0C45.9,5.7,45.8,5.7,45.7,5.7z"/>
	<path class="st6" d="M31.3,18c0-0.1,0.1-0.3-0.1-0.4c0-0.7,0-1.5,0-2.2c0-0.1-0.1-0.3,0.1-0.4c0,0.4,0,0.8,0,1.2
		c-0.1,0.6,0.1,1.2,0.4,1.7c0.5,1,0.8,2,1.4,3c0.3,0.5,0.5,1,0.7,1.5c0.1,0.2,0,0.3,0,0.5c-0.2,0-0.3-0.2-0.3-0.3c-0.4-1-1-2-1.4-3
		c-0.1-0.4-0.3-0.7-0.6-1c0,0,0,0,0,0C31.5,18.3,31.7,18.1,31.3,18z"/>
	<path class="st11" d="M35.6,10.5c0,0,0,0.1,0,0.1c-0.1,0.1-0.3,0.2-0.4,0.3c0-0.5,0-0.9,0-1.4c0-0.3-0.1-0.6-0.4-0.8
		c-0.5-0.4-1.1-0.8-1.6-1.3c0-0.4-0.4-0.6-0.4-1c0.3,0,0.5,0.3,0.7,0.5C34,7.3,34.5,7.8,35,8.3c0.2,0.2,0.2,0.3,0.2,0.5
		c0,0.5,0.2,1,0.1,1.5C35.2,10.7,35.4,10.6,35.6,10.5z"/>
	<path class="st5" d="M51.3,7.1C51.3,7.1,51.3,7.1,51.3,7.1c0.1,0.1,0.1,0.1,0.2,0.2c0.5,0.1,0.8,0.3,1,0.8c0,0,0.1,0,0.1,0.1
		c-0.1,0.1-0.3,0.2-0.4,0.2c0,0-0.1,0-0.1,0c0-0.3-0.1-0.5-0.4-0.7c-0.2-0.1-0.4-0.2-0.7-0.2c-0.4-0.1-0.8-0.1-1.2-0.2
		c-0.6-0.2-1.2-0.1-1.8-0.3c-0.4-0.2-0.9-0.2-1.4-0.2c-0.1,0-0.1-0.1-0.1-0.2c0.9-0.1,1.8,0.3,2.7,0.2c0,0,0.1,0,0.1,0
		C49.9,7.1,50.6,7.1,51.3,7.1z"/>
	<path class="st11" d="M37.9,27.7c0.3-0.1,0.1-0.2,0.1-0.4c-0.1-0.2-0.1-0.3,0.1-0.4c0.2,0.2,0.3,0.6,0.5,0.9c0,0.1,0.3,0.1,0.1,0.3
		c-0.1,0-0.1,0-0.2,0c0.1,0.1,0.1,0.2,0.2,0.1c0.4,0.4,0.7,0.9,0.8,1.5c-0.1,0-0.2,0-0.2,0.2c0.1,0.2,0.2,0.1,0.3,0.1
		c0,0,0,0.1,0,0.1c-0.2,0.1-0.2,0.3-0.2,0.5c-0.5-0.8-0.9-1.7-1.3-2.6c0.1,0,0.2,0,0.2-0.2C38.2,27.8,38.1,27.9,37.9,27.7
		C37.9,27.8,37.9,27.8,37.9,27.7z"/>
	<path class="st11" d="M49.8,11.9c-0.5,0-1.1,0-1.6,0c-0.3,0-0.4-0.1-0.3-0.3c0.9,0.1,1.8,0,2.7,0c0.1,0,0.4,0.1,0.3-0.2
		c0-0.1,0.1-0.1,0.1,0c0.3,0.1,0.5,0.2,0.8-0.1c0.3-0.3,0.7-0.1,1-0.2c-0.1,0.1-0.1,0.1-0.2,0.2c-0.1,0-0.2,0.1-0.4,0.1
		C51.4,11.5,50.6,11.8,49.8,11.9z"/>
	<path class="st10" d="M32.7,6.4c0.1,0.4,0.5,0.6,0.4,1c-0.5-0.2-0.9-0.7-1.4-1c0-0.2,0-0.3,0.2-0.4c0.2-0.1,0.4,0,0.5,0.2
		C32.4,6.4,32.5,6.4,32.7,6.4L32.7,6.4z"/>
	<path class="st9" d="M53.7,7.6c-0.1-0.1-0.1-0.3-0.1-0.5c0.1-0.3,0-0.5-0.4-0.6c0.2,0,0.3-0.1,0.4-0.2c0.1-0.1,0.2-0.1,0.3-0.1
		c0.1,0.1,0.2,0.1,0.2,0.2c-0.1,0.4,0,0.9-0.2,1.3C53.8,7.8,53.8,7.6,53.7,7.6z"/>
	<path class="st7" d="M52.6,8.2c-0.1,0-0.1,0-0.1-0.1c-0.1-0.5-0.5-0.7-1-0.8c-0.1,0-0.1-0.1-0.1-0.2c0.8-0.1,1.1,0.5,1.5,1
		C52.8,8.2,52.7,8.2,52.6,8.2z"/>
	<path class="st13" d="M54.4,11.9c-0.1-0.5-0.1-1.1-0.1-1.7c0.2,0,0.2,0.1,0.2,0.3C54.5,11,54.6,11.5,54.4,11.9z"/>
	<path class="st13" d="M39.6,30.1c-0.1,0-0.3,0.1-0.3-0.1c0-0.1,0.1-0.1,0.2-0.2c0.3-0.1,0.3-0.3,0.5-0.6
		C39.9,29.6,39.9,29.9,39.6,30.1z"/>
	<path class="st13" d="M55,11.6c0.1,0.3,0.1,0.5,0.1,0.6c0,0.1-0.1,0.2-0.2,0.2c-0.1,0-0.1-0.1-0.1-0.2C54.7,11.9,54.9,11.8,55,11.6
		z"/>
	<path class="st14" d="M38.4,21.5c0.2,0.1,0.5,0.1,0.3,0.4C38.5,21.8,38.4,21.7,38.4,21.5z"/>
	<path class="st9" d="M38.6,28.3c-0.1,0.1-0.1-0.1-0.2-0.1c0.1,0,0.1,0,0.2,0C38.6,28.2,38.6,28.3,38.6,28.3z"/>
	<path class="st11" d="M32.7,6.4c-0.1,0-0.3,0-0.3-0.2C32.5,6.2,32.6,6.3,32.7,6.4z"/>
	<path class="st13" d="M34.9,32.7c-0.1,0-0.2-0.1-0.2-0.2C34.8,32.6,34.9,32.6,34.9,32.7z"/>
	<path class="st13" d="M54.1,9.8C54.1,9.8,54.1,9.8,54.1,9.8C54.1,9.8,54.1,9.9,54.1,9.8C54.1,9.9,54.1,9.9,54.1,9.8
		C54,9.8,54,9.8,54.1,9.8z"/>
	<path class="st6" d="M47.3,19.8c-0.1,0-0.2,0-0.2-0.1c0.3-0.2,0.6-0.1,0.8-0.1c0.2,0,0.5,0.1,0.2-0.3c-0.1-0.2,0.1-0.3,0.2-0.4
		c0.4-0.4,0.7-0.8,1.1-1.2c0.3-0.3,0.4-0.7,0.7-1c0.7-0.5,1-1.3,1.6-2c0.1-0.1,0.2-0.2,0.2-0.4c0-0.5,0-1.1,0-1.6
		c0-0.3-0.3-0.5-0.6-0.3c-0.1,0.1-0.2,0.2-0.3,0.2c-0.9,0.2-1.7,0.5-2.6,0.4c0-0.1,0.1-0.2,0.2-0.2c0.5,0.1,1-0.1,1.4-0.2
		c0.4-0.1,0.8-0.2,1.2-0.6c0,0,0-0.1,0-0.1c0.3,0,0.5,0.2,0.8,0.3c0.2,0.1,0.2,0.3,0.3,0.5c0.1,1.2-0.1,2.4-0.2,3.6
		c0,0.3-0.1,0.7-0.2,1c-0.1,0.5-0.5,0.8-0.8,1.2c-0.3,0.3-0.7,0.7-0.9,1.1c-0.2,0.2,0,0.3,0.2,0.3c-0.1,0.2-0.3,0-0.4,0.1
		c0-0.1,0-0.2-0.1-0.2c-0.2,0-0.2,0.2-0.2,0.3C48.9,20.2,48.1,20,47.3,19.8z"/>
	<path class="st7" d="M51.4,12C51.4,12.1,51.4,12.1,51.4,12c-0.7,0.2-1.4,0.4-2.1,0.6c-0.2,0.1-0.3,0.1-0.5,0.1
		c-1.2-0.1-2.4,0.2-3.6-0.3c-0.5-0.2-1.1-0.4-1.7-0.5c-0.4-0.1-0.8-0.4-1.3-0.4l0,0c0-0.2-0.2-0.2-0.4-0.2c-0.1,0-0.1,0-0.2,0
		c-0.1-0.3-0.3-0.4-0.6-0.3c-0.1,0-0.2,0-0.3,0c0-0.1,0-0.2,0-0.3c0.4,0,0.7,0.1,1.1,0.3c0.5,0.3,1,0.4,1.5,0.6
		c1.2,0.5,2.4,0.9,3.6,0.8c0.2,0,0.3,0,0.5,0c0.3,0.1,0.6,0.1,0.9,0c0.3-0.1,0.6-0.2,0.9-0.1c0.2,0.1,0.4,0,0.5-0.1
		c-0.1-0.1-0.3-0.1-0.3-0.2c0.1,0,0.3,0,0.4-0.1c0.9,0,1.6-0.3,2.4-0.6c0.1,0,0.2-0.1,0.4-0.1c0,0.2,0,0.5,0.3,0.6
		c0.2,0.1,0.3,0.4,0.3,0.6c0,0.6-0.2,1.1,0.1,1.7c0,0.1,0,0.2,0,0.2c-0.4,1.1-0.1,2.2-0.2,3.2c0,0.3,0,0.7,0,1c0,0.1,0,0.2,0.2,0.2
		c-0.2,0.2-0.4,0.2-0.6,0.4c-0.1,0-0.2,0-0.3,0c-0.1,0-0.2,0.1-0.3,0c-0.1-0.2,0.1-0.1,0.2-0.2c0.1,0,0.1-0.1,0.1-0.2
		c0.1-0.5,0.3-1,0.3-1.4c0.1-1.6,0-3.2,0-4.8c0-0.3-0.3-0.5-0.5-0.6C52,11.8,51.6,11.7,51.4,12z"/>
	<path class="st5" d="M51.4,12c0.3-0.4,0.6-0.2,0.9-0.1c0.2,0,0.5,0.2,0.5,0.6c0,1.6,0,3.2,0,4.8c0,0.5-0.2,1-0.3,1.4
		c0,0.1-0.1,0.1-0.1,0.2c-0.1,0.1-0.3,0-0.2,0.2c0.1,0.2,0.2,0.1,0.3,0c0.1,0,0.2,0,0.3,0c-0.6,0.3-1.2,0.6-1.8,0.8
		c-0.2,0-0.3,0.3-0.5,0.1c-0.2,0-0.3,0-0.2-0.3c0.3-0.4,0.6-0.7,0.9-1.1c0.3-0.4,0.7-0.7,0.8-1.2c0.1-0.3,0.2-0.7,0.2-1
		c0.1-1.2,0.3-2.4,0.2-3.6c0-0.2-0.1-0.4-0.3-0.5C51.9,12.2,51.7,12,51.4,12z"/>
	<path class="st10" d="M44.5,22.2c-0.1-0.2-0.2-0.3-0.2-0.5c0.1-0.2,0.3,0.1,0.4,0c0,0,0,0,0,0c0.1,0.2,0.3,0.2,0.4,0.2
		c0,0,0.1,0,0.1,0c0.1,0.2,0.3,0.1,0.4,0.2c0,0.2,0.2,0.2,0.3,0.2c0.8,0.3,1.6,0.6,2.5,0.6c0.7,0,1.5,0.1,2.2,0
		c0.3,0,0.5-0.1,0.8-0.1c-1.2,0.5-2.3,0.6-3.6,0.5c-1-0.1-2-0.4-3-0.8C44.8,22.3,44.7,22.2,44.5,22.2z"/>
	<path class="st11" d="M54.1,21.2L54.1,21.2C54,21.2,54,21.2,54.1,21.2c-0.1-0.1-0.1-0.1-0.2-0.2l0,0c0.1-0.3,0.2-0.4,0.4-0.2
		c0,0,0,0,0,0C54.2,20.9,54.1,21,54.1,21.2L54.1,21.2z"/>
	<path class="st5" d="M49.7,20.1c0-0.1,0-0.3,0.2-0.3c0.1,0,0.1,0.1,0.1,0.2C49.9,20.1,49.8,20.1,49.7,20.1z"/>
	<path class="st11" d="M53.9,21.1c0,0,0,0.1,0,0.1C53.9,21.2,53.8,21.2,53.9,21.1C53.9,21.1,53.9,21.1,53.9,21.1
		C53.9,21.1,53.9,21.1,53.9,21.1z"/>
	<path class="st11" d="M53.9,21.3C53.9,21.4,53.8,21.4,53.9,21.3C53.8,21.4,53.9,21.4,53.9,21.3z"/>
	<path class="st2" d="M52.7,22.2C52.6,22.2,52.6,22.3,52.7,22.2C52.6,22.2,52.6,22.2,52.7,22.2z"/>
	<path class="st3" d="M28,9.6c0.1,0,0.2,0,0.3,0c0,0.3,0.1,0.7-0.1,1C28.3,10.2,28,9.9,28,9.6z"/>
	<path class="st7" d="M28.4,8.3c0-0.3,0-0.6,0-0.9c0-0.1,0-0.3,0.2-0.3C28.4,7.5,28.6,7.9,28.4,8.3z"/>
	<path class="st2" d="M37.9,27.7C37.9,27.8,37.9,27.8,37.9,27.7c0.1,0.2,0.1,0.3,0.2,0.4c0.4,0.9,0.8,1.8,1.3,2.6c0,0,0,0,0,0
		c0,0.2,0.1,0.3,0.2,0.4c0.3,0.6,0.5,1.1,0.8,1.8c-0.6-0.2-1.1-0.5-1.5-0.8c-0.1-0.3-0.3-0.4-0.5-0.4c0,0,0,0,0,0
		c0.1-0.3,0.2-0.7-0.3-0.8c0,0-0.1-0.1-0.1-0.1c0.2-0.3-0.1-0.6-0.1-0.9c0-0.1-0.1-0.2-0.2-0.2c0-0.1,0-0.1,0-0.2
		c0-0.2,0.2-0.4,0.1-0.5c-0.4-0.5-0.5-1-0.5-1.6c0,0,0,0-0.1-0.1C37.1,27.3,37,27.2,37,27c0.1-0.2,0.3-0.1,0.4-0.1
		C37.6,27.2,37.7,27.5,37.9,27.7z"/>
	<path class="st7" d="M38.4,31.7c0.3,0,0.5,0.1,0.5,0.4C38.7,32,38.5,31.8,38.4,31.7z"/>
	<path class="st11" d="M39.6,31.1c-0.1-0.1-0.2-0.2-0.2-0.4C39.7,30.7,39.6,30.9,39.6,31.1z"/>
	<path class="st11" d="M40.3,33.3C40.3,33.3,40.3,33.4,40.3,33.3c-0.1,0.1-0.1,0.1-0.1,0C40.2,33.3,40.2,33.3,40.3,33.3
		C40.2,33.3,40.3,33.3,40.3,33.3z"/>
	<path class="st11" d="M39.8,31C39.8,31,39.8,31,39.8,31C39.8,31,39.8,31,39.8,31C39.8,31,39.8,31,39.8,31C39.8,31,39.8,31,39.8,31z
		"/>
	<path class="st7" d="M51.5,25.4c-0.3,0-0.4,0.2-0.5,0.3c-0.5,0.7-0.9,1.3-1.5,1.9c-0.2,0.3-0.3,0.7-0.7,0.8
		c-0.5,0.1-0.5,0.5-0.5,0.8c-0.3-0.5-0.5-1-0.9-1.4c0.1-0.2-0.2-0.4-0.2-0.6c0.2-0.2,0.4,0.2,0.6,0.1c-0.2-0.3,0-0.6,0.1-0.8
		c0.3-0.4,0.6-0.8,0.9-1.1c0.1-0.2,0.1-0.3-0.1-0.3c-0.5-0.1-1-0.3-1.5-0.4c-0.1,0-0.6,0.2-0.6-0.3c0.5,0,1-0.1,1.4,0.2
		c0.1,0,0.2,0,0.3,0c0.2-0.2,0.5-0.2,0.7-0.1c0.5,0,1-0.1,1.5-0.3c0.4-0.2,1,0.1,0.9,0.4C51.4,24.7,51.5,25,51.5,25.4L51.5,25.4z"/>
	<path class="st5" d="M46.8,24.3c-0.1,0.5,0.4,0.3,0.6,0.3c0.5,0,1,0.3,1.5,0.4c0.2,0.1,0.2,0.2,0.1,0.3c-0.3,0.4-0.6,0.7-0.9,1.1
		c-0.2,0.2-0.3,0.5-0.1,0.8c-0.3,0.1-0.4-0.3-0.6-0.1c-0.3-0.6-0.6-1.1-0.9-1.7c0-0.1,0-0.1-0.1-0.1c0,0,0-0.1,0-0.1
		c-0.1-0.1-0.1-0.3-0.2-0.4c-0.1-0.3-0.2-0.6-0.4-0.9c0.2,0,0.2-0.2,0.4-0.2c0,0.1,0.1,0.2,0.2,0.2c0,0,0,0,0,0
		c0.2,0.3,0.2,0.3,0.4,0.2C46.7,24.3,46.7,24.3,46.8,24.3C46.8,24.3,46.8,24.3,46.8,24.3z"/>
	<path class="st11" d="M46.1,25c0.2,0.1,0.2,0.2,0.2,0.4C46,25.4,46.1,25.2,46.1,25z"/>
	<path class="st11" d="M46.3,25.7C46.3,25.7,46.2,25.7,46.3,25.7C46.3,25.7,46.3,25.6,46.3,25.7C46.3,25.6,46.3,25.7,46.3,25.7
		C46.3,25.7,46.3,25.7,46.3,25.7z"/>
	<path class="st11" d="M46.4,25.4c0,0,0.1,0,0.1,0.1C46.4,25.5,46.4,25.5,46.4,25.4z"/>
	<path class="st3" d="M46.6,24.3c-0.1,0.2-0.2,0.1-0.4-0.2c0.2-0.2,0.4-0.2,0.8-0.1c0.5,0.2,1.2,0.2,1.7,0C49,24,49.3,24,49.5,24
		c0.3,0,0.6-0.1,0.9-0.2c0.2-0.1,0.5-0.3,0.9-0.2c0.1,0,0.4,0.1,0.5-0.2l0,0c0.7,0,0.8,0.2,0.6,0.8c-0.1,0.3-0.3,0.6-0.2,1
		c0.1,0.4-0.3,0.2-0.5,0.3c0-0.3-0.1-0.6,0.1-1c0.1-0.3-0.4-0.6-0.9-0.4c-0.5,0.2-1,0.3-1.5,0.3c-0.3,0-0.5-0.1-0.7,0.1
		c-0.1,0-0.2,0.1-0.3,0c-0.4-0.3-0.9-0.1-1.4-0.2c0,0,0,0,0,0c0,0,0-0.1-0.1-0.1C46.6,24.2,46.6,24.2,46.6,24.3z"/>
	<path class="st3" d="M51.7,23.3c-0.1,0-0.2,0.1-0.3-0.1c0,0,0-0.1,0.1-0.1C51.6,23.1,51.7,23.1,51.7,23.3L51.7,23.3z"/>
	<path class="st3" d="M46.3,24.1c-0.1,0-0.2-0.1-0.2-0.2C46.2,24,46.3,24,46.3,24.1z"/>
	<path class="st8" d="M52.6,22.5c0,0-0.1,0.1-0.1,0.1c0,0,0,0,0-0.1C52.5,22.5,52.5,22.5,52.6,22.5L52.6,22.5z"/>
	<path class="st8" d="M52.7,22.6C52.7,22.6,52.7,22.7,52.7,22.6C52.7,22.7,52.7,22.6,52.7,22.6C52.7,22.6,52.7,22.6,52.7,22.6z"/>
	<path class="st13" d="M54.1,21.2c0-0.2,0.1-0.3,0.3-0.3C54.3,21,54.3,21.2,54.1,21.2z"/>
	<path class="st4" d="M48.6,13.1c0.9,0.1,1.7-0.2,2.6-0.4c0.1,0,0.2-0.1,0.3-0.2c0.3-0.2,0.6-0.1,0.6,0.3c0,0.5,0,1.1,0,1.6
		c0,0.2-0.1,0.3-0.2,0.4c-0.5,0.6-0.9,1.4-1.6,2c-0.3,0.2-0.5,0.6-0.7,1c-0.3,0.4-0.7,0.8-1.1,1.2c-0.1,0.1-0.3,0.2-0.2,0.4
		c0.2,0.4-0.1,0.3-0.2,0.3c-0.3,0-0.6-0.1-0.8,0.1c-0.2,0-0.5-0.1-0.7-0.3c-0.1-0.3-0.5-0.2-0.7-0.5c0.4,0.1,0.8-0.1,1.1-0.2
		c0.1,0,0.2,0,0.2-0.1c0-0.1,0-0.2-0.1-0.2c-0.1-0.1-0.2,0-0.3,0c-0.1,0.1-0.2,0.1-0.3,0.1c-0.1,0-0.3,0.1-0.4-0.1
		c0-0.1,0.2-0.2,0.3-0.2c0.2,0,0.4,0.1,0.4-0.1c0.2-0.5,0.7-0.8,1-1.2c0.5-0.7,1.1-1.4,1.7-2c0.3-0.3,0.5-0.6,0.8-1
		c0.1-0.1,0.2-0.3,0-0.5c-0.1-0.1-0.3-0.2-0.5-0.1c-0.1,0.1-0.3,0.1-0.5,0.1c-0.8,0-1.7,0-2.5,0c-0.1,0-0.3,0-0.4,0
		c-0.5-0.1-1.1-0.3-1.6-0.3c-0.1,0-0.1,0-0.2,0c-0.1-0.3-0.4-0.1-0.6-0.2c0,0,0,0,0,0c0-0.2-0.2-0.2-0.4-0.2c-0.1,0-0.2,0-0.3,0
		c0-0.1-0.1-0.2-0.2-0.2c0,0,0,0,0,0c0-0.1-0.1-0.1-0.1-0.2c0,0,0,0,0,0c0.2,0,0.4,0,0.6,0c1.1,0.4,2.1,0.8,3.3,0.7
		C47.6,13.1,48.1,13.1,48.6,13.1z"/>
	<path class="st1" d="M44.9,13.1c0.6,0,1.1,0.2,1.6,0.3c0.1,0,0.3,0,0.4,0c0.8,0,1.7,0,2.5,0c0.2,0,0.3,0,0.5-0.1
		c0.2-0.2,0.4-0.1,0.5,0.1c0.2,0.2,0.1,0.3,0,0.5c-0.2,0.3-0.5,0.7-0.8,1c-0.6,0.6-1.2,1.3-1.7,2c-0.3,0.4-0.8,0.7-1,1.2
		c-0.1,0.2-0.3,0.1-0.4,0.1c-0.2,0-0.3,0.1-0.3,0.2c0,0.2,0.2,0.1,0.4,0.1c0.1,0,0.2,0,0.3-0.1c0.1-0.1,0.2-0.1,0.3,0
		c0.1,0,0.1,0.1,0.1,0.2c0,0.1-0.2,0.1-0.2,0.1c-0.4,0.1-0.7,0.2-1.1,0.2c0.2,0.3,0.6,0.2,0.7,0.5c-0.6-0.1-1.1-0.5-1.8-0.6
		c0.1-0.3,0.5-0.2,0.6-0.4c-0.4-0.1-0.6-0.1-1,0.3c-0.1,0-0.2,0-0.3,0c0-0.2-0.3-0.1-0.3-0.3c0.1-0.1,0.3-0.1,0.4-0.1
		c0.1,0,0.3,0,0.3-0.2c0-0.6,0.5-0.8,0.8-1.2c0.6-0.8,1.3-1.5,1.9-2.3c0.1-0.2,0.2-0.4,0.1-0.7c-0.1-0.2-0.3-0.1-0.4-0.2
		C46.1,13.5,45.4,13.5,44.9,13.1z"/>
	<path class="st1" d="M33.8,9.9c0.2,0,0.2,0.2,0.2,0.3c0,0.3,0.1,0.5,0.2,0.7c0.2,0.3,0.4,0.5,0.8,0.3c0.5-0.3,1.2-0.3,1.8-0.4
		c0.5-0.1,1-0.3,1.5-0.2c0.5,0.1,1,0.2,1.4,0.2c0,0,0,0,0,0c0,0.2,0.2,0.2,0.3,0.2c0.1,0,0.1,0,0.2,0c0.1,0.3,0.5,0.1,0.6,0.3
		c0,0.1,0.1,0.1,0.1,0.2c-0.6,0-1.1-0.3-1.6-0.4c-0.2,0-0.3-0.1-0.5-0.1c-0.5,0-1,0-1.5,0c-0.6,0-1.1,0.2-1.6,0.3
		c-0.3,0.1-0.6,0.2-0.9,0.2c-0.7,0.1-1.1-0.2-1.1-0.9C33.8,10.3,33.8,10.1,33.8,9.9z"/>
	<path class="st4" d="M41,11.5c0-0.1-0.1-0.1-0.1-0.2c0.1,0,0.3,0,0.4,0c0.1,0,0.1,0,0.2,0c0,0.2,0,0.4,0.3,0.3c0.1,0,0.3,0,0.4,0
		l0,0c0,0.2,0.2,0.2,0.3,0.2l0,0c0,0.2,0.2,0.2,0.3,0.2l0,0c0,0.2,0.3,0.1,0.3,0.3c0,0,0,0,0,0c-0.1,0-0.1,0-0.2,0
		c-0.2,0-0.4,0-0.6-0.2c-0.3-0.2-0.7-0.3-1.1-0.4C41.4,11.5,41.2,11.5,41,11.5L41,11.5z"/>
	<path class="st1" d="M44.1,12.9c0.2,0.1,0.5-0.1,0.6,0.2C44.5,13,44.2,13.2,44.1,12.9z"/>
	<path class="st1" d="M33.5,9.6c0.3,0,0.4,0.1,0.3,0.3C33.6,9.9,33.5,9.8,33.5,9.6z"/>
	<path class="st1" d="M41,11.5c0.2,0,0.4,0,0.4,0.3C41.2,11.7,41,11.7,41,11.5z"/>
	<path class="st1" d="M43.7,12.7c0.1,0,0.3-0.1,0.4,0.2C43.9,12.9,43.8,13,43.7,12.7z"/>
	<path class="st1" d="M43,12.4c0.1,0,0.1,0,0.2,0c0,0.1,0.1,0.1,0.1,0.2C43.2,12.6,43,12.6,43,12.4z"/>
	<path class="st1" d="M43.3,12.6c0.1,0,0.2,0.1,0.2,0.2C43.4,12.7,43.3,12.7,43.3,12.6z"/>
	<path class="st14" d="M44.2,18.7c0.4-0.3,0.6-0.4,1-0.3c-0.1,0.2-0.5,0.2-0.6,0.4C44.6,18.8,44.4,18.8,44.2,18.7z"/>
	<path class="st13" d="M44.9,23.4c-0.2,0.3-0.2,0.3-0.5,0.1C44.5,23.4,44.7,23.4,44.9,23.4L44.9,23.4z"/>
	<path class="st13" d="M44.8,21.7c-0.1,0.1-0.3-0.2-0.4,0c-0.1,0-0.2-0.1-0.1-0.1C44.4,21.5,44.7,21.4,44.8,21.7z"/>
	<path class="st13" d="M45.7,22c-0.1-0.1-0.4,0.1-0.4-0.2C45.5,21.7,45.7,21.8,45.7,22z"/>
	<path class="st13" d="M45.2,21.9c-0.2,0-0.3,0-0.4-0.2C44.9,21.7,45.2,21.6,45.2,21.9z"/>
	<path class="st13" d="M45.8,20.5c0,0,0.1,0,0.1,0c0.1,0,0.1,0,0.1,0.1c0,0-0.1,0.1-0.1,0.1C45.9,20.6,45.8,20.6,45.8,20.5z"/>
	<path class="st13" d="M45.6,21.6c0,0-0.1-0.1-0.1-0.1c0-0.1,0-0.1,0.1-0.1c0.1,0,0.1,0,0.1,0.1C45.7,21.5,45.7,21.5,45.6,21.6z"/>
	<path class="st3" d="M37.5,26.9c-0.2,0-0.4-0.1-0.4,0.1c-0.1,0.1,0,0.3,0.2,0.4c0,0,0.1,0,0.1,0.1c0,0.6,0.1,1.1,0.5,1.6
		c0.1,0.1-0.2,0.3-0.1,0.5c-0.3-0.3-0.5-0.7-0.6-1.1c-0.3-0.7-0.7-1.2-1-1.9c-0.5-1.1-1-2.2-1.5-3.4c-0.5-1.1-0.8-2.2-1.3-3.2
		c0-0.1-0.1-0.1-0.1-0.1c0.5-0.3,0-0.6,0.1-0.9c0-0.1,0.1-0.1,0.2-0.1c0.2,0.3,0.4,0.6,0.5,1c0,0,0,0.1,0,0.1c0,0.1,0,0.2,0.2,0.3
		c0,0,0,0,0,0c0.1,0.3,0.2,0.5,0.4,0.7c0.5,1.1,1.1,2.2,1.6,3.3C36.6,25.1,37,26,37.5,26.9z"/>
	<path class="st10" d="M34,19.8c-0.2-0.3-0.4-0.6-0.5-1c0,0,0-0.1,0-0.1c0.1,0,0.2,0,0.3,0.3c0,0.2,0.3,0.4,0.4,0.7
		C34.2,19.9,34,19.8,34,19.8z"/>
	<path class="st3" d="M37.7,29.7c0.1,0,0.2,0.1,0.2,0.2C37.7,29.9,37.7,29.9,37.7,29.7z"/>
	<path class="st14" d="M32.4,21.1c-0.3-0.1-0.1-0.4-0.2-0.6C32.6,20.6,32.4,20.9,32.4,21.1z"/>
	<path class="st14" d="M32.2,20.4c-0.2,0-0.2-0.2-0.2-0.4C32.3,20.1,32.2,20.3,32.2,20.4z"/>
	<path class="st6" d="M46.5,6.6c0,0.1,0,0.2,0.1,0.2c0.5,0,0.9,0,1.4,0.2c0.6,0.2,1.2,0.1,1.8,0.3c0.4,0.1,0.8,0.1,1.2,0.2
		c0.2,0,0.5,0.1,0.7,0.2C52,7.8,52.1,8,52.1,8.3c-0.1,0-0.1,0-0.2-0.1c-0.2-0.4-0.7-0.6-1.1-0.6c-0.5,0-0.9-0.2-1.4-0.2
		c-0.4,0-0.8-0.1-1.1-0.2c-0.8-0.2-1.7,0-2.5-0.5c0,0-0.1,0-0.1,0c-0.7,0.1-1.4-0.1-2.1-0.2c-1.8-0.2-3.6-0.2-5.3-0.2
		c0-0.2,0.2-0.2,0.3-0.2c1.3,0,2.7-0.1,4,0c0.8,0.1,1.6,0.1,2.4,0.1C45.5,6.3,46,6.7,46.5,6.6z"/>
	<path class="st10" d="M34.5,20.9c-0.2-0.2-0.3-0.4-0.4-0.7C34.6,20.3,34.5,20.6,34.5,20.9z"/>
	<path class="st10" d="M34.2,20.2C34.1,20.1,34,20,34,19.9C34.2,19.9,34.2,20.1,34.2,20.2z"/>
	<path class="st7" d="M46.5,6.6c-0.5,0.1-1-0.3-1.6-0.2c-0.1-0.3-0.3-0.4-0.6-0.4c-1.1,0-2.2-0.1-3.3-0.1C41,6,41,6,40.9,5.9
		c1.5-0.2,3-0.1,4.6-0.2c0.1,0,0.2,0,0.3,0c0.1,0,0.2,0,0.3,0c-0.1,0.2-0.2,0.4,0.2,0.3c0.7-0.1,1.3,0.2,1.9,0.3
		c0.2,0,0.4,0.1,0.6,0c0.3,0,0.7-0.1,0.9,0.2c0.2,0.2,0.5,0.1,0.7,0.1c0.3,0,0.7,0,0.9,0.4c-0.7,0-1.3,0-1.9-0.3c0,0-0.1,0-0.1,0
		C48.3,6.9,47.4,6.5,46.5,6.6z"/>
	<path class="st7" d="M47,5.8c0.1,0,0.2,0,0.3,0C47.2,6.1,47.1,5.9,47,5.8z"/>
	<path class="st7" d="M46.2,5.7c0.1,0,0.1,0,0.2,0c0,0.1,0,0.1-0.1,0.1C46.2,5.8,46.2,5.8,46.2,5.7z"/>
	<path class="st7" d="M46.5,5.7c0.1,0,0.1,0,0.2,0c0,0,0,0,0,0.1C46.7,5.8,46.6,5.8,46.5,5.7z"/>
	<path class="st1" d="M31.3,18c0.3,0.1,0.1,0.3,0.2,0.5C31.2,18.4,31.2,18.2,31.3,18z"/>
	<path class="st3" d="M49.4,11.9c0,0.1,0.2,0.1,0.3,0.2c-0.2,0.1-0.3,0.2-0.5,0.1c-0.3-0.1-0.7-0.1-0.9,0.1c-0.3,0.2-0.6,0.1-0.9,0
		c-0.2,0-0.3-0.1-0.5,0c-1.3,0-2.5-0.4-3.6-0.8c-0.5-0.2-1.1-0.4-1.5-0.6c-0.4-0.2-0.7-0.3-1.1-0.3c0,0-0.1,0-0.1,0
		c0-0.3-0.1-0.3-0.3-0.4c-0.3-0.1-0.7,0.1-1,0c-0.1-0.1-0.3,0-0.3-0.2c0-0.2,0.2,0,0.3-0.2c0,0,0,0,0.1,0c0.5,0.2,1,0.1,1.4,0.1
		c0.3,0,0.6,0.1,0.9,0.2c0.7,0.2,1.4,0.5,2.1,0.7c1.1,0.4,2.1,0.8,3.3,1c0.1,0.3,0.3,0.2,0.4,0.1c0.1,0,0.3,0,0.4,0
		c0.5,0.1,0.9,0.1,1.4,0C49.3,11.9,49.4,11.9,49.4,11.9z"/>
	<path class="st7" d="M49.3,11.9c-0.5,0.1-0.9,0.1-1.4,0C48.3,11.9,48.8,11.9,49.3,11.9z"/>
	<path class="st7" d="M47.4,11.9c-0.2,0.1-0.3,0.2-0.4-0.1c0.1,0,0.1,0,0.2,0c0,0,0.1,0,0.1,0C47.3,11.9,47.4,11.9,47.4,11.9z"/>
	<path class="st3" d="M47.2,11.9C47.2,11.9,47.2,11.9,47.2,11.9C47.2,11.9,47.2,11.9,47.2,11.9z"/>
	<path class="st7" d="M39.3,9.8c-0.1,0.1-0.3,0-0.3,0.2c0,0.2,0.2,0.1,0.3,0.2c0.3,0.1,0.7,0,1,0c0.3,0,0.4,0.1,0.3,0.4
		c-0.3,0-0.6,0-1,0c-0.8-0.2-1.5-0.2-2.3-0.2c-0.4,0-0.7,0.3-1.1,0.1c-0.1,0-0.1,0-0.2-0.1C37.1,10,38.1,9.8,39.3,9.8z"/>
	<path class="st5" d="M39.7,10.6c0.3,0,0.6,0,1,0c0,0,0.1,0,0.1,0c0,0.1,0,0.2,0,0.3c-0.1,0-0.3,0-0.4,0c-0.1,0-0.1,0-0.2,0
		c0-0.2-0.2-0.2-0.3-0.2c0,0,0,0,0,0C39.8,10.7,39.7,10.7,39.7,10.6z"/>
	<path class="st7" d="M40.8,9.9c-0.5,0-1,0.1-1.4-0.1C39.8,9.7,40.3,9.8,40.8,9.9z"/>
	<path class="st9" d="M38.1,28.1C38,28,38,27.9,38,27.8c0.1,0.1,0.3,0,0.4,0.1C38.3,28,38.2,28.1,38.1,28.1z"/>
	<path class="st5" d="M48.6,13.1c-0.5,0-1,0-1.5,0c-1.2,0.1-2.2-0.4-3.3-0.7c-0.2-0.3-0.5-0.4-0.9-0.3c0,0,0,0,0,0
		c0-0.2-0.2-0.2-0.3-0.2c0,0,0,0,0,0c0-0.2-0.2-0.2-0.3-0.2c0,0,0,0,0,0c0-0.1,0-0.1,0-0.2c0.5,0,0.8,0.3,1.3,0.4
		c0.6,0.1,1.1,0.3,1.7,0.5c1.2,0.5,2.4,0.3,3.6,0.3c0.2,0,0.3,0,0.5-0.1c0.7-0.2,1.4-0.4,2.1-0.5c-0.3,0.3-0.8,0.5-1.2,0.6
		c-0.5,0.1-0.9,0.3-1.4,0.2C48.6,12.9,48.6,13,48.6,13.1z"/>
	<path class="st6" d="M40.3,11c0.1,0,0.3,0,0.4,0c0.1,0,0.2,0,0.3,0c0,0.2,0.3,0.1,0.3,0.3c-0.1,0-0.3,0-0.4,0
		C40.8,11.1,40.4,11.3,40.3,11z"/>
	<path class="st6" d="M42.2,11.5c0,0.1,0,0.1,0,0.2c-0.1,0-0.3,0-0.4,0c-0.3,0-0.3-0.1-0.3-0.3c0.1,0,0.1,0,0.2,0c0.1,0,0.1,0,0.2,0
		C41.9,11.6,42.1,11.5,42.2,11.5L42.2,11.5z"/>
	<path class="st5" d="M41.7,11.3c-0.1,0-0.1,0-0.2,0c-0.1,0-0.1,0-0.2,0c0-0.2-0.3-0.1-0.3-0.3C41.4,10.9,41.6,11,41.7,11.3z"/>
	<path class="st5" d="M42.2,11.5c-0.1,0-0.3,0.1-0.4-0.2C42,11.3,42.2,11.3,42.2,11.5z"/>
	<path class="st7" d="M46.6,24.3c0-0.1,0-0.2,0.1-0.1c0,0,0,0.1,0.1,0.1C46.7,24.3,46.7,24.3,46.6,24.3z"/>
	<path class="st6" d="M42.9,12c0.3,0,0.7,0,0.9,0.3c-0.2,0-0.4,0-0.6,0C43.2,12.2,42.9,12.2,42.9,12z"/>
	<path class="st6" d="M39.8,10.8c0.1,0,0.3-0.1,0.3,0.2C40,11,39.8,11,39.8,10.8z"/>
	<path class="st6" d="M42.2,11.7c0.1,0,0.3-0.1,0.3,0.2C42.5,11.8,42.3,11.9,42.2,11.7z"/>
	<path class="st6" d="M42.6,11.8c0.1,0,0.3-0.1,0.3,0.2C42.8,12,42.6,12.1,42.6,11.8z"/>
</g>
</svg>
