<?xml version="1.0" encoding="utf-8"?>
<!-- Generator: Adobe Illustrator 26.0.1, SVG Export Plug-In . SVG Version: 6.00 Build 0)  -->
<svg version="1.1" id="Layer_1" xmlns="http://www.w3.org/2000/svg" xmlns:xlink="http://www.w3.org/1999/xlink" x="0px" y="0px"
	 viewBox="0 0 161 40" style="enable-background:new 0 0 161 40;" xml:space="preserve">
<style type="text/css">
	.st0{fill:#FEFEFE;}
	.st1{fill:#010101;}
	.st2{fill:#FCB900;}
	.st3{fill:#000100;}
	.st4{fill:#005725;}
	.st5{fill:#005726;}
	.st6{fill:#015826;}
	.st7{fill:#EEAB00;}
	.st8{fill:#035828;}
	.st9{fill:#F3F3F3;}
	.st10{fill:#EFEFEF;}
	.st11{fill:#F1F1F1;}
	.st12{fill:#C76C00;}
	.st13{fill:#F6F6F6;}
	.st14{fill:#F2F2F2;}
	.st15{fill:#0B2600;}
	.st16{fill:#0F1010;}
	.st17{fill:#0D2700;}
	.st18{fill:#045628;}
	.st19{fill:#0C2100;}
	.st20{fill:#F9BA00;}
	.st21{fill:#F9BB00;}
	.st22{fill:#142900;}
	.st23{fill:#142A00;}
	.st24{fill:#F8BB00;}
	.st25{fill:#0C2600;}
	.st26{fill:#132900;}
	.st27{fill:#122900;}
	.st28{fill:#092400;}
	.st29{fill:#122700;}
	.st30{fill:#102700;}
	.st31{fill:#102600;}
	.st32{fill:#132A00;}
	.st33{fill:#0F2600;}
	.st34{fill:#122800;}
	.st35{fill:#192B00;}
	.st36{fill:#132C00;}
	.st37{fill:#102900;}
	.st38{fill:#0E2600;}
	.st39{fill:#112900;}
	.st40{fill:#0A2400;}
	.st41{fill:#0D2500;}
	.st42{fill:#011A00;}
	.st43{fill:#004A21;}
	.st44{fill:#142B00;}
	.st45{fill:#152B00;}
	.st46{fill:#062200;}
	.st47{fill:#112700;}
	.st48{fill:#0C2400;}
	.st49{fill:#EAB700;}
	.st50{fill:#0E2500;}
	.st51{fill:#2E2E2E;}
	.st52{fill:#F5BB00;}
	.st53{fill:#F3BB00;}
	.st54{fill:#092300;}
	.st55{fill:#F5BD00;}
	.st56{fill:#F6BC00;}
	.st57{fill:#F4BA00;}
	.st58{fill:#0A2500;}
	.st59{fill:#0C2300;}
	.st60{fill:#052200;}
	.st61{fill:#062100;}
	.st62{fill:#F4BD00;}
	.st63{fill:#F1BB00;}
	.st64{fill:#F1BC00;}
	.st65{fill:#EFBA00;}
	.st66{fill:#051F00;}
	.st67{fill:#EDBA00;}
	.st68{fill:#0A2300;}
	.st69{fill:#313700;}
	.st70{fill:#003540;}
	.st71{fill:#1A2C00;}
	.st72{fill:#072300;}
	.st73{fill:#F2F6F7;}
	.st74{fill:#212D00;}
	.st75{fill:#5A5A5A;}
	.st76{fill:#3C3C3C;}
	.st77{fill:#223400;}
	.st78{fill:#F4BE00;}
	.st79{fill:#1E2C00;}
	.st80{fill:#0B2400;}
	.st81{fill:#1E2F00;}
	.st82{fill:#E5B500;}
	.st83{fill:#6D6500;}
	.st84{fill:#233000;}
	.st85{fill:#1C2C00;}
	.st86{fill:#2D3800;}
	.st87{fill:#252F00;}
	.st88{fill:#1F2D00;}
	.st89{fill:#7EA5AC;}
	.st90{fill:#558D76;}
	.st91{fill:#343434;}
	.st92{fill:#1F3000;}
	.st93{fill:#555555;}
	.st94{fill:#414600;}
	.st95{fill:#182A00;}
	.st96{fill:#DAAE00;}
	.st97{fill:#454545;}
	.st98{fill:#0A2200;}
	.st99{fill:#0F2500;}
	.st100{fill:#202E00;}
	.st101{fill:#062800;}
	.st102{fill:#B9B9B9;}
	.st103{fill:#F9CA00;}
	.st104{fill:#253000;}
	.st105{fill:#051C00;}
	.st106{fill:#EDBD00;}
	.st107{fill:#051E00;}
	.st108{fill:#1A5561;}
	.st109{fill:#072000;}
	.st110{fill:#F4C300;}
	.st111{fill:#ECB600;}
	.st112{fill:#072400;}
	.st113{fill:#E4BC00;}
	.st114{fill:#151515;}
	.st115{fill:#112800;}
	.st116{fill:#F8C700;}
	.st117{fill:#3F4000;}
	.st118{fill:#051D00;}
	.st119{fill:#273100;}
	.st120{fill:#115C31;}
	.st121{fill:#2B3000;}
	.st122{fill:#E8B800;}
	.st123{fill:#E0B700;}
	.st124{fill:#DEB600;}
	.st125{fill:#091F00;}
	.st126{fill:#E8BA00;}
	.st127{fill:#071F00;}
	.st128{fill:#0A2000;}
	.st129{fill:#293900;}
	.st130{fill:#092000;}
	.st131{fill:#243000;}
	.st132{fill:#515151;}
	.st133{fill:#3E585E;}
	.st134{fill:#212900;}
	.st135{fill:#4F5000;}
	.st136{fill:#D4A800;}
	.st137{fill:#081900;}
	.st138{fill:#E3B200;}
	.st139{fill:#145A2B;}
	.st140{fill:#C7D1D4;}
	.st141{fill:#034519;}
	.st142{fill:#1A633B;}
	.st143{fill:#4B4F00;}
	.st144{fill:#BF9F00;}
	.st145{fill:#9F9F9F;}
	.st146{fill:#0D5933;}
	.st147{fill:#236A45;}
	.st148{fill:#011C00;}
	.st149{fill:#012000;}
	.st150{fill:#293100;}
	.st151{fill:#ECBF00;}
	.st152{fill:#C1C1C1;}
	.st153{fill:#AAB2B3;}
	.st154{fill:#004B16;}
	.st155{fill:#4B856A;}
	.st156{fill:#344200;}
	.st157{fill:#ACC7C5;}
	.st158{fill:#262C00;}
	.st159{fill:#333A00;}
	.st160{fill:#3C3A00;}
	.st161{fill:#E8BD00;}
	.st162{fill:#062000;}
	.st163{fill:#C9A500;}
	.st164{fill:#0C1F00;}
	.st165{fill:#494949;}
	.st166{fill:#D2AE00;}
	.st167{fill:#3E4100;}
	.st168{fill:#081D00;}
	.st169{fill:#323400;}
	.st170{fill:#373A00;}
	.st171{fill:#DDB500;}
	.st172{fill:#042000;}
	.st173{fill:#E7BE00;}
	.st174{fill:#313C00;}
	.st175{fill:#E6BD00;}
	.st176{fill:#0F1A00;}
	.st177{fill:#151F00;}
	.st178{fill:#002100;}
	.st179{fill:#E6B800;}
	.st180{fill:#041B00;}
	.st181{fill:#003418;}
	.st182{fill:#C0D4D4;}
	.st183{fill:#347452;}
	.st184{fill:#BDBDBD;}
	.st185{fill:#00252D;}
	.st186{fill:#CBA800;}
	.st187{fill:#FCCC00;}
	.st188{fill:#C5A100;}
	.st189{fill:#D2B000;}
	.st190{fill:#263A00;}
	.st191{fill:#1A2D00;}
	.st192{fill:#F6C600;}
	.st193{fill:#434343;}
</style>
<g>
	<g id="UNILUS">
		<path class="st0" d="M24.4-0.1L24.4-0.1C24.5,0,24.5,0,24.4-0.1C24.5,0,24.5,0,24.5,0.1c0.1,0.2,0.2,0.3,0.4,0.5
			c0.1,0.1,0.2,0.2,0.3,0.3c0.1,0.1,0.2,0.2,0.2,0.3c0.1,0.1,0.1,0.1,0.2,0.2l0.1,0.1c0.1,0.1,0.1,0.1,0.1,0.1s0,0,0.1,0
			c0,0,0,0,0,0.1l0,0c0.1,0,0.1,0.1,0.2,0.1c0,0,0,0,0,0.1c0,0,0,0,0.1,0L26.3,2c0,0,0,0,0.1,0c0,0,0,0,0,0.1l0,0
			c0.1,0,0.1,0.1,0.2,0.1c0.1,0.1,0.1,0.1,0.2,0.1c0,0,0,0,0,0.1l0,0c0.1,0,0.1,0.1,0.2,0.1c0,0,0,0,0,0.1l0,0
			c0.1,0.1,0.2,0.1,0.2,0.2c0.2,0.2,0.5,0.4,0.7,0.5c0.1,0,0.1,0.1,0.2,0.1c0.2,0.2,0.5,0.4,0.8,0.5C29,3.9,29,4,29.1,4
			c0.2,0.1,0.5,0.3,0.7,0.4h0.1c0.2,0.1,0.4,0.2,0.6,0.3c0.1,0,0.2,0.1,0.2,0.1C30.9,4.9,31.2,5,31.5,5c0.1,0,0.1,0,0.2,0
			s0.2,0.1,0.4,0.1c0,0,0,0,0.1,0c0.3,0.1,0.5,0.1,0.8,0.1c0,0,0,0,0.1,0s0.1,0,0.2,0s0.2,0,0.3,0c0.1,0,0.1,0,0.2,0c0,0,0,0,0.1,0
			c0.3,0,0.5,0,0.8-0.1h0.1C35,5.1,35.1,5,35.3,5c0.1,0,0.1,0,0.2-0.1c0.1,0,0.3-0.1,0.4-0.1s0.1-0.1,0.2-0.1
			c0.2-0.1,0.4-0.2,0.6-0.3c0.1,0,0.1-0.1,0.2-0.1s0.1,0,0.2-0.1c0,0,0,0,0.1,0c0,0,0,0,0.1,0c0,0,0,0,0.1,0c0,0,0.1,0,0.1-0.1
			c0,0,0,0,0.1,0c0,0,0,0,0.1,0s0.1,0,0.2,0c0.1,0.2,0.2,0.5,0.3,0.7c0,0,0,0,0,0.1c0,0.2,0.1,0.4,0.1,0.6c0,0.1,0,0.1,0,0.2
			s0,0.1,0,0.2c0,0,0,0,0,0.1c0.1,0.6,0.1,1.3,0.1,1.9c0,0.1,0,0.2,0,0.2c0,0.9,0,1.7-0.2,2.5c0,0.1,0,0.2,0,0.3
			c0,0.4-0.1,0.8-0.2,1.2c0,0.2-0.1,0.3-0.1,0.5c-0.1,0.4-0.1,0.8-0.2,1.1c0,0.1,0,0.2-0.1,0.3c-0.1,0.4-0.2,0.7-0.3,1.1
			c0,0.1-0.1,0.2-0.1,0.3s-0.1,0.2-0.1,0.3s0,0.1-0.1,0.2c0,0.1-0.1,0.2-0.1,0.3c0,0.1-0.1,0.2-0.1,0.3c0,0.1-0.1,0.2-0.1,0.4V17
			c-0.5,1.4-0.5,1.4-0.8,2.1c0,0.1-0.1,0.2-0.1,0.2c-0.2,0.4-0.3,0.8-0.5,1.1c0,0.1-0.1,0.2-0.1,0.3c-0.1,0.3-0.3,0.5-0.4,0.8
			c0,0.1-0.1,0.2-0.1,0.3c-0.2,0.3-0.4,0.7-0.6,1c0,0.1-0.1,0.1-0.1,0.2c-0.3,0.5-0.6,1-1,1.5c0,0.1-0.1,0.1-0.1,0.2
			c-0.2,0.2-0.3,0.5-0.5,0.7c0,0,0,0.1-0.1,0.1c-0.1,0.2-0.3,0.3-0.4,0.5c-0.1,0.1-0.1,0.1-0.1,0.2c0,0,0,0-0.1,0l0,0
			c0,0.1-0.1,0.1-0.1,0.2c0,0,0,0-0.1,0.1c0,0,0,0-0.1,0.1c0,0,0,0-0.1,0.1c-0.3,0.3-0.6,0.6-0.9,0.9l-0.1,0.1
			c-0.2,0.2-0.3,0.3-0.5,0.5c-0.1,0.1-0.2,0.2-0.3,0.3c-0.1,0.1-0.3,0.2-0.4,0.3L29,28.9c-0.2,0.2-0.4,0.3-0.6,0.5
			c-0.1,0-0.1,0.1-0.2,0.1c-0.3,0.2-0.7,0.4-1,0.7l-0.1,0.1c-0.2,0.1-0.3,0.2-0.5,0.3c-0.1,0.1-0.2,0.1-0.3,0.2c0,0,0,0-0.1,0
			c-0.1,0.1-0.2,0.1-0.4,0.2c-0.1,0.1-0.3,0.2-0.4,0.2s-0.2,0.1-0.3,0.2c-0.3,0.2-0.3,0.2-0.5,0.2c-0.1,0-0.2-0.1-0.2-0.1
			c-0.1,0-0.2-0.1-0.3-0.1c-0.2-0.1-0.4-0.2-0.6-0.2c-0.1,0-0.1-0.1-0.2-0.1c0,0,0,0-0.1,0s-0.1,0-0.2-0.1c-0.2-0.1-0.5-0.2-0.7-0.3
			c-0.1,0-0.1-0.1-0.2-0.1s-0.1-0.1-0.2-0.1c0,0,0,0-0.1,0c-0.3-0.1-0.5-0.3-0.8-0.5c-0.1,0-0.1-0.1-0.2-0.1
			c-0.1-0.1-0.3-0.2-0.4-0.3c-0.1,0-0.1-0.1-0.2-0.1c-0.3-0.2-0.5-0.4-0.8-0.6c-0.1,0-0.1-0.1-0.2-0.1c-0.3-0.2-0.5-0.4-0.7-0.6
			l-0.1-0.1c-0.2-0.2-0.4-0.4-0.6-0.6c0,0,0,0-0.1-0.1s-0.2-0.3-0.4-0.4c-0.1-0.1-0.1-0.1-0.2-0.2c-0.1-0.2-0.3-0.3-0.4-0.5
			l-0.1-0.1c-0.2-0.2-0.3-0.4-0.5-0.6L16,25.5c-0.3-0.4-0.6-0.7-0.8-1.1c0-0.1-0.1-0.1-0.1-0.2c-0.4-0.6-0.7-1.1-1.1-1.7
			c0,0,0,0,0-0.1c-0.2-0.4-0.4-0.8-0.6-1.3c-0.1-0.2-0.1-0.3-0.2-0.5c-0.2-0.4-0.3-0.7-0.5-1.1c0-0.1-0.1-0.2-0.1-0.3
			c-0.1-0.1-0.1-0.2-0.1-0.3c0-0.1-0.1-0.3-0.1-0.4c-0.1-0.2-0.1-0.3-0.2-0.5c0-0.1-0.1-0.2-0.1-0.3C12,17.6,12,17.4,12,17.3
			s-0.1-0.2-0.1-0.4c-0.1-0.4-0.2-0.7-0.3-1.1c0-0.1-0.1-0.2-0.1-0.3c-0.1-0.5-0.2-1-0.3-1.5c0-0.1,0-0.1,0-0.2c0-0.1,0-0.2-0.1-0.4
			c0,0,0,0,0-0.1s0-0.1,0-0.2c0,0,0,0,0-0.1c-0.1-0.4-0.1-0.8-0.2-1.2v-0.1c0-0.3-0.1-0.7-0.1-1c0,0,0,0,0-0.1
			c0-0.5-0.1-0.9-0.1-1.4c0-0.1,0-0.1,0-0.2c0-0.1,0-0.3,0-0.4c0-0.2,0-0.3,0-0.5c0-0.1,0-0.3,0-0.4s0-0.1,0-0.2
			c0-0.4,0-0.7,0.1-1.1c0-0.1,0-0.1,0-0.2c0-0.4,0.1-0.9,0.2-1.3c0,0,0,0,0-0.1c0.1-0.2,0.1-0.4,0.2-0.6c0.1,0,0.2,0,0.4,0.1
			c0.4,0.2,0.8,0.4,1.2,0.6h0.1c0.7,0.3,1.5,0.5,2.3,0.5h0.1c0.4,0,0.9,0,1.3-0.1h0.1c0.3-0.1,0.6-0.1,0.9-0.2h0.1
			c0.2-0.1,0.5-0.2,0.7-0.3c-0.2,0.1-0.1,0.1-0.1,0.1h0.1c0.1,0,0.1,0,0.2,0c0,0,0,0,0-0.1h0.1c0.5-0.2,1-0.5,1.5-0.9c0,0,0,0,0.1,0
			c0.5-0.5,1.1-1,1.6-1.4c0.1-0.1,0.2-0.1,0.2-0.2l0.1-0.1c0,0,0,0,0.1,0c0,0,0,0,0-0.1c0,0,0,0,0.1-0.1c0.2-0.2,0.2-0.2,0.4-0.4
			c0,0,0,0,0.1,0l0,0c0-0.1,0.1-0.1,0.2-0.2s0.2-0.2,0.3-0.3c0-0.2,0.1-0.2,0.1-0.3c0.2-0.2,0.3-0.4,0.5-0.6c0,0,0,0,0-0.1L24.1,0
			c0,0,0,0,0-0.1c0,0,0,0,0-0.1C24.3-0.1,24.3-0.1,24.4-0.1z"/>
		<path class="st1" d="M24.4-0.1L24.4-0.1C24.5,0,24.5,0,24.4-0.1C24.5,0,24.5,0,24.5,0.1c0.1,0.2,0.2,0.3,0.4,0.5
			c0.1,0.1,0.2,0.2,0.3,0.3c0.1,0.1,0.2,0.2,0.2,0.3c0.1,0.1,0.1,0.1,0.2,0.2l0.1,0.1c0.1,0.1,0.1,0.1,0.1,0.1s0,0,0.1,0
			c0,0,0,0,0,0.1l0,0c0.1,0,0.1,0.1,0.2,0.1c0,0,0,0,0,0.1c0,0,0,0,0.1,0L26.3,2c0,0,0,0,0.1,0c0,0,0,0,0,0.1l0,0
			c0.1,0,0.1,0.1,0.2,0.1c0.1,0.1,0.1,0.1,0.2,0.1c0,0,0,0,0,0.1l0,0c0.1,0,0.1,0.1,0.2,0.1c0,0,0,0,0,0.1l0,0
			c0.1,0.1,0.2,0.1,0.2,0.2c0.2,0.2,0.5,0.4,0.7,0.5c0.1,0,0.1,0.1,0.2,0.1c0.2,0.2,0.5,0.4,0.8,0.5C29,3.9,29,4,29.1,4
			c0.2,0.1,0.5,0.3,0.7,0.4h0.1c0.2,0.1,0.4,0.2,0.6,0.3c0.1,0,0.2,0.1,0.2,0.1C30.9,4.9,31.2,5,31.5,5c0.1,0,0.1,0,0.2,0
			s0.2,0.1,0.4,0.1c0,0,0,0,0.1,0c0.3,0.1,0.5,0.1,0.8,0.1c0,0,0,0,0.1,0s0.1,0,0.2,0s0.2,0,0.3,0c0.1,0,0.1,0,0.2,0c0,0,0,0,0.1,0
			c0.3,0,0.5,0,0.8-0.1h0.1C35,5.1,35.1,5,35.3,5c0.1,0,0.1,0,0.2-0.1c0.1,0,0.3-0.1,0.4-0.1s0.1-0.1,0.2-0.1
			c0.2-0.1,0.4-0.2,0.6-0.3c0.1,0,0.1-0.1,0.2-0.1s0.1,0,0.2-0.1c0,0,0,0,0.1,0c0,0,0,0,0.1,0c0,0,0,0,0.1,0c0,0,0.1,0,0.1-0.1
			c0,0,0,0,0.1,0c0,0,0,0,0.1,0s0.1,0,0.2,0c0.1,0.2,0.2,0.5,0.3,0.7c0,0,0,0,0,0.1c0,0.2,0.1,0.4,0.1,0.6c0,0.1,0,0.1,0,0.2
			s0,0.1,0,0.2c0,0,0,0,0,0.1c0.1,0.6,0.1,1.3,0.1,1.9c0,0.1,0,0.2,0,0.2c0,0.9,0,1.7-0.2,2.5c0,0.1,0,0.2,0,0.3
			c0,0.4-0.1,0.8-0.2,1.2c0,0.2-0.1,0.3-0.1,0.5c-0.1,0.4-0.1,0.8-0.2,1.1c0,0.1,0,0.2-0.1,0.3c-0.1,0.4-0.2,0.7-0.3,1.1
			c0,0.1-0.1,0.2-0.1,0.3s-0.1,0.2-0.1,0.3s0,0.1-0.1,0.2c0,0.1-0.1,0.2-0.1,0.3c0,0.1-0.1,0.2-0.1,0.3c0,0.1-0.1,0.2-0.1,0.4V17
			c-0.5,1.4-0.5,1.4-0.8,2.1c0,0.1-0.1,0.2-0.1,0.2c-0.2,0.4-0.3,0.8-0.5,1.1c0,0.1-0.1,0.2-0.1,0.3c-0.1,0.3-0.3,0.5-0.4,0.8
			c0,0.1-0.1,0.2-0.1,0.3c-0.2,0.3-0.4,0.7-0.6,1c0,0.1-0.1,0.1-0.1,0.2c-0.3,0.5-0.6,1-1,1.5c0,0.1-0.1,0.1-0.1,0.2
			c-0.2,0.2-0.3,0.5-0.5,0.7c0,0,0,0.1-0.1,0.1c-0.1,0.2-0.3,0.3-0.4,0.5c-0.1,0.1-0.1,0.1-0.1,0.2c0,0,0,0-0.1,0l0,0
			c0,0.1-0.1,0.1-0.1,0.2c0,0,0,0-0.1,0.1c0,0,0,0-0.1,0.1c0,0,0,0-0.1,0.1c-0.3,0.3-0.6,0.6-0.9,0.9l-0.1,0.1
			c-0.2,0.2-0.3,0.3-0.5,0.5c-0.1,0.1-0.2,0.2-0.3,0.3c-0.1,0.1-0.3,0.2-0.4,0.3L29,28.9c-0.2,0.2-0.4,0.3-0.6,0.5
			c-0.1,0-0.1,0.1-0.2,0.1c-0.3,0.2-0.7,0.4-1,0.7l-0.1,0.1c-0.2,0.1-0.3,0.2-0.5,0.3c-0.1,0.1-0.2,0.1-0.3,0.2c0,0,0,0-0.1,0
			c-0.1,0.1-0.2,0.1-0.4,0.2c-0.1,0.1-0.3,0.2-0.4,0.2s-0.2,0.1-0.3,0.2c-0.3,0.2-0.3,0.2-0.5,0.2c-0.1,0-0.2-0.1-0.2-0.1
			c-0.1,0-0.2-0.1-0.3-0.1c-0.2-0.1-0.4-0.2-0.6-0.2c-0.1,0-0.1-0.1-0.2-0.1c0,0,0,0-0.1,0s-0.1,0-0.2-0.1c-0.2-0.1-0.5-0.2-0.7-0.3
			c-0.1,0-0.1-0.1-0.2-0.1s-0.1-0.1-0.2-0.1c0,0,0,0-0.1,0c-0.3-0.1-0.5-0.3-0.8-0.5c-0.1,0-0.1-0.1-0.2-0.1
			c-0.1-0.1-0.3-0.2-0.4-0.3c-0.1,0-0.1-0.1-0.2-0.1c-0.3-0.2-0.5-0.4-0.8-0.6c-0.1,0-0.1-0.1-0.2-0.1c-0.3-0.2-0.5-0.4-0.7-0.6
			l-0.1-0.1c-0.2-0.2-0.4-0.4-0.6-0.6c0,0,0,0-0.1-0.1s-0.2-0.3-0.4-0.4c-0.1-0.1-0.1-0.1-0.2-0.2c-0.1-0.2-0.3-0.3-0.4-0.5
			l-0.1-0.1c-0.2-0.2-0.3-0.4-0.5-0.6L16,25.5c-0.3-0.4-0.6-0.7-0.8-1.1c0-0.1-0.1-0.1-0.1-0.2c-0.4-0.6-0.7-1.1-1.1-1.7
			c0,0,0,0,0-0.1c-0.2-0.4-0.4-0.8-0.6-1.3c-0.1-0.2-0.1-0.3-0.2-0.5c-0.2-0.4-0.3-0.7-0.5-1.1c0-0.1-0.1-0.2-0.1-0.3
			c-0.1-0.1-0.1-0.2-0.1-0.3c0-0.1-0.1-0.3-0.1-0.4c-0.1-0.2-0.1-0.3-0.2-0.5c0-0.1-0.1-0.2-0.1-0.3C12,17.6,12,17.4,12,17.3
			s-0.1-0.2-0.1-0.4c-0.1-0.4-0.2-0.7-0.3-1.1c0-0.1-0.1-0.2-0.1-0.3c-0.1-0.5-0.2-1-0.3-1.5c0-0.1,0-0.1,0-0.2c0-0.1,0-0.2-0.1-0.4
			c0,0,0,0,0-0.1s0-0.1,0-0.2c0,0,0,0,0-0.1c-0.1-0.4-0.1-0.8-0.2-1.2v-0.1c0-0.3-0.1-0.7-0.1-1c0,0,0,0,0-0.1
			c0-0.5-0.1-0.9-0.1-1.4c0-0.1,0-0.1,0-0.2c0-0.1,0-0.3,0-0.4c0-0.2,0-0.3,0-0.5c0-0.1,0-0.3,0-0.4s0-0.1,0-0.2
			c0-0.4,0-0.7,0.1-1.1c0-0.1,0-0.1,0-0.2c0-0.4,0.1-0.9,0.2-1.3c0,0,0,0,0-0.1c0.1-0.2,0.1-0.4,0.2-0.6c0.1,0,0.2,0,0.4,0.1
			c0.4,0.2,0.8,0.4,1.2,0.6h0.1c0.7,0.3,1.5,0.5,2.3,0.5h0.1c0.4,0,0.9,0,1.3-0.1h0.1c0.3-0.1,0.6-0.1,0.9-0.2h0.1
			c0.2-0.1,0.5-0.2,0.7-0.3c-0.2,0.1-0.1,0.1-0.1,0.1h0.1c0.1,0,0.1,0,0.2,0c0,0,0,0,0-0.1h0.1c0.5-0.2,1-0.5,1.5-0.9c0,0,0,0,0.1,0
			c0.5-0.5,1.1-1,1.6-1.4c0.1-0.1,0.2-0.1,0.2-0.2l0.1-0.1c0,0,0,0,0.1,0c0,0,0,0,0-0.1c0,0,0,0,0.1-0.1c0.2-0.2,0.2-0.2,0.4-0.4
			c0,0,0,0,0.1,0l0,0c0-0.1,0.1-0.1,0.2-0.2s0.2-0.2,0.3-0.3c0-0.2,0.1-0.2,0.1-0.3c0.2-0.2,0.3-0.4,0.5-0.6c0,0,0,0,0-0.1L24.1,0
			c0,0,0,0,0-0.1c0,0,0,0,0-0.1C24.3-0.1,24.3-0.1,24.4-0.1z M24.3,0.2c0,0.1-0.1,0.1-0.1,0.2c-0.2,0.2-0.3,0.3-0.4,0.5L23.7,1
			c-0.1,0.1-0.2,0.3-0.3,0.4c0,0,0,0.1-0.1,0.1c-0.2,0.2-0.4,0.4-0.6,0.6c0,0,0,0-0.1,0.1s-0.3,0.3-0.4,0.4l-0.1,0.1
			c-0.2,0.1-0.3,0.2-0.4,0.3s-0.1,0.1-0.2,0.2c-0.4,0.2-0.7,0.5-1.1,0.7c-0.1,0-0.1,0.1-0.2,0.1c-0.3,0.2-0.6,0.4-0.9,0.5
			c0,0,0,0,0,0.1c0,0,0,0-0.1,0S19,4.7,18.9,4.7c0,0.2-0.1,0.2-0.2,0.2c0,0,0,0,0,0.1c-0.1,0-0.1,0-0.2,0c0,0,0,0,0,0.1h-0.1
			c-0.2,0-0.3,0.1-0.4,0.2c0,0,0,0,0,0.1h-0.1c-0.1,0-0.2,0.1-0.3,0.1c-0.2,0.1-0.4,0.1-0.5,0.2c0,0,0,0-0.1,0
			c-0.2,0-0.4,0.1-0.6,0.1c0,0,0,0,0,0.1h-0.1c-0.1,0-0.2,0-0.3,0c-0.2,0-0.4,0-0.7,0c0,0,0,0-0.1,0c-1,0-1,0-1.5-0.1
			c-0.1,0-0.2,0-0.3-0.1c-0.1,0-0.2-0.1-0.3-0.1c-0.1,0-0.1,0-0.2-0.1c-0.1,0-0.1,0-0.2-0.1c-0.1,0-0.1,0-0.2,0c0,0,0,0,0-0.1h-0.1
			c-0.2-0.1-0.3-0.1-0.5-0.2L11.8,5c0,0,0,0-0.1,0s-0.1,0-0.1,0s0,0,0-0.1c-0.1,0-0.1,0-0.2,0c0,0,0,0,0-0.1h-0.1c0,0,0,0-0.1,0
			s-0.1,0-0.2,0c-0.1,0.2-0.2,0.5-0.3,0.8c0,0,0,0,0,0.1c0.2,0.1,0.1,0.4,0.1,0.8c0,0.1,0,0.2,0,0.2v0.1c0,0.1,0,0.2,0,0.3
			c0,0.1,0,0.1,0,0.2c0,0,0,0,0,0.1s0,0.1,0,0.2v0.1c0,0.1,0,0.2,0,0.3s0,0.3,0,0.4c0,0.7,0,1.3,0.1,2v0.1c0,0.1,0,0.1,0,0.2
			c0,0,0,0,0.1,0v0.1c0,0.4,0,0.4,0.1,0.8v0.1v0.1c0,0.1,0,0.1,0,0.2c0,0.2,0,0.3,0.1,0.5c0,0.1,0,0.2,0,0.2v0.1c0,0.1,0,0.2,0,0.3
			c0,0.4,0.1,0.7,0.2,1.1c0,0.2,0.1,0.3,0.1,0.5c0,0.1,0,0.2,0.1,0.3c0,0,0,0,0,0.1c0.1,0.3,0.1,0.5,0.2,0.8c0,0,0,0,0,0.1
			c0,0.1,0,0.1,0.1,0.2c0.1,0,0.2,0,0.3,0h0.1c0.1,0,0.2,0,0.3,0c0.1,0,0.1,0,0.2,0s0.3,0,0.4,0c0.2,0,0.4,0,0.7,0
			c0.4,0,0.7,0,1.1,0s0.7,0,1.1,0c0,0,0,0,0.1,0s0.2,0,0.3,0c0.9,0,1.7,0,2.6,0c0.8,0,1.6,0,2.4,0h0.1c0.1,0,0.1,0,0.2,0
			s0.1,0,0.2,0c0,0,0,0,0.1,0c2.4,0,4.7,0,14.7,0c0-0.1,0.1-0.2,0.1-0.2s0,0,0-0.1c0.1-0.2,0.1-0.4,0.2-0.7v-0.1c0-0.1,0-0.3,0-0.4
			c0,0,0,0,0.1,0c0.1-0.4,0.2-0.8,0.3-1.2c0-0.1,0-0.2,0-0.3c0,0,0,0,0-0.1s0-0.2,0.1-0.3c0-0.2,0.1-0.4,0.1-0.6c0-0.1,0-0.1,0-0.2
			c0-0.2,0.1-0.4,0.1-0.6c0-0.1,0-0.1,0-0.1c0-0.1,0-0.2,0-0.2c0-0.2,0-0.2,0-0.3v-0.1v-0.1c0-0.1,0-0.1,0-0.2c0-0.1,0-0.3,0-0.4
			c0-0.7,0-1.3,0-1.8c0-0.1,0-0.1,0-0.2c0-1.2,0-1.2-0.1-2.4c0-0.1,0-0.1-0.1-0.2c0-0.2-0.1-0.5-0.2-0.7c-0.1,0-0.3,0.1-0.4,0.2
			c0,0,0,0,0,0.1c0,0,0,0-0.1,0c-0.1-0.1-0.3-0.1-0.4,0c-0.1,0.1-0.3,0.1-0.4,0.2H36c0,0,0,0-0.1,0s-0.1,0.1-0.2,0.1s-0.1,0-0.1,0
			s0,0-0.1,0c0,0,0,0-0.1,0c0,0,0,0,0,0.1c-0.1,0-0.2,0-0.3,0c0,0,0,0,0,0.1H35c-0.1,0-0.3,0-0.4,0.1c-0.2,0-0.4,0.1-0.5,0.1
			s-0.1,0-0.1,0h-0.1h-0.1c0,0,0,0-0.1,0h-0.1c-0.1,0-0.1,0-0.2,0s-0.2,0-0.3,0c-0.1,0-0.1,0-0.2,0h-0.1h-0.1h-0.1
			c-0.1,0-0.1,0-0.1,0h-0.1c-0.3,0-0.5,0-0.8-0.1c-0.1,0-0.2,0-0.3,0c0,0,0,0,0-0.1h-0.1c-0.1,0-0.2-0.1-0.3-0.1h-0.1
			c-0.1,0-0.2-0.1-0.3-0.1h-0.1c-0.2,0-0.3-0.1-0.4-0.2c0,0-0.1,0-0.1-0.1c0,0-0.1,0-0.1-0.1c0,0,0,0-0.1,0s-0.2-0.1-0.3-0.2
			c-0.1-0.1-0.1-0.1-0.1,0c0,0,0,0,0-0.1l0,0c-0.6-0.3-1.2-0.7-1.7-1.1c0,0-0.1,0-0.1-0.1c-0.1-0.1-0.2-0.2-0.3-0.2
			c-0.1-0.1-0.1-0.1-0.1-0.1s0,0,0-0.1L27,2.9c-0.1-0.1-0.2-0.2-0.4-0.3c-0.1-0.1-0.1-0.1-0.2-0.1c-0.2-0.1-0.3-0.3-0.4-0.4
			c-0.1-0.1-0.2-0.2-0.2-0.2c-0.2-0.2-0.3-0.3-0.5-0.5l-0.1-0.1c-0.1-0.1-0.2-0.2-0.3-0.4c-0.1-0.1-0.1-0.1-0.2-0.2
			S24.5,0.4,24.3,0.2C24.4,0.3,24.4,0.2,24.3,0.2C24.4,0.2,24.3,0.2,24.3,0.2z"/>
		<path class="st2" d="M13,27.2L13,27.2L13,27.2c0.3,1.7,1,2.9,2,4.2c0,0.1,0.1,0.1,0.1,0.2l0.1,0.1c0,0,0,0,0,0.1
			c0.1,0.1,0.1,0.1,0.2,0.2c0,0.1-0.1,0.1-0.2,0.2c0,0,0,0-0.1,0.1c0,0-0.1,0-0.1,0.1c-0.1,0-0.1,0.1-0.2,0.1c0,0,0,0-0.1,0
			c-0.1,0.1-0.2,0.1-0.4,0.2c0.1,0.2,0.2,0.3,0.4,0.4c0,0,0,0,0.1,0.1s0.3,0.2,0.4,0.4l0.1,0.1c0.2,0.2,0.4,0.4,0.7,0.6
			c0,0,0,0,0.1,0c2,1.5,4.4,2.5,6.9,2.8c0,0,0,0,0.1,0c0.4,0.1,0.8,0.1,1.3,0.1h0.1c0.5,0,1,0,1.5-0.1h0.1c1.2-0.2,2.4-0.5,3.6-1
			h0.1c0.7-0.3,1.4-0.7,2-1.1c0,0,0,0,0.1,0c0.4-0.3,0.9-0.6,1.3-0.9l0.1-0.1c0.2-0.2,0.5-0.4,0.7-0.6l0,0l0.1-0.1c0,0,0,0,0.1-0.1
			s0.1-0.1,0.1-0.2c0,0,0,0-0.1,0s-0.2-0.1-0.3-0.1c0,0-0.1,0-0.1-0.1c-0.4-0.3-0.4-0.3-0.6-0.3c0,0,0,0,0-0.1l0.1-0.1l0.1-0.1
			c0.1-0.1,0.2-0.2,0.2-0.3c0.9-1,1.4-2.1,1.7-3.4c0,0,0,0,0-0.1s0-0.3,0.1-0.4c0,0,0,0,0.1,0c0,0,0,0,0.1,0.1s0.2,0.3,0.3,0.4
			c0.3,0.4,0.5,0.8,0.8,1.3c0,0,0,0,0.1-0.1c0.2-0.2,0.4-0.3,0.6-0.5c0.4-0.3,0.8-0.6,1-1c0.1-0.1,0.2-0.2,0.3-0.3
			c0,1.1-0.3,2.3-0.7,3.3c0.4,0.1,0.8,0.2,1.1,0.2c0,0.1,0,0.2-0.1,0.3v0.1c0,0,0,0.1-0.1,0.1c0,0,0,0,0,0.1c-0.3,0.7-0.7,1.4-1.2,2
			l-0.1,0.1c-0.2,0.2-0.4,0.5-0.6,0.7l0,0c-0.2,0.2-0.4,0.4-0.6,0.6l0,0c-0.2,0.2-0.3,0.3-0.5,0.5L35.8,36c-0.2,0.2-0.5,0.4-0.7,0.6
			c0,0,0,0-0.1,0c-0.9,0.7-1.9,1.3-2.9,1.8H32c-2,1-4.1,1.6-6.3,1.8c0,0,0,0-0.1,0c-0.2,0-0.5,0-0.7,0c0,0,0,0-0.1,0s-0.3,0-0.4,0
			c0,0,0,0-0.1,0c-0.7,0-1.4,0-2.1-0.1c0,0,0,0-0.1,0c-0.6-0.1-1.1-0.2-1.7-0.3h-0.1c-0.6-0.1-1.2-0.3-1.7-0.5c0,0,0,0-0.1,0
			c-1.6-0.6-3.2-1.3-4.5-2.4c-0.1,0-0.1-0.1-0.2-0.1c-0.7-0.5-1.3-1-1.9-1.6c0,0,0,0-0.1-0.1s-0.3-0.3-0.4-0.4l-0.1-0.1
			c-0.8-0.9-1.4-1.9-1.8-2.9c0,0,0,0,0-0.1c0,0,0,0,0-0.1c0,0,0,0,0-0.1s0-0.1,0-0.1c0.1,0,0.3-0.1,0.4-0.1H10c0.1,0,0.1,0,0.2,0
			c0,0,0,0,0.1,0s0.3,0,0.4-0.1c0,0,0,0,0-0.1c-0.4-1-0.5-2.1-0.5-3.2c0.1,0.1,0.2,0.2,0.3,0.3c0.3,0.4,0.7,0.8,1.1,1.2
			c0.1,0,0.1,0.1,0.2,0.1l0.1,0.1c0.1-0.1,0.1-0.2,0.1-0.3v-0.1c0,0,0,0,0-0.1c0.2-0.5,0.5-1,0.8-1.4C12.9,27.3,12.9,27.3,13,27.2z"
			/>
		<path class="st3" d="M27.9,5C28,5,28,5,28.1,5c0,0,0,0,0,0.1c0.1,0.1,0.1,0.3,0.3,0.3l0.1-0.1c0.1,0,0.1,0,0.1,0v0.1
			c0.1,0,0.1,0,0.2-0.1c0,0,0,0,0-0.1C28.9,5.1,28.9,5,29,5h0.1c0,0.2,0,0.3-0.1,0.4c0,0,0,0,0.1,0c0,0,0,0,0-0.1s0.1-0.1,0.1-0.2
			c0,0,0,0,0.1-0.1c0,0,0,0,0.1-0.1c0,0,0,0,0.1,0c0,0.2,0,0.5-0.1,0.7h0.1v0.1c0,0,0,0,0.1,0s0.1,0,0.2,0.1c0.1,0,0.1,0,0.2,0
			s0.1,0.1,0.1,0.1c0.1,0,0.1,0,0.1,0C30.5,6,30.5,6,30.6,6.1c0,0.1,0,0.2,0.1,0.2l0,0c0.1,0,0.1,0,0.2,0v0.1H31c0,0,0,0,0,0.1h0.1
			v0.1c0,0,0,0-0.1,0v0.1l0,0c0,0,0,0,0.1,0h0.1c0,0,0,0,0.1,0c0,0.1,0,0.1,0,0.2c0,0,0,0,0.1,0.1v0.1c0,0,0,0,0.1,0
			c0,0.1-0.1,0.2-0.2,0.3c-0.1,0-0.2,0-0.3,0.1c0,0.1,0,0.1,0,0.2c0,0,0,0,0.1,0c0.1,0.1,0.1,0.1,0.1,0.2c0,0,0,0-0.1,0l0,0
			C31.1,8,31.1,8,31,8c0,0.1-0.1,0.1-0.1,0.2H31c0,0.2,0,0.4-0.1,0.6c0,0,0,0,0.1,0c0,0.1,0,0.1,0,0.2c0.1,0,0.1,0,0.2,0
			c0,0.1-0.1,0.2-0.2,0.3c-0.1,0-0.1,0-0.2,0s-0.1,0-0.2,0c0,0.1,0,0.1-0.1,0.1c0,0,0,0-0.1,0c0,0,0,0,0,0.1c0.1,0.1,0.1,0.2,0,0.4
			V10c0,0,0,0-0.1,0.1c0,0.1,0,0.1-0.1,0.2c0,0,0,0.1-0.1,0.1c0,0,0,0-0.1,0c0,0,0,0,0,0.1h-0.1c0,0,0,0,0,0.1c0,0,0,0,0.1,0
			c0,0,0,0,0.1,0c0,0.1,0,0.1,0.1,0.2c0,0,0,0,0.1,0.1s0.1,0.1,0.1,0.2c0,0,0,0-0.1,0c0,0,0,0-0.1,0c0,0,0,0,0,0.1c0,0,0,0-0.1,0
			c0,0,0,0-0.1,0c0,0,0,0-0.1,0s-0.1,0-0.2,0c0,0,0,0,0,0.1c-0.1,0-0.2,0.1-0.4,0.1c0,0,0,0-0.1,0h-0.1c0,0,0,0-0.1,0c0,0,0,0-0.1,0
			l0,0c0,0,0,0,0,0.1c-0.1,0-0.2,0-0.2,0.1c-0.1,0-0.1,0-0.2,0.1c0.2,0.2-0.1,0.2-0.3,0.2c0,0,0,0,0,0.1c-0.1,0-0.1,0-0.2,0
			c0,0,0,0,0,0.1c-0.1,0-0.2,0-0.3,0c0,0,0,0,0,0.1h-0.1h-0.1h-0.1c-0.1,0-0.1,0-0.1,0.1c0,0,0,0,0,0.1c0,0,0,0,0.1,0c0,0,0,0,0,0.1
			s0,0.1,0.1,0.1c0.1,0.1,0.1,0.1,0.1,0.4c-0.3,0-0.6,0-0.8,0c0,0,0,0,0,0.1l0,0c-0.2,0-0.5,0.1-0.7,0.2c-0.1,0-0.1,0.1-0.2,0.1
			c0,0.1,0,0.2,0,0.2s0,0,0,0.1c0,0.2,0,0.2,0.1,0.3c0,0.1,0,0.1,0,0.2v0.1c0,0,0,0,0,0.1c0,0,0,0-0.1,0c0,0,0,0,0,0.1
			s0,0.1-0.1,0.1s-0.1,0-0.2,0v-0.1c0,0,0,0,0.1,0c0,0-0.1,0-0.1-0.1c-0.1,0-0.1-0.1-0.1-0.1c0-0.1,0-0.1,0-0.2c-0.1,0-0.1,0-0.2,0
			c0,0,0,0,0,0.1h-0.1v0.1c-0.1,0-0.1,0-0.1,0s0,0-0.1,0l0,0l0,0c0,0.1,0,0.2,0,0.3c-0.1,0.1-0.1,0.1-0.2,0.1c0,0,0,0,0,0.1
			c-0.1,0-0.1,0-0.2,0v-0.1h0.1c0,0,0,0,0-0.1c0,0,0,0-0.1,0v-0.1c0,0,0,0-0.1,0c0,0,0,0,0,0.1s-0.1,0.1-0.1,0.2c0,0,0,0-0.1,0
			c0,0,0,0,0,0.1L24.2,15c-0.1,0-0.1,0.1-0.1,0.1s0,0.1-0.1,0.1c0,0,0,0-0.1,0c0,0,0,0,0,0.1s0,0.1-0.1,0.1s-0.1,0-0.1,0
			c-0.1,0-0.2,0-0.2,0.1c-0.1,0-0.1,0-0.1,0s0,0-0.1-0.1c-0.1,0-0.1,0-0.2,0s-0.1,0-0.2-0.1c-0.1,0-0.1,0-0.1,0s0,0-0.1,0.1
			c-0.1,0-0.1,0-0.1,0s0,0-0.1,0s-0.1,0-0.1-0.1c0,0,0,0,0-0.1c0,0,0,0-0.1,0c0,0,0,0,0-0.1h-0.1c-0.1,0-0.3,0-0.4,0c0,0,0,0,0-0.1
			c0,0,0,0-0.1,0s-0.1-0.1-0.2-0.1c0,0,0,0,0-0.1c0,0,0,0-0.1,0c-0.2,0-0.2,0-0.3,0c0,0,0,0-0.1,0l0,0c-0.1,0-0.1,0-0.1,0
			s0,0-0.1-0.1c-0.3,0-0.5,0-0.8,0.1c-0.1,0-0.3,0-0.4,0c0,0,0,0,0-0.1h-0.1c-0.1,0-0.2-0.1-0.3-0.2c0,0,0,0,0-0.1
			c-0.1-0.1-0.1-0.1-0.2-0.2c-0.1,0-0.1-0.1-0.2-0.2c-0.1-0.1-0.1-0.1-0.2-0.1c0,0,0,0-0.1-0.1s-0.1-0.2-0.2-0.2
			c-0.1-0.1-0.1-0.1-0.2-0.2c0,0,0,0,0-0.1c0,0,0,0,0-0.1H18c0-1.1,0-2.3,0-3.4c0.8,0,1.5,0,2.3,0l-0.1-0.1c0-0.1,0-0.1,0-0.2
			c0,0,0,0,0.1,0c0,0,0,0,0-0.1s0-0.1,0.1-0.2c0,0,0,0,0.1-0.1c0-0.1,0-0.1-0.1-0.2c0-0.1,0-0.1,0-0.2c0-0.1,0-0.1,0-0.2h-0.1
			c-0.1,0-0.1,0-0.1,0c-0.1,0-0.1,0-0.2,0s-0.2,0-0.3,0V8.4c-0.4,0-0.8,0-1.2,0c0,0,0,0,0-0.1c0.1,0,0.2,0,0.4,0c0,0,0,0,0-0.1h-0.1
			h-0.1c0,0,0,0-0.1,0c0,0,0,0-0.1,0c0,0,0,0-0.1,0s-0.1,0-0.2,0c0,0,0,0,0-0.1c0.7,0,0.7,0,1,0c0,0,0,0,0-0.1C19,8,19,8,18.8,8
			c0,0,0,0,0-0.1h-0.1h-0.1c0,0,0,0-0.1,0s-0.2,0-0.3-0.1c0,0,0,0,0-0.1c0.1,0,0.2,0,0.2,0s0,0,0.1,0s0.2,0,0.3,0.1c0,0,0,0,0,0.1
			c0,0,0,0,0.1,0c0,0,0,0,0.1,0c0,0,0,0,0.1,0s0.1,0,0.2,0c0,0,0,0,0,0.1c0.1,0,0.1,0,0.2,0c-0.1-0.1-0.1-0.1-0.2-0.1
			S19,7.8,18.9,7.7c0,0,0,0-0.1,0c0,0,0,0-0.1,0c0,0,0,0-0.1,0c0,0,0,0-0.1-0.1h0.1c0,0,0,0,0.1,0s0.1,0,0.1,0.1
			c0,0.4,0,0.4,0.1,0.4c0.2,0,0.4,0.1,0.6,0.2c0.2,0.1,0.3,0.2,0.5,0.2c0.1,0,0.1,0,0.1,0.1c0.1,0,0.1,0,0.2,0
			c0-0.1,0.1-0.2,0.1-0.3c0,0,0,0-0.1,0c0-0.1,0-0.3,0-0.4h0.1c0,0,0,0,0,0.1c0,0,0,0,0.1,0v0.1h0.1c0.1,0,0.1,0,0.2,0.1
			c0,0.1,0,0.1,0,0.1s0,0,0,0.1s0,0.1-0.1,0.1c0.2,0,0.2,0,0.4-0.1l0,0c0.1-0.1,0.3-0.1,0.4-0.1h0.1h0.1c0,0,0,0,0-0.1h0.1v0.1
			c0,0,0,0-0.1,0v0.1c0,0,0,0,0,0.1s0,0.1,0.1,0.1c0,0,0,0,0.1,0c0,0,0,0,0.1,0v0.1c0,0,0,0,0.1,0c0,0,0,0,0-0.1h0.1v0.1h0.1
			c0.1,0,0.1,0,0.2,0s0.1,0.1,0.2,0c0,0,0,0,0.1,0h0.1H23c0.1,0,0.1,0,0.2,0c0,0,0,0,0,0.1c0.1,0,0.1,0,0.2,0c0,0,0,0,0.1,0
			s0.1,0,0.2,0c0.1-0.1,0.1-0.2,0.1-0.4c0.2,0,0.2,0,0.2,0s0,0,0,0.1s0,0.1,0.1,0.2c0,0,0.1,0.1,0.2,0.1c0,0,0,0,0,0.1
			c0,0,0,0,0,0.1c0,0,0,0,0.1,0c0,0,0,0,0,0.1s0,0.1,0.1,0.1s0.2,0,0.3,0h0.1c0,0,0,0.1,0.1,0.1h0.1c0.1-0.2,0.1-0.2,0.1-0.4
			c0-0.1,0-0.1,0.1-0.1s0.1,0,0.2-0.1c0,0,0,0,0-0.1c0-0.2,0-0.3,0.1-0.5c0,0,0,0,0.1,0c0-0.1,0-0.2,0-0.3c0,0,0,0,0.1,0
			c0,0,0,0,0-0.1s0-0.1,0.1-0.2S26,7.4,26,7.3V7.2V7.1C26,7,26,7,25.9,6.9c0,0,0,0,0-0.1V6.7c0-0.1,0-0.2,0-0.2c0-0.1,0-0.1,0-0.1
			c0-0.1,0-0.1,0-0.2c0,0,0,0-0.1,0c0-0.1,0-0.1,0-0.2c-0.1,0-0.1,0-0.2,0c0-0.1,0-0.1,0-0.1c0.1-0.1,0.2-0.2,0.3-0.2
			c0.2-0.1,0.3-0.2,0.4-0.4c0-0.1,0-0.2,0-0.3c0.1,0,0.1,0,0.2,0c0,0,0,0,0-0.1c0.1,0,0.3,0,0.4,0c0,0,0,0,0-0.1
			c0.4,0,0.7-0.1,1.1-0.1c0,0,0,0,0-0.1C27.7,5,27.8,5,27.9,5L27.9,5z"/>
		<path class="st4" d="M24.3,19.5C24.3,19.5,24.3,19.6,24.3,19.5C24.3,19.6,24.3,19.6,24.3,19.5c0.1,0.1,0.2,0.1,0.2,0.2
			c0.1,0.1,0.2,0.1,0.3,0.2c0.2,0.1,0.4,0.3,0.5,0.4s0.1,0.1,0.2,0.1c0.1,0.1,0.2,0.2,0.3,0.2c0.1,0.1,0.1,0.1,0.2,0.1
			s0.1,0.1,0.1,0.1s0,0,0.1,0.1c0,0,0,0,0,0.1c0,0,0,0,0.1,0s0.2,0.1,0.2,0.2c0.1,0.1,0.2,0.2,0.3,0.3l0.1,0.1c0,0,0,0,0,0.1l0,0
			c0.1,0,0.1,0.1,0.2,0.1c0.1,0.1,0.1,0.1,0.2,0.2c0,0,0,0,0,0.1h0.1c0,0,0,0,0,0.1l0,0c0.1,0,0.2,0.1,0.2,0.2h0.1c0,0,0,0,0.1,0
			c0,0,0,0,0,0.1c0,0,0,0,0.1,0c0.2,0.1,0.2,0.1,0.2,0.2c0,0,0,0,0.1,0s0.1,0,0.1,0.1h0.1c0.1,0,0.1,0,0.1,0.1
			c0.1,0.1,0.2,0.1,0.3,0.2c0,0,0,0,0.1,0.1c0,0,0,0,0.1,0s0.1,0,0.1,0.1h0.1c0.1,0,0.1,0,0.1,0.1c0.1,0.1,0.2,0.1,0.3,0.2
			c0,0,0,0,0.1,0.1c0.1,0,0.1,0.1,0.2,0.1c0,0,0,0,0,0.1c0,0,0,0,0.1,0c0,0,0,0,0,0.1l0,0c0.1,0,0.1,0.1,0.2,0.1
			c0.1,0.1,0.1,0.1,0.2,0.2c0,0,0,0,0,0.1h0.1c0,0,0,0,0,0.1l0,0c0.1,0,0.1,0.1,0.2,0.1c0,0,0,0,0.1,0.1c0,0,0,0,0.1,0.1l0.1,0.1
			l0.1,0.1l0.1,0.1c0.1,0.1,0.1,0.1,0.2,0.2s0.1,0.1,0.2,0.1c0,0.1-0.1,0.2-0.2,0.3c0,0,0,0,0,0.1l-0.1,0.1
			c-0.1,0.1-0.1,0.1-0.2,0.2c-0.3,0.3-0.5,0.6-0.8,0.9c-0.1,0.1-0.1,0.1-0.2,0.2s-0.1,0.1-0.2,0.2l-0.1,0.1
			c-0.3,0.3-0.3,0.3-0.5,0.5c-0.1,0.1-0.2,0.2-0.3,0.2c-0.1,0-0.1,0-0.1,0s0,0,0,0.1c-0.1,0.1-0.1,0.1-0.2,0.1c0,0,0,0,0,0.1
			c-0.1,0-0.1,0.1-0.2,0.1c0,0-0.1,0-0.1,0.1l0,0l-0.1,0.1c-0.1,0-0.1,0-0.1,0c-0.1,0-0.2-0.1-0.3-0.2c-0.1-0.1-0.2-0.2-0.4-0.3
			c-0.1-0.1-0.1-0.1-0.2-0.2S27.2,28,27.2,28s0,0,0-0.1c-0.1-0.1-0.1-0.1-0.2-0.1s-0.1-0.1-0.1-0.1s0,0-0.1-0.1c0,0,0,0,0-0.1l0,0
			c-0.1-0.1-0.2-0.1-0.2-0.2c-0.1-0.1-0.2-0.2-0.3-0.2c-0.1,0-0.1-0.1-0.2-0.1c0,0-0.1,0-0.1-0.1c-0.1-0.1-0.1-0.1-0.1-0.1
			c0-0.1,0-0.1-0.1-0.1c-0.1-0.1-0.2-0.1-0.2-0.2c-0.1,0-0.1,0-0.1-0.1c-0.1-0.1-0.2-0.2-0.3-0.3c-0.1-0.1-0.2-0.2-0.3-0.2l-0.1-0.1
			c-0.1-0.1-0.2-0.1-0.3-0.2c0,0,0,0,0-0.1c0,0,0,0-0.1,0s-0.1-0.1-0.2-0.1c-0.1-0.1-0.1-0.1-0.1-0.1c-0.1,0-0.1,0.1-0.2,0.1
			c-0.1,0.1-0.2,0.1-0.2,0.2l-0.1,0.1c-0.1,0-0.1,0.1-0.2,0.1l0,0c0,0,0,0-0.1,0l0,0c-0.1,0.1-0.1,0.1-0.2,0.2s-0.2,0.1-0.3,0.2
			l-0.1,0.1c-0.1,0.1-0.2,0.2-0.4,0.3c-0.1,0.1-0.1,0.1-0.1,0.1c-0.1,0-0.1,0.1-0.2,0.2c-0.2,0.2-0.2,0.2-0.3,0.2c0,0,0,0-0.1,0
			c0,0,0,0,0,0.1s-0.1,0.1-0.1,0.1c-0.1,0.1-0.2,0.1-0.2,0.2c-0.1,0.1-0.2,0.1-0.3,0.1c0,0,0,0-0.1,0c0,0,0,0,0,0.1
			s-0.1,0.1-0.2,0.2l0,0c0,0,0,0-0.1,0c0,0,0,0,0,0.1s-0.1,0.1-0.2,0.1c0,0,0,0-0.1,0.1s-0.1,0.1-0.2,0.1L20,28.4
			c-0.1,0-0.2-0.1-0.3-0.2c0,0,0,0-0.1,0c-0.1-0.1-0.3-0.2-0.4-0.4c-0.1-0.1-0.2-0.2-0.3-0.3c0,0,0,0-0.1,0c0,0,0,0,0-0.1
			c0,0,0,0-0.1,0s-0.1-0.1-0.1-0.1l0,0c0,0,0,0-0.1-0.1c0,0,0,0-0.1-0.1L18.3,27c-0.1-0.1-0.1-0.1-0.2-0.2L18,26.7c0,0,0,0-0.1-0.1
			s-0.2-0.2-0.3-0.3l-0.1-0.1c-0.1-0.1-0.2-0.2-0.3-0.3c-0.1-0.1-0.2-0.2-0.3-0.3c-0.1-0.1-0.3-0.3-0.4-0.5c0,0,0,0,0-0.1
			s0-0.1,0-0.1c0-0.1,0.1-0.1,0.2-0.1c0.1-0.1,0.2-0.2,0.3-0.2c0.1-0.1,0.2-0.2,0.3-0.2c0.2-0.1,0.3-0.3,0.5-0.4
			c0.1-0.1,0.3-0.2,0.4-0.3c0.1-0.1,0.2-0.1,0.3-0.2c0.1-0.1,0.2-0.2,0.4-0.3c0.1-0.1,0.2-0.1,0.2-0.2c0.1-0.1,0.1-0.1,0.2-0.2
			s0.2-0.2,0.4-0.3c0.1-0.1,0.1-0.1,0.2-0.1c0.2-0.1,0.3-0.2,0.4-0.3c0.1-0.1,0.1-0.1,0.2-0.1l0.1-0.1c0.1-0.1,0.2-0.1,0.2-0.2
			c0.1-0.1,0.3-0.2,0.4-0.3c0.1-0.1,0.1-0.1,0.2-0.1c0,0,0.1,0,0.1-0.1c0.1-0.1,0.2-0.1,0.3-0.2c0.1-0.1,0.2-0.1,0.2-0.2
			c0.1-0.1,0.1-0.1,0.2-0.1c0,0,0,0,0-0.1c0,0,0,0,0.1-0.1c0,0,0,0,0.1,0c0,0,0,0,0.1,0l0.1-0.1c0,0,0,0,0.1,0
			c0.1-0.1,0.2-0.1,0.3-0.2c0.1-0.1,0.2-0.2,0.4-0.3c0,0,0.1,0,0.1-0.1c0.1-0.1,0.1-0.1,0.1-0.1c0.1,0,0.1-0.1,0.2-0.1
			c0.1-0.1,0.2-0.1,0.3-0.2c0,0,0,0,0.1,0C24.1,19.5,24.2,19.5,24.3,19.5z"/>
		<path class="st5" d="M20.2,8.8c0.1,0,0.2,0,0.3,0c0,0,0,0,0,0.1c0.1,0,0.1,0,0.2,0c0,0,0,0,0,0.1h0.1c0,0,0,0,0,0.1
			c0.1,0,0.3,0,0.4,0c0,0,0,0,0,0.1l0,0c0.2,0,0.3,0,0.4,0.2v0.1h0.1c0,0,0,0,0,0.1h0.1c0.1,0,0.2,0,0.2,0.1v0.1c0,0,0,0,0.1,0
			s0.1,0,0.2,0.1c0.1,0,0.1,0,0.1,0V10c0,0,0.1,0,0.1,0.1c0,0,0,0,0,0.1l0,0c0.1,0,0.1,0.1,0.2,0.1c0,0,0,0,0.1,0s0.1,0.1,0.1,0.2
			c0.1,0,0.1,0,0.1,0c0.1,0.1,0.1,0.1,0.1,0.1s0,0,0.1,0s0.1,0.1,0.1,0.1s0,0,0.1,0s0.1,0.1,0.2,0.1c0,0,0,0,0.1,0.1c0,0,0,0,0,0.1
			l0,0c0.1,0,0.1,0.1,0.2,0.1l0.1,0.1c0.1,0.1,0,0.1,0,0.2c0,0.1,0,0.1,0,0.1c-0.1,0-0.1,0-0.2,0c0,0,0,0-0.1,0s-0.1,0-0.1-0.1
			c0,0,0,0,0-0.1c0,0,0,0-0.1,0c-0.3,0-0.5,0-0.8,0c0,0,0,0,0-0.1c0,0,0,0-0.1,0s-0.2,0-0.4-0.1c0,0,0,0,0-0.1c-0.1,0-0.2,0-0.3,0
			c0,0,0,0,0-0.1c-0.1,0-0.1,0-0.2,0c0,0,0,0,0-0.1h-0.1v0.1c0,0,0,0,0.1,0c0,0.1,0,0.1,0,0.2c0,0,0,0-0.1,0c0,0,0,0-0.1,0
			c0,0,0,0-0.1,0s-0.1,0-0.2,0v0.1h0.1c0,0.1,0,0.1,0,0.2l-0.1,0.1v0.1c0,0.1,0,0.1-0.1,0.1s-0.1,0-0.2,0c0,0.1,0,0.1,0.1,0.1
			c0,0,0,0,0.1,0v0.1c0,0,0,0-0.1,0V12c0.1,0,0.1,0,0.2,0c0,0.1,0,0.1,0,0.3h0.1c0.1,0,0.1,0,0.1,0.1v0.1h0.1c0.1,0,0.1,0,0.2,0.1
			c0,0,0,0,0,0.1c0,0,0,0,0.1,0c0,0,0,0,0-0.1c0.1,0,0.3,0,0.4,0c0,0.1,0,0.1,0,0.2h0.1h0.1c0,0,0,0,0.1,0s0.1,0,0.2,0
			c0,0,0,0,0,0.1c0,0,0,0,0,0.1c0,0,0,0,0.1,0c0,0,0,0,0.1,0c0,0,0,0,0.1,0s0.1,0,0.1,0s0,0,0-0.1c0.1,0,0.1,0,0.2,0
			c0,0,0,0,0.1,0.1c0.1,0,0.1,0,0.1,0s0,0,0.1,0c0,0,0,0,0.1,0c0,0.1,0,0.1,0,0.2c0,0,0,0-0.1,0c0,0,0,0.1,0.1,0.1
			c0.1,0.4,0.1,0.5,0.1,0.6c0,0,0,0,0.1,0s0.2,0,0.3,0h0.1c0.1,0,0.1,0,0.2,0.1c0,0.1,0,0.1,0,0.2v0.1c0,0,0,0,0,0.1v0.1
			c0,0.1,0,0.1,0,0.2c0,0,0,0,0-0.1c0,0,0,0-0.1,0c0,0,0,0,0,0.1s-0.1,0.1-0.1,0.2c0,0,0,0-0.1,0c0,0,0,0,0,0.1l-0.1,0.1
			c-0.1,0-0.1,0.1-0.1,0.1s0,0-0.1,0.1c0,0,0,0-0.1,0c0,0,0,0,0,0.1s0,0.1-0.1,0.1s-0.1,0-0.1,0c-0.1,0-0.2,0-0.2,0.1
			c-0.1,0-0.1,0-0.1,0s0,0-0.1-0.1c-0.1,0-0.1,0-0.2,0s-0.1,0-0.2-0.1c-0.1,0-0.1,0-0.1,0s0,0-0.1,0.1c-0.1,0-0.1,0-0.1,0s0,0-0.1,0
			s-0.1,0-0.1-0.1c0,0,0,0,0-0.1c0,0,0,0-0.1,0c0,0,0,0,0-0.1h-0.1c-0.1,0-0.3,0-0.4,0c0,0,0,0,0-0.1c0,0,0,0-0.1,0S21.5,15,21.4,15
			c0,0,0,0,0-0.1c0,0,0,0-0.1,0c-0.2,0-0.2,0-0.3,0c0,0,0,0-0.1,0l0,0c-0.1,0-0.1,0-0.1,0s0,0-0.1-0.1c-0.3,0-0.5,0-0.8,0.1
			c-0.1,0-0.3,0-0.4,0c0,0,0,0,0-0.1h-0.1c-0.1,0-0.2-0.1-0.3-0.2c0,0,0,0,0-0.1c-0.1-0.1-0.1-0.1-0.2-0.2c-0.1,0-0.1-0.1-0.2-0.2
			C18.6,14,18.6,14,18.5,14c0,0,0,0-0.1-0.1s-0.1-0.2-0.2-0.2c-0.1-0.1-0.1-0.1-0.2-0.2c0,0,0,0,0-0.1c0,0,0,0,0-0.1h-0.1
			c0-1.1,0-2.3,0-3.4c0.8,0,1.5,0,2.3,0l-0.1-0.1c0-0.1,0-0.1,0-0.2c0,0,0,0,0.1,0c0,0,0,0,0-0.1s0-0.1,0.1-0.2c0,0,0,0,0.1-0.1
			c0-0.1,0-0.1-0.1-0.2c0-0.1,0-0.1,0-0.2C20.3,8.9,20.3,8.9,20.2,8.8z"/>
		<path class="st6" d="M29.5,5.8C29.5,5.8,29.5,5.9,29.5,5.8c0,0.1,0,0.1,0.1,0.1c0.1,0,0.1,0,0.2,0.1c0.1,0,0.1,0,0.2,0
			s0.1,0.1,0.1,0.1c0.1,0,0.1,0,0.1,0c0.3,0.1,0.3,0.1,0.4,0.2c0,0.1,0,0.2,0.1,0.2l0,0c0.1,0,0.1,0,0.2,0v0.1H31c0,0,0,0,0,0.1h0.1
			v0.1c0,0,0,0-0.1,0v0.1l0,0c0,0,0,0,0.1,0c0,0,0,0,0.1,0c0,0,0,0,0.1,0c0,0.1,0,0.1,0,0.2c0,0,0,0,0.1,0.1v0.1c0,0,0,0,0.1,0
			c0,0.1-0.1,0.2-0.2,0.3c-0.1,0-0.2,0-0.3,0.1c0,0.1,0,0.1,0,0.2c0,0,0,0,0.1,0C31.2,8,31.2,8,31.2,8.1c0,0,0,0-0.1,0l0,0
			c0,0.1,0,0.1-0.1,0.1c0,0.1-0.1,0.1-0.1,0.2H31c0,0.2,0,0.4-0.1,0.6c0,0,0,0,0.1,0c0,0.1,0,0.1,0,0.2c0.1,0,0.1,0,0.2,0
			c0,0.1-0.1,0.2-0.2,0.3c-0.1,0-0.1,0-0.2,0s-0.1,0-0.2,0c0,0.1,0,0.1-0.1,0.1c0,0,0,0-0.1,0c0,0,0,0,0,0.1c0.1,0.1,0.1,0.2,0,0.4
			v0.1c0,0-0.1,0-0.1,0.1s0,0.1-0.1,0.2c0,0,0,0.1-0.1,0.1c0,0,0,0-0.1,0c0,0,0,0,0,0.1h-0.1c0,0,0,0,0,0.1c0,0,0,0,0.1,0
			c0,0,0,0,0.1,0c0,0.1,0,0.1,0.1,0.2c0,0,0,0,0.1,0.1s0.1,0.1,0.1,0.2c0,0,0,0-0.1,0c0,0,0,0-0.1,0c0,0,0,0,0,0.1c0,0,0,0-0.1,0
			c0,0,0,0-0.1,0c0,0,0,0-0.1,0s-0.1,0-0.2,0c0,0,0,0,0,0.1c-0.1,0-0.2,0.1-0.4,0.1c0,0,0,0-0.1,0h-0.1c0,0,0,0-0.1,0c0,0,0,0-0.1,0
			l0,0c0,0,0,0,0,0.1c-0.1,0-0.2,0-0.2,0.1c-0.1,0-0.1,0-0.2,0.1c0.2,0-0.1,0-0.3,0c0,0,0,0,0,0.1c-0.1,0-0.1,0-0.2,0c0,0,0,0,0,0.1
			c-0.1,0-0.2,0-0.3,0c0,0,0,0,0,0.1h-0.1h-0.1h-0.1c-0.1,0-0.1,0-0.1,0.1c0,0,0,0,0,0.1c0,0,0,0,0.1,0c0,0,0,0,0,0.1s0,0.1,0.1,0.1
			c0.1,0.1,0.1,0.1,0.1,0.4c-0.3,0-0.6,0-0.8,0c0,0,0,0,0,0.1l0,0c-0.2,0-0.5,0.1-0.7,0.2c-0.1,0-0.1,0.1-0.2,0.1c0,0,0,0,0,0.1
			s0,0.3,0,0.4c-0.1,0-0.1,0-0.2,0c0,0,0,0,0-0.1h-0.1c-0.1,0-0.1,0-0.2-0.1c0-0.1,0-0.1,0-0.2c0,0,0,0-0.1,0c0-0.1,0-0.1,0-0.2l0,0
			v-0.1c0-0.1,0-0.1,0-0.2c0-0.1,0-0.1,0-0.2c0-0.1,0-0.2,0.1-0.3c0-0.1,0-0.1,0-0.2c0,0,0,0,0.1,0c0,0,0,0,0-0.1s0-0.1,0.1-0.1h0.1
			c0,0,0,0,0-0.1c0.1-0.1,0.1-0.1,0.2-0.2c0,0,0.1,0,0.1-0.1c0.1-0.1,0.1-0.1,0.2-0.1c0,0,0,0,0-0.1c0.1,0,0.3-0.1,0.4-0.1
			c0,0,0,0,0-0.1c0.2-0.1,0.3-0.1,0.6-0.1c0,0,0,0,0,0.1c0.1,0,0.2,0,0.3,0c0,0,0,0,0,0.1h0.1c0-0.1-0.1-0.2-0.2-0.3
			c-0.1,0-0.1-0.1-0.1-0.1v-0.1l0,0c-0.1,0-0.2,0-0.3-0.1c0,0,0,0,0-0.1c-0.1,0-0.3,0-0.4,0c0-0.2,0-0.2,0-0.3c0.1,0,0.1,0,0.2-0.1
			c0-0.1,0-0.1,0.1-0.2c0,0,0-0.1,0.1-0.1c0-0.1,0.1-0.1,0.1-0.2c0,0,0,0,0.1,0c0,0,0,0,0-0.1c0,0,0,0,0.1,0l0,0
			c0.1-0.2,0.2-0.3,0.3-0.4l0.1-0.1l0,0c0,0,0,0,0.1-0.1c0,0,0,0,0.1,0c-0.2-0.1-0.1-0.1,0-0.2c0.1,0,0.1,0,0.1,0s0,0,0-0.1h0.1
			c0,0,0,0,0-0.1s0.1-0.1,0.1-0.1h0.1c0,0,0,0,0-0.1s0.1-0.1,0.1-0.1s0,0,0-0.1c0,0,0,0,0.1,0c0-0.1,0.1-0.2,0.1-0.2
			c0-0.1,0.1-0.2,0.2-0.3c0.1-0.1,0.1-0.1,0.1-0.2L29,7.5c0-0.1,0-0.1,0.1-0.2c0,0,0,0,0.1,0V7.2c0,0,0,0,0.1,0c0,0,0,0,0-0.1
			s0-0.1,0.1-0.2s0.1-0.2,0.1-0.3l0,0V6.5c0,0,0,0,0-0.1c0,0,0,0,0-0.1c0,0,0,0,0.1,0V6.2V6.1c0,0,0,0,0-0.1
			C29.4,5.9,29.4,5.9,29.5,5.8z"/>
		<path class="st7" d="M13,27.2L13,27.2L13,27.2c0.3,1.7,1,2.9,2,4.2c0,0.1,0.1,0.1,0.1,0.2l0.1,0.1c0,0,0,0,0,0.1
			c0.1,0.1,0.1,0.1,0.2,0.2c0,0.1-0.1,0.1-0.2,0.2c0,0,0,0-0.1,0.1c0,0-0.1,0-0.1,0.1c-0.1,0-0.1,0.1-0.2,0.1h-0.1
			c-0.1,0.1-0.2,0.1-0.3,0.2c-0.1,0-0.1,0-0.1,0c-0.1,0-0.1-0.1-0.2-0.2c0,0,0-0.1-0.1-0.1l0,0l-0.1-0.1c-0.4-0.5-0.7-1-1-1.5
			c0,0,0,0,0-0.1c-0.1-0.4-0.1-0.4-0.1-0.5h-0.1c-0.4,0.1-0.7,0.2-1.1,0.3c0,0,0,0-0.1,0s-0.3,0.1-0.4,0.1H11c-0.1,0-0.2,0-0.3,0
			c-0.4-1-0.5-2.2-0.6-3.3c0.1,0.1,0.2,0.2,0.3,0.3c0.3,0.4,0.7,0.8,1.1,1.2c0.1,0,0.1,0.1,0.2,0.1l0.1,0.1c0.1-0.1,0.1-0.2,0.1-0.3
			v-0.1c0,0,0,0,0-0.1c0.2-0.5,0.5-1,0.8-1.4C12.9,27.3,12.9,27.3,13,27.2z"/>
		<path class="st6" d="M27.9,5C28,5,28,5,28.1,5c0,0,0,0,0,0.1c0.1,0.1,0.1,0.3,0.3,0.3c0,0,0,0,0.1-0.1c0,0.1,0,0.1,0,0.2
			c0,0,0,0-0.1,0v0.1c0,0,0,0-0.1,0c0,0.1,0,0.1,0,0.2c-0.1,0-0.1,0-0.2,0V5.7c-0.2,0.2-0.2,0.4-0.3,0.6c0,0.1,0,0.1,0,0.2
			c0,0,0,0,0,0.1s0,0.1-0.1,0.1h-0.1c0-0.1,0-0.1,0-0.2c0,0,0,0,0-0.1c0,0,0,0,0-0.1V6.2c0-0.1,0-0.1,0-0.2h-0.1v0.1c0,0,0,0-0.1,0
			c0,0,0,0,0,0.1v0.1c0,0.1,0,0.1,0,0.2c0,0,0,0,0,0.1c0,0,0,0,0,0.1c0,0,0,0-0.1,0c0,0.1,0,0.1,0,0.2c-0.2,0-0.2,0-0.2,0
			c0-0.1-0.1-0.1-0.1-0.2c0,0,0,0-0.1,0c0,0,0,0,0,0.1c0,0,0,0-0.1,0v0.1c0,0.2,0,0.2-0.1,0.2s-0.1,0-0.2,0c0,0,0,0,0,0.1h-0.1v0.1
			c0,0,0,0-0.1,0v0.1c0,0.1,0,0.1,0,0.1s-0.1,0-0.1,0.1s0,0.1,0,0.1v0.1c0,0,0,0-0.1,0c0,0,0,0,0,0.1H26c0,0,0,0,0,0.1h-0.1
			c0,0,0,0,0,0.1h-0.1v0.1c0,0,0,0-0.1,0v0.1c-0.1,0-0.1,0-0.2,0c0,0.1,0,0.1,0,0.2l0,0c-0.2,0.1-0.2,0.1-0.3,0.2
			c0,0.1,0,0.1-0.1,0.2H25V9c0-0.3,0-0.3,0.1-0.4c0,0,0,0,0.1,0c0-0.1,0-0.2,0-0.3c0,0,0,0,0.1,0c0,0,0,0,0-0.1s0-0.1,0.1-0.2
			c0.1-0.1,0.1-0.1,0.1-0.2V7.7V7.6c0-0.1,0-0.1-0.1-0.2c0,0,0,0,0-0.1V7.2c0-0.1,0-0.2,0-0.2c0-0.1,0-0.1,0-0.1c0-0.1,0-0.1,0-0.2
			c0,0,0,0-0.1,0c0-0.1,0-0.1,0-0.2c-0.1,0-0.1,0-0.2,0c0-0.1,0-0.1,0-0.1c0.1-0.1,0.2-0.2,0.3-0.2c0.2-0.1,0.3-0.2,0.4-0.4
			c0-0.1,0-0.2,0-0.3c0.1,0,0.1,0,0.2,0c0,0,0,0,0-0.1c0.1,0,0.3,0,0.4,0c0,0,0,0,0-0.1c0.4,0,0.7-0.1,1.1-0.1c0,0,0,0,0-0.1
			C27.7,5,27.8,5,27.9,5L27.9,5z"/>
		<path class="st8" d="M20.3,7.8L20.3,7.8C20.4,7.8,20.4,7.8,20.3,7.8c0.1,0.1,0.1,0.1,0.2,0.1V8h0.1c0.1,0,0.1,0,0.2,0.1
			c0,0.1,0,0.1,0,0.1s0,0,0,0.1s0,0.1-0.1,0.1c0.2,0,0.2,0,0.4-0.1l0,0c0.1-0.1,0.3-0.1,0.4-0.1h0.1h0.1c0,0,0,0,0-0.1h0.1v0.1
			c0,0,0,0-0.1,0v0.1c0,0,0,0,0,0.1s0,0.1,0.1,0.1c0,0,0,0,0.1,0c0,0,0,0,0.1,0c0,0,0,0,0,0.1c0,0,0,0,0.1,0c0,0,0,0,0-0.1h0.1v0.1
			h0.1c0.1,0,0.1,0,0.2,0s0.1,0.1,0.2,0c0,0,0,0,0.1,0h0.1H23c0.1,0,0.1,0,0.2,0c0,0,0,0,0,0.1c0.1,0,0.1,0,0.2,0c0,0,0,0,0.1,0
			s0.1,0,0.2,0c0.1-0.1,0.1-0.2,0.1-0.4c0.2,0,0.2,0,0.2,0s0,0,0,0.1s0,0.1,0.1,0.2c0,0,0.1,0.1,0.2,0.1c0,0,0,0,0,0.1
			c0,0,0,0,0,0.1c0,0,0,0,0.1,0c0,0,0,0,0,0.1s0,0.1,0.1,0.1s0.2,0,0.3,0h0.1c0,0,0,0.1,0.1,0.1h0.1c0,0,0-0.1,0.1-0.1
			c0,0.1,0,0.1,0,0.2c0,0,0,0,0,0.1s0,0.1-0.1,0.1c0,0,0,0,0,0.1s0,0.2-0.1,0.2c-0.1,0.1-0.1,0.1-0.1,0.1s0,0-0.1,0V10h-0.1V9.9
			c0,0,0,0-0.1,0s-0.1,0-0.1,0s0,0,0-0.1c-0.1,0-0.1,0-0.2,0c0,0,0,0,0-0.1h-0.1c0,0,0,0,0-0.1h-0.1c0,0,0,0,0-0.1
			c-0.1,0-0.1,0-0.1,0s0,0,0-0.1h-0.1c0,0,0,0,0-0.1c0,0,0,0-0.1,0s-0.1,0-0.1-0.1c-0.1,0-0.1,0-0.1,0s0,0,0-0.1c-0.1,0-0.1,0-0.2,0
			c0,0,0,0,0-0.1c-0.1,0-0.2,0-0.4-0.1c0,0,0,0-0.1,0h-0.1c0,0,0,0,0-0.1c-0.2,0-0.3,0-0.5,0c0,0,0,0,0-0.1c-0.1,0-0.3,0-0.4,0
			c0,0,0,0,0-0.1h-0.1c0,0,0,0,0-0.1l0,0c-0.1,0-0.2,0-0.4,0c0,0,0,0,0-0.1l0,0c-0.1,0-0.2,0-0.3,0c0,0,0,0,0-0.1
			c-0.1,0-0.1,0-0.2,0c0,0,0,0,0-0.1c0,0,0,0-0.1,0c0,0,0,0-0.1,0V8.1c0,0,0.1,0,0.1-0.1c0-0.1,0-0.1,0-0.2V7.7c0,0,0,0,0-0.1
			c0,0,0,0-0.1,0C20.3,8.1,20.3,8,20.3,7.8z"/>
		<path class="st9" d="M19.9,17c0.6-0.1,0.6-0.1,0.7,0s0.2,0.2,0.3,0.3c0,0.1,0.1,0.1,0.1,0.2l0.1,0.1c0.1,0.1,0.2,0.2,0.3,0.4
			c0.1,0.1,0.1,0.1,0.2,0.2c0,0.1,0,0.1,0.1,0.1c0-0.1,0-0.3,0-0.4s0-0.1,0-0.2s0-0.1,0-0.2c0,0,0,0,0-0.1s0-0.2,0-0.3
			c-0.1,0-0.2-0.1-0.3-0.1v-0.1c0.3,0,0.6,0,0.8,0V17l0,0c0,0,0,0-0.1,0c0,0,0,0-0.1,0s-0.1,0.1-0.1,0.2s0,0.1,0,0.2c0,0,0,0,0,0.1
			s0,0.1,0,0.2v0.1c0,0.1,0,0.2,0,0.3c0,0.1,0,0.2,0,0.3c0,0.2,0,0.5,0,0.7c-0.1,0-0.1,0-0.2,0c-0.1-0.1-0.1-0.1-0.2-0.2
			c0,0,0,0,0-0.1s-0.1-0.1-0.1-0.2l-0.1-0.1c0-0.1-0.1-0.1-0.1-0.2c-0.1-0.2-0.3-0.3-0.4-0.5c-0.1-0.1-0.2-0.3-0.3-0.4
			c0-0.1,0-0.1-0.1-0.1c0,0.2,0,0.4,0,0.6c0,0.1,0,0.1,0,0.2s0,0.2,0,0.3v0.1c0,0,0,0,0,0.1c0,0,0,0,0,0.1s0,0.1,0.1,0.2
			c0.1,0,0.1,0,0.1,0s0,0,0,0.1h0.1v0.1c-0.3,0-0.6,0-0.9,0V19c0,0,0,0,0.1,0c0,0,0,0,0.1,0c0,0,0,0,0.1,0s0.1,0,0.1-0.1
			s0-0.2,0-0.3v-0.1v-0.1v-0.1c0-0.1,0-0.1,0-0.2s0-0.2,0-0.3c0-0.1,0-0.2,0-0.3v-0.1c0-0.2,0-0.2-0.1-0.3
			C20.1,17.1,20,17.1,19.9,17L19.9,17z"/>
		<path class="st10" d="M26.9,17c0.3,0,0.6,0,1,0v0.1l0,0c0,0,0,0-0.1,0c0,0,0,0-0.1,0s-0.1,0-0.1,0v0.1v0.1v0.1v0.1
			c0,0.1,0,0.1,0,0.2s0,0.2,0,0.3c0,0.1,0,0.1,0,0.2v0.1c0,0.3,0,0.3,0.1,0.5c0.1,0.1,0.3,0.1,0.4,0.1s0.2-0.1,0.3-0.2
			c0.1-0.2,0.1-0.4,0.1-0.6V18c0-0.1,0-0.1,0-0.2s0-0.2,0-0.3c0-0.1,0-0.1,0-0.2v-0.1v-0.1c0,0,0,0,0-0.1s0-0.1,0-0.1
			c-0.1,0-0.1,0-0.1,0s0,0-0.1,0l0,0v-0.1c0.3,0,0.6,0,0.8,0v0.1H29c-0.1,0-0.1,0-0.1,0.1c-0.1,0.1-0.1,0.3-0.1,0.4c0,0,0,0,0,0.1
			s0,0.2,0,0.3c0,0.1,0,0.1,0,0.2c0,0.2,0,0.3,0,0.5c0,0,0,0-0.1,0v0.1c0,0.1-0.1,0.3-0.2,0.4c0,0,0,0-0.1,0c0,0,0,0,0,0.1
			c-0.3,0.1-0.7,0.1-1,0.1c-0.2-0.1-0.3-0.2-0.4-0.3c0-0.1,0-0.1,0-0.1s0,0-0.1,0c0-0.5,0-1,0-1.6C27,17.2,27,17.1,26.9,17
			C26.9,17.1,26.9,17,26.9,17z"/>
		<path class="st11" d="M17.1,17c0.3,0,0.7,0,1,0v0.1c-0.1,0-0.1,0-0.2,0s-0.1,0-0.1,0.1s0,0.1,0,0.1v0.1v0.1v0.1c0,0.1,0,0.1,0,0.2
			s0,0.2,0,0.3c0,0.1,0,0.1,0,0.2v0.1c0,0.2,0,0.3,0.1,0.5C18,19,18,19,18,19s0,0,0,0.1c0.1,0,0.1,0,0.2,0c0,0,0,0,0.1,0
			s0.2,0,0.3-0.1c0.2-0.2,0.2-0.4,0.2-0.7v-0.1c0-0.1,0-0.1,0-0.2s0-0.2,0-0.3c0-0.1,0-0.1,0-0.2v-0.1v-0.1c0,0,0,0,0-0.1
			s0-0.1-0.1-0.1S18.6,17,18.5,17v-0.1c0.3,0,0.6,0,0.9,0V17h-0.1c-0.1,0-0.1,0-0.2,0.1c0,0.1,0,0.1,0,0.1v0.1v0.1c0,0,0,0,0,0.1
			s0,0.2,0,0.3c0,0.1,0,0.1,0,0.2c0,0.2,0,0.3,0,0.5c0,0,0,0-0.1,0v0.1c0,0.2-0.1,0.3-0.2,0.4s-0.1,0.1-0.1,0.1s0,0-0.1,0
			s-0.3,0-0.4,0h-0.1c-0.2,0-0.4,0-0.6-0.2c-0.1-0.1-0.1-0.1-0.1-0.2c0,0,0,0-0.1,0c0-0.1-0.1-0.2-0.1-0.3v-0.1c0,0,0,0,0-0.1v-0.1
			c0-0.1,0-0.3,0-0.4s0-0.3,0-0.4s0-0.1,0-0.1v-0.1V17c0-0.1,0-0.1-0.1-0.1C17.2,17.1,17.2,17.1,17.1,17L17.1,17z"/>
		<path class="st9" d="M30.5,17C30.5,17,30.6,17,30.5,17C30.6,17,30.6,17,30.5,17c0.1,0,0.1,0,0.2,0s0.1,0,0.1,0.1
			c0.1,0,0.1,0,0.2,0V17c0.1,0,0.1,0,0.2,0c0,0.2,0,0.3,0,0.5c0,0,0,0,0,0.1s0,0.1,0,0.2c-0.1,0-0.1,0-0.2,0c0-0.1,0-0.1,0-0.2
			c0,0,0,0-0.1,0c0,0,0,0,0-0.1c-0.1-0.1-0.2-0.2-0.3-0.2l0,0c0,0,0,0,0-0.1c-0.1,0-0.1,0-0.3,0.1c0,0.1-0.1,0.2,0,0.3
			c0.1,0.2,0.3,0.3,0.4,0.4s0.2,0.1,0.3,0.2c0,0,0,0,0.1,0.1s0.2,0.2,0.2,0.3c0,0.1,0,0.1,0,0.2v0.1V19c0,0,0,0-0.1,0v0.1
			c-0.1,0.2-0.3,0.3-0.5,0.3c-0.3,0-0.5,0-0.7-0.1v0.1c-0.1,0-0.1,0-0.2,0c0-0.1,0-0.2,0-0.2s0,0,0-0.1s0-0.3,0-0.4
			c0.1,0,0.1,0,0.2,0v0.1c0.1,0.2,0.2,0.4,0.4,0.5c0.1,0,0.3,0,0.4-0.1s0.1-0.2,0.1-0.4c-0.1-0.2-0.3-0.3-0.4-0.4c0,0,0,0-0.1,0
			l-0.1-0.1c-0.1-0.1-0.2-0.2-0.3-0.3v-0.1c0,0,0,0-0.1,0c0-0.4,0-0.4,0.1-0.5C30.1,17,30.3,17,30.5,17z"/>
		<path class="st12" d="M35.7,30.2C35.7,30.3,35.7,30.3,35.7,30.2c0,0.1,0,0.1,0,0.2c0,0,0,0,0,0.1v0.1c0,0,0,0,0,0.1
			c-0.2,0.4-0.5,0.8-0.8,1.2c0,0,0,0.1-0.1,0.1c-0.1,0.2-0.3,0.4-0.4,0.5c-0.1,0-0.2-0.1-0.3-0.1c0,0,0,0-0.1-0.1c0,0-0.1,0-0.1-0.1
			c0,0-0.1,0-0.1-0.1c-0.2-0.1-0.4-0.2-0.5-0.3c0.1,0,0.1-0.1,0.2-0.1C34.2,31.4,35,30.9,35.7,30.2z"/>
		<path class="st12" d="M12.9,30.2c0.1,0.1,0.3,0.2,0.4,0.3c0.2,0.2,0.5,0.4,0.7,0.5c0,0,0,0,0.1,0c0.4,0.3,0.9,0.6,1.4,0.8
			c-0.1,0.1-0.2,0.1-0.3,0.2c0,0,0,0-0.1,0s-0.1,0.1-0.2,0.1s-0.1,0.1-0.2,0.1l-0.1,0.1c-0.1,0-0.1,0.1-0.2,0.1s-0.1,0-0.1,0
			c-0.1,0-0.1-0.1-0.2-0.2c0,0,0-0.1-0.1-0.1l0,0L13.9,32c-0.4-0.5-0.7-1-1-1.5c0,0,0,0,0-0.1C12.9,30.3,12.9,30.3,12.9,30.2z"/>
		<path class="st13" d="M24.4,17c0.3,0,0.7,0,1,0v0.1l0,0c0,0,0,0-0.1,0c0,0,0,0-0.1,0s-0.1,0.1-0.1,0.2s0,0.1,0,0.2v0.1v0.1v0.1
			c0,0.1,0,0.2,0,0.2c0,0.1,0,0.2,0,0.3c0,0.1,0,0.2,0,0.2c0,0.1,0,0.1,0,0.2v0.1v0.1c0,0.1,0,0.1,0,0.1c0.1,0,0.2,0,0.3,0
			c0,0,0,0,0.1,0c0.2,0,0.3,0,0.5-0.2c0.1-0.1,0.1-0.1,0.1-0.1s0,0,0-0.1c0,0,0,0,0-0.1c0,0,0-0.1,0.1-0.1s0.1,0,0.2,0
			c0,0.2-0.1,0.4-0.1,0.6c-0.6,0-1.2,0-1.8,0v-0.1l0,0c0,0,0,0,0.1,0c0,0,0,0,0.1,0s0.1,0,0.1-0.1c0,0,0,0,0.1,0c0-0.2,0-0.5,0-0.7
			c0-0.1,0-0.2,0-0.3c0-0.1,0-0.2,0-0.3v-0.1c0-0.1,0-0.1,0-0.2v-0.1c0-0.1,0-0.1-0.1-0.1C24.5,17.1,24.4,17.1,24.4,17
			C24.4,17.1,24.4,17,24.4,17z"/>
		<path class="st14" d="M22.8,17c0.3,0,0.7,0,1.1,0v0.1c0,0,0,0-0.1,0c0,0,0,0-0.1,0c0,0,0,0-0.1,0s-0.1,0-0.1,0.1s0,0.2,0,0.3v0.1
			v0.1v0.1c0,0.1,0,0.2,0,0.3c0,0.1,0,0.2,0,0.3c0,0.2,0,0.4,0,0.6c0.1,0,0.2,0,0.3,0.1v0.1c-0.3,0-0.7,0-1.1,0v-0.1h0.1
			c0,0,0,0,0-0.1h0.1c0.1,0,0.1,0,0.1-0.1s0-0.1,0-0.2v-0.1v-0.1v-0.1c0-0.1,0-0.2,0-0.2c0-0.1,0-0.2,0-0.3c0-0.1,0-0.2,0-0.2v-0.1
			c0-0.1,0-0.1,0-0.2v-0.1c0-0.1,0-0.1,0-0.2C22.9,17.1,22.9,17.1,22.8,17C22.8,17.1,22.8,17,22.8,17z"/>
		<path class="st15" d="M18,36.8c0.1,0.1,0.2,0.1,0.2,0.2c0,0.2,0,0.3-0.1,0.4c-0.1,0.1-0.3,0.2-0.4,0.2s-0.2,0-0.3,0c0,0,0,0,0,0.1
			c0.1,0.1,0.2,0.1,0.4,0.1h0.1c0,0.1,0,0.1,0,0.1C17.8,38,17.7,38,17.6,38c-0.1-0.1-0.2-0.1-0.2-0.2c-0.1-0.1-0.2-0.1-0.3-0.1
			c-0.1,0-0.1,0-0.1-0.1s0-0.1,0-0.1l0,0c0.1,0,0.2,0,0.4,0.1c0,0,0,0,0.1,0c0,0,0,0-0.1-0.1s-0.1-0.2-0.1-0.3
			c0.1-0.2,0.2-0.3,0.3-0.3C17.7,36.7,17.9,36.7,18,36.8z"/>
		<path class="st16" d="M18.4,7.9L18.4,7.9c0.1,0,0.1,0,0.2,0s0.1,0,0.1,0.1c0.1,0.1,0.1,0.1,0.2,0.1c0.2,0,0.4,0.1,0.6,0.2
			c0.2,0.1,0.3,0.2,0.5,0.2c0.2,0.1,0.2,0.1,0.3,0.2c0,0,0,0,0.1,0c0,0,0,0,0,0.1c0.1,0,0.1,0,0.2,0l0,0c-0.1,0-0.1,0-0.2,0
			c0,0,0,0,0,0.1c-0.1,0-0.1,0-0.2,0h-0.1c-0.1,0-0.1,0-0.1,0c-0.1,0-0.1,0-0.2,0s-0.2,0-0.3,0V8.8c-0.4,0-0.8,0-1.2,0
			c0,0,0,0,0-0.1c0.1,0,0.2,0,0.4,0c0,0,0,0,0-0.1c0,0,0,0-0.1,0h-0.1c0,0,0,0-0.1,0c0,0,0,0-0.1,0c0,0,0,0-0.1,0s-0.1,0-0.2,0
			c0,0,0,0,0-0.1c0.7,0,0.7,0,1,0c0,0,0,0,0-0.1c-0.2,0-0.2,0-0.4,0c0,0,0,0,0-0.1c0,0,0,0-0.1,0h-0.1c0,0,0,0-0.1,0s-0.2,0-0.3-0.1
			c0,0,0,0,0-0.1c0.1,0,0.2,0,0.2,0s0,0,0.1,0s0.2,0,0.3,0.1c0,0,0,0,0,0.1c0,0,0,0,0.1,0c0,0,0,0,0.1,0c0,0,0,0,0.1,0s0.1,0,0.2,0
			c0,0,0,0,0,0.1c0.1,0,0.1,0,0.2,0c-0.1-0.1-0.1-0.1-0.2-0.1s-0.3-0.1-0.4-0.2c0,0,0,0-0.1,0c0,0,0,0-0.1,0c0,0,0,0-0.1,0
			C18.4,7.9,18.4,7.9,18.4,7.9z"/>
		<path class="st17" d="M31.3,36.5c0.1,0.1,0.1,0.2,0.2,0.3c0,0.2,0,0.4-0.2,0.5c-0.1,0.1-0.3,0.2-0.5,0.3h-0.1c0,0,0,0,0.1-0.1
			c0-0.2-0.1-0.5-0.2-0.7h-0.1c0-0.1,0.1-0.1,0.2-0.2c0,0,0,0,0.1,0c0,0,0,0,0.1,0C30.9,36.5,31.1,36.5,31.3,36.5z"/>
		<path class="st18" d="M24.5,13.2L24.5,13.2c0.1,0,0.1,0,0.1,0.1c0,0,0,0,0,0.1c0,0,0,0,0,0.1c0,0,0,0,0,0.1c0,0,0,0,0.1,0
			c0,0.1,0,0.1,0,0.2h0.1c0.1,0,0.1,0,0.2,0c-0.1,0.1-0.1,0.1-0.1,0.2H25c0,0,0,0,0-0.1c0.1,0,0.2-0.1,0.3-0.1h0.1
			c0.1,0,0.1,0,0.1,0c0.1,0.1,0.1,0.2,0,0.3c-0.1,0-0.2,0-0.3,0c0,0,0,0,0,0.1h-0.1v0.1c0,0,0,0-0.1,0s-0.1,0-0.2,0.1c0,0,0,0,0-0.1
			c0,0,0,0-0.1,0c0,0,0,0-0.1,0c0-0.1,0-0.1,0-0.2c0,0,0,0-0.1,0c0,0,0,0-0.1,0c0-0.1,0-0.1,0-0.2c0,0,0,0-0.1,0c0-0.1,0-0.1,0-0.2
			v-0.1C24.4,13.3,24.4,13.3,24.5,13.2z"/>
		<path class="st19" d="M34,34.6C34,34.6,34,34.7,34,34.6C34.1,34.7,34.1,34.7,34,34.6c0,0.1,0,0.1,0,0.2c0,0,0,0,0.1,0
			s0.1,0,0.1,0.1s0,0.2-0.1,0.3c0,0.1,0,0.1-0.1,0.1l0,0c0,0,0,0,0.1,0c0,0,0,0,0.1,0s0.1,0,0.2,0c0.1,0.1,0.1,0.1,0.1,0.1
			c0,0.2-0.1,0.3-0.3,0.4c-0.1,0-0.1,0-0.2,0c0-0.2,0-0.2,0.1-0.2H34c0-0.1,0-0.1,0-0.2c0,0,0,0-0.1,0c-0.1-0.1-0.1-0.1-0.2-0.1
			c0-0.1,0-0.1,0-0.2c0.1-0.1,0.1-0.1,0.1-0.1C33.9,34.7,33.9,34.7,34,34.6C34,34.7,34,34.6,34,34.6z"/>
		<path class="st20" d="M28.7,37.5c0.1,0.1,0.1,0.1,0.1,0.2c0,0.2,0,0.4-0.1,0.6c-0.1,0.1-0.1,0.1-0.2,0.1s-0.1,0-0.1-0.1
			c-0.1-0.2-0.1-0.4-0.1-0.6c0-0.1,0.1-0.1,0.1-0.2C28.5,37.5,28.6,37.5,28.7,37.5z"/>
		<path class="st21" d="M18,36.8C18.1,36.8,18.1,36.8,18,36.8c0.1,0.3,0,0.4-0.1,0.5c-0.1,0.1-0.2,0.1-0.3,0.1c-0.1,0-0.1,0-0.2,0
			c0-0.1-0.1-0.2,0-0.3s0.1-0.2,0.2-0.3l0,0C17.8,36.8,17.8,36.8,18,36.8z"/>
		<path class="st22" d="M23.1,38c0.1,0,0.2,0,0.3,0c-0.1,0.2-0.1,0.4-0.2,0.5c0,0,0,0,0,0.1s-0.1,0.1-0.1,0.2c0,0,0,0,0.1,0
			c0,0,0,0,0.1,0c0,0,0,0,0.1,0c-0.1,0.1-0.2,0.1-0.4,0.1v-0.1c0,0-0.1,0-0.1,0.1c-0.1,0-0.1,0-0.2,0c0,0,0,0,0-0.1
			c0-0.2,0.1-0.3,0.3-0.4c0.1-0.1,0.2-0.1,0.3,0C23.2,38.1,23.2,38.1,23.1,38C23.2,38,23.2,38,23.1,38z"/>
		<path class="st15" d="M28.7,37.4c0.1,0.1,0.2,0.1,0.3,0.3c0,0.2,0,0.3-0.1,0.4c-0.1,0.1-0.2,0.2-0.4,0.3c-0.1,0-0.2,0-0.3-0.1
			c-0.1-0.1-0.1-0.3-0.1-0.5s0.1-0.2,0.2-0.3C28.5,37.5,28.6,37.4,28.7,37.4z M28.4,37.7c0,0.1,0,0.2,0,0.3v0.1c0,0.1,0,0.2,0.1,0.3
			c0.1,0,0.1,0,0.2,0c0.1-0.1,0.2-0.2,0.2-0.3s0-0.1,0-0.2v-0.1c0-0.1,0-0.1-0.1-0.2C28.6,37.5,28.5,37.5,28.4,37.7z"/>
		<path class="st23" d="M21.9,37.8c0.3,0,0.5,0,0.8,0.1c0,0.1,0,0.1,0,0.2c0,0,0,0-0.1,0V38c-0.2,0-0.2,0-0.4,0
			c0,0.1-0.1,0.2-0.1,0.3h0.1h0.1c0,0,0,0,0.1,0c0,0,0-0.1,0.1-0.1c0,0,0,0,0.1,0c0,0.1-0.1,0.2-0.1,0.3c0,0,0,0-0.1,0v-0.1
			c-0.1,0-0.2,0-0.3,0c0,0.1-0.1,0.2-0.1,0.3c0.1,0,0.1,0,0.2,0h0.1c0.1,0,0.1,0,0.2,0v-0.1h0.1c0,0.1-0.1,0.1-0.1,0.2
			c-0.3,0-0.5,0-0.8-0.1c0,0,0,0,0-0.1h0.1c0,0,0,0,0-0.1c0.1-0.2,0.1-0.4,0.2-0.6C21.9,37.9,21.9,37.9,21.9,37.8
			C21.9,37.9,21.9,37.9,21.9,37.8z"/>
		<path class="st24" d="M31.1,36.6c0.1,0.1,0.2,0.2,0.2,0.3c0,0.2,0,0.3-0.1,0.4c-0.1,0.1-0.1,0.1-0.2,0.1c-0.2-0.5-0.2-0.5-0.3-0.7
			C30.9,36.6,30.9,36.6,31.1,36.6z"/>
		<path class="st25" d="M12.6,32.8c0.1,0,0.2,0.1,0.2,0.2c0,0,0,0,0.1,0.1s0.1,0.2,0.1,0.3c-0.1,0.1-0.1,0.1-0.2,0.2
			c-0.1,0-0.2-0.1-0.3-0.2v-0.1l0,0c0.1,0.1,0.1,0.1,0.2,0c0.1,0,0.1,0,0.1-0.1s0-0.1,0-0.2c-0.1,0-0.2,0-0.3,0.1c0,0,0,0-0.1,0
			c0,0,0,0-0.1,0c0,0,0,0-0.1,0s-0.1,0.1-0.2,0.1v0.1c-0.1,0-0.1-0.1-0.2-0.2c0,0,0,0,0-0.1l0,0c0,0,0,0,0-0.1l0,0
			c0.2,0,0.3-0.1,0.5-0.2c0,0,0,0,0.1,0s0.1-0.1,0.2-0.1C12.6,32.9,12.6,32.9,12.6,32.8z"/>
		<path class="st26" d="M35.2,33.5c0.1,0,0.1,0.1,0.2,0.2c0.1,0.1,0.1,0.2,0,0.3c-0.1,0.2-0.1,0.2-0.2,0.2s-0.1,0-0.2,0
			c-0.1-0.1-0.2-0.2-0.2-0.4c0-0.1,0-0.1,0.1-0.2C35.1,33.5,35.1,33.5,35.2,33.5z"/>
		<path class="st27" d="M26.5,38.2C26.6,38.2,26.6,38.2,26.5,38.2c0.1,0.2,0.1,0.3,0.1,0.4c-0.1,0.1-0.1,0.1-0.3,0.2
			c-0.1,0-0.1,0-0.2-0.1S26,38.5,26,38.4C26.2,38.3,26.3,38.2,26.5,38.2z"/>
		<path class="st28" d="M16.4,36.3C16.5,36.3,16.5,36.3,16.4,36.3c0.1,0.2,0.1,0.3,0,0.4s-0.2,0.1-0.4,0.1c-0.1,0-0.1,0-0.1-0.1
			s0-0.2,0-0.3C16,36.3,16.2,36.3,16.4,36.3z"/>
		<path class="st29" d="M14.5,35.1c0.1,0,0.2,0.1,0.2,0.2c0,0.1,0,0.2-0.1,0.2c-0.1,0.1-0.2,0.1-0.3,0.1c-0.1,0-0.1,0-0.2-0.1
			S14,35.4,14,35.2C14.1,35.1,14.3,35.1,14.5,35.1z"/>
		<path class="st30" d="M19.4,37.6L19.4,37.6c0.1,0.1,0,0.2-0.1,0.3l0,0L19.2,38c0,0,0,0,0.1,0s0.1,0,0.1,0c0,0.1,0,0.1-0.1,0.1
			s-0.1,0-0.2,0V38l0,0c-0.1,0-0.2,0-0.3,0l0,0c0-0.1,0.1-0.2,0.2-0.3C19.1,37.6,19.3,37.6,19.4,37.6z"/>
		<path class="st25" d="M25.1,38.3L25.1,38.3c0,0.2,0,0.3-0.1,0.5l0.1-0.1c0,0.1-0.1,0.1-0.1,0.2c-0.1,0-0.1,0-0.1,0v-0.1
			c0,0,0,0,0,0.1c-0.2,0-0.3,0-0.4,0c-0.1-0.1-0.1-0.1-0.1-0.2c0-0.2,0.2-0.3,0.3-0.4C24.9,38.3,24.9,38.3,25.1,38.3
			C25,38.3,25,38.3,25.1,38.3z"/>
		<path class="st26" d="M12.8,33.7L12.8,33.7c0.2,0,0.3,0,0.3,0.1c0,0,0,0,0,0.1c0,0,0,0,0.1,0c0,0,0,0,0.1,0V34
			c-0.1,0-0.1,0.1-0.2,0.1c0,0,0,0-0.1,0c-0.2,0.1-0.2,0.1-0.2,0.1s0,0,0,0.1c0.1,0,0.1,0,0.2,0l0,0c-0.1,0-0.2,0-0.3,0v-0.1
			c0,0,0,0,0.1,0c0,0,0,0-0.1,0c0,0,0,0-0.1,0c0,0,0,0-0.1,0s-0.1,0-0.1-0.1s0-0.1,0-0.1C12.5,33.7,12.6,33.7,12.8,33.7z"/>
		<path class="st31" d="M34.6,33.6C34.7,33.6,34.7,33.6,34.6,33.6c0.1,0.1,0.1,0.1,0.1,0.2c0,0,0,0-0.1,0s-0.1,0-0.2,0
			c0,0-0.1,0.1-0.1,0.2c0.1,0.1,0.1,0.2,0.2,0.3c0.1-0.1,0.1-0.1,0.1-0.1v-0.1c0,0,0,0,0-0.1c0.1,0,0.2,0.1,0.2,0.2c0,0,0,0,0,0.1
			c-0.1,0-0.1,0-0.2,0l-0.1,0.1c0,0.1,0.1,0.2,0.2,0.3c0.1,0,0.1,0,0.1,0c0,0.1-0.1,0.2-0.2,0.2c0,0,0,0-0.1,0.1c0,0,0,0-0.1,0
			c0,0,0,0,0-0.1c0-0.2-0.1-0.3-0.2-0.4c0,0,0,0-0.1-0.1c0-0.1-0.1-0.1-0.1-0.2h-0.1c0-0.1,0.1-0.2,0.2-0.3
			C34.5,33.7,34.5,33.7,34.6,33.6z"/>
		<path class="st32" d="M32.1,36.2L32.1,36.2c0.2,0.1,0.2,0.2,0.2,0.3c0,0,0,0,0,0.1v0.1c0,0,0,0,0.1,0v-0.1c0,0,0,0,0.1,0
			c0,0.1,0,0.2-0.1,0.2c0,0,0,0-0.1,0.1h-0.1c-0.1-0.2-0.1-0.3-0.1-0.5c0,0,0,0-0.1,0c0,0,0,0,0,0.1v0.1c0,0-0.1,0-0.1,0.1
			c0,0.2,0,0.3,0,0.5c-0.1,0-0.1,0-0.1,0.1c-0.1-0.1-0.1-0.2-0.1-0.3c0,0,0,0,0-0.1s0-0.1,0-0.2v0.1c0,0,0,0-0.1,0
			c0-0.2,0-0.2,0.1-0.3h0.1c0,0,0,0,0.1,0.1c0-0.1,0-0.1,0.1-0.2h0.1c0,0,0,0,0,0.1v-0.1C32,36.2,32,36.2,32.1,36.2z"/>
		<path class="st33" d="M16.2,35.9C16.3,36,16.3,36,16.2,35.9l0.1,0.2h-0.1C16.2,36.1,16.2,36,16.2,35.9c-0.1,0.1-0.2,0.2-0.3,0.3
			H16c0,0,0,0,0,0.1c0,0,0,0-0.1,0s-0.1,0-0.1,0s0,0-0.1,0.1c-0.4,0.3-0.4,0.3-0.6,0.3c-0.1,0-0.1,0-0.1-0.1s0-0.1,0-0.1l0,0h0.1
			v0.1c0.1,0,0.2-0.1,0.3-0.2c0,0,0,0,0.1-0.1c0,0,0,0,0.1-0.1s0.1-0.1,0.2-0.2v-0.1c0,0,0,0,0.1,0s0.1,0,0.2,0
			C16.1,35.9,16.1,35.9,16.2,35.9z"/>
		<path class="st34" d="M21,38L21,38c0.1,0.1,0.1,0.2,0.1,0.3c0,0,0,0,0,0.1s0,0.1,0,0.2c0.1-0.1,0.1-0.2,0.1-0.4
			c0-0.1,0-0.1,0.1-0.1c0,0,0,0,0.1,0l0,0c0,0.2,0,0.3-0.1,0.4c0,0,0,0,0,0.1c-0.1,0.1-0.2,0.2-0.3,0.2c0,0,0,0-0.1,0s-0.1,0-0.2,0
			h-0.1c-0.1,0-0.1,0-0.1-0.1s0-0.1,0-0.1c0.1,0,0.1,0,0.2,0.1c0.1,0,0.1,0,0.2,0c0.1-0.2,0.1-0.4,0.1-0.6c0,0,0,0-0.1,0.1
			s-0.1,0.1-0.1,0.1C20.8,38.1,20.8,38,21,38z"/>
		<path class="st25" d="M23.6,38.3L23.6,38.3c0.1,0.2,0,0.2,0,0.3c0,0,0,0,0,0.1c0,0,0,0.1-0.1,0.1c0.2-0.1,0.3-0.3,0.4-0.4
			c0,0,0,0,0.1-0.1h0.1c0,0.2-0.1,0.3-0.1,0.4l0,0c0,0,0.1,0,0.1-0.1c0,0.1,0,0.1-0.1,0.2c-0.1,0-0.1,0-0.1,0v-0.1l0,0
			c0,0,0,0-0.1,0.1c-0.3,0.1-0.3,0.1-0.4,0.1s-0.1,0-0.1,0c0-0.2,0.1-0.3,0.2-0.4l0,0c0,0,0,0-0.1,0C23.4,38.4,23.4,38.3,23.6,38.3z
			"/>
		<path class="st35" d="M18.6,37.3C18.6,37.3,18.6,37.3,18.6,37.3c0,0.2,0,0.2-0.1,0.2c-0.1,0.1-0.1,0.2-0.2,0.3
			c0.2-0.1,0.2-0.1,0.4-0.3c0,0,0,0,0.1-0.1c0.1,0,0.1,0,0.1,0c0,0.1-0.1,0.2-0.2,0.3c0,0,0,0-0.1,0.1c0,0,0,0,0,0.1h0.1
			c0,0.1,0,0.1-0.1,0.1s-0.1,0-0.2,0c0-0.1,0-0.1,0.1-0.2c0,0,0,0-0.1,0c-0.1,0.1-0.2,0-0.3,0c0-0.1,0-0.1,0-0.1
			c0.1-0.1,0.1-0.1,0.1-0.1s0,0,0.1-0.1c0,0,0,0,0.1-0.1h-0.1c0,0,0,0,0-0.1C18.4,37.3,18.4,37.3,18.6,37.3z"/>
		<path class="st36" d="M29.7,37.4c0,0.2,0,0.3,0,0.5v-0.1c0,0,0,0,0.1,0c0,0.2,0,0.2-0.1,0.3c-0.1,0-0.1,0-0.1,0
			c0-0.1,0-0.1-0.1-0.1v0.1c-0.1,0.1-0.1,0.1-0.1,0.2h-0.1c0-0.1,0-0.2,0-0.3c0,0,0,0,0-0.1v-0.1v0.1c0,0,0,0-0.1,0
			c0-0.2,0-0.2,0.1-0.2h0.1c0,0.2,0,0.3,0,0.5c0.1-0.1,0.1-0.1,0.1-0.2v-0.1c0-0.1,0-0.1,0-0.2v-0.1C29.6,37.4,29.6,37.4,29.7,37.4z
			"/>
		<path class="st35" d="M27.3,38.1L27.3,38.1c0.1,0.2,0,0.4,0,0.5c0,0,0,0,0-0.1c0,0,0,0,0-0.1c0,0,0,0,0.1,0c0,0.1-0.1,0.2-0.2,0.2
			s-0.1,0-0.1,0c0-0.1,0-0.2,0.1-0.3v-0.1C27.2,38.2,27.2,38.2,27.3,38.1c-0.1,0.2-0.2,0.3-0.2,0.4v0.1c0,0.1,0,0.1-0.1,0.2h-0.1
			c0-0.2,0.1-0.3,0.1-0.5l0,0l-0.1,0.1c0-0.1,0.1-0.1,0.1-0.2h0.1c0,0.1,0,0.1,0,0.2v-0.1C27.1,38.1,27.1,38.1,27.3,38.1z"/>
		<path class="st37" d="M33.4,35.1C33.5,35.1,33.5,35.1,33.4,35.1c0.2,0.1,0.2,0.1,0.2,0.3v0.1c0,0,0,0,0,0.1c0,0,0,0,0.1,0
			c0-0.1,0-0.1,0-0.2c0,0,0,0,0.1,0c0,0.1,0,0.2-0.1,0.3h-0.1v-0.1v-0.1c0,0,0,0,0-0.1s0-0.1,0-0.2C33.6,35.2,33.6,35.2,33.4,35.1
			c0.1,0.3,0.1,0.5,0.2,0.8h-0.1c0-0.1,0-0.1-0.1-0.2c0,0,0,0,0-0.1s0-0.1,0-0.2c0,0,0,0-0.1,0c0,0.1,0,0.1,0,0.2c0,0,0,0-0.1,0
			v-0.1c0,0,0,0,0-0.1s0-0.1,0.1-0.1s0.1,0,0.1,0s0,0.1,0.1,0.1c0,0,0,0,0-0.1v-0.1C33.5,35.2,33.5,35.2,33.4,35.1
			C33.4,35.2,33.4,35.2,33.4,35.1z"/>
		<path class="st38" d="M36.1,32.2C36.2,32.2,36.2,32.2,36.1,32.2c0.1,0.2,0.1,0.3,0,0.4c0,0,0,0,0.1,0.1c0,0,0,0,0.1,0
			c0-0.1,0-0.2,0-0.3c0.1,0.1,0.1,0.1,0.1,0.2c0,0.1,0,0.2-0.1,0.3c-0.1,0-0.1,0-0.2-0.1S36,32.5,36.1,32.2
			C36,32.2,36,32.2,36.1,32.2z"/>
		<path class="st39" d="M32.6,35.8c0.1,0,0.1,0,0.2,0.1s0.1,0.2,0,0.4c0,0.1-0.1,0.2-0.2,0.3c-0.1,0-0.1,0-0.1,0
			c-0.1-0.1-0.1-0.2-0.1-0.3v-0.1c0,0,0,0,0-0.1c0,0,0,0-0.1,0v0.1l0,0c0-0.2,0-0.2,0-0.3c0,0,0,0,0.1,0s0.1,0,0.1,0.1
			s0.1,0.3,0.1,0.4c0.1-0.1,0.1-0.1,0.1-0.2v-0.1V36C32.7,35.9,32.6,35.9,32.6,35.8C32.6,35.9,32.6,35.9,32.6,35.8z"/>
		<path class="st40" d="M17,37.4c0.1,0,0.2,0,0.4,0.1c0,0,0,0,0,0.1s0.1,0.1,0.2,0.1l0,0c0.1,0,0.1,0,0.2,0h0.1c0,0,0,0,0.1,0
			c0,0.1,0,0.1,0,0.1c-0.1,0.1-0.2,0.1-0.3,0.1c-0.1-0.1-0.2-0.1-0.2-0.2c-0.1-0.1-0.2-0.1-0.3-0.1C17.1,37.6,17.1,37.6,17,37.4
			C16.9,37.5,16.9,37.5,17,37.4C16.9,37.5,17,37.5,17,37.4z"/>
		<path class="st41" d="M19.9,37.4c0.1,0,0.2,0,0.3,0.1c-0.1,0.2-0.2,0.4-0.4,0.5c-0.1,0.1-0.1,0.1-0.1,0.2c0.1,0,0.1-0.1,0.2-0.1
			c0,0.1,0,0.1-0.1,0.1s-0.1,0-0.2,0c0-0.1,0-0.1,0-0.1c0-0.1,0-0.1,0.1-0.2c0,0,0-0.1,0.1-0.1c0,0,0-0.1,0.1-0.1
			c0-0.1,0.1-0.1,0.1-0.2l0.1-0.1C19.9,37.5,19.9,37.5,19.9,37.4z"/>
		<path class="st42" d="M30.2,37.2C30.2,37.2,30.3,37.2,30.2,37.2l0.1,0.2h-0.1c0,0.1,0,0.2-0.1,0.3c0,0,0,0,0,0.1v0.1
			c0,0-0.1,0-0.1,0.1c0,0,0,0,0-0.1v-0.1c0,0,0,0,0-0.1s0-0.1,0-0.2c0,0,0,0-0.1,0v0.1c0,0,0,0-0.1,0c0-0.2,0-0.2,0.1-0.3H30
			c0,0.1,0,0.1,0,0.2c0,0,0,0,0.1,0v-0.1C30.1,37.3,30.1,37.3,30.2,37.2C30.1,37.2,30.1,37.2,30.2,37.2z"/>
		<path class="st28" d="M20.7,37.8L20.7,37.8c0.1,0.1,0,0.1,0,0.2h0.1c0,0,0,0,0,0.1c0,0,0,0-0.1,0s-0.1,0.1-0.2,0.2c0,0,0,0,0,0.1
			c0,0,0,0.1-0.1,0.1c0,0,0,0,0.1-0.1s0.1-0.1,0.1-0.1s0,0,0,0.1c-0.1,0.1-0.2,0.1-0.3,0.1c0,0,0,0,0-0.1s0.1-0.1,0.1-0.2
			c0,0,0,0,0-0.1l0.1-0.1h-0.1c0,0,0,0,0-0.1c0,0,0,0,0.1,0C20.6,37.9,20.6,37.9,20.7,37.8z"/>
		<path class="st39" d="M25.5,38.1L25.5,38.1c0.1,0.1,0.1,0.1,0.1,0.2h0.1c0,0,0,0,0,0.1c0,0,0,0-0.1,0s-0.1,0-0.1,0.1v0.1
			c0,0,0,0,0,0.1v0.1l0,0c0,0,0,0,0.1,0c0,0.1,0,0.1-0.1,0.2c-0.1,0-0.1,0-0.2,0c0-0.2,0-0.3,0.1-0.5h-0.1c0,0,0,0,0-0.1
			c0,0,0,0,0.1,0C25.4,38.3,25.4,38.3,25.5,38.1C25.4,38.2,25.4,38.2,25.5,38.1z"/>
		<path class="st30" d="M16.7,36.6C16.8,36.6,16.8,36.6,16.7,36.6c0.1,0.1,0.1,0.1,0,0.2c0,0,0,0,0.1-0.1s0.1-0.1,0.2-0.1
			c0,0.1,0,0.1,0,0.1s0,0-0.1,0.1c-0.1,0-0.1,0-0.1,0c-0.1,0-0.2,0.1-0.3,0.2c-0.1,0-0.1,0-0.2,0c0,0,0,0-0.1,0c0-0.1,0-0.1,0.1-0.2
			c0,0,0.1,0,0.1-0.1C16.6,36.7,16.6,36.7,16.7,36.6C16.7,36.7,16.6,36.7,16.7,36.6C16.6,36.6,16.6,36.6,16.7,36.6z"/>
		<path class="st30" d="M35.5,32.9C35.6,32.9,35.6,32.9,35.5,32.9L35.5,32.9L35.5,32.9v0.2c0,0,0,0.1,0.1,0.1c0,0,0,0,0,0.1
			s0.1,0.1,0.1,0.2c0,0,0,0,0,0.1h-0.1c0-0.1-0.1-0.1-0.1-0.2c0,0,0,0,0-0.1c-0.1-0.1-0.1-0.1-0.1-0.2c0,0,0,0-0.1,0v0.1
			c0,0,0,0-0.1-0.1c0-0.1,0-0.1,0-0.1c0.1,0,0.1,0,0.1,0s0.1,0,0.1,0.1C35.4,33.1,35.4,33.1,35.5,32.9C35.4,33,35.4,33,35.5,32.9
			C35.5,33.1,35.5,33,35.5,32.9C35.5,33,35.5,33,35.5,32.9C35.5,33,35.5,32.9,35.5,32.9z"/>
		<path class="st43" d="M24.5,13.2L24.5,13.2c0.1,0,0.1,0,0.1,0.1c0,0,0,0,0,0.1c0,0,0,0,0,0.1c0,0,0,0,0,0.1c0,0,0,0,0.1,0
			c0,0.1,0,0.1,0,0.2c0.1,0,0.1,0,0.2,0c0,0,0,0,0,0.1c-0.1,0-0.1,0-0.3,0c0,0.1,0,0.1,0.1,0.3c-0.1,0-0.1,0-0.1-0.1s0-0.1,0-0.2
			c0,0,0,0-0.1,0c0-0.1,0-0.1,0-0.2v-0.1C24.4,13.3,24.4,13.3,24.5,13.2z"/>
		<path class="st31" d="M13.7,34.5c0.1,0,0.2,0.1,0.2,0.2v0.1h-0.1C13.8,34.7,13.8,34.6,13.7,34.5C13.8,34.6,13.8,34.6,13.7,34.5
			c0,0.1,0,0.1,0,0.2v0.1c0,0,0,0,0,0.1s0,0.1-0.1,0.2c-0.1,0-0.2,0-0.3,0c-0.1-0.1-0.1-0.1,0-0.2h0.1c0,0.1,0,0.1,0,0.2
			c0.1,0,0.1,0,0.1-0.1s0-0.1,0-0.1C13.5,34.6,13.6,34.5,13.7,34.5z"/>
		<path class="st29" d="M13.3,34.1c0.1,0,0.1,0,0.2,0.1s0.1,0.1,0.1,0.1l0,0h-0.1C13.4,34.3,13.4,34.3,13.3,34.1
			C13.4,34.2,13.4,34.2,13.3,34.1C13.3,34.2,13.3,34.2,13.3,34.1c0,0.1,0,0.1,0,0.2c0,0,0,0,0,0.1s-0.1,0.1-0.1,0.1
			c-0.1,0-0.2,0-0.3,0c-0.1-0.1-0.1-0.1,0-0.2H13c0,0.1,0,0.1,0,0.2h0.1c0-0.1,0-0.1,0.1-0.1C13.2,34.2,13.2,34.2,13.3,34.1z"/>
		<path class="st22" d="M35.9,32.6L35.9,32.6c-0.1,0.1-0.1,0.1-0.2,0.1c0.1,0.2,0.1,0.2,0.3,0.4c0-0.1,0-0.2,0-0.3c0,0,0,0,0.1,0
			c0,0.1,0,0.1,0,0.2c0,0,0,0,0,0.1s0,0.1,0,0.1s0,0-0.1,0s-0.2-0.1-0.2-0.3C35.8,32.8,35.8,32.7,35.9,32.6
			C35.7,32.6,35.7,32.6,35.9,32.6z"/>
		<path class="st23" d="M33.9,34.8L33.9,34.8c0.2,0.1,0.2,0.2,0.2,0.3s0,0.1-0.1,0.1s-0.1,0-0.2,0C33.7,35.1,33.7,35,33.9,34.8
			C33.8,34.8,33.8,34.8,33.9,34.8z"/>
		<path class="st44" d="M14,34.8c0.1,0,0.1,0,0.2,0.1c0,0.1,0,0.1,0,0.1c-0.1,0.1-0.1,0.1-0.2,0.1h-0.1h-0.1c0.1,0,0.1,0,0.2,0
			c0,0,0,0,0,0.1h-0.1h-0.1c-0.1,0-0.1,0-0.1-0.1s0-0.1,0-0.1c0.1,0,0.1,0,0.1-0.1C13.8,34.9,13.8,34.9,14,34.8
			C13.9,34.9,14,34.9,14,34.8C14,34.9,13.9,34.9,14,34.8C14,34.8,14,34.8,14,34.8z"/>
		<path class="st45" d="M32.9,35.6C33,35.6,33,35.6,32.9,35.6c0.2,0.2,0.2,0.4,0.2,0.5c0-0.1,0-0.1,0-0.2c0,0,0,0,0.1,0
			c0,0.2,0,0.2,0,0.3l0,0c-0.1,0-0.1,0-0.1,0C33,36.1,33,36,33,35.9v-0.1c0,0,0,0,0-0.1c0,0,0,0-0.1,0c0,0.1,0,0.1,0,0.2
			c0,0,0,0-0.1,0C32.8,35.8,32.8,35.7,32.9,35.6L32.9,35.6z"/>
		<path class="st46" d="M24.4,38.3C24.5,38.3,24.5,38.3,24.4,38.3c0.1,0.2,0.1,0.2,0.1,0.2h-0.1C24.4,38.4,24.4,38.4,24.4,38.3
			c-0.1,0.2-0.2,0.3-0.2,0.5c0,0,0,0,0,0.1c0.1,0,0.1,0,0.1,0s0-0.1,0.1-0.1c0,0,0,0,0.1,0c0,0.1-0.1,0.2-0.2,0.2s-0.1,0-0.2-0.1
			c0-0.1,0-0.2,0-0.3C24.3,38.3,24.3,38.3,24.4,38.3z"/>
		<path class="st47" d="M25.9,38.3L25.9,38.3c0.1,0.1,0,0.2,0,0.3s0,0.1,0,0.2l0.1-0.1c0,0.1,0,0.1-0.1,0.2c-0.1,0-0.1,0-0.2,0
			c0-0.1,0-0.2,0.1-0.3v-0.1C25.8,38.4,25.8,38.4,25.9,38.3C25.8,38.4,25.8,38.4,25.9,38.3c-0.2,0.2-0.2,0.2-0.2,0.2
			C25.7,38.4,25.8,38.3,25.9,38.3z"/>
		<path class="st31" d="M15.1,35.7L15.1,35.7C15.2,35.7,15.2,35.7,15.1,35.7c0.2,0,0.2,0,0.2,0.1s0,0.1,0,0.1c-0.1,0-0.1,0-0.1,0.1
			c0,0,0,0-0.1,0s-0.1,0.1-0.2,0.1c0,0,0,0,0,0.1c0.1,0,0.1,0,0.2,0c0,0,0,0,0,0.1H15c0,0,0,0-0.1,0s-0.1,0-0.1,0l0,0
			c0-0.1,0.1-0.2,0.2-0.2c0.1-0.1,0.1-0.1,0.2-0.1c-0.1,0-0.1,0-0.2,0C15,35.7,15,35.7,15.1,35.7z"/>
		<path class="st48" d="M34,34.6C34,34.6,34,34.7,34,34.6C34.1,34.7,34.1,34.7,34,34.6c0,0.1,0,0.1,0,0.2c0,0,0,0,0.1,0
			s0.1,0,0.1,0.1s0,0.2-0.1,0.3c0,0.1,0,0.1-0.1,0.1h0.1c0.1,0,0.1,0,0.1,0c0,0.1,0,0.2-0.1,0.2s-0.1,0-0.2,0v-0.1v-0.1
			c0,0,0,0,0-0.1c0,0,0.1,0,0.1-0.1V35c0,0,0,0,0-0.1s0-0.1,0-0.1c-0.1,0-0.1,0-0.1-0.1C33.9,34.7,34,34.7,34,34.6z"/>
		<path class="st49" d="M25.6,38.1c0.1,0.1,0.1,0.1,0.1,0.2c0,0,0,0,0,0.1c0,0,0,0,0,0.1c0,0,0,0,0.1,0c0,0,0-0.1,0.1-0.1
			c0,0,0,0,0.1,0v0.1c0,0,0,0,0,0.1s0,0.1-0.1,0.1h-0.1c0,0,0,0,0,0.1c0,0,0,0-0.1,0c0,0,0,0,0-0.1c0,0,0,0-0.1,0c0,0,0,0.1-0.1,0.1
			c0,0,0,0-0.1,0c0-0.1,0.1-0.2,0.1-0.4h0.1c0,0,0,0,0-0.1h-0.1C25.5,38.3,25.6,38.2,25.6,38.1z"/>
		<path class="st50" d="M20.2,37.8L20.2,37.8C20.3,37.9,20.3,37.9,20.2,37.8c0.1,0.2,0,0.2,0,0.3c0,0,0,0,0,0.1l-0.1,0.1
			c0,0,0,0,0.1,0c0,0,0,0,0.1,0c0,0,0,0,0.1,0c-0.1,0.1-0.1,0.1-0.2,0.1s-0.1,0-0.1-0.1s0.1-0.2,0.2-0.3c0,0,0,0,0.1-0.1
			C20.1,37.9,20.1,37.9,20.2,37.8c-0.1,0.1-0.1,0.1-0.2,0.1C20.1,37.9,20.1,37.8,20.2,37.8z"/>
		<path class="st51" d="M18.1,8.2c0.1,0,0.2,0,0.2,0s0,0,0.1,0s0.2,0,0.3,0.1c0,0,0,0,0,0.1c0,0,0,0,0.1,0c0,0,0,0,0.1,0
			c0,0,0,0,0.1,0s0.1,0,0.2,0c0,0,0,0,0,0.1c0.1,0,0.1,0,0.2,0c0,0,0,0,0.1,0.1c0,0,0,0-0.1,0c0,0,0,0-0.1,0c0,0,0,0,0,0.1
			c-0.1,0-0.2,0-0.3,0l0,0c0.1,0,0.1,0,0.2,0c0,0,0,0,0-0.1c-0.2,0-0.2,0-0.4,0c0,0,0,0,0-0.1h-0.1h-0.1c0,0,0,0-0.1,0
			C18.3,8.3,18.2,8.3,18.1,8.2L18.1,8.2z"/>
		<path class="st52" d="M14.6,35.2L14.6,35.2l-0.1,0.2c0,0,0,0-0.1,0c-0.1,0.1-0.1,0.1-0.2,0.1c0,0,0,0-0.1,0v-0.1l0.1-0.1
			c0,0,0,0,0.1,0C14.4,35.2,14.4,35.2,14.6,35.2z"/>
		<path class="st53" d="M35.1,33.5c0.1,0,0.1,0,0.2,0.1c0.1,0.2,0.1,0.2,0.1,0.4c0,0,0,0,0,0.1c-0.1,0-0.1,0-0.2-0.1
			C35,33.8,35,33.7,35.1,33.5C35,33.6,35,33.6,35.1,33.5z"/>
		<path class="st54" d="M29.2,37.6L29.2,37.6c0.1,0.2,0.1,0.3,0.1,0.5l0.1-0.1c0,0,0,0,0.1-0.1c0,0.1,0,0.1-0.1,0.2
			c-0.1,0-0.1,0-0.2,0c0-0.1,0-0.2,0-0.3c0,0,0,0,0-0.1V37.6v0.1c0,0,0,0-0.1,0C29.2,37.6,29.2,37.6,29.2,37.6z"/>
		<path class="st55" d="M16.4,36.4c0,0.1,0,0.1,0,0.2c-0.2,0.2-0.2,0.2-0.3,0.2H16c0-0.1,0-0.2,0.1-0.2
			C16.2,36.4,16.2,36.4,16.4,36.4z"/>
		<path class="st56" d="M26.3,38.3L26.3,38.3c0.1,0.2,0.1,0.3,0,0.5h-0.1C26.2,38.6,26.2,38.4,26.3,38.3z"/>
		<path class="st57" d="M25.4,38.3L25.4,38.3C25.3,38.3,25.3,38.3,25.4,38.3C25.3,38.4,25.3,38.4,25.4,38.3
			C25.4,38.4,25.4,38.4,25.4,38.3c0,0.2-0.1,0.3-0.1,0.4c0,0,0,0,0-0.1h-0.1c-0.1,0-0.1,0-0.2,0.1c0-0.2,0.1-0.3,0.2-0.5
			C25.2,38.3,25.3,38.3,25.4,38.3z"/>
		<path class="st30" d="M15,35.5C15,35.5,15,35.6,15,35.5c0.1,0.1,0.1,0.1,0,0.2c-0.1,0-0.1,0-0.1,0.1H15c-0.1,0-0.1,0.1-0.2,0.1
			h-0.1c-0.1,0-0.1,0-0.2,0c0,0,0,0-0.1,0c0,0,0,0,0-0.1c0.1,0,0.1-0.1,0.2-0.1c0,0,0,0,0.1,0l0.1-0.1c-0.1,0-0.1,0-0.2,0
			C14.8,35.4,14.9,35.5,15,35.5z"/>
		<path class="st58" d="M33.4,35.2L33.4,35.2C33.4,35.3,33.4,35.3,33.4,35.2c0,0.3,0.1,0.5,0.1,0.7h-0.1c0-0.1,0-0.1-0.1-0.2
			c0,0,0,0,0-0.1s0-0.1,0-0.2c0,0,0,0-0.1,0c0,0.1,0,0.1,0,0.2c0,0,0,0-0.1,0v-0.1c0,0,0,0,0-0.1s0-0.1,0.1-0.1s0.1,0,0.1,0
			c0,0.1,0,0.1,0.1,0.1C33.4,35.4,33.4,35.3,33.4,35.2z"/>
		<path class="st59" d="M18.9,37.4C18.9,37.5,18.9,37.5,18.9,37.4c0,0.1,0,0.2-0.1,0.3c0,0,0,0-0.1,0.1c0,0,0,0,0,0.1h0.1
			c0,0.1,0,0.1-0.1,0.1s-0.1,0-0.2,0c0-0.1,0-0.1,0.1-0.2c0,0,0,0,0-0.1C18.6,37.5,18.7,37.4,18.9,37.4z"/>
		<path class="st41" d="M26.8,38.2L26.8,38.2c0.1,0.1,0.1,0.1,0.1,0.2v0.1c0,0.1,0,0.2-0.1,0.3h-0.1C26.7,38.6,26.8,38.5,26.8,38.2
			L26.8,38.2l-0.1,0.2C26.8,38.3,26.8,38.2,26.8,38.2z"/>
		<path class="st60" d="M23.1,38c0.1,0,0.2,0,0.3,0c-0.1,0.2-0.1,0.3-0.2,0.5c0,0,0,0-0.1,0v0.1H23c0-0.1,0-0.1,0-0.3h0.1v-0.1
			C23.2,38.1,23.2,38.1,23.1,38C23.2,38,23.2,38,23.1,38z"/>
		<path class="st61" d="M13.1,33.9C13.2,33.9,13.2,33.9,13.1,33.9L13.1,33.9c0,0.1,0,0.2-0.1,0.2c0,0,0,0-0.1,0
			c-0.1,0.1-0.1,0.1-0.1,0.1s0,0,0,0.1c0.1,0,0.1,0,0.2,0l0,0c-0.1,0-0.2,0-0.3,0v-0.1c0,0,0,0,0.1,0s0.1,0,0.1-0.1
			C12.9,33.9,13,33.9,13.1,33.9L13.1,33.9z"/>
		<path class="st62" d="M22.9,38.3L22.9,38.3c0.1,0.1,0,0.2-0.1,0.4c0,0,0,0-0.2,0C22.7,38.6,22.8,38.4,22.9,38.3z"/>
		<path class="st63" d="M24.8,38.4C24.9,38.4,24.9,38.4,24.8,38.4c0.1,0.2,0,0.3-0.1,0.4h-0.1C24.6,38.7,24.7,38.6,24.8,38.4
			L24.8,38.4z"/>
		<path class="st64" d="M19.4,37.7c0,0.1-0.1,0.2-0.2,0.3s-0.1,0.1-0.2,0.1c0-0.1,0.1-0.2,0.2-0.3C19.2,37.7,19.3,37.7,19.4,37.7z"
			/>
		<path class="st65" d="M13,33.8C13,33.8,13,33.9,13,33.8C12.9,34,12.8,34,12.6,34v-0.1C12.7,33.8,12.8,33.8,13,33.8z"/>
		<path class="st66" d="M14.4,35.2L14.4,35.2c-0.2,0.1-0.2,0.1-0.2,0.2c-0.1,0-0.1,0-0.1,0.1v0.1h0.1c0,0,0,0,0,0.1
			c-0.1,0-0.1,0-0.2,0c-0.1-0.1-0.1-0.1-0.1-0.2c0-0.1,0-0.1,0.1-0.1C14.2,35.1,14.3,35.1,14.4,35.2z"/>
		<path class="st67" d="M34.4,35.4c0,0.1,0,0.1-0.1,0.2c-0.1,0.1-0.1,0.1-0.2,0.1c0-0.1,0-0.1,0-0.2C34.2,35.4,34.3,35.3,34.4,35.4z
			"/>
		<path class="st68" d="M26.5,38.2c0.1,0,0.1,0,0.2,0.1c0,0.1,0,0.2,0,0.3c0,0,0,0-0.1,0.1c0-0.1,0-0.2,0-0.3
			C26.6,38.4,26.6,38.4,26.5,38.2C26.5,38.3,26.5,38.3,26.5,38.2z"/>
		<path class="st69" d="M32.6,35.8c0.1,0,0.1,0,0.2,0.1s0.1,0.2,0,0.4c0,0.1,0,0.1-0.1,0.2c0-0.1,0-0.2,0-0.3s0-0.1-0.1-0.2
			C32.6,35.9,32.6,35.9,32.6,35.8z"/>
		<path class="st70" d="M28.6,5.3L28.6,5.3L28.6,5.3L28.6,5.3c0.1,0.3,0,0.5-0.1,0.7c0,0,0,0-0.1,0c0,0,0,0,0-0.1s0-0.1,0-0.2V5.6
			V5.5V5.4C28.6,5.4,28.6,5.4,28.6,5.3z"/>
		<path class="st40" d="M35.1,33.5c0.2,0,0.2,0,0.3,0.1c0.1,0.1,0.1,0.2,0,0.3c0,0,0,0-0.1,0c0-0.1-0.1-0.1-0.1-0.2
			C35.2,33.6,35.1,33.6,35.1,33.5L35.1,33.5z"/>
		<path class="st71" d="M17.6,36.7c0.2,0,0.4,0,0.5,0.1s0.1,0.1,0.1,0.2v0.1c0,0,0,0-0.1,0c0-0.1,0-0.1,0-0.2c0,0,0,0-0.1,0v-0.1
			c0-0.1,0-0.1-0.1-0.1h-0.1c0,0,0,0-0.1,0C17.7,36.7,17.7,36.7,17.6,36.7C17.6,36.7,17.6,36.7,17.6,36.7
			C17.7,36.8,17.7,36.8,17.6,36.7z"/>
		<path class="st72" d="M16.4,36.5c0,0.1,0,0.1,0,0.2c-0.1,0.1-0.2,0.1-0.3,0.1C16.1,36.7,16.3,36.5,16.4,36.5z"/>
		<path class="st73" d="M26.9,10.1c0,0.1,0,0.3,0,0.4c-0.1,0-0.1,0-0.2,0C26.8,10.1,26.8,10.1,26.9,10.1z"/>
		<path class="st74" d="M36.1,32.2c0,0.1,0,0.2,0,0.3c0,0,0,0-0.1,0c0,0,0-0.1-0.1-0.1c0,0,0,0.1-0.1,0.1v-0.1c0,0,0,0,0-0.1
			s0-0.1,0-0.1C36,32.2,36,32.2,36.1,32.2z"/>
		<path class="st54" d="M29.6,37.6L29.6,37.6c0,0.1,0,0.2,0.1,0.3c0,0,0-0.1,0.1-0.1c0,0,0,0,0.1,0c0,0.2,0,0.2-0.1,0.3
			c-0.1,0-0.1,0-0.1,0C29.5,37.8,29.5,37.8,29.6,37.6L29.6,37.6z"/>
		<path class="st75" d="M17.9,17.1L17.9,17.1C18,17.1,18,17.1,17.9,17.1c-0.1,0.2,0,0.3,0,0.5v0.1c0,0.1,0,0.2,0,0.3
			c0,0.1,0,0.1,0,0.2c0,0.2,0,0.3,0,0.5l0,0c0-0.2,0-0.4,0-0.6c0-0.1,0-0.1,0-0.2s0-0.2,0-0.3v-0.1v-0.1v-0.1
			C17.8,17.2,17.8,17.2,17.9,17.1z"/>
		<path class="st76" d="M18.4,7.9L18.4,7.9c0.1,0,0.1,0,0.2,0s0.1,0,0.1,0.1c0.1,0.1,0.1,0.1,0.2,0.1s0.1,0,0.2,0c0,0,0,0,0,0.1
			c-0.1,0-0.1,0-0.2,0v0.1c-0.2-0.1-0.3-0.1-0.5-0.2C18.5,8,18.4,8,18.4,7.9L18.4,7.9L18.4,7.9z"/>
		<path class="st77" d="M32,36.3L32,36.3L32,36.3C32,36.4,32,36.4,32,36.3v0.2c0,0,0,0-0.1,0s-0.1,0-0.1,0.1s0,0.1,0,0.2
			c0,0,0,0-0.1,0c0-0.1,0-0.1,0-0.2v-0.1c0-0.1,0-0.1,0.1-0.1C31.8,36.4,31.9,36.4,32,36.3C31.9,36.4,31.9,36.4,32,36.3
			C31.9,36.4,31.9,36.3,32,36.3z"/>
		<path class="st78" d="M33.9,34.8C34,34.8,34,34.8,33.9,34.8c0.2,0.1,0.2,0.1,0.2,0.2c0,0,0,0,0,0.1c-0.1,0-0.1,0-0.1,0
			C33.8,35,33.8,35,33.9,34.8C33.8,34.8,33.9,34.8,33.9,34.8z"/>
		<path class="st79" d="M30.2,37.2C30.2,37.2,30.3,37.2,30.2,37.2l0.1,0.2h-0.1c0,0.1,0,0.1,0,0.2c0,0,0,0,0,0.1c0,0,0,0,0,0.1l0,0
			v-0.1c0,0,0,0-0.1,0v-0.1c0,0,0,0,0.1,0c0-0.1,0-0.1,0-0.1C30.1,37.3,30.1,37.3,30.2,37.2C30.1,37.2,30.1,37.2,30.2,37.2z"/>
		<path class="st80" d="M32.1,36.2L32.1,36.2c0.2,0.2,0.1,0.3,0.1,0.5c-0.1-0.1-0.1-0.1-0.1-0.2v-0.1c0,0,0,0,0-0.1c0,0,0,0-0.1,0
			C32,36.3,32,36.2,32.1,36.2z"/>
		<path class="st81" d="M13.8,35L13.8,35C13.8,35.1,13.8,35.1,13.8,35C13.9,35.1,13.9,35.1,13.8,35c0.1,0.1,0.1,0.1,0.2,0.1
			c0,0,0,0,0,0.1h-0.1h-0.1C13.7,35.2,13.7,35.2,13.8,35C13.7,35,13.7,35,13.8,35C13.8,35,13.8,35,13.8,35z"/>
		<path class="st81" d="M33.7,35.4C33.8,35.4,33.8,35.4,33.7,35.4c0.1,0.1,0,0.2,0,0.3h-0.1C33.6,35.6,33.6,35.6,33.7,35.4
			c0,0.1,0,0.1,0.1,0.2C33.7,35.5,33.7,35.5,33.7,35.4z"/>
		<path class="st82" d="M29.4,37.6L29.4,37.6L29.4,37.6L29.4,37.6c0.1,0.2,0.1,0.2,0.1,0.3V38c0,0,0,0,0,0.1h-0.1
			C29.3,37.9,29.3,37.8,29.4,37.6z"/>
		<path class="st34" d="M31.5,36.5L31.5,36.5c0.2,0.1,0.2,0.1,0.1,0.2c0,0,0,0,0,0.1h-0.1v-0.1v0.1c0,0,0,0-0.1,0
			C31.5,36.6,31.5,36.6,31.5,36.5z"/>
		<path class="st83" d="M17,37.4C17.1,37.4,17.1,37.4,17,37.4C17.1,37.5,17.1,37.5,17,37.4C17.1,37.5,17.1,37.5,17,37.4
			c0.1,0.1,0.1,0.1,0.1,0.2c0,0,0.1,0,0.1,0.1h-0.1c0,0,0,0-0.1,0s-0.1,0-0.1-0.1S16.9,37.5,17,37.4L17,37.4z"/>
		<path class="st84" d="M16,36.3c0.2,0,0.2,0,0.4,0.1c0.1,0.1,0.1,0.1,0,0.2v0.1l0,0v-0.1c0,0,0,0-0.1,0v-0.1h-0.1
			C16.2,36.4,16.2,36.4,16,36.3C16.1,36.3,16.1,36.3,16,36.3z"/>
		<path class="st85" d="M20.4,38.3C20.4,38.3,20.5,38.3,20.4,38.3C20.5,38.4,20.4,38.4,20.4,38.3C20.5,38.4,20.5,38.4,20.4,38.3
			c0.2,0,0.2,0,0.2,0s0,0,0,0.1c-0.1,0.1-0.2,0.1-0.3,0.1v-0.1C20.3,38.3,20.3,38.3,20.4,38.3z"/>
		<path class="st86" d="M35.5,32.9C35.6,32.9,35.6,32.9,35.5,32.9L35.5,32.9L35.5,32.9L35.5,32.9c0,0.2,0,0.2,0,0.3
			C35.4,33.1,35.4,33,35.5,32.9C35.5,33,35.5,33,35.5,32.9z"/>
		<path class="st87" d="M24.5,38.3L24.5,38.3c0,0.1,0,0.1,0,0.2h-0.1C24.4,38.4,24.4,38.4,24.5,38.3c-0.1,0.1-0.2,0.2-0.3,0.3
			c0-0.1,0-0.1,0-0.1C24.3,38.3,24.4,38.3,24.5,38.3z"/>
		<path class="st88" d="M34,35.5L34,35.5c0.1,0.1,0.1,0.1,0.1,0.2c0.1,0,0.1,0,0.2,0c-0.1,0.1-0.1,0.1-0.2,0.1c0,0,0,0-0.1,0
			C34,35.7,34,35.6,34,35.5L34,35.5L34,35.5z"/>
		<path class="st89" d="M30.8,11.1v0.1c-0.1,0.1-0.2,0.1-0.4,0.1l0,0h0.1v-0.1C30.6,11.1,30.7,11.1,30.8,11.1z"/>
		<path class="st90" d="M20.3,7.8L20.3,7.8C20.4,7.8,20.4,7.8,20.3,7.8c0.1,0.1,0.1,0.1,0.2,0.1V8c0,0,0,0-0.1,0
			C20.4,8,20.4,8,20.3,7.8C20.4,7.9,20.4,7.9,20.3,7.8c0.1,0.2,0.1,0.3,0.1,0.4c0,0,0,0-0.1,0C20.3,8.1,20.3,8,20.3,7.8z"/>
		<path class="st91" d="M18.1,8.4c0.2,0,0.3,0,0.5,0c-0.1,0.1-0.1,0.1-0.2,0.1h-0.1h-0.1C18.2,8.5,18.2,8.5,18.1,8.4
			C18.1,8.5,18.1,8.5,18.1,8.4z"/>
		<path class="st92" d="M26.2,38.6L26.2,38.6c0,0.1,0,0.1,0,0.2c0.1,0,0.1,0,0.1,0c0-0.1,0-0.1,0.1-0.1c0,0,0,0,0,0.1c0,0,0,0,0.1,0
			c0,0.1,0,0.1-0.1,0.1s-0.1,0-0.1,0s0,0-0.1,0s-0.1,0-0.1-0.1v-0.1c0,0,0,0,0,0.1c0,0,0,0,0.1,0C26.2,38.7,26.2,38.6,26.2,38.6z"/>
		<path class="st93" d="M29.4,5.1L29.4,5.1c0.1,0.2,0.1,0.3,0,0.5l0,0c0-0.1,0-0.2,0-0.3l-0.1,0.1C29.3,5.2,29.3,5.2,29.4,5.1z"/>
		<path class="st94" d="M29.9,37.3C30,37.3,30,37.3,29.9,37.3C30,37.4,30,37.4,29.9,37.3c0.1,0.1,0.1,0.1,0.1,0.2c0,0,0,0,0,0.1
			c0,0,0,0,0,0.1v0.1c0,0.1,0,0.1,0,0.2l0,0c0-0.2,0-0.3,0-0.5c0,0,0,0-0.1,0v0.1c0,0,0,0-0.1,0C29.8,37.4,29.8,37.4,29.9,37.3z"/>
		<path class="st47" d="M27.6,38C27.7,38,27.7,38,27.6,38C27.7,38.1,27.7,38.1,27.6,38c0.1,0.1,0.1,0.1,0,0.2c-0.1,0-0.1,0-0.1,0
			C27.5,38.2,27.5,38.2,27.6,38C27.6,38.1,27.6,38,27.6,38z"/>
		<path class="st95" d="M23.8,38.7L23.8,38.7c0.1,0.1,0.2,0,0.2,0c0,0.1,0,0.1-0.1,0.2c-0.1,0-0.1,0-0.1,0
			C23.7,38.8,23.7,38.8,23.8,38.7C23.7,38.7,23.7,38.7,23.8,38.7z"/>
		<path class="st96" d="M13.7,34.5C13.8,34.6,13.8,34.6,13.7,34.5c0.1,0.1,0.1,0.1,0.1,0.2h0.1h-0.1c0,0.1-0.1,0.1-0.1,0.2
			c0,0,0,0-0.1,0c0,0,0-0.1,0.1-0.1c0-0.1,0-0.1,0-0.1C13.7,34.6,13.7,34.6,13.7,34.5z"/>
		<path class="st88" d="M36.1,32.2C36.2,32.2,36.2,32.2,36.1,32.2c0.1,0.2,0.1,0.3,0,0.4H36v-0.1c0,0,0,0,0.1,0c0,0,0,0,0-0.1v-0.1
			C36.1,32.4,36.1,32.3,36.1,32.2C36.1,32.3,36.1,32.3,36.1,32.2L36.1,32.2z"/>
		<path class="st97" d="M18.1,8.2c0.2,0,0.3,0,0.5,0.1c-0.1,0.1-0.2,0.1-0.3,0.1C18.2,8.2,18.2,8.2,18.1,8.2L18.1,8.2z"/>
		<path class="st98" d="M27.5,38.4L27.5,38.4c0.1,0.1,0.1,0.1,0.1,0.2h-0.1C27.5,38.6,27.5,38.6,27.5,38.4
			C27.5,38.5,27.5,38.5,27.5,38.4z"/>
		<path class="st99" d="M32.6,35.8C32.7,35.8,32.7,35.8,32.6,35.8c0.1,0.1,0.1,0.1,0.2,0.1L32.7,36C32.6,36,32.6,36,32.6,35.8
			C32.6,35.9,32.6,35.9,32.6,35.8z"/>
		<path class="st100" d="M22.4,38.2C22.4,38.2,22.5,38.2,22.4,38.2c0,0.1,0,0.2,0,0.3c0,0,0,0-0.1,0v-0.1c-0.1,0-0.1,0-0.2,0l0,0
			h0.1C22.4,38.3,22.4,38.3,22.4,38.2z"/>
		<path class="st101" d="M30,37.6C30,37.6,30.1,37.6,30,37.6c0.1,0.1,0.1,0.2,0.1,0.3H30C30,37.8,30,37.7,30,37.6
			C30,37.7,30,37.7,30,37.6L30,37.6z"/>
		<path class="st102" d="M18.3,8.5L18.3,8.5c0.1,0,0.1,0,0.2,0s0.1,0,0.2,0c0,0,0,0,0,0.1C18.6,8.6,18.5,8.6,18.3,8.5
			C18.3,8.6,18.3,8.6,18.3,8.5z"/>
		<path class="st103" d="M18.6,37.5L18.6,37.5c0,0.1-0.1,0.1-0.1,0.2v0.1c-0.1,0.1-0.1,0.1-0.2,0.1c0-0.1,0.1-0.2,0.2-0.2
			C18.5,37.6,18.5,37.5,18.6,37.5C18.5,37.5,18.5,37.5,18.6,37.5z"/>
		<path class="st104" d="M15.8,36.5L15.8,36.5c0,0.1,0.1,0.2,0.1,0.3c0.1,0,0.1,0,0.2,0v0.1c-0.1,0-0.1,0-0.2-0.1
			S15.8,36.6,15.8,36.5z"/>
		<path class="st105" d="M24.7,38.4C24.7,38.4,24.7,38.4,24.7,38.4c0,0.2-0.1,0.2-0.1,0.3v-0.1c0,0,0,0-0.1,0
			C24.6,38.5,24.6,38.5,24.7,38.4z"/>
		<path class="st106" d="M27.2,38.2L27.2,38.2c0,0.1,0,0.2,0,0.3c0,0,0,0-0.1-0.1c0,0,0,0-0.1,0.1c0,0,0,0-0.1,0c0,0,0-0.1,0.1-0.1
			C27.1,38.3,27.1,38.3,27.2,38.2C27.1,38.2,27.1,38.2,27.2,38.2z"/>
		<path class="st79" d="M35.4,33.7L35.4,33.7c0.1,0.2,0.1,0.3-0.1,0.4c0,0-0.1,0-0.1-0.1h0.1C35.4,33.9,35.4,33.8,35.4,33.7z"/>
		<path class="st107" d="M25.5,38.1L25.5,38.1c0.1,0.1,0.1,0.1,0.1,0.2h0.1c-0.1,0-0.1,0-0.2-0.1C25.4,38.3,25.4,38.2,25.5,38.1
			C25.4,38.2,25.4,38.1,25.5,38.1z"/>
		<path class="st81" d="M14.4,34.7L14.4,34.7L14.4,34.7L14.4,34.7C14.4,34.8,14.4,34.7,14.4,34.7z"/>
		<path class="st108" d="M28.6,5.3L28.6,5.3L28.6,5.3L28.6,5.3L28.6,5.3c0.1,0.2,0,0.2,0,0.3c0,0,0,0-0.1,0
			C28.6,5.5,28.6,5.4,28.6,5.3z"/>
		<path class="st109" d="M21.2,38C21.3,38,21.3,38,21.2,38c0.1,0.1,0.1,0.2,0.1,0.3h-0.1C21.2,38.1,21.2,38.1,21.2,38L21.2,38z"/>
		<path class="st110" d="M36,32.2C36.1,32.2,36.1,32.2,36,32.2c0.1,0.2,0.1,0.2,0.1,0.3c0,0,0,0-0.1,0C36,32.4,36,32.3,36,32.2z"/>
		<path class="st111" d="M29.7,37.5L29.7,37.5L29.7,37.5C29.7,37.6,29.7,37.6,29.7,37.5c0,0.1,0,0.1,0,0.2s0,0.1,0.1,0.2h-0.1V38
			l0,0C29.7,37.8,29.7,37.6,29.7,37.5z"/>
		<path class="st112" d="M14,35C14,35.1,14,35.1,14,35c-0.2,0.1-0.2,0.1-0.3,0.1C13.9,34.9,13.9,34.9,14,35z"/>
		<path class="st113" d="M35.3,33.3C35.4,33.3,35.4,33.3,35.3,33.3c0.1,0.1,0.1,0.1,0.2,0.2c0,0,0,0,0,0.1l0.1,0.1c0,0,0,0,0,0.1
			c0,0,0,0,0-0.1c0,0,0,0,0-0.1c0,0,0,0,0-0.1s0-0.1-0.1-0.1C35.3,33.4,35.3,33.3,35.3,33.3z"/>
		<path class="st114" d="M18.5,8.2c0.1,0,0.1,0,0.2,0c0,0,0,0,0,0.1h0.1c0,0,0,0,0,0.1h-0.1c0,0,0,0-0.1,0
			C18.6,8.3,18.6,8.3,18.5,8.2C18.5,8.3,18.5,8.3,18.5,8.2z"/>
		<path class="st115" d="M29.2,37.6C29.3,37.6,29.3,37.6,29.2,37.6L29.2,37.6L29.2,37.6v0.2c0,0,0,0-0.1,0
			C29.2,37.6,29.2,37.6,29.2,37.6z"/>
		<path class="st116" d="M13.9,35.1c0.1,0,0.1,0,0.2,0.1c0,0.1,0,0.2,0,0.3l0,0c0-0.1,0-0.2,0-0.3C13.9,35.2,13.9,35.2,13.9,35.1
			C13.8,35.2,13.8,35.1,13.9,35.1z"/>
		<path class="st117" d="M28.7,37.4c-0.1,0.1-0.2,0.1-0.3,0.1c0,0,0,0-0.1,0.1c0,0,0,0,0-0.1c0,0,0,0-0.1,0
			C28.5,37.5,28.6,37.4,28.7,37.4z"/>
		<path class="st118" d="M15,36.4C15.1,36.4,15.1,36.4,15,36.4c0.1,0.1,0.1,0.1,0.1,0.2c-0.1,0-0.1,0-0.2-0.1
			C15,36.5,15,36.5,15,36.4z"/>
		<path class="st119" d="M36,32.9L36,32.9c0.1,0.1,0.1,0.1,0.1,0.2c0,0,0,0,0,0.1c0,0,0,0,0,0.1c0,0-0.1,0-0.1,0.1v-0.1l0,0v-0.1
			C36,33,36,32.9,36,32.9L36,32.9z"/>
		<path class="st120" d="M24,14.8C24.1,14.8,24.1,14.9,24,14.8C24.1,14.9,24.1,14.9,24,14.8c0,0.1,0,0.1,0,0.1s0,0-0.1,0L23.8,15
			C23.8,15,23.9,14.9,24,14.8z"/>
		<path class="st121" d="M24.4,38.7L24.4,38.7c0,0.1,0,0.2-0.1,0.2h-0.1c0,0,0,0,0-0.1c0,0,0,0,0.1,0C24.3,38.8,24.3,38.8,24.4,38.7
			C24.3,38.7,24.3,38.7,24.4,38.7C24.3,38.8,24.3,38.8,24.4,38.7z"/>
		<path class="st122" d="M28.6,37.5c0,0.1-0.1,0.1-0.1,0.2c0,0.1,0,0.1-0.1,0.1c0-0.1,0-0.1,0-0.1s0,0,0-0.1c0,0,0,0,0-0.1
			C28.5,37.5,28.5,37.5,28.6,37.5z"/>
		<path class="st123" d="M15.2,35.7C15.2,35.8,15.2,35.8,15.2,35.7c-0.1,0.1-0.1,0.1-0.2,0.1c0,0,0,0-0.1,0l0,0v-0.1c0,0,0,0,0.1,0
			c0,0,0,0,0-0.1c0,0,0,0-0.1,0C15,35.7,15.1,35.7,15.2,35.7z"/>
		<path class="st124" d="M14.2,35.3c0,0.1,0,0.1-0.1,0.2h0.1c0,0,0,0,0,0.1h-0.1v-0.1C14.1,35.4,14.2,35.3,14.2,35.3z"/>
		<path class="st121" d="M23.7,38.6L23.7,38.6C23.8,38.6,23.8,38.6,23.7,38.6c0,0.1,0,0.2-0.1,0.2l-0.1,0.1h-0.1
			c0-0.1,0-0.1,0.1-0.1C23.6,38.7,23.6,38.6,23.7,38.6z"/>
		<path class="st125" d="M25.9,37.9C26,37.9,26,37.9,25.9,37.9L25.9,37.9L25.9,37.9C25.9,38,25.9,38,25.9,37.9z"/>
		<path class="st126" d="M29.2,37.7L29.2,37.7c0,0.2,0,0.3,0,0.4l0,0c0-0.1,0-0.2,0-0.3c0,0,0,0-0.1,0c0,0,0,0,0.1,0V37.7z"/>
		<path class="st127" d="M20.4,37.6L20.4,37.6L20.4,37.6L20.4,37.6C20.3,37.6,20.4,37.6,20.4,37.6z"/>
		<path class="st74" d="M30.9,36.6L30.9,36.6C30.9,36.7,30.8,36.7,30.9,36.6c-0.1,0.1-0.1,0.1-0.2,0.1s-0.1,0-0.2,0
			c0,0,0.1,0,0.1-0.1c0,0,0,0,0.1,0S30.8,36.6,30.9,36.6z"/>
		<path class="st128" d="M31.9,35.9L31.9,35.9L31.9,35.9L31.9,35.9L31.9,35.9z"/>
		<path class="st129" d="M14.4,35.4C14.4,35.5,14.4,35.5,14.4,35.4C14.4,35.5,14.4,35.5,14.4,35.4c-0.1,0.1,0,0.1,0,0.2
			c-0.1,0-0.2,0-0.3,0h0.1v-0.1C14.3,35.5,14.4,35.5,14.4,35.4z"/>
		<path class="st130" d="M32.8,35.3L32.8,35.3L32.8,35.3L32.8,35.3C32.8,35.3,32.8,35.3,32.8,35.3z"/>
		<path class="st131" d="M35.8,32.6L35.8,32.6L35.8,32.6C35.8,32.7,35.8,32.7,35.8,32.6C35.7,32.6,35.7,32.6,35.8,32.6z"/>
		<path class="st132" d="M18.9,8.3c0.1,0,0.2,0,0.3,0h-0.1c0,0,0,0,0,0.1c-0.1,0-0.2,0-0.3,0l0,0C18.8,8.4,18.8,8.4,18.9,8.3
			L18.9,8.3z"/>
		<path class="st133" d="M29.4,5.6L29.4,5.6c0,0.1,0,0.1,0,0.2h0.1c-0.1,0.1-0.1,0.1-0.2,0.1V5.8C29.3,5.7,29.3,5.7,29.4,5.6
			C29.3,5.6,29.3,5.6,29.4,5.6z"/>
		<path class="st134" d="M21,38L21,38L21,38C21,38.1,21,38.1,21,38l-0.2,0.2c0,0,0,0-0.1,0C20.8,38.1,20.8,38,21,38z"/>
		<path class="st135" d="M30.1,37.3c0.1,0.1,0.1,0.1,0,0.3v0.1v0.1l0,0v-0.1c0,0,0,0-0.1,0v-0.1c0,0,0,0,0.1,0
			C30.1,37.5,30.1,37.4,30.1,37.3z"/>
		<path class="st136" d="M33.4,35.2C33.4,35.3,33.5,35.3,33.4,35.2c0.1,0.2,0,0.3,0,0.4l0,0C33.4,35.5,33.4,35.4,33.4,35.2z"/>
		<path class="st137" d="M12.4,33.3C12.4,33.3,12.5,33.3,12.4,33.3c0.1,0.1,0.2,0.1,0.3,0.2c0,0,0,0-0.1,0.1c-0.1,0-0.1,0-0.2-0.1
			C12.4,33.4,12.4,33.4,12.4,33.3z"/>
		<path class="st138" d="M35.6,33C35.6,33,35.7,33,35.6,33C35.7,33,35.7,33,35.6,33c0,0.2,0,0.2,0,0.2s0,0-0.1,0L35.6,33L35.6,33
			C35.6,33.1,35.6,33,35.6,33z"/>
		<path class="st139" d="M18.7,14.1L18.7,14.1c0.1,0,0.1,0.1,0.2,0.1l0.1,0.1v0.1c0,0,0,0,0-0.1c-0.1-0.1-0.1-0.1-0.1-0.1
			C18.7,14.2,18.7,14.2,18.7,14.1z"/>
		<path class="st140" d="M26.9,10.1L26.9,10.1c0,0.1,0,0.3,0,0.4l0,0C26.9,10.4,26.9,10.3,26.9,10.1c0,0.1-0.1,0.1-0.1,0.2
			C26.8,10.2,26.8,10.2,26.9,10.1z"/>
		<path class="st141" d="M20.2,8.8c0.1,0,0.2,0,0.3,0c-0.1,0.1-0.1,0.1-0.2,0.1c0,0.1,0,0.2,0,0.3l0,0C20.3,9.1,20.3,9,20.2,8.8
			C20.3,8.9,20.3,8.8,20.2,8.8z"/>
		<path class="st142" d="M25.3,6.1L25.3,6.1C25.4,6.2,25.4,6.2,25.3,6.1c0.1,0.1,0.1,0.1,0.2,0.2c-0.1,0-0.1,0-0.2,0
			C25.3,6.2,25.3,6.2,25.3,6.1L25.3,6.1z"/>
		<path class="st143" d="M29.5,37.7c0.1,0.1,0.1,0.2,0.1,0.3c0,0,0-0.1-0.1-0.1c0,0,0,0-0.1,0C29.5,37.9,29.5,37.8,29.5,37.7z"/>
		<path class="st144" d="M15.1,35.6L15.1,35.6C15.1,35.7,15.2,35.7,15.1,35.6L15.1,35.6c-0.2,0.2-0.2,0.2-0.3,0.2
			C15,35.6,15,35.6,15.1,35.6z"/>
		<path class="st145" d="M25.6,14L25.6,14c0.1,0.1,0.1,0.1,0.1,0.2h-0.1C25.6,14.1,25.6,14.1,25.6,14z"/>
		<path class="st146" d="M25.3,8.4L25.3,8.4C25.4,8.4,25.4,8.4,25.3,8.4c0.1,0.1,0.1,0.1,0.1,0.1s0,0,0.1,0.1h-0.1v0.1
			C25.3,8.6,25.3,8.5,25.3,8.4z"/>
		<path class="st147" d="M25.9,5.6C25.9,5.7,25.9,5.7,25.9,5.6c0,0.2,0,0.2-0.1,0.2c0,0,0,0-0.1,0c0,0,0,0,0,0.1c0,0,0,0-0.1,0
			C25.8,5.7,25.9,5.7,25.9,5.6z"/>
		<path class="st148" d="M23.5,38.7L23.5,38.7C23.5,38.8,23.5,38.8,23.5,38.7L23.5,38.7L23.5,38.7C23.4,38.7,23.4,38.7,23.5,38.7z"
			/>
		<path class="st149" d="M27.2,38.4L27.2,38.4c0.1,0.1,0.1,0.1,0.1,0.2c0,0,0,0-0.1,0c0,0,0,0,0-0.1c0,0,0,0-0.1,0
			C27.1,38.5,27.1,38.5,27.2,38.4z"/>
		<path class="st150" d="M25,38.3C25,38.4,25,38.4,25,38.3C25,38.4,24.9,38.4,25,38.3c-0.2,0.1-0.2,0.1-0.2,0.2v-0.1
			C24.8,38.3,24.9,38.3,25,38.3z"/>
		<path class="st151" d="M15.2,35.9C15.2,36,15.2,36,15.2,35.9C15.1,36,15.1,36,15,36c0,0,0,0,0-0.1C15,36,15.1,35.9,15.2,35.9z"/>
		<path class="st124" d="M34,35.2C34.1,35.2,34.1,35.2,34,35.2c0.2,0,0.2,0,0.2,0c-0.1,0.1-0.1,0.1-0.3,0.1C34,35.3,34,35.2,34,35.2
			z"/>
		<path class="st152" d="M18.9,8.4c0.1,0,0.1,0,0.2,0c0,0,0,0,0,0.1c-0.1,0-0.2,0-0.3,0C18.9,8.4,18.9,8.4,18.9,8.4z"/>
		<path class="st153" d="M24.4,14.5L24.4,14.5c0.1,0,0.1,0.1,0.1,0.1s0,0,0.1,0c0,0,0,0,0,0.1c-0.1,0-0.1,0-0.2,0
			C24.3,14.7,24.4,14.6,24.4,14.5z"/>
		<path class="st154" d="M23.9,8.6L23.9,8.6C24,8.7,24,8.7,24,8.8c0,0,0,0-0.1,0C23.9,8.7,23.9,8.7,23.9,8.6
			C23.9,8.7,23.8,8.7,23.9,8.6c-0.1,0.1-0.1,0.1-0.1,0.2L23.9,8.6C23.8,8.6,23.9,8.6,23.9,8.6L23.9,8.6z"/>
		<path class="st155" d="M20.7,8.3L20.7,8.3c0.1,0.1,0.1,0.1,0,0.1c0.1,0,0.2,0,0.3,0l0,0C20.9,8.4,20.8,8.4,20.7,8.3
			C20.6,8.4,20.7,8.3,20.7,8.3z"/>
		<path class="st156" d="M17.6,36.7L17.6,36.7h0.2c0,0,0,0,0.1,0c0,0,0,0.1,0.1,0.1c-0.1,0-0.1,0-0.2,0c0,0,0,0,0-0.1
			C17.7,36.8,17.7,36.8,17.6,36.7z"/>
		<path class="st157" d="M26,5.2c0.1,0,0.1,0,0.2,0c0,0,0,0,0,0.1C26.1,5.3,26,5.3,26,5.2C26,5.3,26,5.3,26,5.2
			C25.9,5.3,25.9,5.3,26,5.2C25.9,5.2,25.9,5.2,26,5.2z"/>
		<path class="st158" d="M24.8,38.8L24.8,38.8C24.8,38.9,24.8,38.9,24.8,38.8c-0.1,0.1-0.1,0.1-0.2,0.1c0,0,0,0,0-0.1H24.8
			C24.7,38.8,24.7,38.8,24.8,38.8z"/>
		<path class="st159" d="M26.2,38.6L26.2,38.6L26.2,38.6c0,0.2,0,0.2,0.1,0.3c-0.1,0-0.1,0-0.2,0v-0.1c0,0,0,0,0,0.1c0,0,0,0,0.1,0
			C26.2,38.7,26.2,38.6,26.2,38.6z"/>
		<path class="st160" d="M23.6,38.3L23.6,38.3C23.6,38.3,23.5,38.3,23.6,38.3c-0.1,0.1-0.1,0.1-0.2,0.2c0,0,0,0-0.1,0
			C23.4,38.3,23.5,38.3,23.6,38.3z"/>
		<path class="st161" d="M20.6,38.2C20.6,38.2,20.6,38.3,20.6,38.2c0,0.1,0,0.1-0.1,0.2c0,0,0,0-0.1,0
			C20.5,38.3,20.5,38.3,20.6,38.2z"/>
		<path class="st162" d="M32.5,36.1C32.5,36.1,32.5,36.2,32.5,36.1c0.1,0.1,0.1,0.2,0.1,0.2h-0.1v-0.1
			C32.5,36.2,32.5,36.2,32.5,36.1z"/>
		<path class="st163" d="M35.4,33C35.5,33,35.5,33,35.4,33c0,0.1,0.1,0.2,0.1,0.3c-0.1-0.1-0.1-0.1-0.2-0.1c0,0,0.1,0,0.1-0.1
			C35.4,33,35.4,33,35.4,33z"/>
		<path class="st164" d="M35.5,32.9C35.6,32.9,35.6,32.9,35.5,32.9L35.5,32.9L35.5,32.9C35.5,33,35.5,33,35.5,32.9z"/>
		<path class="st165" d="M18.8,8.1c0.1,0,0.2,0,0.3,0c0,0,0,0,0,0.1c-0.1,0-0.1,0-0.2,0v0.1C18.9,8.2,18.9,8.2,18.8,8.1L18.8,8.1z"
			/>
		<path class="st166" d="M24.2,38.6L24.2,38.6c0,0.1,0,0.1,0,0.2c0,0,0,0,0.1,0c0,0,0,0,0,0.1h-0.1C24.2,38.7,24.2,38.7,24.2,38.6z"
			/>
		<path class="st167" d="M17.9,37.8C17.9,37.9,17.9,37.9,17.9,37.8L17.9,37.8L17.9,37.8h-0.2l0,0C17.9,37.8,17.9,37.8,17.9,37.8z"/>
		<path class="st168" d="M19,37.7L19,37.7c0.1,0.1,0,0.1-0.1,0.2c0,0,0,0,0-0.1C19.1,37.7,19.1,37.7,19,37.7z"/>
		<path class="st169" d="M16.8,36.7L16.8,36.7C16.9,36.8,16.9,36.8,16.8,36.7c-0.1,0.2-0.1,0.2-0.2,0.2v-0.1
			C16.7,36.8,16.7,36.8,16.8,36.7C16.8,36.8,16.8,36.8,16.8,36.7z"/>
		<path class="st170" d="M14.9,36.1c0.1,0,0.1,0,0.2,0c0,0,0,0,0,0.1C15,36.1,15,36.1,14.9,36.1L14.9,36.1z"/>
		<path class="st171" d="M32.9,35.7L32.9,35.7c0.1,0.1,0.1,0.1,0.1,0.2c0,0,0,0-0.1,0C32.9,35.9,32.9,35.8,32.9,35.7z"/>
		<path class="st172" d="M22.9,38.7C23,38.7,23,38.7,22.9,38.7L22.9,38.7C22.9,38.8,22.9,38.8,22.9,38.7
			C22.9,38.8,22.9,38.8,22.9,38.7z"/>
		<path class="st66" d="M20.4,38.7c0.2,0,0.2,0,0.2,0.1l0,0C20.5,38.8,20.5,38.8,20.4,38.7L20.4,38.7z"/>
		<path class="st173" d="M25.8,38.6L25.8,38.6c0.1,0.1,0,0.1,0,0.2C25.8,38.7,25.8,38.7,25.8,38.6z"/>
		<path class="st174" d="M27,38.2C27.1,38.3,27.1,38.3,27,38.2c0,0.1,0,0.2-0.1,0.3c0,0,0-0.1-0.1-0.1c0,0,0,0,0.1,0
			C27,38.3,27,38.3,27,38.2z"/>
		<path class="st175" d="M19.7,38C19.8,38,19.8,38.1,19.7,38c0,0.1,0,0.1,0,0.2c-0.1,0-0.1,0-0.1,0C19.7,38.1,19.7,38.1,19.7,38z"/>
		<path class="st176" d="M17.8,36.8L17.8,36.8c0.1,0,0.1,0,0.2,0s0.1,0,0.1,0.1C18,36.9,18,36.9,17.8,36.8
			C17.9,36.8,17.9,36.8,17.8,36.8L17.8,36.8z"/>
		<path class="st177" d="M16.7,36.6C16.8,36.6,16.8,36.6,16.7,36.6C16.8,36.6,16.7,36.7,16.7,36.6C16.8,36.7,16.7,36.7,16.7,36.6
			c-0.1,0.1-0.1,0.1-0.2,0.1C16.6,36.6,16.6,36.5,16.7,36.6z"/>
		<path class="st178" d="M15,35.8C15,35.8,15.1,35.8,15,35.8c0,0.1,0,0.1,0,0.2h-0.1C14.9,35.9,15,35.9,15,35.8z"/>
		<path class="st179" d="M13.5,34.7L13.5,34.7L13.5,34.7C13.4,34.7,13.4,34.7,13.5,34.7C13.5,34.7,13.5,34.7,13.5,34.7z"/>
		<path class="st180" d="M12.9,33.2L12.9,33.2c0.1,0.1,0.1,0.2,0.1,0.3c0,0,0,0-0.1,0v-0.1C12.9,33.3,12.9,33.3,12.9,33.2L12.9,33.2
			z"/>
		<path class="st181" d="M24.6,13.6L24.6,13.6c0.1,0,0.1,0,0.2,0c0,0,0,0,0,0.1c-0.1,0-0.1,0-0.3,0C24.6,13.7,24.6,13.6,24.6,13.6z"
			/>
		<path class="st182" d="M27.6,12.2C27.6,12.2,27.5,12.2,27.6,12.2c-0.2,0.1-0.2,0.1-0.2,0.1s0,0-0.1,0c0-0.1,0-0.1,0-0.1
			C27.5,12.1,27.5,12.1,27.6,12.2z"/>
		<path class="st183" d="M30.3,10.8L30.3,10.8c0.1,0.1,0.1,0.2,0.2,0.3c-0.1,0-0.1,0-0.2-0.1C30.3,10.9,30.3,10.8,30.3,10.8z"/>
		<path class="st184" d="M19.1,8.3c0.1,0,0.1,0,0.2,0.1c-0.1,0-0.1,0-0.2,0V8.3z"/>
		<path class="st185" d="M28.6,5.8L28.6,5.8c0,0.1,0,0.1,0,0.2h-0.1C28.6,5.9,28.6,5.9,28.6,5.8z"/>
		<path class="st186" d="M25,38.6C25,38.7,25,38.7,25,38.6C25.1,38.7,25.1,38.7,25,38.6c0.1,0.2,0,0.2-0.1,0.2
			C25,38.8,25,38.7,25,38.6z"/>
		<path class="st187" d="M23.6,38.6C23.6,38.7,23.6,38.7,23.6,38.6C23.6,38.7,23.6,38.7,23.6,38.6C23.5,38.7,23.5,38.7,23.6,38.6
			C23.5,38.7,23.6,38.6,23.6,38.6z"/>
		<path class="st188" d="M22.1,38.2L22.1,38.2c0.1,0.1,0.2,0.1,0.3,0.1l0,0C22.2,38.3,22.2,38.3,22.1,38.2L22.1,38.2z"/>
		<path class="st189" d="M16.7,36.6c0,0.1-0.1,0.1-0.1,0.2v-0.1C16.6,36.6,16.6,36.6,16.7,36.6z"/>
		<path class="st190" d="M31.5,36.5C31.5,36.5,31.5,36.6,31.5,36.5C31.6,36.6,31.6,36.6,31.5,36.5c0.1,0.1,0,0.2,0,0.2s0,0-0.1,0
			C31.5,36.6,31.5,36.6,31.5,36.5z"/>
		<path class="st191" d="M16.1,35.9L16.1,35.9C16.1,36,16,36,16.1,35.9C16,35.9,16,35.9,16.1,35.9C16,35.9,16,35.9,16.1,35.9z"/>
		<path class="st192" d="M13.4,34.2L13.4,34.2c0.1,0.1,0.1,0.1,0.1,0.2c0,0-0.1,0-0.1-0.1C13.4,34.3,13.4,34.3,13.4,34.2z"/>
		<path class="st42" d="M13.3,34.2C13.4,34.2,13.4,34.2,13.3,34.2C13.3,34.3,13.3,34.3,13.3,34.2C13.2,34.2,13.2,34.2,13.3,34.2z"/>
		<path class="st193" d="M29,5.4C29.1,5.5,29.1,5.5,29,5.4c0.1,0.1,0.1,0.1,0.1,0.2H29C29,5.6,29,5.5,29,5.4z"/>
		<path d="M33.2,25.6C33.3,25.6,33.3,25.6,33.2,25.6v0.1C33.3,25.7,33.3,25.6,33.2,25.6z"/>
	</g>
	<g>
		<path d="M59.4,4.7V4.4h3.9v0.3h-0.4c-0.4,0-0.8,0.2-1,0.5c-0.1,0.2-0.2,0.6-0.2,1.2v4.5c0,1.1-0.1,2-0.3,2.6s-0.7,1.1-1.3,1.6
			c-0.6,0.4-1.5,0.7-2.6,0.7c-1.2,0-2.1-0.2-2.8-0.6c-0.6-0.4-1.1-1-1.3-1.7c-0.2-0.5-0.3-1.4-0.3-2.7V6.4c0-0.7-0.1-1.1-0.3-1.3
			s-0.5-0.3-0.9-0.3h-0.4V4.4h4.8v0.3h-0.4c-0.5,0-0.8,0.1-1,0.4c-0.1,0.2-0.2,0.6-0.2,1.2v4.8c0,0.4,0,0.9,0.1,1.5s0.2,1,0.4,1.3
			c0.2,0.3,0.5,0.6,0.9,0.8c0.4,0.2,0.9,0.3,1.4,0.3c0.7,0,1.4-0.2,1.9-0.5c0.6-0.3,1-0.7,1.2-1.2c0.2-0.5,0.3-1.3,0.3-2.5V6.4
			c0-0.7-0.1-1.1-0.2-1.3c-0.2-0.2-0.5-0.4-0.9-0.4H59.4z"/>
		<path d="M63.3,4.4h3l6.8,8.3V6.3c0-0.7-0.1-1.1-0.2-1.3c-0.2-0.2-0.5-0.3-1-0.3h-0.4V4.4h3.9v0.3h-0.4c-0.5,0-0.8,0.1-1,0.4
			c-0.1,0.2-0.2,0.6-0.2,1.2v9.3h-0.3l-7.3-8.9v6.8c0,0.7,0.1,1.1,0.2,1.3c0.2,0.2,0.5,0.3,1,0.3h0.4v0.3h-3.9v-0.3h0.4
			c0.5,0,0.8-0.1,1-0.4c0.1-0.2,0.2-0.6,0.2-1.2V5.9c-0.3-0.4-0.6-0.6-0.7-0.7S64.3,4.9,64,4.8c-0.2,0-0.4-0.1-0.7-0.1V4.4z"/>
		<path d="M80.7,15.2v0.3H76v-0.3h0.4c0.5,0,0.8-0.1,1-0.4c0.1-0.2,0.2-0.6,0.2-1.3V6.4c0-0.6,0-0.9-0.1-1.1
			c-0.1-0.1-0.2-0.3-0.3-0.4c-0.2-0.1-0.5-0.2-0.8-0.2H76V4.4h4.7v0.3h-0.4c-0.5,0-0.8,0.1-1,0.4c-0.1,0.2-0.2,0.6-0.2,1.3v7.2
			c0,0.6,0,0.9,0.1,1.1c0.1,0.1,0.2,0.3,0.3,0.4c0.2,0.1,0.5,0.2,0.7,0.2H80.7z"/>
		<path d="M93,4.4v0.3c-0.4,0.1-0.7,0.2-0.9,0.4c-0.3,0.3-0.5,0.7-0.8,1.2l-3.9,9.4h-0.3L83,6.2c-0.2-0.5-0.4-0.8-0.4-0.9
			c-0.1-0.2-0.3-0.3-0.5-0.4c-0.2-0.1-0.5-0.2-0.8-0.2V4.4h4.5v0.3c-0.5,0-0.8,0.1-1,0.3c-0.2,0.1-0.2,0.3-0.2,0.5
			c0,0.3,0.1,0.7,0.4,1.3l2.8,6.5l2.6-6.4c0.3-0.6,0.4-1.1,0.4-1.3c0-0.2-0.1-0.3-0.2-0.5c-0.2-0.1-0.4-0.2-0.8-0.3c0,0-0.1,0-0.1,0
			V4.4H93z"/>
		<path d="M96.7,5v4.4h2.4c0.6,0,1.1-0.1,1.3-0.3c0.3-0.3,0.4-0.7,0.5-1.3h0.3v3.9h-0.3c-0.1-0.5-0.2-0.9-0.2-1
			c-0.1-0.2-0.3-0.3-0.5-0.4c-0.2-0.1-0.6-0.2-1-0.2h-2.4v3.7c0,0.5,0,0.8,0.1,0.9c0,0.1,0.1,0.2,0.2,0.3c0.1,0.1,0.3,0.1,0.6,0.1
			h1.9c0.6,0,1.1,0,1.4-0.1c0.3-0.1,0.6-0.3,0.8-0.5c0.3-0.3,0.7-0.8,1-1.5h0.3l-1,2.8h-8.5v-0.3H94c0.3,0,0.5-0.1,0.7-0.2
			c0.2-0.1,0.3-0.2,0.4-0.4c0.1-0.2,0.1-0.5,0.1-1.1V6.3c0-0.7-0.1-1.1-0.2-1.3c-0.2-0.2-0.5-0.3-1-0.3h-0.4V4.4h8.5l0.1,2.4h-0.3
			c-0.1-0.6-0.2-1-0.4-1.2c-0.1-0.2-0.3-0.4-0.6-0.5c-0.2-0.1-0.6-0.1-1.2-0.1H96.7z"/>
		<path d="M114.7,15.5h-3l-3.8-5.2c-0.3,0-0.5,0-0.7,0c-0.1,0-0.1,0-0.2,0c-0.1,0-0.2,0-0.3,0v3.2c0,0.7,0.1,1.1,0.2,1.3
			c0.2,0.2,0.5,0.4,0.9,0.4h0.4v0.3h-4.7v-0.3h0.4c0.5,0,0.8-0.2,1-0.5c0.1-0.2,0.2-0.6,0.2-1.2V6.4c0-0.7-0.1-1.1-0.2-1.3
			c-0.2-0.2-0.5-0.4-0.9-0.4h-0.4V4.4h4c1.2,0,2,0.1,2.6,0.3c0.6,0.2,1,0.5,1.4,0.9c0.4,0.5,0.6,1,0.6,1.6c0,0.7-0.2,1.3-0.7,1.8
			s-1.1,0.9-2.1,1.1l2.3,3.2c0.5,0.7,1,1.2,1.3,1.5c0.4,0.2,0.9,0.4,1.5,0.5V15.5z M106.9,9.8c0.1,0,0.2,0,0.3,0c0.1,0,0.1,0,0.2,0
			c1.1,0,1.9-0.2,2.4-0.7c0.5-0.5,0.8-1,0.8-1.7c0-0.7-0.2-1.3-0.6-1.7c-0.4-0.4-1-0.6-1.7-0.6c-0.3,0-0.7,0.1-1.3,0.2V9.8z"/>
		<path d="M122.3,4.2V8H122c-0.1-0.7-0.3-1.3-0.5-1.8s-0.6-0.8-1.1-1s-1-0.4-1.5-0.4c-0.6,0-1,0.2-1.4,0.5s-0.6,0.7-0.6,1.2
			c0,0.3,0.1,0.6,0.4,0.9c0.3,0.4,1.1,1,2.4,1.6c1,0.6,1.7,1,2.1,1.3c0.4,0.3,0.7,0.6,0.9,1c0.2,0.4,0.3,0.8,0.3,1.3
			c0,0.8-0.3,1.6-1,2.2c-0.7,0.6-1.5,0.9-2.5,0.9c-0.3,0-0.6,0-0.9-0.1c-0.2,0-0.5-0.1-1-0.3s-0.9-0.3-1-0.3c-0.1,0-0.2,0-0.3,0.1
			c-0.1,0.1-0.1,0.3-0.2,0.5h-0.3v-3.8h0.3c0.1,0.8,0.3,1.4,0.6,1.8s0.6,0.7,1.1,1c0.5,0.3,1,0.4,1.6,0.4c0.7,0,1.2-0.2,1.6-0.5
			c0.4-0.4,0.6-0.8,0.6-1.3c0-0.3-0.1-0.5-0.2-0.8c-0.1-0.3-0.4-0.5-0.7-0.8c-0.2-0.2-0.8-0.5-1.7-1c-0.9-0.5-1.6-1-2-1.3
			c-0.4-0.3-0.7-0.7-0.9-1c-0.2-0.4-0.3-0.8-0.3-1.3c0-0.8,0.3-1.5,0.9-2.1s1.4-0.9,2.3-0.9c0.6,0,1.2,0.1,1.9,0.4
			c0.3,0.1,0.5,0.2,0.6,0.2c0.1,0,0.3,0,0.3-0.1s0.2-0.3,0.2-0.5H122.3z"/>
		<path d="M129.1,15.2v0.3h-4.7v-0.3h0.4c0.5,0,0.8-0.1,1-0.4c0.1-0.2,0.2-0.6,0.2-1.3V6.4c0-0.6,0-0.9-0.1-1.1
			c-0.1-0.1-0.2-0.3-0.3-0.4c-0.2-0.1-0.5-0.2-0.8-0.2h-0.4V4.4h4.7v0.3h-0.4c-0.5,0-0.8,0.1-1,0.4c-0.1,0.2-0.2,0.6-0.2,1.3v7.2
			c0,0.6,0,0.9,0.1,1.1c0.1,0.1,0.2,0.3,0.3,0.4c0.2,0.1,0.5,0.2,0.7,0.2H129.1z"/>
		<path d="M139.2,4.4l0.1,2.6H139c-0.1-0.5-0.1-0.8-0.2-1c-0.2-0.3-0.4-0.5-0.7-0.7c-0.3-0.1-0.6-0.2-1.1-0.2h-1.6v8.5
			c0,0.7,0.1,1.1,0.2,1.3c0.2,0.2,0.5,0.3,1,0.3h0.4v0.3h-4.7v-0.3h0.4c0.5,0,0.8-0.1,1-0.4c0.1-0.2,0.2-0.6,0.2-1.2V5.1h-1.3
			c-0.5,0-0.9,0-1.1,0.1c-0.3,0.1-0.5,0.3-0.7,0.6c-0.2,0.3-0.3,0.7-0.4,1.2H130l0.1-2.6H139.2z"/>
		<path d="M147.7,4.4h3.9v0.3h-0.2c-0.1,0-0.3,0.1-0.6,0.2c-0.3,0.1-0.5,0.3-0.7,0.5c-0.2,0.2-0.5,0.6-0.8,1.1l-2.7,4.2v2.8
			c0,0.7,0.1,1.1,0.2,1.3c0.2,0.2,0.5,0.3,1,0.3h0.4v0.3h-4.7v-0.3h0.4c0.5,0,0.8-0.1,1-0.4c0.1-0.2,0.2-0.6,0.2-1.2V11l-3-4.6
			c-0.4-0.5-0.6-0.9-0.7-1c-0.1-0.1-0.4-0.3-0.8-0.5c-0.1-0.1-0.3-0.1-0.5-0.1V4.4h4.7v0.3h-0.2c-0.3,0-0.5,0.1-0.7,0.2
			c-0.2,0.1-0.3,0.3-0.3,0.5c0,0.2,0.2,0.6,0.5,1.1l2.3,3.6l2.2-3.4c0.3-0.5,0.5-0.9,0.5-1.1c0-0.2,0-0.3-0.1-0.4s-0.2-0.2-0.3-0.3
			c-0.1-0.1-0.4-0.1-0.7-0.1V4.4z"/>
		<path d="M57.9,23.4c1.5,0,2.9,0.6,4,1.8c1.1,1.2,1.7,2.6,1.7,4.4c0,1.8-0.6,3.3-1.7,4.5c-1.1,1.2-2.5,1.8-4.1,1.8
			c-1.6,0-3-0.6-4.1-1.7c-1.1-1.2-1.7-2.7-1.7-4.5c0-1.9,0.6-3.4,1.9-4.6C55,23.9,56.4,23.4,57.9,23.4z M57.8,24
			c-1.1,0-1.9,0.4-2.6,1.2c-0.8,1-1.2,2.4-1.2,4.3c0,1.9,0.4,3.4,1.2,4.5c0.6,0.8,1.5,1.2,2.5,1.2c1.1,0,2-0.4,2.8-1.3
			s1.1-2.2,1.1-4.1c0-2-0.4-3.6-1.2-4.6C59.8,24.4,58.9,24,57.8,24z"/>
		<path d="M68,24.3V29h2.2c0.5,0,0.9-0.1,1.1-0.3c0.2-0.2,0.4-0.7,0.5-1.3h0.3v4h-0.3c0-0.5-0.1-0.8-0.2-1s-0.3-0.4-0.5-0.5
			c-0.2-0.1-0.5-0.2-0.9-0.2H68v3.7c0,0.6,0,1,0.1,1.2c0.1,0.1,0.2,0.3,0.4,0.4c0.3,0.1,0.5,0.2,0.8,0.2h0.4v0.3h-5.1v-0.3H65
			c0.5,0,0.8-0.1,1.1-0.4c0.1-0.2,0.2-0.6,0.2-1.4v-7.7c0-0.6,0-1-0.1-1.2c-0.1-0.1-0.2-0.3-0.4-0.4C65.6,24,65.3,24,65,24h-0.4
			v-0.3h8.9l0.1,2.6h-0.3c-0.2-0.6-0.3-1-0.5-1.2c-0.2-0.3-0.5-0.4-0.7-0.6c-0.3-0.1-0.8-0.2-1.4-0.2H68z"/>
		<path d="M89.1,32.3l0.3,0.1l-1,3.2h-9.2v-0.3h0.4c0.5,0,0.9-0.2,1.1-0.5c0.1-0.2,0.2-0.6,0.2-1.3v-7.7c0-0.7-0.1-1.2-0.2-1.4
			c-0.2-0.3-0.6-0.4-1-0.4h-0.4v-0.3h5.4V24c-0.6,0-1.1,0.1-1.3,0.2s-0.4,0.3-0.5,0.5c-0.1,0.2-0.1,0.6-0.1,1.3v7.5
			c0,0.5,0,0.8,0.1,1c0.1,0.1,0.2,0.2,0.3,0.3c0.1,0.1,0.6,0.1,1.4,0.1h0.9c0.9,0,1.6-0.1,1.9-0.2c0.4-0.1,0.7-0.4,1-0.7
			S88.8,33,89.1,32.3z"/>
		<path d="M98.4,24v-0.3h4.2V24h-0.4c-0.5,0-0.8,0.2-1.1,0.6c-0.1,0.2-0.2,0.6-0.2,1.3v4.8c0,1.2-0.1,2.1-0.4,2.8s-0.7,1.2-1.4,1.7
			c-0.7,0.5-1.6,0.7-2.8,0.7c-1.3,0-2.3-0.2-3-0.7c-0.7-0.5-1.1-1.1-1.4-1.8c-0.2-0.5-0.3-1.5-0.3-2.9v-4.7c0-0.7-0.1-1.2-0.3-1.4
			c-0.2-0.2-0.5-0.3-1-0.3h-0.4v-0.3H95V24h-0.5c-0.5,0-0.8,0.2-1.1,0.5c-0.1,0.2-0.2,0.6-0.2,1.3v5.2c0,0.5,0,1,0.1,1.6
			c0.1,0.6,0.2,1.1,0.5,1.4c0.2,0.3,0.5,0.6,1,0.8c0.4,0.2,0.9,0.3,1.5,0.3c0.8,0,1.5-0.2,2.1-0.5c0.6-0.3,1-0.8,1.3-1.3
			s0.3-1.4,0.3-2.7v-4.8c0-0.7-0.1-1.2-0.2-1.4c-0.2-0.3-0.6-0.4-1-0.4H98.4z"/>
		<path d="M111,23.4v4.1h-0.3c-0.1-0.8-0.3-1.4-0.6-1.9s-0.7-0.8-1.2-1.1s-1-0.4-1.6-0.4c-0.6,0-1.1,0.2-1.5,0.6s-0.6,0.8-0.6,1.3
			c0,0.4,0.1,0.7,0.4,1c0.4,0.4,1.2,1,2.6,1.8c1.1,0.6,1.9,1.1,2.3,1.4c0.4,0.3,0.7,0.7,0.9,1.1c0.2,0.4,0.3,0.9,0.3,1.4
			c0,0.9-0.3,1.7-1,2.3c-0.7,0.7-1.6,1-2.7,1c-0.3,0-0.7,0-1-0.1c-0.2,0-0.6-0.1-1.1-0.3c-0.6-0.2-0.9-0.3-1.1-0.3
			c-0.1,0-0.3,0-0.3,0.1c-0.1,0.1-0.1,0.3-0.2,0.5H104v-4.1h0.3c0.2,0.9,0.4,1.5,0.6,1.9c0.3,0.4,0.7,0.8,1.2,1.1
			c0.5,0.3,1.1,0.4,1.7,0.4c0.7,0,1.3-0.2,1.7-0.6c0.4-0.4,0.6-0.8,0.6-1.4c0-0.3-0.1-0.6-0.2-0.9c-0.2-0.3-0.4-0.6-0.8-0.8
			c-0.2-0.2-0.9-0.5-1.9-1.1s-1.7-1-2.2-1.4c-0.4-0.3-0.8-0.7-1-1.1c-0.2-0.4-0.3-0.9-0.3-1.4c0-0.9,0.3-1.6,1-2.2
			c0.7-0.6,1.5-0.9,2.5-0.9c0.6,0,1.3,0.2,2,0.5c0.3,0.1,0.6,0.2,0.7,0.2c0.2,0,0.3,0,0.4-0.1c0.1-0.1,0.2-0.3,0.2-0.5H111z"/>
		<path d="M121,31.6h-4.6l-0.8,1.9c-0.2,0.5-0.3,0.8-0.3,1c0,0.2,0.1,0.3,0.3,0.5c0.2,0.1,0.5,0.2,1.1,0.3v0.3h-3.7v-0.3
			c0.5-0.1,0.8-0.2,1-0.3c0.3-0.3,0.6-0.9,1-1.7l4.2-9.8h0.3l4.1,9.9c0.3,0.8,0.6,1.3,0.9,1.5s0.7,0.4,1.1,0.4v0.3h-4.7v-0.3
			c0.5,0,0.8-0.1,1-0.2s0.3-0.3,0.3-0.5c0-0.3-0.1-0.7-0.4-1.2L121,31.6z M120.8,30.9l-2-4.8l-2.1,4.8H120.8z"/>
		<path d="M131.1,29l4.4,4.4c0.7,0.7,1.3,1.2,1.8,1.5c0.5,0.3,1,0.4,1.5,0.4v0.3h-5.7v-0.3c0.3,0,0.6-0.1,0.7-0.2s0.2-0.2,0.2-0.4
			c0-0.1,0-0.3-0.1-0.4c-0.1-0.1-0.2-0.3-0.5-0.6l-4.1-4.1v3.8c0,0.6,0,1,0.1,1.2c0.1,0.1,0.2,0.3,0.4,0.4c0.3,0.1,0.5,0.2,0.8,0.2
			h0.4v0.3h-5.1v-0.3h0.4c0.5,0,0.8-0.1,1.1-0.4c0.1-0.2,0.2-0.6,0.2-1.4v-7.7c0-0.6,0-1-0.1-1.2c-0.1-0.1-0.2-0.3-0.4-0.4
			c-0.3-0.1-0.5-0.2-0.8-0.2h-0.4v-0.3h5.1V24h-0.4c-0.3,0-0.5,0.1-0.8,0.2c-0.2,0.1-0.3,0.2-0.4,0.4c-0.1,0.2-0.1,0.6-0.1,1.2v3.6
			c0.1-0.1,0.5-0.5,1.2-1.1c1.7-1.6,2.8-2.7,3.2-3.2c0.2-0.2,0.2-0.4,0.2-0.6c0-0.1-0.1-0.3-0.2-0.4c-0.1-0.1-0.3-0.2-0.6-0.2H133
			v-0.3h4.4V24c-0.3,0-0.5,0-0.7,0.1c-0.2,0.1-0.5,0.2-0.8,0.4c-0.3,0.2-0.7,0.5-1.1,0.9c-0.1,0.1-0.7,0.7-1.8,1.8L131.1,29z"/>
		<path d="M147,31.6h-4.6l-0.8,1.9c-0.2,0.5-0.3,0.8-0.3,1c0,0.2,0.1,0.3,0.3,0.5c0.2,0.1,0.5,0.2,1.1,0.3v0.3h-3.7v-0.3
			c0.5-0.1,0.8-0.2,1-0.3c0.3-0.3,0.6-0.9,1-1.7l4.2-9.8h0.3l4.1,9.9c0.3,0.8,0.6,1.3,0.9,1.5s0.7,0.4,1.1,0.4v0.3h-4.7v-0.3
			c0.5,0,0.8-0.1,1-0.2c0.2-0.1,0.3-0.3,0.3-0.5c0-0.3-0.1-0.7-0.4-1.2L147,31.6z M146.7,30.9l-2-4.8l-2.1,4.8H146.7z"/>
	</g>
</g>
</svg>
