<?xml version="1.0" encoding="utf-8"?>
<!-- Generator: Adobe Illustrator 26.0.1, SVG Export Plug-In . SVG Version: 6.00 Build 0)  -->
<svg version="1.1" id="Layer_1" xmlns="http://www.w3.org/2000/svg" xmlns:xlink="http://www.w3.org/1999/xlink" x="0px" y="0px"
	 viewBox="0 0 161 40" style="enable-background:new 0 0 161 40;" xml:space="preserve">
<style type="text/css">
	.st0{fill:#00579F;}
	.st1{fill:#FAA61A;}
</style>
<g id="g4158" transform="matrix(4.4299631,0,0,4.4299631,-81.165783,-105.04783)">
	<polygon id="polygon9" class="st0" points="34.6,32.6 32.4,32.6 33.8,23.9 36,23.9 	"/>
	<path id="path11" class="st0" d="M42.8,24.1c-0.4-0.2-1.1-0.4-2-0.4c-2.2,0-3.8,1.2-3.8,2.9c0,1.3,1.1,1.9,2,2.4
		c0.9,0.4,1.2,0.7,1.2,1.1c0,0.6-0.7,0.9-1.4,0.9c-0.9,0-1.4-0.1-2.1-0.5l-0.3-0.1l-0.3,2c0.5,0.2,1.5,0.5,2.5,0.5
		c2.4,0,3.9-1.2,3.9-3c0-1-0.6-1.8-1.9-2.4c-0.8-0.4-1.3-0.7-1.3-1.1c0-0.4,0.4-0.8,1.3-0.8c0.7,0,1.3,0.2,1.7,0.3l0.2,0.1
		L42.8,24.1C42.8,24.1,42.8,24.1,42.8,24.1z"/>
	<path id="path13" class="st0" d="M45.8,29.5c0.2-0.5,0.9-2.4,0.9-2.4c0,0,0.2-0.5,0.3-0.8l0.2,0.8c0,0,0.4,2.1,0.5,2.5
		C47.3,29.5,46.3,29.5,45.8,29.5L45.8,29.5z M48.6,23.9h-1.7c-0.5,0-0.9,0.2-1.2,0.7l-3.3,8h2.4c0,0,0.4-1.1,0.5-1.3
		c0.3,0,2.6,0,2.9,0c0.1,0.3,0.3,1.3,0.3,1.3h2.1L48.6,23.9L48.6,23.9L48.6,23.9z"/>
	<path id="path15" class="st0" d="M30.5,23.9l-2.2,5.9l-0.2-1.2c-0.4-1.4-1.7-2.9-3.1-3.7l2,7.6h2.4l3.5-8.7H30.5L30.5,23.9
		L30.5,23.9z"/>
	<path id="path17" class="st1" d="M26.2,23.9h-3.6l0,0.2c2.8,0.7,4.7,2.5,5.5,4.6l-0.8-4C27.1,24.1,26.7,23.9,26.2,23.9L26.2,23.9z"
		/>
</g>
</svg>
