<?xml version="1.0" encoding="utf-8"?>
<!-- Generator: Adobe Illustrator 26.0.1, SVG Export Plug-In . SVG Version: 6.00 Build 0)  -->
<svg version="1.1" id="Layer_1" xmlns="http://www.w3.org/2000/svg" xmlns:xlink="http://www.w3.org/1999/xlink" x="0px" y="0px"
	 viewBox="0 0 161 40" style="enable-background:new 0 0 161 40;" xml:space="preserve">
<style type="text/css">
	.st0{fill:#013E7D;}
</style>
<g id="WHITMAN_COLLEGE" transform="translate(0.000000,120.000000) scale(0.100000,-0.100000)">
	<path class="st0" d="M249.4,1195.2c-1.4-3.8-6.9-12.5-12.5-19.4c-5.2-6.9-9.7-13.8-9.7-15.2c0-7.3-19-25.3-30.5-28.7
		c-19.4-5.9-52.6-28.4-67.9-46c-18-20.8-35.3-57.5-40.5-86.5C72.5,909.6,138.6,819.6,231.8,805c100.4-15.6,196.3,65.4,196.3,166.2
		c0,71.3-41.2,131.6-109.4,159.9c-17.3,6.9-24.9,13.2-40.9,31.8c-10.7,12.8-20.8,26.7-22.5,31.2
		C252.2,1201.8,252.2,1201.8,249.4,1195.2z M261.5,1178.6c5.2-6.6,1.4-9.3-10.4-6.9c-7.3,1.4-10.4,0.3-12.1-3.8
		c-1-3.1-3.5-5.5-5.5-5.5c-1.7,0-0.3,3.8,3.1,8.3c3.5,4.5,7.3,7.6,9,6.6c1.4-0.7,2.4,0.3,2.4,2.1
		C248,1184.5,256.7,1184.1,261.5,1178.6z M257,1164c1.7-4.5,3.1-4.5,7.3-1c4.5,3.5,8.3,0.7,23.2-16.3c10-11.1,21.8-20.8,26.3-21.5
		c24.2-3.8,67.9-40.5,87.6-73.7c38.8-66.5,18.7-160.3-45-208.4c-107.7-81-263.4-4.8-264.1,128.8c0,42.6,17.7,84.1,49.9,116
		c21.5,21.5,55.4,41.5,62.3,37.4c5.9-3.8,12.8-4.2,10.4-0.7c-1,1.7-3.5,2.4-5.2,1.4c-6.9-4.5-2.1,4.2,10.4,19
		c7.6,8.7,14.5,14.5,15.6,13.5c2.8-2.8-20.1-57.5-27.7-65.8c-3.1-3.5-6.9-5.5-8.3-4.8c-1.4,1-3.5-0.7-4.8-3.5
		c-1-2.8-4.2-5.2-6.9-5.2c-2.4,0-5.5-2.4-6.9-5.2c-1-2.8-3.5-5.2-5.5-5.2s-2.8,1.7-1.4,4.2c1.7,2.4,1,2.8-2.1,1
		c-2.8-1.7-3.8-1-2.8,2.1c1,2.8,3.8,4.8,6.6,4.8c2.8,0,4.8,2.4,5.2,5.2c0.7,10.4,1.4,11.1,7.3,6.6c3.8-3.5,4.8-3.5,3.1-0.3
		c-1.4,2.1-1,4.2,0.7,4.2s4.8,4.2,6.9,9c2.4,4.8,2.8,8,0.7,6.6c-4.8-3.1-4.2,3.1,0.7,8c2.4,2.4-4.8-0.7-16.3-6.9
		c-38.1-20.4-73-63.7-79.6-98c-1-5.5,1.4-2.1,4.8,7.6c10.7,28.4,30.8,56.1,53.3,72.4c20.4,15.2,29.4,19,24.6,11.1
		c-1.7-3.1-0.7-3.1,3.1,0.3c3.1,2.4,5.9,3.1,5.9,1c0-4.2-8.7-11.4-11.1-9.3c-1,1-9-7.6-18-19.7l-15.9-21.5l8.7-9
		c8.3-8.7,8.7-10.4,8.7-56.8v-47.8l-11.1,3.1c-6.2,1.4-21.1,2.4-32.9,2.1l-21.5-1l-1.4,28.7l-1,28.4l-0.7-29.4l-0.7-29.4l16.3-4.2
		c9.3-2.1,19.7-4.8,23.5-6.2c3.8-1,1.4,1-5.2,4.8c-10.7,6.2-11.1,6.9-4.2,7.3c4.5,0,14.9-1.7,23.5-3.8l15.2-3.8v-46.7
		c0-44.3-0.3-46-6.6-42.9c-17.7,9.7-45,48.8-54.4,78.2c-2.8,8.3-4.5,11.1-4.5,6.6c-0.7-14.5,23.2-55,44-74.8
		c18-17.3,50.2-37.4,59.5-37.4c2.4,0,3.5,20.1,3.1,62.7c-0.7,54-1.7,63.7-6.9,70.3c-5.9,6.9-6.2,6.9-12.5,1
		c-4.8-4.8-6.2-11.4-6.2-28.7c0-18-1.4-23.2-6.2-26c-5.5-3.5-5.9,0.7-5.2,70.3c0.7,46.7,2.4,73.4,4.5,73.4c2.1-0.3,10,3.1,18.3,8
		l14.5,8.7v-40.2v-39.8l-10.4-5.5c-14.5-7.6-13.2-9.7,1.7-2.8l12.1,5.9v44.3c0,24.2-0.7,44.3-1.7,44.3c-1,0-7.6-3.8-14.9-8.7
		c-14.5-9.7-35.3-15.2-35.3-9.3c0,2.4,2.4,3.1,5.9,1.7s4.8-0.7,3.5,1.4c-1.4,2.1,0.7,3.1,5.5,2.1c4.2-0.7,11.4,2.1,16.3,5.9
		c4.8,3.8,6.6,6.9,4.5,6.9c-2.4,0-4.5,1.7-4.5,3.8c0,2.8,1.7,2.8,5.2-0.3c4.2-3.5,6.2-3.5,10.4,0c3.1,2.4,4.8,6.6,3.8,9.3
		c-1,2.8-0.3,3.8,1.4,2.8s6.6-0.3,10.4,1.7c5.9,3.1,8.3,2.8,13.2-2.8c7.3-8.3,60.2-18,62.3-11.4c0.7,2.1,2.8,3.8,4.5,3.8
		c1.4,0,2.1-2.4,1-5.2c-1.7-4.2,0.7-5.2,9.7-5.2c6.6,0,13.5,1.7,15.9,4.2c3.1,3.1,4.2,3.1,4.2,0c0-5.5,4.2-5.2,12.1,0.7
		c6.6,4.8,6.2,5.5-8,22.2c-8,9.7-14.5,18.7-14.5,20.4c0,1.4-3.1,4.8-6.9,7.3c-9.7,5.9-8.7,0,2.1-10c4.8-4.5,13.5-14.5,19.4-22.2
		c5.5-7.6,0-2.8-12.5,10.4c-12.5,13.5-22.8,22.5-22.8,20.4s2.4-5.9,5.2-8.3s5.2-6.6,5.2-9c0-2.8,1.7-4.5,3.5-3.8
		c4.8,1,15.9-17.3,12.5-20.8c-1.7-1.4-3.8-1-4.5,1c-0.7,2.4-4.2,3.5-7.6,2.4c-4.5-1-7.3,2.4-11.8,15.2c-3.1,9-5.2,12.5-4.2,7.3
		c1-4.8,2.8-11.4,3.8-14.5c1.7-4.5-0.3-5.5-8.7-5.5c-5.9,0-10.7,1.4-10.7,3.1s-3.1,2.4-6.9,1.4c-5.2-1.4-6.9,0-7.3,4.5
		c-0.3,5.9-0.7,5.9-2.1,0.7c-0.7-3.5-1.7-6.2-2.1-6.2c-0.3,0-8.7,2.1-18,4.8c-9.7,2.4-20.1,4.2-23.5,3.5c-3.1-0.3-5.9,1.4-5.9,3.8
		c0,6.6,5.9,9.7,8.3,4.5c1-2.4,1-1,0,3.5c-2.8,10.7,9,40.9,13.5,34.6c2.1-3.1,2.4-2.8,1,1.7c-2.1,6.9,1,17,4.8,14.5
		c1.7-1,2.1,1.4,1,5.2C247,1170.3,254.3,1172,257,1164z M248,1082.7c0-1.7-1.4-3.5-3.5-3.5c-1.7,0-3.5,1.7-3.5,3.5
		c0,2.1,1.7,3.5,3.5,3.5C246.7,1086.1,248,1084.8,248,1082.7z M261.9,1082.7c0-1.7-1.7-3.5-3.8-3.5c-1.7,0-2.4,1.7-1.4,3.5
		c1,2.1,2.8,3.5,3.8,3.5C261.2,1086.1,261.9,1084.8,261.9,1082.7z M275.7,1079.2c0-1.7-1.7-3.5-3.8-3.5c-1.7,0-2.4,1.7-1.4,3.5
		c1,2.1,2.8,3.5,3.8,3.5C275,1082.7,275.7,1081.3,275.7,1079.2z M293,1077.8c0-1-1.4-2.8-3.5-3.8c-1.7-1-3.5-0.3-3.5,1.4
		c0,2.1,1.7,3.8,3.5,3.8C291.7,1079.2,293,1078.5,293,1077.8z M161.8,1060.9c-4.5-4.2-6.9-5.2-5.5-2.4c4.8,9,9.7,14.2,11.4,12.1
		C168.8,1069.5,166,1065,161.8,1060.9z M199.6,955.6c0.3-1.7,1-11.8,2.4-22.5c1.4-14.5,0.7-20.1-2.4-20.1s-3.5,3.8-1.7,12.5
		c1.7,9.3,1,11.8-2.1,10c-2.4-1.7-3.5-8.3-2.1-19c1.7-14.9,1.4-16.6-6.6-20.4c-10.4-4.5-11.8-4.8-11.8-1c0,1.7,3.5,4.5,7.3,6.2
		c6.6,3.1,7.3,6.2,7.6,27.3c0,25.6,0.7,29.4,6.2,29.4C198.2,958.1,199.6,957,199.6,955.6z M206.5,906.1c0-1.7-1.4-3.5-3.5-3.5
		c-1.7,0-3.5,1.7-3.5,3.5c0,2.1,1.7,3.5,3.5,3.5C205.1,909.6,206.5,908.2,206.5,906.1z M206.2,862.8c0.3-20.1-0.7-36.3-2.1-36.3
		c-1.4,0.3-9,3.8-16.6,8.3c-13.5,7.6-13.8,8.3-14.9,29.4l-1,21.5l9-5.9c6.9-4.5,8.7-8.7,9.3-21.8l0.3-15.9l1.4,15.2
		c1,9.3,3.8,17.3,7.3,19.7c5.2,3.8,4.8,4.8-3.5,8c-11.8,4.5-12.8,8.7-1.4,6.6c5.9-1.4,8-0.3,6.6,3.1c-1,2.4-0.3,4.5,1.7,4.5
		C204.4,899.2,205.8,884.3,206.2,862.8z M189.2,881.5c0-1.4,2.8-2.1,6.2-1c4.5,1.7,4.8,1.4,1-1.4c-3.5-2.4-6.9-2.1-11.4,0.3
		c-7.6,4.8-8.3,10-1,7.3C186.8,885.4,189.2,883.3,189.2,881.5z"/>
	<path class="st0" d="M270.2,1156.8c3.1-3.8,5.5-9,5.5-11.1c0-2.4,1.4-4.2,3.5-4.2c1.7,0,2.4-2.8,1.4-5.9c-1.4-4.5-1-4.8,1-1.7
		c3.8,5.2,9.3,0.3,14.2-13.2c2.4-6.2,3.5-6.9,5.2-2.8c1.4,3.8-4.5,12.5-17.3,26C273,1155,267.1,1160.9,270.2,1156.8z"/>
	<path class="st0" d="M262.6,1151.9c0-2.8,2.1-10.7,4.5-17.3c2.4-6.6,4.5-9.7,4.5-6.9c0,2.8-2.1,10.7-4.5,17.3
		C264.7,1151.6,262.6,1154.7,262.6,1151.9z"/>
	<path class="st0" d="M222.4,1143.3c-3.1-4.8-4.5-8.7-2.8-8.7s4.8,3.8,6.9,8.7c2.1,4.8,3.5,8.7,2.8,8.7
		C228.7,1151.9,225.5,1148.1,222.4,1143.3z"/>
	<path class="st0" d="M248.4,1118.7c0-3.8,1-4.8,2.1-2.1c1,2.4,0.7,5.5-0.3,6.6C249.1,1124.6,248,1122.5,248.4,1118.7z"/>
	<path class="st0" d="M286.8,1113.8c0-2.8,2.1-10.7,4.5-17.3c2.4-6.6,4.5-9.7,4.5-6.9c0,2.8-2.1,10.7-4.5,17.3
		C288.9,1113.5,286.8,1116.6,286.8,1113.8z"/>
	<path class="st0" d="M332.5,1109.7c35-23.2,56.1-47.4,69.6-80.7c4.5-11.4,8.7-18.3,8.7-15.2c0,3.1-5.5,16.6-12.1,29.8
		c-12.8,26-40.2,54.7-60.9,64.7C331.1,1111.4,329.1,1112.1,332.5,1109.7z"/>
	<path class="st0" d="M216.9,1076.8c-2.1-67.9-1-257.2,1.7-257.2c2.1,0,3.5,44.7,3.5,127.1c0,118.4,0.3,127.4,6.2,128.4
		c5.2,1,5.9-2.8,5.9-44c0-51.6-4.2-46,39.8-52.3c15.2-2.1,31.8-4.5,37.4-5.5l9.3-2.1v43.6c0,36.3,0.7,43.6,5.2,43.6
		c4.5,0,5.2-14.5,5.2-110.8V837.2l-10.4-5.5c-5.5-2.8-11.8-5.2-13.8-5.2c-5.9,0-4.5,50.2,1.7,55.4c9.3,8,5.9,13.2-11.1,15.2
		c-32.2,4.5-39.1,6.2-39.1,9.7c0,2.4,7.3,3.1,20.1,2.1c10.7-1,15.9-1.4,11.4-0.3c-6.6,1.4-7.6,3.5-6.6,11.4c1,7.3,0,10.4-3.8,11.4
		c-4.8,1.4-4.8,1.7,0,2.1c3.1,0,6.9,2.8,8,5.9c1.7,4.8,1.4,5.2-3.1,1.4c-8.3-6.9-10-1.4-1.7,6.9c7.6,7.6,15.6,6.2,12.5-2.1
		c-1-2.4-0.3-5.5,1.4-6.6c2.1-1.4,3.5-9,3.5-17.7c0-8.3,1.4-15.2,3.1-15.2c2.1,0,2.4,5.2,1.4,11.8c-1.4,9.7-0.7,12.1,4.5,13.5
		c5.9,1.4,5.9,1.7,0.7,2.1c-6.2,0.3-9,12.1-3.5,15.2c1.4,0.7,0.7,1-1.7,0.3c-2.1-0.3-6.6,2.1-10,5.9c-3.1,3.5-10.4,6.6-15.9,6.6
		c-12.5,0-12.8,5.9,0,8c7.3,1,6.6,1.4-3.8,2.1c-10.4,0.3-15.6-1.7-23.5-9.7c-5.5-5.5-10-12.5-10-15.2c0-6.6,10.4-10.7,15.2-5.9
		c5.5,5.5,17,4.5,14.5-1.7c-2.4-6.2,1-16.3,4.8-13.8c1.7,1,2.1-1.4,1-5.2c-1.4-5.2-4.8-6.9-13.5-6.9c-6.2,0-12.5-1.7-13.8-4.2
		c-1.4-2.4-1-2.8,1.4-1.4c2.4,1.4,4.2,0.7,4.2-1c0-2.1-1.4-3.8-3.5-3.8c-1.7,0-3.5-1.4-3.5-3.5c0-1.7,2.4-2.4,5.5-1
		c4.2,1.4,5.2,0.3,4.2-4.5c-0.7-3.5-3.5-6.2-5.5-5.5c-2.4,0.3-4.2-0.7-4.2-2.8c0-1.7,1.7-3.5,3.5-3.5c2.1,0,3.5-12.5,3.5-30.8v-31.2
		l-14.5-1.4c-8.3-1,1.7-1.4,21.8-1c35,0.3,37.7,1,63.4,13.5c37.7,18.7,71.7,55,79.6,85.5c1.4,4.8-1.7,0-6.9-10.4
		c-9.3-18.7-52.3-65.8-59.9-65.8c-2.8,0-3.8,16.3-3.8,51.6c0,58.5,0.3,58.9,25.3,50.9c18.7-6.2,41.9-10.4,31.8-5.9
		c-5.5,2.8-4.2,3.5,8,3.5c13.5,0.3,14.5,1,14.2,10c-0.3,5.2-1,6.9-2.1,3.8c-1.7-7.3-34.6-14.2-43.6-9.7c-3.5,2.1-11.8,4.2-19,4.5
		l-12.8,1.4v55.7v55.7h-15.2c-19.4,0-80.7,10.4-84.8,14.2C232.1,1079.9,216.9,1080.3,216.9,1076.8z M288.9,1061.2l24.9-4.2v-39.1
		c0-45,3.1-41.9-37.7-35.3c-42.9,6.6-38.4,1-38.4,46.7v40.5l13.2-2.4C257.7,1066.4,275,1063.3,288.9,1061.2z M265.4,962.9
		c0-3.1-2.8-6.2-6.6-7.3c-4.5-1-5.9-3.8-4.8-8.3c1-3.5,0.3-6.6-1.4-6.6c-12.5,0-2.4,22.8,12.1,27.3C265,968.4,265.4,966,265.4,962.9
		z M286.1,956.7c0-5.5-11.4-11.4-19-10c-6.9,1.4-8,2.8-4.8,6.6C265.7,957.4,286.1,960.5,286.1,956.7z M282,889.2
		c-0.7-3.1-5.9-6.6-11.4-7.6l-10.4-2.4l10.4-0.3c6.9-0.3,11.8,2.1,14.5,6.2c5.2,8.3,22.5,9,21.1,0.7c-0.7-3.1-5.9-6.6-11.4-7.6
		c-8-1.7-8.7-2.4-2.4-2.8c6.9-0.3,7.6-2.1,7.6-22.8c0-22.2,0-22.5-9.3-22.8l-9.7-0.3l10.4-2.4l10.4-2.4L293,822
		c-15.9-4.5-34.6-2.8-34.6,2.8c0,3.5,3.8,5.5,11.4,5.9l11.1,0.3l-11.1,1.4l-11.4,1.4v27c0,28.7,2.4,34.3,15.9,34.3
		C280.6,895,282.7,893.3,282,889.2z"/>
	<path class="st0" d="M253.6,1044.3c-5.2-5.9-9-14.9-9-20.4c0-11.4,15.2-31.2,23.5-30.8c4.5,0,3.8,1-1.4,3.1
		c-10,4.2-18.7,17-18.7,27.7s8.7,23.5,18.7,27.7c5.2,2.1,5.9,3.1,1.4,3.1C265,1055,258.4,1050.1,253.6,1044.3z"/>
	<path class="st0" d="M284.4,1050.8c18-10.4,21.5-35.3,6.9-49.5c-4.5-4.8-7.3-8.7-5.5-8.7c7.6,0,19.4,18.3,19.4,31.2
		c0,14.5-12.1,31.2-22.2,31.2C278.9,1054.6,279.2,1053.9,284.4,1050.8z"/>
	<path class="st0" d="M276.1,1039.1c0-3.8,1-4.8,2.1-2.1c1,2.4,0.7,5.5-0.3,6.6C276.8,1044.9,275.7,1042.9,276.1,1039.1z"/>
	<path class="st0" d="M276.1,1024.2c-0.3-7.3,0.3-7.6,5.9-3.5c9.3,7.3,9.7,8,3.5,5.5c-3.1-1-6.6-0.3-7.6,2.1
		C277.1,1030.8,276.1,1028.7,276.1,1024.2z"/>
	<path class="st0" d="M264.3,872.5c-3.1-3.1-3.1-28,0.3-29.8c1.4-1,9-2.8,17.3-4.2l14.5-2.4l-0.7,17l-0.3,16.6l-1.4-14.5
		c-1-10-3.1-14.9-6.6-14.9c-6.2,0-6.9,26.3-0.3,28.7c2.1,1-0.3,1.7-6.2,1.7c-5.5,0-8.3-0.7-5.9-1.7c2.1-0.7,4.2-6.9,4.2-13.5
		c0-9.7-1.4-11.8-7.3-11.8c-6.9,0-7.3,1.4-5.9,15.6C268.1,875.7,267.8,876.4,264.3,872.5z"/>
	<path class="st0" d="M190.6,1035.6c-6.2-14.9-3.8-36.7,4.8-43.6c5.2-3.8,5.2-3.8,2.1,0.7c-6.9,9.3-8.3,27.3-3.5,41.5
		C199.9,1051.5,197.5,1052.2,190.6,1035.6z"/>
	<path class="st0" d="M411.4,997.9c0-5.5,0.7-7.6,1.7-4.2c0.7,3.1,0.7,8,0,10.4C412.1,1006.2,411.4,1003.7,411.4,997.9z"/>
	<path class="st0" d="M414.9,973.6c0-5.5,0.7-7.6,1.7-4.2c0.7,3.1,0.7,8,0,10.4C415.6,981.9,414.9,979.5,414.9,973.6z"/>
	<path class="st0" d="M296.5,963.6c0-0.7,2.8-3.5,6.2-5.9c5.2-4.5,5.5-4.2,1,1.4C299.3,964.6,296.5,966.4,296.5,963.6z"/>
	<path class="st0" d="M407.6,931.7c0-3.8,1-4.8,2.1-2.1c1,2.4,0.7,5.5-0.3,6.6C408.3,937.6,407.3,935.5,407.6,931.7z"/>
	<path class="st0" d="M196.8,864.6c0-4.8,0.7-6.6,1.7-4.2c0.7,2.1,0.7,6.2,0,8.7C197.5,871.2,196.8,869.4,196.8,864.6z"/>
	<path class="st0" d="M196.1,847.6c0-2.1,1.4-4.5,3.5-5.5c2.1-1,2.4,0.3,1.4,3.1C198.5,851.4,196.1,852.5,196.1,847.6z"/>
	<path class="st0" d="M469.6,1159.2c0-1.7,3.5-3.8,8-4.8c7.6-2.1,9.3-5.9,54.4-127.7c4.2-11.1,8.7-20.1,9.7-20.1
		c1.4,0,11.1,22.5,21.5,50.2c10.4,27.7,20.1,50.2,21.1,50.2s10.4-22.5,20.4-50.2c10-27.7,19.4-50.2,20.8-50.2s14.5,32.5,29.1,72.4
		c23.5,63.4,27.7,72.7,35.3,74.4c16.3,4.2,8,9-15.9,9c-25.3,0-31.2-3.8-14.2-9l9.7-3.1l-19.7-53.7c-17.7-47.4-20.4-52.6-23.5-45
		c-17,43.6-35,98.3-33.2,100.7c1,1.7,5.5,3.1,10.4,3.1c4.5,0,8.3,1.7,8.3,3.5c0,2.1-12.1,3.5-29.4,3.5c-16.3,0-29.4-1.4-29.4-3.1
		s3.5-3.8,8-4.5c5.5-0.7,9-5.2,12.5-15.2c4.8-13.8,4.5-15.2-10.4-54.4c-8.3-22.2-16.3-39.1-17.3-37.7c-2.8,3.1-37.7,100-37.7,104.5
		c0,2.1,4.8,3.5,10.4,3.5c5.9,0,10.4,1.7,10.4,3.5c0,2.1-12.1,3.5-29.4,3.5C482.8,1162.3,469.6,1160.9,469.6,1159.2z"/>
	<path class="st0" d="M694.6,1114.2c0-1.7,4.8-3.8,10.4-4.8l10.4-2.1v-45v-44.7l-10.4-2.4c-20.4-4.5-10.4-9,17.3-8
		c27.7,1,35,4.2,19,8.3c-8,2.1-8.7,3.5-8.7,24.2v22.2h29.4h29.4v-22.2c0-20.8-0.7-22.2-8.7-24.2c-17.3-4.5-8-8,19-7.6
		c27.7,0.3,34.6,2.8,20.1,7.6c-4.5,1.4-9,3.8-10,5.9c-1.4,1.7-2.4,21.1-2.8,42.9l-0.7,39.5l10.7,4.2c17.3,6.6,12.1,9.3-17.3,9.3
		c-27,0-36.3-4.2-19-8.3c8-2.1,8.7-3.8,8.7-21.1v-19h-29.4h-29.4v19c0,17.3,0.7,19,8.7,21.1c17.3,4.2,8,8.3-19,8.3
		C707.1,1117.3,694.6,1115.9,694.6,1114.2z"/>
	<path class="st0" d="M860.8,1114.2c0-1.7,4.8-3.8,10.4-4.8l10.4-2.1v-44.7v-44.7l-11.1-2.8l-11.4-2.8l15.6-2.8
		c22.2-3.8,41.5-3.8,41.5,0.3c0,1.7-3.8,4.2-8.7,5.5l-8.7,2.1v44.7v44.7l8.7,2.1c17.3,4.2,8,8.3-19,8.3
		C873.3,1117.3,860.8,1115.9,860.8,1114.2z"/>
	<path class="st0" d="M943.9,1101.7c0-17.7,5.9-21.1,9.3-5.2c1.7,9.7,2.8,10.4,18.7,10.4h17v-44.7v-44.7l-10.7-2.4
		c-16.6-3.8-8.7-6.6,19.4-6.6c26-0.3,33.6,2.8,17.3,6.9l-8.7,2.1v44.7v44.7h15.6c14.9,0,15.9-0.7,18-10.4c3.1-15.6,8-12.5,8,5.2
		v15.6h-51.9h-51.9V1101.7z"/>
	<path class="st0" d="M1072,1114.5c0-1.7,4.8-4.2,10.4-5.5c9.7-1.7,10.7-2.8,9-13.2c-1-6.2-2.8-26.3-3.8-44.7l-2.4-33.6l-10.4-2.1
		c-16.3-3.1-8.7-7.3,16.3-8.3c18-1,22.8,0,21.8,3.5c-1,2.4-5.2,5.2-9.7,5.5c-7.6,1.4-8,2.1-5.5,27.3c1,14.5,2.1,31.2,2.4,37
		c0,8.7,3.8,3.5,20.8-29.8c11.1-22.5,22.2-40.9,23.9-40.9s12.5,18.3,23.9,40.9c22.8,45.7,22.5,45.7,25.6-8.7l1.4-24.6l-10.4-2.1
		c-5.9-1-9.7-3.1-8.7-4.2c3.8-3.5,54.7-4.8,54.7-1.4c0,1.7-3.8,4.2-8.3,5.5c-7.6,1.7-8.7,4.5-10.4,23.2c-1,11.8-2.4,32.5-3.1,45.7
		c-0.7,24.2-0.7,24.2,9,25.3c15.2,1.7,6.9,7.6-10.7,7.6h-16.3l-21.1-41.9l-20.8-41.9l-21.1,41.2l-21.1,40.9l-17.7,1
		C1079.9,1117.3,1072,1116.3,1072,1114.5z"/>
	<path class="st0" d="M1283.8,1067.4c-15.6-35.3-23.9-50.2-28.7-51.6c-13.2-3.5-6.2-7.6,14.2-8.7c21.1-0.7,28.4,4.2,12.1,8.3
		c-10,2.4-10,2.4-3.5,15.2c5.2,10,6.6,10.4,27.7,10.4s22.5-0.3,27.7-10.4c6.6-13.2,6.9-12.8-4.2-15.6c-14.2-3.5-4.2-7.6,21.8-8.3
		c22.5-0.7,28.4,2.8,14.9,9c-5.2,2.1-14.2,18.3-29.1,51.6c-11.8,26.3-23.5,48.5-26.3,49.2
		C1307.4,1117.3,1298.7,1101.4,1283.8,1067.4z M1316,1070.2c4.8-10.7,8.7-20.1,8.7-20.8c0-0.7-8.7-1.4-19-1.4s-19,0.7-19,1.4
		c0,3.5,17.3,40.2,19,40.2C1306.7,1089.6,1311.2,1080.9,1316,1070.2z"/>
	<path class="st0" d="M1390.5,1114.5c0-1.4,3.5-4.2,8-5.9c7.3-3.5,7.6-5.5,8.7-47.4c1-42.9,0.7-44-6.6-45c-4.5-0.7-8.3-2.8-9-4.8
		c-0.7-2.4,6.9-4.2,21.8-4.5c17.7-0.7,22.5,0.3,21.5,3.8c-1,2.4-4.8,4.8-9,5.5c-7.3,1-7.6,2.8-7.6,38.1l0.3,37l41.2-42.2
		c22.5-23.5,41.9-42.6,42.9-42.6s2.1,22.5,2.1,49.9v49.9l10.4,2.4c17,3.8,8.3,8.7-15.9,8.7c-22.2,0-29.8-4.8-13.5-9
		c8.7-2.1,8.7-2.8,8.7-35.7l-0.3-33.2l-37.4,39.1c-36,37-38.4,38.8-51.9,38.8C1396.7,1117.3,1390.5,1116.3,1390.5,1114.5z"/>
	<path class="st0" d="M545.4,951.8c-25.3-13.2-38.8-34.6-40.5-64.7c-1.7-26.3,3.5-43.3,17.7-59.2c18.7-21.8,51.9-32.5,79.3-26
		c19,4.5,45.7,21.1,41.5,25.3c-2.4,2.4-7.6,1-16.3-4.2c-50.2-30.8-99.7-0.7-100,60.6c-0.3,28.7,9.3,49.5,29.1,61.6
		c25.6,15.9,74.1,4.8,76.9-17.3c0.7-5.2,3.1-9.7,5.5-10.7c3.1-1,4.2,4.8,4.2,21.5c0,20.8-3.1,28-8.7,19.4c-1.4-2.1-5.2-2.1-10.7,0
		c-4.8,2.1-20.1,3.5-34.3,3.5C568.3,961.5,560.7,959.8,545.4,951.8z"/>
	<path class="st0" d="M701.2,913c-33.9-10-50.9-49.2-35.7-81.7c14.5-30.5,62.3-40.9,91-19.4c24.9,18.3,32.5,53.3,16.6,77.2
		C759,910.6,727.5,921,701.2,913z M740.7,902c18-9,26-49.9,14.5-72c-12.5-24.2-38.8-28-59.9-9c-12.5,11.8-12.8,12.5-12.8,37.7
		c0,21.1,1.4,27.3,6.9,33.6C703.3,907.9,722.3,911.3,740.7,902z"/>
	<path class="st0" d="M1187.9,912c-31.8-12.5-47.4-44.3-36-74.1c11.8-31.5,48.8-44.7,90.7-32.5c16.3,4.8,16.3,4.8,16.3,19.7
		c0,8.3,1.7,15.2,3.5,15.2c2.1,0,3.5,1.7,3.5,3.5c0,2.1-10,3.5-22.8,3.5c-14.2,0-21.8-1.4-20.4-3.5c1-1.7,5.9-3.5,10.7-3.5
		c7.3,0,8.3-1.7,8.3-12.1c0-14.5-6.9-19-29.1-19c-28.4,0-46.7,25.3-42.2,57.8c4.2,30.5,25.6,46,55,39.5c15.9-3.8,23.2-9.3,23.2-18.3
		c0-14.2,8.7-3.5,9.7,12.1c1,14.9-2.8,21.1-8,13.2c-1-2.1-6.2-2.1-13.2,0C1222.6,917.5,1200.8,916.9,1187.9,912z"/>
	<path class="st0" d="M798.5,909.9c0-1.7,3.5-3.8,8-4.5c7.3-1,7.6-2.4,8.7-46.7c0.7-44,0.7-46-5.9-46c-3.8,0-8-1.4-9-3.5
		c-1.4-2.1,14.5-3.5,44.7-3.5H892v15.9c0,18.3-8,20.1-9.7,2.1l-1-11.1H857h-24.2l1,46l1,45.7l9.7,1c5.2,0.7,9.3,2.8,9.3,4.5
		s-12.5,3.1-27.7,3.1C810.9,913,798.5,911.7,798.5,909.9z"/>
	<path class="st0" d="M912.7,909.9c0-1.7,4.2-3.8,9.7-4.5l9.3-1l1-45.7c0.7-42.2,0.3-46-5.2-46c-3.5,0-8.7-1.7-11.4-3.5
		c-3.5-2.4,11.1-3.5,44.3-3.5h49.5l-1,13.8c-1.4,17.3-6.6,19.4-10.4,4.5c-3.1-11.4-3.1-11.4-25.6-11.4h-22.5l1,46l1,45.7l9.7,1
		c5.2,0.7,8.7,2.8,7.6,4.5C967.1,914.1,912.7,914.1,912.7,909.9z"/>
	<path class="st0" d="M1027,909.9c0-1.7,3.5-3.8,8-4.5c7.3-1,7.6-2.4,8.7-46.7c0.7-44,0.7-46-5.9-46c-3.8,0-8-1.4-9-3.5
		c-1.4-2.1,14.5-3.5,44.7-3.5h47.1v13.8c0,16.3-5.2,18.3-8,3.5c-2.1-10.4-2.4-10.4-26.7-10.4h-24.6l1,21.8l1,21.5l14.9,1
		c12.8,1,15.2,0,17-5.9c3.5-13.2,8-7.6,8,10c0,9.7-1.4,17.3-3.5,17.3c-1.7,0-3.5-3.1-3.5-7.3c0-6.2-1.7-6.9-16.3-5.9l-16.6,1
		l-1,18.3l-1,18h24.2c23.9,0,24.6-0.3,24.6-8.7c0-5.5,2.1-8.7,5.2-8.7c3.8,0,5.2,3.8,5.2,13.8V913h-46.7
		C1047,913,1027,911.7,1027,909.9z"/>
	<path class="st0" d="M1293.5,909.9c0-1.7,3.5-3.8,8-4.5c7.3-1,7.6-2.4,8.7-46.7l1-46h-9c-4.8,0-8.7-1.4-8.7-3.5
		c0-2.1,18-3.5,46.7-3.5h46.7v13.8c0,16.3-5.5,18.3-8.7,3.5c-2.4-10.4-2.4-10.4-26.3-10.4h-24.2l1,21.8l1,21.5l14.9,1
		c12.8,1,15.2,0,17-5.9c3.5-13.2,8-7.6,8,10c0,17.3-4.5,23.2-8,10.4c-1.4-5.5-4.8-6.9-17.7-6.9h-15.9v19v19h24.2
		c23.5,0,24.2-0.3,24.2-8.7c0-4.8,2.1-8.7,4.5-8.7s4.2,4.8,3.8,12.8l-0.3,13.2l-45.7,1C1311.5,912.7,1293.5,912,1293.5,909.9z"/>
</g>
</svg>
