<?xml version="1.0" encoding="utf-8"?>
<!-- Generator: Adobe Illustrator 26.0.1, SVG Export Plug-In . SVG Version: 6.00 Build 0)  -->
<svg version="1.1" id="Layer_1" xmlns="http://www.w3.org/2000/svg" xmlns:xlink="http://www.w3.org/1999/xlink" x="0px" y="0px"
	 viewBox="0 0 161 40" style="enable-background:new 0 0 161 40;" xml:space="preserve">
<style type="text/css">
	.st0{fill:#0D9548;}
	.st1{fill:#0E9548;}
	.st2{fill:#0E9549;}
</style>
<g>
	<path class="st0" d="M95.9,18.6c-0.1-6.4-6-10.4-11.3-10c-3.2,0.2-5.8,1.6-7.9,4c-0.7,0.8-0.7,0.8-1.3-0.1
		C71.7,7.7,65,7.2,60.6,11.5c-0.1,0.1-0.2,0.3-0.4,0.3c-0.1-0.3-0.1-0.7-0.2-1c-0.1-0.7-0.5-1-1.1-1h-6.2c-0.6,0-1,0.3-1.1,0.9
		c-0.1,0.4,0,0.8-0.2,1.2c-0.2-0.2-0.4-0.3-0.5-0.5c-2.5-2.2-5.5-3.1-8.7-2.7c-8,0.9-13.5,7.2-13.5,15.2c0,1.7,0.3,3.4,0.6,5.1
		c0.1,0.6-0.1,0.6-0.6,0.6c-2.9,0-5.8,0-8.7,0h-0.4c-0.1-0.3,0.1-0.4,0.2-0.5c3.4-5.2,6.7-10.5,10.4-15.5c1-1.3,1.9-2.8,2.5-4.4
		c0.9-2.3,1.1-4.7,0.9-7.2c-0.2-1.8-0.3-1.9-2-1.9c-6.5,0-13.1,0-19.6,0c-0.6,0-1.2,0.1-1.8,0.1C9.4,0.3,8.9,0.7,8.8,1.3
		c-0.2,1.2-0.2,2.4,0,3.6c0.3,2.5,1.7,3.9,4.2,4.2c2.3,0.3,4.7,0.1,7,0.1c0.5,0,1,0,1.4,0.2c0,0.3-0.2,0.5-0.3,0.7
		c-1.8,2.7-3.6,5.5-5.4,8.2c-2.3,3.5-4.6,7-7,10.4C6.9,31.2,6.1,34,6.3,37c0.1,1.7,0.5,2.1,2.2,2.1c2,0,4-0.1,6.1-0.1
		c4.1,0,8.2,0,12.3,0.1c2.3,0,4.3-0.6,5.5-2.8c0.3-0.6,0.5-0.6,0.9-0.1c0,0,0.1,0.1,0.1,0.1c4.6,4.4,12.9,5.3,17.9,0.6
		c0,0,0.1,0,0.2,0v0.7c0,1,0.4,1.4,1.4,1.5c0.3,0,0.6,0,0.8,0c1.6-0.1,3.3-0.1,4.9,0c1.5,0.1,1.9-0.3,1.9-1.8c0-4.6,0-9.2,0-13.9
		c0-1.3,0.1-2.5,0.6-3.7c0.6-1.6,2.3-2.6,4.2-2.5c1.8,0.1,3.1,1.2,3.5,3c0.2,1,0.2,1.9,0.2,2.9c0,4.2,0,8.3,0,12.5
		c0,0.7-0.1,1.3,0,2c0.1,1.1,0.5,1.4,1.6,1.4c1,0,2,0,2.9,0c1,0,2,0,2.9-0.1c1.3-0.1,1.7-0.5,1.8-1.8c0-0.6,0.1-1.3,0.1-1.9
		c0-3.7,0-7.5,0-11.2c0-1.2-0.1-2.5,0.2-3.7c0.5-1.9,2-3.1,4.2-3c2.1,0,3.3,1,3.8,3.1c0.2,0.9,0.2,1.9,0.2,2.9c0,4.8,0,9.6,0,14.4
		c0,1.1,0.3,1.4,1.3,1.4h6.5c0.9,0,1.2-0.3,1.2-1.2C95.9,31.4,96,25,95.9,18.6z M44.9,31.3c-4.1,0-7.1-3-7.1-7c0.1-4,3-7,7-7
		c3.9,0,6.9,3,6.9,6.7C51.6,28.4,48.9,31.3,44.9,31.3z"/>
	<path class="st1" d="M122.9,27.3c3.1,0,6.2,0,9.4,0c0,0,0,0,0,0h6.7c1.1,0,2.2,0,3.2-0.1c1.1-0.1,1.4-0.5,1.4-1.6
		c0-1.1,0-2.2-0.2-3.3c-1-9.3-10.6-15.7-19.6-13c-7.3,2.2-12.2,10.2-10.8,18c1.2,6.9,7,12,14.3,12.6c6.3,0.6,12.7-3.6,15-10
		c0.1-0.4,0.1-0.5-0.3-0.5c-2.4,0-4.8,0-7.1,0c-0.9,0-1.7,0.3-2.3,0.9c-1.4,1.5-3.1,1.9-5,1.7c-2.5-0.3-4.4-1.4-5.3-3.9
		C122,27.4,122.1,27.3,122.9,27.3z M122.6,20.2c0.8-2.3,2.6-3.3,4.9-3.6c2.8-0.4,5.4,1,6.5,3.5c0.2,0.5,0.3,0.8-0.5,0.8
		c-1.7-0.1-3.4,0-5.1,0c-1.8,0-3.6,0-5.4,0C122.5,20.8,122.4,20.7,122.6,20.2z"/>
	<path class="st0" d="M113.6,16c0,0.6-0.3,1-1,1c-0.6,0.1-1.2,0.1-1.8,0.1c-1,0.1-1.3,0.4-1.4,1.4c0,0.3,0,0.7,0,1
		c0,6.1,0,12.2,0,18.3c0,1.7-0.3,2-2,2.1c-1,0.1-2,0-3-0.1c-2.5-0.4-4-1.9-4.3-4.5c-0.2-1.5,0-3,0-4.5c0-1.5,0-3,0-4.6v-7.8
		c0-1.2-0.3-1.4-1.4-1.4c-0.6,0-1.1,0-1.7-0.1c-0.7,0-1.1-0.4-1.1-1.1c-0.1-1.5-0.1-3,0-4.5c0.1-0.8,0.5-1.2,1.3-1.3
		c0.5-0.1,1.1-0.1,1.6-0.2c1.2-0.1,1.4-0.3,1.4-1.5c-0.1-1.2,0-2.4,0-3.6c0-2.8,1.9-4.7,4.7-4.7c1.1,0,2.1,0,3.2,0
		c1.1,0,1.4,0.2,1.4,1.4c0,2.2,0,4.4,0,6.7c0,1.4,0.3,1.7,1.7,1.7c0.4,0,0.8,0,1.2,0.1c0.7,0.2,1.2,0.6,1.3,1.4
		C113.6,12.9,113.6,14.4,113.6,16z"/>
	<path class="st2" d="M154.7,20.4v17.6c0,1.6-0.4,2-2,1.9c-1.9-0.1-3.9-0.1-5.8,0c-1.2,0.1-1.6-0.4-1.6-1.6c0-11.2,0-22.4,0-33.6
		c0-2.5,1.6-4.3,4.1-4.7c1.2-0.2,2.4-0.2,3.6-0.1c0.9,0.1,1.3,0.5,1.5,1.4c0.2,1.1,0.1,2.1,0.1,3.2C154.8,9.9,154.7,15.2,154.7,20.4
		z"/>
</g>
</svg>
