<?xml version="1.0" encoding="utf-8"?>
<!-- Generator: Adobe Illustrator 26.0.1, SVG Export Plug-In . SVG Version: 6.00 Build 0)  -->
<svg version="1.1" id="Layer_1" xmlns="http://www.w3.org/2000/svg" xmlns:xlink="http://www.w3.org/1999/xlink" x="0px" y="0px"
	 viewBox="0 0 174 39.8" style="enable-background:new 0 0 174 39.8;" xml:space="preserve">
<style type="text/css">
	.st0{fill:#007FC6;}
	.st1{fill:#FFFFFF;}
	.st2{fill:#F29100;}
	.st3{fill:#F08F00;}
</style>
<g id="logo">
	<g id="bg">
		<polygon class="st0" points="143.5,39.8 30.5,39.8 30.5,0 60.3,0 143.5,0 		"/>
		<g>
			<rect x="60.6" class="st1" width="0.4" height="30.8"/>
			<rect x="30.5" y="30.5" class="st1" width="112.9" height="0.4"/>
		</g>
	</g>
	<g id="icon">
		<path class="st2" d="M39.8,26.6l0.4,0.5c0,0,0.3,0.4,0.6,0.2l0.2-0.1c0,0,0.4-0.2-0.1-0.6c0,0-3.7-3.5-5.4-7.4
			c0,0-1.1-1.8-0.3-5.8c0,0,0.9-4.1,6.2-7.7c0,0,2.6-1.6,5.2-2.1c0,0,0.2,0,0.3-0.1c0.1,0,0.1-0.2,0.2-0.3c0,0,0.3-0.4-0.3-0.3
			c0,0-5.1,0.6-9.2,5.2c0,0-4.1,4.1-3.6,8.6C34.1,16.7,34,20.5,39.8,26.6"/>
		<path class="st3" d="M45.3,27c0,0-0.8-0.4-2.2-1.7c-2.2-2.1-4.9-5.5-4.7-9.5c0,0-0.1-2.5,1.4-5.3c0.4-0.8,1-1.7,1.8-2.6
			c0,0,0.9-1,2-2c0.8-0.7,1.6-1.4,2.1-1.8c0,0,0.5-0.4,0.7-0.4c0,0,0.9-0.1-0.1,0.5c0,0-1.1,0.8-2.5,2.1c-1.2,1.1-2.5,2.6-3.4,4.4
			c-1.1,2.1-1.5,4.7-0.5,7.7c0,0,1.2,4.8,6.1,8l0.4,0.3c0,0,0.5,0.3-0.4,0.4C45.8,27.3,45.6,27.2,45.3,27"/>
		<path class="st2" d="M43.2,13.4c0,0-0.5,3.5,1.4,7.1c1,1.7,2.4,3.4,4.9,4.7c0,0,1.1,0.6,1.9,0.6c0,0,0.8,0.2,1-0.2
			c0,0,0.4-0.4-0.4-0.4c0,0-4.4-0.3-7.1-6.6c0,0-1.2-2.1-0.9-5.5c0.2-2.1,1.1-4.7,3.2-7.4l1.2-1.5c0,0,0.9-0.7,0.4-0.7
			c0,0-0.2,0-0.5,0.1c-0.1,0-0.3,0.3-0.4,0.4C47.8,4.1,43.7,7.9,43.2,13.4"/>
		<path class="st3" d="M48.2,6.5c0,0-0.2,0.9-0.4,2.2c-0.2,1.9-0.3,4.7,1,7.5c0.4,1,1.1,2.1,1.9,3c0,0,0.8,1.1,2,1.9
			c0,0,1.4,0.9,2.9,2c0,0,0.3,0.3,0.7,0.1l0.3-0.2c0,0,0.3-0.2-0.4-0.5c0,0-3.6-2.2-4.3-3.3c0,0-1-1.1-1.9-3
			c-0.6-1.3-1.2-2.8-1.3-4.7c-0.1-1.1,0-2.3,0.3-3.6l0.8-3.4c0,0,0.1-0.2,0.1-0.4c0-0.2,0-0.3-0.3-0.3c0,0-0.4,0-0.5,0.3
			c-0.1,0.1-0.1,0.3-0.2,0.7C48.6,4.9,48.3,6,48.2,6.5"/>
		<path class="st3" d="M33.5,16.9c0,0,0.2-0.1,0.3-0.1c0.1,0,0.2,0,0.3,0c0.2,0.1,0.4,0.2,0.7,0.5c0,0,0.3,0.5,1,1.1
			c0.6,0.5,1.5,1,2.5,1.5c0.7,0.4,1.6,0.7,2.5,0.9c1.2,0.3,2.5,0.4,4,0.3c0.6-0.1,1.5-0.2,2.2-0.3c0,0,5.6-1.1,9.1-6.6
			c0,0,0.2-0.4,0.5-0.6c0.1-0.1,0.2-0.1,0.4-0.1c0.2,0,0.3,0,0.3,0.1c0,0.1,0,0.1-0.1,0.2c0,0-0.8,1.4-2.4,3
			c-0.8,0.8-1.7,1.5-2.8,2.3c-1.6,1.1-3.6,2-5.8,2.3c0,0-0.7,0.1-1.3,0.2c-0.8,0.1-2.1,0.1-3.8-0.1c-0.5-0.1-0.9-0.2-1.4-0.3
			c-0.6-0.2-1.4-0.4-2.1-0.7c-0.9-0.4-1.8-1-2.7-1.7l-1-0.9c0,0-0.2-0.2-0.3-0.3c-0.1-0.1-0.2-0.2-0.2-0.3
			C33.4,17,33.4,16.9,33.5,16.9"/>
		<path class="st3" d="M33.8,11.1c0.7,1.7,2,3,4,4.3c0.5,0.3,1,0.6,1.6,0.9c1.2,0.5,2.7,0.9,4.7,1c0,0,5.7,0.6,10.1-2.2
			c0.9-0.6,1.6-1.3,2.3-2.1c0,0,0.8-1,1.1-1.9c0,0,0.2-0.3-0.4-0.3c0,0-0.2,0-0.3,0.1c-0.1,0-0.2,0.1-0.2,0.3c0,0-1.6,4.1-7,5.3
			c0,0-0.3,0.1-0.8,0.2c-1.4,0.3-4.2,0.7-7.5-0.3c-0.7-0.2-1.4-0.5-2.1-0.8c-0.3-0.1-0.6-0.3-1-0.5c0,0-0.8-0.5-1.7-1.3
			c-0.5-0.4-0.9-0.9-1.3-1.6c-0.1-0.2-0.2-0.3-0.3-0.5c-0.1-0.1-0.3-0.7-0.4-1.1c0-0.1-0.1-0.5-0.4-0.4c-0.1,0-0.3,0.1-0.3,0.1
			s-0.4,0.1-0.2,0.4C33.6,10.7,33.8,11,33.8,11.1"/>
		<path class="st2" d="M36.8,7.4c0,0-0.4,0.1-0.3,0.3c0,0,1.5,3.3,7,4.7c0,0,2,0.5,4.7,0.5c2.7,0,6.3-0.6,9.4-3.1
			c0,0,0.3-0.2-0.1-0.2c-0.2,0-0.4,0-0.7,0.2c0,0-4.7,4.2-13.4,2.1c0,0-3.3-0.9-5.2-3.2c-0.3-0.3-0.5-0.6-0.7-1
			c-0.1-0.1-0.2-0.4-0.2-0.4C37.1,7.3,37,7.3,36.8,7.4"/>
	</g>
	<g id="text">
		<g>
			<polygon class="st1" points="34.4,36.2 36.7,36.2 36.7,36.8 33.4,36.8 33.4,36.2 35.6,34.2 33.4,34.2 33.4,33.6 36.6,33.6 
				36.6,34.1 			"/>
			<path class="st1" d="M37.9,36.3c0.2,0,0.4-0.1,0.6-0.2c0.2-0.1,0.3-0.3,0.3-0.4v0c-0.2,0-0.4,0-0.7,0.1c-0.4,0.1-0.6,0.2-0.6,0.3
				C37.5,36.3,37.6,36.3,37.9,36.3 M37.7,36.9c-0.3,0-0.6-0.1-0.7-0.2c-0.2-0.1-0.3-0.3-0.3-0.5c0-0.2,0.1-0.4,0.3-0.5
				c0.2-0.1,0.5-0.2,0.9-0.3c0.2,0,0.5-0.1,0.9-0.1c0-0.2-0.1-0.3-0.2-0.3c-0.1-0.1-0.3-0.1-0.5-0.1c-0.4,0-0.7,0.1-1,0.3l-0.3-0.4
				c0.4-0.3,0.8-0.4,1.4-0.4c0.5,0,0.9,0.1,1.1,0.3c0.2,0.2,0.3,0.5,0.3,0.9v1.3h-0.6l-0.1-0.5c-0.1,0.2-0.2,0.3-0.5,0.4
				C38.2,36.8,37.9,36.9,37.7,36.9"/>
			<path class="st1" d="M43.5,34.3c0.3,0,0.6,0.1,0.8,0.3c0.2,0.2,0.3,0.5,0.3,0.9v1.3h-0.8v-1.3c0-0.2-0.1-0.4-0.2-0.5
				c-0.1-0.1-0.3-0.2-0.4-0.2c-0.2,0-0.3,0.1-0.4,0.2c-0.1,0.1-0.2,0.3-0.2,0.5v1.3h-0.8v-1.3c0-0.2-0.1-0.4-0.2-0.5
				c-0.1-0.1-0.3-0.2-0.4-0.2c-0.2,0-0.3,0.1-0.4,0.2c-0.1,0.1-0.2,0.3-0.2,0.5v1.3h-0.8v-2.4h0.7l0.1,0.4c0.2-0.3,0.6-0.4,0.9-0.4
				c0.2,0,0.4,0,0.5,0.1c0.2,0.1,0.3,0.2,0.4,0.4C42.7,34.5,43.1,34.3,43.5,34.3"/>
			<path class="st1" d="M46.5,36.3c0.2,0,0.4-0.1,0.5-0.2c0.1-0.1,0.2-0.3,0.2-0.5c0-0.2-0.1-0.4-0.2-0.6c-0.1-0.1-0.3-0.2-0.5-0.2
				c-0.2,0-0.4,0.1-0.5,0.2c-0.1,0.1-0.2,0.3-0.2,0.5c0,0.2,0.1,0.4,0.2,0.5C46.1,36.3,46.3,36.3,46.5,36.3 M46.7,34.3
				c0.4,0,0.7,0.1,0.9,0.3c0.2,0.2,0.4,0.5,0.4,0.9c0,0.4-0.1,0.7-0.4,0.9c-0.2,0.2-0.6,0.3-1,0.3c-0.4,0-0.7-0.1-0.9-0.4l-0.1,0.4
				H45v-3.2h0.8v1.1C46,34.5,46.3,34.3,46.7,34.3"/>
			<path class="st1" d="M48.2,34.4H49v2.4h-0.8V34.4z M48.6,34c-0.1,0-0.2,0-0.3-0.1c-0.1-0.1-0.1-0.2-0.1-0.3c0-0.1,0-0.2,0.1-0.3
				c0.1-0.1,0.2-0.1,0.3-0.1c0.1,0,0.2,0,0.3,0.1c0.1,0.1,0.1,0.2,0.1,0.3c0,0.1,0,0.2-0.1,0.3C48.8,34,48.7,34,48.6,34"/>
			<path class="st1" d="M50.4,36.3c0.2,0,0.4-0.1,0.6-0.2c0.2-0.1,0.3-0.3,0.3-0.4v0c-0.2,0-0.4,0-0.7,0.1c-0.4,0.1-0.6,0.2-0.6,0.3
				C50,36.3,50.1,36.3,50.4,36.3 M50.2,36.9c-0.3,0-0.6-0.1-0.7-0.2c-0.2-0.1-0.3-0.3-0.3-0.5c0-0.2,0.1-0.4,0.3-0.5
				c0.2-0.1,0.5-0.2,0.9-0.3c0.2,0,0.5-0.1,0.9-0.1c0-0.2-0.1-0.3-0.2-0.3c-0.1-0.1-0.3-0.1-0.5-0.1c-0.4,0-0.7,0.1-1,0.3l-0.3-0.4
				c0.4-0.3,0.8-0.4,1.4-0.4c0.5,0,0.9,0.1,1.1,0.3c0.2,0.2,0.3,0.5,0.3,0.9v1.3h-0.6l-0.1-0.5c-0.1,0.2-0.2,0.3-0.5,0.4
				C50.7,36.8,50.5,36.9,50.2,36.9"/>
		</g>
		<g>
			<rect x="53.2" y="33.6" class="st1" width="0.8" height="3.2"/>
			<path class="st1" d="M56.2,34.3c0.3,0,0.6,0.1,0.9,0.3c0.2,0.2,0.3,0.5,0.3,0.9v1.3h-0.8v-1.3c0-0.2-0.1-0.4-0.2-0.5
				c-0.1-0.1-0.3-0.2-0.5-0.2c-0.2,0-0.4,0.1-0.5,0.2c-0.1,0.1-0.2,0.3-0.2,0.5v1.3h-0.8v-2.4h0.7l0.1,0.4
				C55.5,34.5,55.8,34.3,56.2,34.3"/>
			<path class="st1" d="M59.1,36.9c-0.4,0-0.8-0.1-1-0.2c-0.3-0.1-0.4-0.3-0.5-0.6l0.7-0.1c0,0.1,0.1,0.2,0.1,0.2
				c0.1,0.1,0.1,0.1,0.2,0.1c0.1,0,0.1,0,0.2,0.1c0.1,0,0.2,0,0.2,0c0.4,0,0.6-0.1,0.6-0.2c0-0.1-0.1-0.2-0.2-0.2
				c-0.1,0-0.4-0.1-0.7-0.2c-0.1,0-0.2,0-0.3-0.1c-0.1,0-0.2-0.1-0.3-0.1c-0.1,0-0.2-0.1-0.3-0.1c-0.1-0.1-0.1-0.1-0.2-0.2
				c-0.1-0.1-0.1-0.2-0.1-0.3c0-0.2,0.1-0.4,0.4-0.5c0.2-0.1,0.6-0.2,1-0.2c0.8,0,1.3,0.2,1.4,0.7l-0.7,0.1c0-0.1-0.1-0.2-0.2-0.3
				c-0.1,0-0.3-0.1-0.5-0.1c-0.4,0-0.5,0.1-0.5,0.2c0,0,0,0.1,0,0.1c0,0,0,0.1,0.1,0.1c0,0,0.1,0,0.1,0.1c0,0,0.1,0,0.2,0
				c0.1,0,0.1,0,0.2,0c0.1,0,0.1,0,0.3,0c0.4,0.1,0.6,0.1,0.8,0.3c0.2,0.1,0.3,0.3,0.3,0.5C60.5,36.6,60,36.9,59.1,36.9"/>
			<path class="st1" d="M61.9,36.9c-0.3,0-0.5-0.1-0.7-0.2c-0.2-0.1-0.3-0.3-0.3-0.6v-1.2h-0.5v-0.5h0.4c0.1,0,0.2,0,0.2-0.1
				c0-0.1,0.1-0.1,0.1-0.3l0-0.3h0.6v0.6h0.9v0.5h-0.9V36c0,0.2,0.1,0.4,0.4,0.4c0.1,0,0.2,0,0.4,0l0.1,0.5
				C62.5,36.8,62.2,36.9,61.9,36.9"/>
			<path class="st1" d="M62.8,34.4h0.8v2.4h-0.8V34.4z M63.2,34c-0.1,0-0.2,0-0.3-0.1c-0.1-0.1-0.1-0.2-0.1-0.3c0-0.1,0-0.2,0.1-0.3
				c0.1-0.1,0.2-0.1,0.3-0.1c0.1,0,0.2,0,0.3,0.1c0.1,0.1,0.1,0.2,0.1,0.3c0,0.1,0,0.2-0.1,0.3C63.4,34,63.3,34,63.2,34"/>
			<path class="st1" d="M65.2,36.9c-0.3,0-0.5-0.1-0.7-0.2c-0.2-0.1-0.3-0.3-0.3-0.6v-1.2h-0.5v-0.5h0.4c0.1,0,0.2,0,0.2-0.1
				c0-0.1,0.1-0.1,0.1-0.3l0-0.3h0.6v0.6H66v0.5h-0.9V36c0,0.2,0.1,0.4,0.4,0.4c0.1,0,0.2,0,0.4,0l0.1,0.5
				C65.8,36.8,65.6,36.9,65.2,36.9"/>
			<path class="st1" d="M68.2,34.4H69v2.4h-0.7l-0.1-0.4c-0.2,0.3-0.6,0.4-1,0.4c-0.2,0-0.3,0-0.4-0.1c-0.1,0-0.3-0.1-0.4-0.2
				c-0.1-0.1-0.2-0.2-0.3-0.4c-0.1-0.2-0.1-0.3-0.1-0.6v-1.3h0.8v1.3c0,0.2,0.1,0.4,0.2,0.5c0.1,0.1,0.3,0.2,0.5,0.2
				c0.2,0,0.4-0.1,0.5-0.2c0.1-0.1,0.2-0.3,0.2-0.5V34.4z"/>
			<path class="st1" d="M70.6,36.9c-0.3,0-0.5-0.1-0.7-0.2c-0.2-0.1-0.3-0.3-0.3-0.6v-1.2h-0.5v-0.5h0.4c0.1,0,0.2,0,0.2-0.1
				c0-0.1,0.1-0.1,0.1-0.3l0-0.3h0.6v0.6h0.9v0.5h-0.9V36c0,0.2,0.1,0.4,0.4,0.4c0.1,0,0.2,0,0.4,0l0.1,0.5
				C71.2,36.8,71,36.9,70.6,36.9"/>
			<path class="st1" d="M72.8,34.8c-0.4,0-0.6,0.2-0.7,0.5h1.3C73.4,35,73.2,34.8,72.8,34.8 M72.9,34.3c0.5,0,0.8,0.1,1.1,0.4
				c0.3,0.2,0.4,0.6,0.4,1.1h-2.2c0.1,0.4,0.3,0.6,0.7,0.6c0.3,0,0.6-0.1,0.7-0.3l0.8,0.1c-0.1,0.2-0.3,0.4-0.5,0.5
				c-0.2,0.1-0.6,0.2-1,0.2c-0.5,0-0.8-0.1-1.1-0.3c-0.3-0.2-0.4-0.5-0.4-0.9c0-0.4,0.1-0.7,0.4-0.9C72,34.4,72.4,34.3,72.9,34.3"/>
		</g>
		<g>
			<path class="st1" d="M76.1,36.1c0.1,0.1,0.3,0.2,0.5,0.2c0.2,0,0.4-0.1,0.5-0.2c0.1-0.1,0.2-0.3,0.2-0.6c0-0.2-0.1-0.4-0.2-0.5
				c-0.1-0.1-0.3-0.2-0.5-0.2c-0.2,0-0.4,0.1-0.5,0.2c-0.1,0.1-0.2,0.3-0.2,0.5C75.9,35.8,76,36,76.1,36.1 M77.7,36.5
				c-0.3,0.2-0.6,0.3-1.1,0.3c-0.5,0-0.8-0.1-1.1-0.3c-0.3-0.2-0.4-0.5-0.4-0.9c0-0.4,0.1-0.7,0.4-0.9c0.3-0.2,0.6-0.3,1.1-0.3
				c0.5,0,0.8,0.1,1.1,0.3c0.3,0.2,0.4,0.5,0.4,0.9C78.1,36,78,36.3,77.7,36.5"/>
			<path class="st1" d="M79.9,33.8c-0.4,0-0.6,0.2-0.6,0.5v0h1v0.5h-1v1.9h-0.8v-1.9h-0.4v-0.5h0.4v0c0-0.3,0.1-0.6,0.3-0.7
				c0.2-0.2,0.5-0.3,0.9-0.3c0.3,0,0.5,0,0.7,0.1v0.5C80.3,33.9,80.1,33.8,79.9,33.8"/>
		</g>
		<g>
			<path class="st1" d="M83.3,36.9c-0.6,0-1.1-0.2-1.5-0.5c-0.4-0.3-0.6-0.7-0.6-1.2c0-0.5,0.2-0.9,0.6-1.2c0.4-0.3,0.9-0.5,1.5-0.5
				c0.5,0,0.9,0.1,1.2,0.3c0.3,0.2,0.6,0.4,0.7,0.7l-0.8,0.2c-0.1-0.2-0.2-0.3-0.4-0.4c-0.2-0.1-0.4-0.2-0.7-0.2
				c-0.4,0-0.7,0.1-0.9,0.3c-0.2,0.2-0.3,0.4-0.3,0.8c0,0.3,0.1,0.6,0.3,0.8c0.2,0.2,0.5,0.3,0.9,0.3c0.3,0,0.5-0.1,0.7-0.2
				c0.2-0.1,0.3-0.2,0.4-0.4l0.8,0.2c-0.1,0.3-0.4,0.6-0.7,0.7C84.1,36.8,83.7,36.9,83.3,36.9"/>
			<path class="st1" d="M87.2,34.3c0.2,0,0.3,0,0.5,0.1c0.1,0,0.3,0.1,0.4,0.2c0.1,0.1,0.2,0.2,0.3,0.4c0.1,0.2,0.1,0.3,0.1,0.5v1.3
				h-0.8v-1.3c0-0.2-0.1-0.4-0.2-0.5c-0.1-0.1-0.3-0.2-0.5-0.2c-0.2,0-0.4,0.1-0.5,0.2c-0.1,0.1-0.2,0.3-0.2,0.5v1.3h-0.8v-3.2h0.8
				v1.1C86.4,34.4,86.8,34.3,87.2,34.3"/>
			<path class="st1" d="M89.8,36.3c0.2,0,0.4-0.1,0.6-0.2c0.2-0.1,0.3-0.3,0.3-0.4v0c-0.2,0-0.4,0-0.7,0.1c-0.4,0.1-0.6,0.2-0.6,0.3
				C89.4,36.3,89.5,36.3,89.8,36.3 M89.6,36.9c-0.3,0-0.6-0.1-0.7-0.2c-0.2-0.1-0.3-0.3-0.3-0.5c0-0.2,0.1-0.4,0.3-0.5
				c0.2-0.1,0.5-0.2,0.9-0.3c0.2,0,0.5-0.1,0.9-0.1c0-0.2-0.1-0.3-0.2-0.3c-0.1-0.1-0.3-0.1-0.5-0.1c-0.4,0-0.7,0.1-1,0.3l-0.3-0.4
				c0.4-0.3,0.8-0.4,1.4-0.4c0.5,0,0.9,0.1,1.1,0.3c0.2,0.2,0.3,0.5,0.3,0.9v1.3h-0.6l-0.1-0.5c-0.1,0.2-0.2,0.3-0.5,0.4
				C90.1,36.8,89.8,36.9,89.6,36.9"/>
			<path class="st1" d="M93.5,34.4c0.2,0,0.3,0,0.4,0L93.7,35c-0.1-0.1-0.3-0.1-0.5-0.1c-0.2,0-0.4,0.1-0.5,0.2
				c-0.1,0.1-0.2,0.3-0.2,0.5v1.2h-0.8v-2.4h0.7l0.1,0.4C92.8,34.5,93.1,34.4,93.5,34.4"/>
			<path class="st1" d="M95.2,36.9c-0.3,0-0.5-0.1-0.7-0.2c-0.2-0.1-0.3-0.3-0.3-0.6v-1.2h-0.5v-0.5h0.4c0.1,0,0.2,0,0.2-0.1
				c0-0.1,0.1-0.1,0.1-0.3l0-0.3H95v0.6h0.9v0.5H95V36c0,0.2,0.1,0.4,0.4,0.4c0.1,0,0.2,0,0.4,0l0.1,0.5
				C95.8,36.8,95.5,36.9,95.2,36.9"/>
			<path class="st1" d="M97.4,34.8c-0.4,0-0.6,0.2-0.7,0.5H98C98,35,97.8,34.8,97.4,34.8 M97.4,34.3c0.5,0,0.8,0.1,1.1,0.4
				c0.3,0.2,0.4,0.6,0.4,1.1h-2.2c0.1,0.4,0.3,0.6,0.7,0.6c0.3,0,0.6-0.1,0.7-0.3l0.8,0.1c-0.1,0.2-0.3,0.4-0.5,0.5
				c-0.2,0.1-0.6,0.2-1,0.2c-0.5,0-0.8-0.1-1.1-0.3c-0.3-0.2-0.4-0.5-0.4-0.9c0-0.4,0.1-0.7,0.4-0.9C96.5,34.4,96.9,34.3,97.4,34.3"
				/>
			<path class="st1" d="M100.7,34.4c0.2,0,0.3,0,0.4,0L101,35c-0.1-0.1-0.3-0.1-0.5-0.1c-0.2,0-0.4,0.1-0.5,0.2
				c-0.1,0.1-0.2,0.3-0.2,0.5v1.2H99v-2.4h0.7l0.1,0.4C100,34.5,100.3,34.4,100.7,34.4"/>
			<path class="st1" d="M102.4,34.8c-0.4,0-0.6,0.2-0.7,0.5h1.3C103,35,102.8,34.8,102.4,34.8 M102.5,34.3c0.5,0,0.8,0.1,1.1,0.4
				c0.3,0.2,0.4,0.6,0.4,1.1h-2.2c0.1,0.4,0.3,0.6,0.7,0.6c0.3,0,0.6-0.1,0.7-0.3l0.8,0.1c-0.1,0.2-0.3,0.4-0.5,0.5
				c-0.2,0.1-0.6,0.2-1,0.2c-0.5,0-0.8-0.1-1.1-0.3c-0.3-0.2-0.4-0.5-0.4-0.9c0-0.4,0.1-0.7,0.4-0.9C101.6,34.4,102,34.3,102.5,34.3
				"/>
			<path class="st1" d="M105.4,36.3c0.2,0,0.4-0.1,0.5-0.2c0.1-0.1,0.2-0.3,0.2-0.5c0-0.2-0.1-0.4-0.2-0.5c-0.1-0.1-0.3-0.2-0.5-0.2
				c-0.2,0-0.4,0.1-0.5,0.2c-0.1,0.1-0.2,0.3-0.2,0.6c0,0.2,0.1,0.4,0.2,0.5C105.1,36.3,105.2,36.3,105.4,36.3 M106.1,33.6h0.8v3.2
				h-0.6l-0.1-0.3c-0.2,0.3-0.5,0.4-0.9,0.4c-0.4,0-0.7-0.1-1-0.3c-0.2-0.2-0.4-0.5-0.4-0.9c0-0.4,0.1-0.7,0.4-0.9
				c0.2-0.2,0.5-0.3,0.9-0.3c0.4,0,0.7,0.1,0.9,0.4V33.6z"/>
		</g>
		<g>
			<path class="st1" d="M109.1,35.5h1.3l-0.6-1.4L109.1,35.5z M110.9,36.8l-0.3-0.7h-1.8l-0.3,0.7h-0.8l1.6-3.2h0.9l1.6,3.2H110.9z"
				/>
			<path class="st1" d="M113.2,36.9c-0.5,0-0.9-0.1-1.1-0.3c-0.3-0.2-0.4-0.5-0.4-0.9c0-0.4,0.1-0.7,0.4-0.9
				c0.3-0.2,0.7-0.3,1.1-0.3c0.8,0,1.2,0.3,1.4,0.8l-0.7,0.2c0-0.1-0.1-0.2-0.3-0.3c-0.1-0.1-0.3-0.1-0.4-0.1
				c-0.2,0-0.4,0.1-0.5,0.2c-0.1,0.1-0.2,0.3-0.2,0.5c0,0.2,0.1,0.4,0.2,0.5c0.1,0.1,0.3,0.2,0.5,0.2c0.4,0,0.6-0.1,0.7-0.4l0.7,0.2
				C114.4,36.6,113.9,36.9,113.2,36.9"/>
			<path class="st1" d="M116.1,36.9c-0.5,0-0.9-0.1-1.1-0.3c-0.3-0.2-0.4-0.5-0.4-0.9c0-0.4,0.1-0.7,0.4-0.9
				c0.3-0.2,0.7-0.3,1.1-0.3c0.8,0,1.2,0.3,1.4,0.8l-0.7,0.2c0-0.1-0.1-0.2-0.3-0.3c-0.1-0.1-0.3-0.1-0.4-0.1
				c-0.2,0-0.4,0.1-0.5,0.2c-0.1,0.1-0.2,0.3-0.2,0.5c0,0.2,0.1,0.4,0.2,0.5c0.1,0.1,0.3,0.2,0.5,0.2c0.4,0,0.6-0.1,0.7-0.4l0.7,0.2
				C117.4,36.6,116.9,36.9,116.1,36.9"/>
			<path class="st1" d="M118.6,36.1c0.1,0.1,0.3,0.2,0.5,0.2c0.2,0,0.4-0.1,0.5-0.2c0.1-0.1,0.2-0.3,0.2-0.6c0-0.2-0.1-0.4-0.2-0.5
				c-0.1-0.1-0.3-0.2-0.5-0.2c-0.2,0-0.4,0.1-0.5,0.2c-0.1,0.1-0.2,0.3-0.2,0.5C118.4,35.8,118.4,36,118.6,36.1 M120.2,36.5
				c-0.3,0.2-0.6,0.3-1.1,0.3c-0.5,0-0.8-0.1-1.1-0.3c-0.3-0.2-0.4-0.5-0.4-0.9c0-0.4,0.1-0.7,0.4-0.9c0.3-0.2,0.6-0.3,1.1-0.3
				c0.5,0,0.8,0.1,1.1,0.3c0.3,0.2,0.4,0.5,0.4,0.9C120.6,36,120.5,36.3,120.2,36.5"/>
			<path class="st1" d="M122.9,34.4h0.8v2.4H123l-0.1-0.4c-0.2,0.3-0.6,0.4-1,0.4c-0.2,0-0.3,0-0.4-0.1c-0.1,0-0.3-0.1-0.4-0.2
				c-0.1-0.1-0.2-0.2-0.3-0.4c-0.1-0.2-0.1-0.3-0.1-0.6v-1.3h0.8v1.3c0,0.2,0.1,0.4,0.2,0.5c0.1,0.1,0.3,0.2,0.5,0.2
				c0.2,0,0.4-0.1,0.5-0.2c0.1-0.1,0.2-0.3,0.2-0.5V34.4z"/>
			<path class="st1" d="M125.8,34.3c0.3,0,0.6,0.1,0.9,0.3c0.2,0.2,0.3,0.5,0.3,0.9v1.3h-0.8v-1.3c0-0.2-0.1-0.4-0.2-0.5
				c-0.1-0.1-0.3-0.2-0.5-0.2c-0.2,0-0.4,0.1-0.5,0.2c-0.1,0.1-0.2,0.3-0.2,0.5v1.3h-0.8v-2.4h0.7l0.1,0.4
				C125.1,34.5,125.4,34.3,125.8,34.3"/>
			<path class="st1" d="M128.6,36.9c-0.3,0-0.5-0.1-0.7-0.2c-0.2-0.1-0.3-0.3-0.3-0.6v-1.2h-0.5v-0.5h0.4c0.1,0,0.2,0,0.2-0.1
				c0-0.1,0.1-0.1,0.1-0.3l0-0.3h0.6v0.6h0.9v0.5h-0.9V36c0,0.2,0.1,0.4,0.4,0.4c0.1,0,0.2,0,0.4,0l0.1,0.5
				C129.2,36.8,128.9,36.9,128.6,36.9"/>
			<path class="st1" d="M130.5,36.3c0.2,0,0.4-0.1,0.6-0.2c0.2-0.1,0.3-0.3,0.3-0.4v0c-0.2,0-0.4,0-0.7,0.1
				c-0.4,0.1-0.6,0.2-0.6,0.3C130.1,36.3,130.2,36.3,130.5,36.3 M130.3,36.9c-0.3,0-0.6-0.1-0.7-0.2c-0.2-0.1-0.3-0.3-0.3-0.5
				c0-0.2,0.1-0.4,0.3-0.5c0.2-0.1,0.5-0.2,0.9-0.3c0.2,0,0.5-0.1,0.9-0.1c0-0.2-0.1-0.3-0.2-0.3c-0.1-0.1-0.3-0.1-0.5-0.1
				c-0.4,0-0.7,0.1-1,0.3l-0.3-0.4c0.4-0.3,0.8-0.4,1.4-0.4c0.5,0,0.9,0.1,1.1,0.3c0.2,0.2,0.3,0.5,0.3,0.9v1.3h-0.6l-0.1-0.5
				c-0.1,0.2-0.2,0.3-0.5,0.4C130.8,36.8,130.6,36.9,130.3,36.9"/>
			<path class="st1" d="M134.3,34.3c0.3,0,0.6,0.1,0.9,0.3c0.2,0.2,0.3,0.5,0.3,0.9v1.3h-0.8v-1.3c0-0.2-0.1-0.4-0.2-0.5
				c-0.1-0.1-0.3-0.2-0.5-0.2c-0.2,0-0.4,0.1-0.5,0.2c-0.1,0.1-0.2,0.3-0.2,0.5v1.3h-0.8v-2.4h0.7l0.1,0.4
				C133.5,34.5,133.8,34.3,134.3,34.3"/>
			<path class="st1" d="M137,36.9c-0.3,0-0.5-0.1-0.7-0.2c-0.2-0.1-0.3-0.3-0.3-0.6v-1.2h-0.5v-0.5h0.4c0.1,0,0.2,0,0.2-0.1
				c0-0.1,0.1-0.1,0.1-0.3l0-0.3h0.6v0.6h0.9v0.5h-0.9V36c0,0.2,0.1,0.4,0.4,0.4c0.1,0,0.2,0,0.4,0l0.1,0.5
				C137.6,36.8,137.4,36.9,137,36.9"/>
			<path class="st1" d="M139.2,36.9c-0.4,0-0.8-0.1-1-0.2c-0.3-0.1-0.4-0.3-0.5-0.6l0.7-0.1c0,0.1,0.1,0.2,0.1,0.2
				c0.1,0.1,0.1,0.1,0.2,0.1c0.1,0,0.1,0,0.2,0.1c0.1,0,0.2,0,0.2,0c0.4,0,0.6-0.1,0.6-0.2c0-0.1-0.1-0.2-0.2-0.2
				c-0.1,0-0.4-0.1-0.7-0.2c-0.1,0-0.2,0-0.3-0.1c-0.1,0-0.2-0.1-0.3-0.1c-0.1,0-0.2-0.1-0.3-0.1c-0.1-0.1-0.1-0.1-0.2-0.2
				c-0.1-0.1-0.1-0.2-0.1-0.3c0-0.2,0.1-0.4,0.4-0.5c0.2-0.1,0.6-0.2,1-0.2c0.8,0,1.3,0.2,1.4,0.7l-0.7,0.1c0-0.1-0.1-0.2-0.2-0.3
				c-0.1,0-0.3-0.1-0.5-0.1c-0.4,0-0.5,0.1-0.5,0.2c0,0,0,0.1,0,0.1c0,0,0,0.1,0.1,0.1c0,0,0.1,0,0.1,0.1s0.1,0,0.2,0
				c0.1,0,0.1,0,0.2,0c0.1,0,0.1,0,0.3,0c0.4,0.1,0.6,0.1,0.8,0.3c0.2,0.1,0.3,0.3,0.3,0.5C140.6,36.6,140.2,36.9,139.2,36.9"/>
		</g>
	</g>
	<g id="zica">
		<g>
			<g>
				<path class="st3" d="M65.7,27.9c-0.6,0-1-0.1-1.4-0.4c-0.3-0.3-0.5-0.7-0.5-1.1c0-0.5,0.2-0.9,0.5-1.1c0.3-0.3,0.8-0.4,1.4-0.4
					c0.4,0,0.8,0.1,1.1,0.2c0.3,0.2,0.5,0.4,0.6,0.6L67,25.7c-0.1-0.2-0.3-0.4-0.5-0.5c-0.2-0.1-0.5-0.2-0.8-0.2
					c-0.4,0-0.8,0.1-1,0.3c-0.3,0.2-0.4,0.5-0.4,0.9c0,0.4,0.1,0.7,0.4,0.9c0.3,0.2,0.6,0.3,1,0.3c0.3,0,0.6-0.1,0.8-0.2
					c0.2-0.1,0.4-0.3,0.5-0.5l0.4,0.1c-0.1,0.3-0.4,0.5-0.6,0.6C66.5,27.8,66.1,27.9,65.7,27.9"/>
				<path class="st3" d="M69,27.6c0.3,0,0.5-0.1,0.6-0.2c0.2-0.1,0.2-0.4,0.2-0.6c0-0.3-0.1-0.5-0.2-0.6c-0.2-0.1-0.4-0.2-0.6-0.2
					c-0.3,0-0.5,0.1-0.6,0.2c-0.2,0.1-0.2,0.4-0.2,0.6c0,0.3,0.1,0.5,0.2,0.6C68.5,27.5,68.8,27.6,69,27.6 M69.9,27.6
					c-0.2,0.2-0.5,0.3-0.9,0.3c-0.4,0-0.7-0.1-0.9-0.3c-0.2-0.2-0.3-0.5-0.3-0.9c0-0.4,0.1-0.6,0.3-0.8c0.2-0.2,0.5-0.3,0.9-0.3
					c0.4,0,0.7,0.1,0.9,0.3c0.2,0.2,0.3,0.5,0.3,0.8C70.3,27.1,70.2,27.4,69.9,27.6"/>
				<path class="st3" d="M73.9,25.5c0.3,0,0.5,0.1,0.7,0.3c0.2,0.2,0.3,0.4,0.3,0.8v1.2h-0.4v-1.2c0-0.3-0.1-0.4-0.2-0.6
					c-0.1-0.1-0.3-0.2-0.5-0.2c-0.2,0-0.4,0.1-0.5,0.2c-0.1,0.2-0.2,0.3-0.2,0.5v0v1.2h-0.4v-1.2c0-0.3-0.1-0.4-0.2-0.6
					c-0.1-0.1-0.3-0.2-0.5-0.2c-0.2,0-0.4,0.1-0.5,0.2c-0.1,0.2-0.2,0.3-0.2,0.5v1.2h-0.4v-2.2h0.3l0,0.4c0.1-0.1,0.2-0.3,0.4-0.3
					s0.3-0.1,0.5-0.1c0.2,0,0.4,0.1,0.6,0.2c0.2,0.1,0.3,0.3,0.4,0.4c0.1-0.2,0.2-0.3,0.4-0.4C73.5,25.6,73.7,25.5,73.9,25.5"/>
				<path class="st3" d="M76.8,27.6c0.2,0,0.4-0.1,0.6-0.2c0.2-0.1,0.2-0.4,0.2-0.6c0-0.3-0.1-0.5-0.2-0.6c-0.2-0.1-0.3-0.2-0.6-0.2
					c-0.3,0-0.5,0.1-0.6,0.3c-0.1,0.2-0.2,0.4-0.2,0.6c0,0.2,0.1,0.4,0.2,0.6C76.3,27.5,76.5,27.6,76.8,27.6 M76.8,25.5
					c0.3,0,0.6,0.1,0.8,0.3c0.2,0.2,0.3,0.5,0.3,0.9s-0.1,0.6-0.3,0.9c-0.2,0.2-0.5,0.3-0.8,0.3c-0.4,0-0.7-0.2-0.9-0.5v1.3h-0.4
					v-3.1h0.3l0.1,0.5C76.1,25.7,76.4,25.5,76.8,25.5"/>
				<path class="st3" d="M79.6,25.8c-0.2,0-0.4,0.1-0.6,0.2c-0.1,0.1-0.2,0.3-0.3,0.5h1.6C80.3,26.1,80,25.8,79.6,25.8 M79.6,25.5
					c0.4,0,0.7,0.1,0.9,0.3c0.2,0.2,0.3,0.5,0.3,0.9h-2c0,0.3,0.1,0.4,0.2,0.6c0.1,0.1,0.3,0.2,0.6,0.2c0.4,0,0.7-0.1,0.8-0.4
					l0.4,0.1c-0.2,0.4-0.6,0.6-1.2,0.6c-0.4,0-0.7-0.1-0.9-0.3c-0.2-0.2-0.3-0.5-0.3-0.9c0-0.4,0.1-0.7,0.3-0.9
					C78.9,25.6,79.2,25.5,79.6,25.5"/>
				<path class="st3" d="M82.3,27.9c-0.2,0-0.4-0.1-0.5-0.2c-0.1-0.1-0.2-0.3-0.2-0.5v-1.3H81v-0.3h0.4c0.1,0,0.1,0,0.1-0.1
					c0,0,0-0.1,0.1-0.2l0-0.4h0.3v0.6h0.9v0.3h-0.9v1.3c0,0.1,0,0.2,0.1,0.3c0.1,0.1,0.2,0.1,0.4,0.1c0.1,0,0.2,0,0.3-0.1l0,0.3
					C82.7,27.8,82.5,27.9,82.3,27.9"/>
				<path class="st3" d="M84.3,25.8c-0.2,0-0.4,0.1-0.6,0.2c-0.1,0.1-0.2,0.3-0.3,0.5h1.6C85,26.1,84.7,25.8,84.3,25.8 M84.3,25.5
					c0.4,0,0.7,0.1,0.9,0.3c0.2,0.2,0.3,0.5,0.3,0.9h-2c0,0.3,0.1,0.4,0.2,0.6c0.1,0.1,0.3,0.2,0.6,0.2c0.4,0,0.7-0.1,0.8-0.4
					l0.4,0.1c-0.2,0.4-0.6,0.6-1.2,0.6c-0.4,0-0.7-0.1-0.9-0.3c-0.2-0.2-0.3-0.5-0.3-0.9c0-0.4,0.1-0.7,0.3-0.9
					C83.6,25.6,83.9,25.5,84.3,25.5"/>
				<path class="st3" d="M87.3,25.5c0.3,0,0.6,0.1,0.8,0.3c0.2,0.2,0.3,0.4,0.3,0.8v1.2h-0.4v-1.2c0-0.3-0.1-0.4-0.2-0.6
					c-0.2-0.1-0.3-0.2-0.6-0.2c-0.2,0-0.4,0.1-0.6,0.2c-0.2,0.2-0.2,0.3-0.2,0.5v1.2h-0.4v-2.2h0.3l0,0.4
					C86.5,25.7,86.8,25.5,87.3,25.5"/>
				<path class="st3" d="M90.1,27.9c-0.4,0-0.7-0.1-1-0.3c-0.2-0.2-0.3-0.5-0.3-0.9c0-0.4,0.1-0.7,0.3-0.9c0.2-0.2,0.5-0.3,1-0.3
					c0.6,0,1,0.2,1.2,0.7L91,26.3c-0.1-0.2-0.2-0.3-0.3-0.4c-0.1-0.1-0.3-0.1-0.5-0.1c-0.3,0-0.5,0.1-0.6,0.2
					c-0.2,0.1-0.2,0.4-0.2,0.6c0,0.3,0.1,0.5,0.2,0.6c0.2,0.1,0.4,0.2,0.6,0.2c0.2,0,0.4,0,0.5-0.1c0.1-0.1,0.3-0.2,0.3-0.4l0.4,0.1
					c-0.1,0.2-0.2,0.4-0.4,0.5C90.7,27.8,90.4,27.9,90.1,27.9"/>
				<path class="st3" d="M92.8,25.8c-0.2,0-0.4,0.1-0.6,0.2c-0.1,0.1-0.2,0.3-0.3,0.5h1.6C93.6,26.1,93.3,25.8,92.8,25.8 M92.8,25.5
					c0.4,0,0.7,0.1,0.9,0.3c0.2,0.2,0.3,0.5,0.3,0.9h-2c0,0.3,0.1,0.4,0.2,0.6c0.1,0.1,0.3,0.2,0.6,0.2c0.4,0,0.7-0.1,0.8-0.4
					l0.4,0.1c-0.2,0.4-0.6,0.6-1.2,0.6c-0.4,0-0.7-0.1-0.9-0.3c-0.2-0.2-0.3-0.5-0.3-0.9c0-0.4,0.1-0.7,0.3-0.9
					C92.2,25.6,92.5,25.5,92.8,25.5"/>
			</g>
			<path class="st3" d="M94.6,27.3c0.1,0,0.2,0,0.2,0.1c0.1,0.1,0.1,0.1,0.1,0.2c0,0.3-0.2,0.6-0.5,0.7l-0.1-0.2
				c0.2-0.1,0.3-0.2,0.3-0.4c-0.1,0-0.1,0-0.2-0.1c-0.1,0-0.1-0.1-0.1-0.2c0-0.1,0-0.1,0.1-0.2C94.4,27.3,94.5,27.3,94.6,27.3"/>
			<g>
				<rect x="96.3" y="24.8" class="st3" width="0.4" height="3"/>
				<path class="st3" d="M98.7,25.5c0.3,0,0.6,0.1,0.8,0.3c0.2,0.2,0.3,0.4,0.3,0.8v1.2h-0.4v-1.2c0-0.3-0.1-0.4-0.2-0.6
					c-0.2-0.1-0.3-0.2-0.6-0.2c-0.2,0-0.4,0.1-0.6,0.2c-0.2,0.2-0.2,0.3-0.2,0.5v1.2h-0.4v-2.2h0.3l0,0.4
					C98,25.7,98.3,25.5,98.7,25.5"/>
				<path class="st3" d="M101.5,27.9c-0.2,0-0.4-0.1-0.5-0.2c-0.1-0.1-0.2-0.3-0.2-0.5v-1.3h-0.6v-0.3h0.4c0.1,0,0.1,0,0.1-0.1
					c0,0,0-0.1,0.1-0.2l0-0.4h0.3v0.6h0.9v0.3h-0.9v1.3c0,0.1,0,0.2,0.1,0.3c0.1,0.1,0.2,0.1,0.4,0.1c0.1,0,0.2,0,0.3-0.1l0,0.3
					C101.9,27.8,101.7,27.9,101.5,27.9"/>
				<path class="st3" d="M103.5,25.8c-0.2,0-0.4,0.1-0.6,0.2c-0.1,0.1-0.2,0.3-0.3,0.5h1.6C104.2,26.1,104,25.8,103.5,25.8
					 M103.5,25.5c0.4,0,0.7,0.1,0.9,0.3c0.2,0.2,0.3,0.5,0.3,0.9h-2c0,0.3,0.1,0.4,0.2,0.6c0.1,0.1,0.3,0.2,0.6,0.2
					c0.4,0,0.7-0.1,0.8-0.4l0.4,0.1c-0.2,0.4-0.6,0.6-1.2,0.6c-0.4,0-0.7-0.1-0.9-0.3c-0.2-0.2-0.3-0.5-0.3-0.9
					c0-0.4,0.1-0.7,0.3-0.9C102.8,25.6,103.1,25.5,103.5,25.5"/>
				<path class="st3" d="M105.6,26.3c0,0.1,0.1,0.3,0.2,0.3c0.1,0.1,0.3,0.1,0.5,0.1c0.2,0,0.4,0,0.5-0.1c0.1-0.1,0.2-0.2,0.2-0.3
					c0-0.1-0.1-0.2-0.2-0.3c-0.1-0.1-0.3-0.1-0.5-0.1c-0.2,0-0.4,0-0.5,0.1C105.6,26,105.6,26.2,105.6,26.3 M106.3,28.4
					c0.6,0,1-0.1,1-0.4c0-0.3-0.3-0.4-1-0.4c-0.6,0-0.9,0.1-0.9,0.4C105.4,28.3,105.7,28.4,106.3,28.4 M106.3,27.4
					c0.4,0,0.8,0.1,1,0.2c0.2,0.1,0.4,0.3,0.4,0.5c0,0.2-0.1,0.4-0.4,0.5s-0.6,0.2-1,0.2c-0.4,0-0.7-0.1-1-0.2
					c-0.2-0.1-0.3-0.3-0.3-0.5c0-0.1,0.1-0.3,0.2-0.4c0.1-0.1,0.3-0.2,0.5-0.2c-0.2-0.1-0.3-0.2-0.3-0.3c0-0.2,0.1-0.3,0.4-0.3
					c-0.2-0.1-0.3-0.1-0.4-0.3c-0.1-0.1-0.1-0.2-0.1-0.4c0-0.2,0.1-0.4,0.3-0.5c0.2-0.1,0.5-0.2,0.8-0.2c0.3,0,0.5,0,0.6,0.1
					c0.1-0.3,0.4-0.4,0.7-0.5v0.3c-0.3,0-0.4,0.1-0.5,0.2c0.2,0.1,0.3,0.3,0.3,0.6c0,0.2-0.1,0.4-0.3,0.5c-0.2,0.1-0.5,0.2-0.8,0.2
					c-0.2,0-0.4,0-0.5,0c-0.1,0-0.1,0.1-0.1,0.1c0,0,0,0.1,0,0.1c0,0,0.1,0,0.2,0.1C106,27.4,106.1,27.4,106.3,27.4"/>
				<path class="st3" d="M109.3,25.6c0.1,0,0.3,0,0.4,0l-0.1,0.3c-0.1,0-0.2-0.1-0.4-0.1c-0.2,0-0.4,0.1-0.5,0.2
					c-0.1,0.1-0.2,0.3-0.2,0.5v1.2H108v-2.2h0.3l0,0.5C108.6,25.7,108.9,25.6,109.3,25.6"/>
				<path class="st3" d="M110,25.6h0.4v2.2H110V25.6z M110.3,25.1c0,0-0.1,0.1-0.2,0.1c-0.1,0-0.1,0-0.2-0.1c0,0-0.1-0.1-0.1-0.2
					c0-0.1,0-0.1,0.1-0.2c0,0,0.1-0.1,0.2-0.1c0.1,0,0.1,0,0.2,0.1c0,0,0.1,0.1,0.1,0.2C110.4,25,110.4,25,110.3,25.1"/>
				<path class="st3" d="M112.1,27.9c-0.2,0-0.4-0.1-0.5-0.2c-0.1-0.1-0.2-0.3-0.2-0.5v-1.3h-0.6v-0.3h0.4c0.1,0,0.1,0,0.1-0.1
					c0,0,0-0.1,0.1-0.2l0-0.4h0.3v0.6h0.9v0.3h-0.9v1.3c0,0.1,0,0.2,0.1,0.3c0.1,0.1,0.2,0.1,0.4,0.1c0.1,0,0.2,0,0.3-0.1l0,0.3
					C112.5,27.8,112.3,27.9,112.1,27.9"/>
				<path class="st3" d="M112.9,28.7v-0.3c0.2,0,0.4,0,0.6-0.1c0.1-0.1,0.3-0.2,0.4-0.4l-0.1-0.2l-1.1-2.1h0.4l0.9,1.9l0.9-1.9h0.4
					l-1.2,2.4c-0.1,0.3-0.3,0.5-0.5,0.6C113.5,28.7,113.3,28.7,112.9,28.7"/>
			</g>
			<g>
				<path class="st3" d="M117.5,27.6c0.3,0,0.5-0.1,0.7-0.3c0.2-0.2,0.3-0.4,0.3-0.6v0c-0.1,0-0.2,0-0.4,0c-0.2,0-0.4,0-0.5,0.1
					c-0.4,0.1-0.6,0.2-0.6,0.5c0,0.1,0,0.2,0.1,0.3C117.2,27.5,117.4,27.6,117.5,27.6 M117.4,27.9c-0.3,0-0.5-0.1-0.6-0.2
					c-0.2-0.1-0.2-0.3-0.2-0.5c0-0.4,0.3-0.6,1-0.7c0.2,0,0.5-0.1,1-0.1c0-0.4-0.2-0.5-0.7-0.5c-0.2,0-0.3,0-0.5,0.1
					c-0.1,0.1-0.3,0.1-0.4,0.2l-0.2-0.2c0.3-0.3,0.7-0.4,1.1-0.4c0.4,0,0.7,0.1,0.9,0.2c0.2,0.2,0.3,0.4,0.3,0.8v1.3h-0.3l0-0.6
					c-0.1,0.2-0.2,0.3-0.4,0.5C117.9,27.8,117.7,27.9,117.4,27.9"/>
				<path class="st3" d="M120.9,25.5c0.3,0,0.6,0.1,0.8,0.3c0.2,0.2,0.3,0.4,0.3,0.8v1.2h-0.4v-1.2c0-0.3-0.1-0.4-0.2-0.6
					c-0.2-0.1-0.3-0.2-0.6-0.2c-0.2,0-0.4,0.1-0.6,0.2c-0.2,0.2-0.2,0.3-0.2,0.5v1.2h-0.4v-2.2h0.3l0,0.4
					C120.2,25.7,120.5,25.5,120.9,25.5"/>
				<path class="st3" d="M123.7,27.6c0.3,0,0.5-0.1,0.6-0.3c0.1-0.2,0.2-0.4,0.2-0.6c0-0.2-0.1-0.4-0.2-0.6
					c-0.1-0.2-0.4-0.2-0.6-0.2c-0.2,0-0.4,0.1-0.6,0.2c-0.2,0.1-0.2,0.4-0.2,0.6c0,0.3,0.1,0.5,0.2,0.6
					C123.2,27.5,123.4,27.6,123.7,27.6 M124.5,24.8h0.4v3h-0.3l-0.1-0.5c-0.2,0.3-0.5,0.5-0.9,0.5c-0.3,0-0.6-0.1-0.8-0.3
					c-0.2-0.2-0.3-0.5-0.3-0.8c0-0.4,0.1-0.6,0.3-0.9c0.2-0.2,0.5-0.3,0.8-0.3c0.4,0,0.7,0.2,0.9,0.5V24.8z"/>
			</g>
			<g>
				<polygon class="st3" points="127.6,27.8 126.1,24.8 126.6,24.8 127.9,27.4 127.9,27.3 129.1,24.8 129.6,24.8 128.1,27.8 				"/>
				<path class="st3" d="M130,25.6h0.4v2.2H130V25.6z M130.4,25.1c0,0-0.1,0.1-0.2,0.1c-0.1,0-0.1,0-0.2-0.1c0,0-0.1-0.1-0.1-0.2
					c0-0.1,0-0.1,0.1-0.2c0,0,0.1-0.1,0.2-0.1c0.1,0,0.1,0,0.2,0.1c0,0,0.1,0.1,0.1,0.2C130.4,25,130.4,25,130.4,25.1"/>
				<path class="st3" d="M132.3,25.6c0.1,0,0.3,0,0.4,0l-0.1,0.3c-0.1,0-0.2-0.1-0.4-0.1c-0.2,0-0.4,0.1-0.5,0.2
					c-0.1,0.1-0.2,0.3-0.2,0.5v1.2H131v-2.2h0.3l0,0.5C131.6,25.7,131.9,25.6,132.3,25.6"/>
				<path class="st3" d="M134,27.9c-0.2,0-0.4-0.1-0.5-0.2c-0.1-0.1-0.2-0.3-0.2-0.5v-1.3h-0.6v-0.3h0.4c0.1,0,0.1,0,0.1-0.1
					c0,0,0-0.1,0.1-0.2l0-0.4h0.3v0.6h0.9v0.3h-0.9v1.3c0,0.1,0,0.2,0.1,0.3c0.1,0.1,0.2,0.1,0.4,0.1c0.1,0,0.2,0,0.3-0.1l0,0.3
					C134.5,27.8,134.3,27.9,134,27.9"/>
				<path class="st3" d="M136.9,25.6h0.4v2.2H137l0-0.4c-0.2,0.3-0.5,0.5-0.9,0.5c-0.3,0-0.6-0.1-0.8-0.3c-0.2-0.2-0.3-0.4-0.3-0.8
					v-1.2h0.4v1.2c0,0.3,0.1,0.4,0.2,0.6c0.2,0.1,0.3,0.2,0.5,0.2c0.2,0,0.4-0.1,0.6-0.2c0.2-0.1,0.2-0.3,0.2-0.5V25.6z"/>
				<path class="st3" d="M139,25.8c-0.2,0-0.4,0.1-0.6,0.2c-0.1,0.1-0.2,0.3-0.3,0.5h1.6C139.8,26.1,139.5,25.8,139,25.8 M139,25.5
					c0.4,0,0.7,0.1,0.9,0.3c0.2,0.2,0.3,0.5,0.3,0.9h-2c0,0.3,0.1,0.4,0.2,0.6c0.1,0.1,0.3,0.2,0.6,0.2c0.4,0,0.7-0.1,0.8-0.4
					l0.4,0.1c-0.2,0.4-0.6,0.6-1.2,0.6c-0.4,0-0.7-0.1-0.9-0.3s-0.3-0.5-0.3-0.9c0-0.4,0.1-0.7,0.3-0.9
					C138.4,25.6,138.7,25.5,139,25.5"/>
			</g>
		</g>
		<g>
			<polygon class="st1" points="69.6,18.6 83.2,18.6 83.2,22.2 63.7,22.2 63.7,18.8 76.9,6.5 64.1,6.5 64.1,3 82.8,3 82.8,6.4 			
				"/>
			<rect x="85.3" y="8.9" class="st1" width="4.9" height="13.3"/>
			<rect x="85.3" y="3" class="st3" width="4.9" height="4.6"/>
			<path class="st1" d="M104.8,22.6c-3.8,0-6.8-0.9-9-2.7c-2.2-1.8-3.3-4.2-3.3-7.3c0-3.1,1.1-5.6,3.3-7.4c2.2-1.8,5.2-2.7,9-2.7
				c2.9,0,5.3,0.5,7.3,1.6c2,1.1,3.4,2.5,4.2,4.4l-4.9,1.2c-0.6-1.1-1.4-1.9-2.5-2.5c-1.1-0.6-2.5-0.9-4-0.9c-2.2,0-3.9,0.6-5.2,1.7
				c-1.3,1.1-1.9,2.6-1.9,4.6s0.6,3.5,1.9,4.6c1.3,1.1,3,1.7,5.2,1.7c1.6,0,2.9-0.3,4-0.9c1.1-0.6,1.9-1.5,2.5-2.6l4.9,1.3
				c-0.8,1.9-2.2,3.4-4.2,4.5C110,22.1,107.6,22.6,104.8,22.6"/>
			<path class="st1" d="M124.4,14.7h7.6l-3.8-8.3L124.4,14.7z M135.3,22.2l-1.9-4.2h-10.6l-1.9,4.2h-5L125.3,3h5.6l9.4,19.2H135.3z"
				/>
		</g>
	</g>
</g>
</svg>
